<?xml version="1.0" standalone="no"?><!DOCTYPE svg PUBLIC "-//W3C//DTD SVG 1.1//EN" "http://www.w3.org/Graphics/SVG/1.1/DTD/svg11.dtd"><svg t="1761703236275" class="icon" viewBox="0 0 1024 1024" version="1.1" xmlns="http://www.w3.org/2000/svg" p-id="32091" xmlns:xlink="http://www.w3.org/1999/xlink" width="200" height="200"><path d="M853.333333 242.090667a38.4 38.4 0 1 1 0 76.8h-14.933333v505.6a102.4 102.4 0 0 1-102.4 102.4h-448a102.4 102.4 0 0 1-102.4-102.4v-505.6H170.666667a38.4 38.4 0 1 1 0-76.8h682.666666z m-426.666666 187.84a38.4 38.4 0 0 0-38.4 38.4v221.909333a38.4 38.4 0 0 0 76.8 0V468.330667a38.4 38.4 0 0 0-38.4-38.4z m170.666666 0a38.4 38.4 0 0 0-38.4 38.4v221.909333a38.4 38.4 0 1 0 76.8 0V468.330667a38.4 38.4 0 0 0-38.4-38.4z" p-id="32092"></path><path d="M390.08 173.909333a38.4 38.4 0 0 1 0-76.8h243.818667a38.4 38.4 0 1 1 0 76.8H390.08z" p-id="32093"></path></svg>