<?xml version="1.0" standalone="no"?><!DOCTYPE svg PUBLIC "-//W3C//DTD SVG 1.1//EN" "http://www.w3.org/Graphics/SVG/1.1/DTD/svg11.dtd"><svg t="1761703329168" class="icon" viewBox="0 0 1024 1024" version="1.1" xmlns="http://www.w3.org/2000/svg" p-id="32819" xmlns:xlink="http://www.w3.org/1999/xlink" width="200" height="200"><path d="M329.173333 548.906667a18.773333 18.773333 0 0 1 16.341334 9.578666c72.853333 130.090667 260.117333 130.090667 332.970666 0a18.730667 18.730667 0 0 1 16.32-9.6H928V800A96 96 0 0 1 832 896H192a96 96 0 0 1-96-96V548.906667h233.173333z" p-id="32820"></path><path d="M735.957333 128a96 96 0 0 1 91.669334 67.456l86.144 276.650667H694.805333a95.530667 95.530667 0 0 0-83.349333 48.853333c-43.52 77.717333-155.392 77.717333-198.912 0a95.573333 95.573333 0 0 0-83.370667-48.853333H110.229333L196.373333 195.456A96 96 0 0 1 288.042667 128h447.914666z" p-id="32821"></path></svg>