<?xml version="1.0" standalone="no"?><!DOCTYPE svg PUBLIC "-//W3C//DTD SVG 1.1//EN" "http://www.w3.org/Graphics/SVG/1.1/DTD/svg11.dtd"><svg t="1761703368821" class="icon" viewBox="0 0 1024 1024" version="1.1" xmlns="http://www.w3.org/2000/svg" p-id="33111" xmlns:xlink="http://www.w3.org/1999/xlink" width="200" height="200"><path d="M376.576 142.933333a102.4 102.4 0 0 1 76.544 34.346667l47.146667 53.056c4.864 5.461333 11.84 8.597333 19.157333 8.597333H832a102.4 102.4 0 0 1 102.4 102.4v437.333334a102.4 102.4 0 0 1-102.4 102.4H192a102.4 102.4 0 0 1-102.4-102.4v-533.333334A102.4 102.4 0 0 1 192 142.933333h184.576zM512 398.933333a38.4 38.4 0 0 0-38.4 38.4v78.933334h-78.933333a38.4 38.4 0 1 0 0 76.8h78.933333v78.933333a38.4 38.4 0 1 0 76.8 0v-78.933333h78.933333a38.4 38.4 0 1 0 0-76.8h-78.933333v-78.933334a38.4 38.4 0 0 0-38.4-38.4z" p-id="33112"></path></svg>