<?xml version="1.0" standalone="no"?><!DOCTYPE svg PUBLIC "-//W3C//DTD SVG 1.1//EN" "http://www.w3.org/Graphics/SVG/1.1/DTD/svg11.dtd"><svg t="1766646331203" class="icon" viewBox="0 0 1024 1024" version="1.1" xmlns="http://www.w3.org/2000/svg" p-id="5606" xmlns:xlink="http://www.w3.org/1999/xlink" width="200" height="200"><path d="M132.266667 213.333333A102.4 102.4 0 0 1 234.666667 110.933333h554.666666a102.4 102.4 0 0 1 102.4 102.4v597.333334l-0.128 5.269333A102.4 102.4 0 0 1 789.333333 913.066667H234.666667A102.4 102.4 0 0 1 132.266667 810.666667V213.333333z m411.733333 563.2a55.466667 55.466667 0 0 0 55.466667 55.466667h155.733333a55.466667 55.466667 0 0 0 55.466667-55.466667v-81.066666a55.466667 55.466667 0 0 0-55.466667-55.466667h-155.733333a55.466667 55.466667 0 0 0-55.466667 55.466667v81.066666z m0-256a55.466667 55.466667 0 0 0 55.466667 55.466667h155.733333a55.466667 55.466667 0 0 0 55.466667-55.466667v-81.066666a55.466667 55.466667 0 0 0-55.466667-55.466667h-155.733333a55.466667 55.466667 0 0 0-55.466667 55.466667v81.066666zM213.333333 776.533333a55.466667 55.466667 0 0 0 55.466667 55.466667h155.733333a55.466667 55.466667 0 0 0 55.466667-55.466667v-81.066666a55.466667 55.466667 0 0 0-55.466667-55.466667h-155.733333a55.466667 55.466667 0 0 0-55.466667 55.466667v81.066666z m0-256a55.466667 55.466667 0 0 0 55.466667 55.466667h155.733333a55.466667 55.466667 0 0 0 55.466667-55.466667v-81.066666a55.466667 55.466667 0 0 0-55.466667-55.466667h-155.733333a55.466667 55.466667 0 0 0-55.466667 55.466667v81.066666z" p-id="5607"></path></svg>