<?xml version="1.0" standalone="no"?><!DOCTYPE svg PUBLIC "-//W3C//DTD SVG 1.1//EN" "http://www.w3.org/Graphics/SVG/1.1/DTD/svg11.dtd"><svg t="1658223027357" class="icon" viewBox="0 0 1024 1024" version="1.1" xmlns="http://www.w3.org/2000/svg" p-id="6671" xmlns:xlink="http://www.w3.org/1999/xlink" width="200" height="200"><defs><style type="text/css"></style></defs><path d="M483.555556 157.184a56.888889 56.888889 0 0 0-56.888889 56.888889v56.888889a56.888889 56.888889 0 0 0 56.888889 56.888889h56.888888a56.888889 56.888889 0 0 0 56.888889-56.888889v-56.888889a56.888889 56.888889 0 0 0-56.888889-56.888889h-56.888888z m0-56.888889h56.888888a113.777778 113.777778 0 0 1 113.777778 113.777778v56.888889a113.777778 113.777778 0 0 1-113.777778 113.777778h-56.888888a113.777778 113.777778 0 0 1-113.777778-113.777778v-56.888889a113.777778 113.777778 0 0 1 113.777778-113.777778zM199.111111 682.666667a56.888889 56.888889 0 0 0-56.888889 56.888889v56.888888a56.888889 56.888889 0 0 0 56.888889 56.888889h56.888889a56.888889 56.888889 0 0 0 56.888889-56.888889v-56.888888a56.888889 56.888889 0 0 0-56.888889-56.888889h-56.888889z m0-56.888889h56.888889a113.777778 113.777778 0 0 1 113.777778 113.777778v56.888888a113.777778 113.777778 0 0 1-113.777778 113.777778h-56.888889a113.777778 113.777778 0 0 1-113.777778-113.777778v-56.888888a113.777778 113.777778 0 0 1 113.777778-113.777778zM768 682.666667a56.888889 56.888889 0 0 0-56.888889 56.888889v56.888888a56.888889 56.888889 0 0 0 56.888889 56.888889h56.888889a56.888889 56.888889 0 0 0 56.888889-56.888889v-56.888888a56.888889 56.888889 0 0 0-56.888889-56.888889h-56.888889z m0-56.888889h56.888889a113.777778 113.777778 0 0 1 113.777778 113.777778v56.888888a113.777778 113.777778 0 0 1-113.777778 113.777778h-56.888889a113.777778 113.777778 0 0 1-113.777778-113.777778v-56.888888a113.777778 113.777778 0 0 1 113.777778-113.777778z" p-id="6672" fill="#FE7940"></path><path d="M256 663.438222h-56.888889V568.888889A85.333333 85.333333 0 0 1 284.444444 483.555556h455.111112a85.333333 85.333333 0 0 1 85.333333 85.333333v94.549333h-56.888889V568.888889a28.444444 28.444444 0 0 0-28.444444-28.444445H284.444444a28.444444 28.444444 0 0 0-28.444444 28.444445v94.549333z" p-id="6673" fill="#FE7940"></path><path d="M540.444444 512h-56.888888V360.561778h56.888888z" p-id="6674" fill="#FE7940"></path></svg>