<?xml version="1.0" standalone="no"?><!DOCTYPE svg PUBLIC "-//W3C//DTD SVG 1.1//EN" "http://www.w3.org/Graphics/SVG/1.1/DTD/svg11.dtd"><svg t="1658217489227" class="icon" viewBox="0 0 1024 1024" version="1.1" xmlns="http://www.w3.org/2000/svg" p-id="5055" xmlns:xlink="http://www.w3.org/1999/xlink" width="200" height="200"><defs><style type="text/css"></style></defs><path d="M896 42.666667a85.333333 85.333333 0 1 0 0 170.666666 85.333333 85.333333 0 0 0 0-170.666666zM170.666667 384a128 128 0 1 0 120.746666 170.666667H384v341.333333a42.666667 42.666667 0 0 0 42.666667 42.666667h256a42.666667 42.666667 0 1 0 0-85.333334h-213.333334v-298.666666h213.333334a42.666667 42.666667 0 1 0 0-85.333334h-213.333334V170.666667h213.333334a42.666667 42.666667 0 1 0 0-85.333334h-256a42.666667 42.666667 0 0 0-42.666667 42.666667v341.333333H291.413333A128.042667 128.042667 0 0 0 170.666667 384zM896 426.666667a85.333333 85.333333 0 1 0 0 170.666666 85.333333 85.333333 0 0 0 0-170.666666zM896 810.666667a85.333333 85.333333 0 1 0 0 170.666666 85.333333 85.333333 0 0 0 0-170.666666z" p-id="5056" fill="#237FFA"></path></svg>