<?xml version="1.0" standalone="no"?><!DOCTYPE svg PUBLIC "-//W3C//DTD SVG 1.1//EN" "http://www.w3.org/Graphics/SVG/1.1/DTD/svg11.dtd"><svg t="1766645968184" class="icon" viewBox="0 0 1024 1024" version="1.1" xmlns="http://www.w3.org/2000/svg" p-id="5161" xmlns:xlink="http://www.w3.org/1999/xlink" width="200" height="200"><path d="M149.333333 881.066667a38.4 38.4 0 1 1 0-76.8h725.333334a38.4 38.4 0 1 1 0 76.8H149.333333zM288 650.666667a42.666667 42.666667 0 0 1-42.666667 42.666666h-21.333333a42.666667 42.666667 0 0 1-42.666667-42.666666V533.333333a42.666667 42.666667 0 0 1 42.666667-42.666666h21.333333a42.666667 42.666667 0 0 1 42.666667 42.666666v117.333334z" p-id="5162"></path><path d="M219.733333 650.666667c0 2.346667 1.92 4.266667 4.266667 4.266666h21.333333a4.266667 4.266667 0 0 0 4.266667-4.266666V533.333333a4.266667 4.266667 0 0 0-4.266667-4.266666h-21.333333a4.266667 4.266667 0 0 0-4.266667 4.266666v117.333334zM142.933333 533.333333a81.066667 81.066667 0 0 1 81.066667-81.066666h21.333333a81.066667 81.066667 0 0 1 81.066667 81.066666v117.333334a81.066667 81.066667 0 0 1-81.066667 81.066666h-21.333333a81.066667 81.066667 0 0 1-81.066667-81.066666V533.333333zM565.333333 650.666667a42.666667 42.666667 0 0 1-42.666666 42.666666h-42.666667a42.666667 42.666667 0 0 1-42.666667-42.666666v-426.666667a42.666667 42.666667 0 0 1 42.666667-42.666667h42.666667a42.666667 42.666667 0 0 1 42.666666 42.666667v426.666667z" p-id="5163"></path><path d="M475.733333 650.666667c0 2.346667 1.92 4.266667 4.266667 4.266666h42.666667a4.266667 4.266667 0 0 0 4.266666-4.266666v-426.666667a4.266667 4.266667 0 0 0-4.266666-4.266667h-42.666667a4.266667 4.266667 0 0 0-4.266667 4.266667v426.666667z m-76.8-426.666667a81.066667 81.066667 0 0 1 81.066667-81.066667h42.666667a81.066667 81.066667 0 0 1 81.066666 81.066667v426.666667a81.066667 81.066667 0 0 1-81.066666 81.066666h-42.666667a81.066667 81.066667 0 0 1-81.066667-81.066666v-426.666667zM842.666667 650.666667a42.666667 42.666667 0 0 1-42.666667 42.666666h-42.666667a42.666667 42.666667 0 0 1-42.666666-42.666666V426.666667a42.666667 42.666667 0 0 1 42.666666-42.666667h42.666667a42.666667 42.666667 0 0 1 42.666667 42.666667v224z" p-id="5164"></path><path d="M753.066667 650.666667c0 2.346667 1.92 4.266667 4.266666 4.266666h42.666667a4.266667 4.266667 0 0 0 4.266667-4.266666V426.666667a4.266667 4.266667 0 0 0-4.266667-4.266667h-42.666667a4.266667 4.266667 0 0 0-4.266666 4.266667v224zM676.266667 426.666667a81.066667 81.066667 0 0 1 81.066666-81.066667h42.666667a81.066667 81.066667 0 0 1 81.066667 81.066667v224a81.066667 81.066667 0 0 1-81.066667 81.066666h-42.666667a81.066667 81.066667 0 0 1-81.066666-81.066666V426.666667z" p-id="5165"></path></svg>