<?xml version="1.0" standalone="no"?><!DOCTYPE svg PUBLIC "-//W3C//DTD SVG 1.1//EN" "http://www.w3.org/Graphics/SVG/1.1/DTD/svg11.dtd"><svg t="1766646069212" class="icon" viewBox="0 0 1024 1024" version="1.1" xmlns="http://www.w3.org/2000/svg" p-id="5014" xmlns:xlink="http://www.w3.org/1999/xlink" width="200" height="200"><path d="M682.666667 266.666667V128a32 32 0 0 1 64 0v138.666667a32 32 0 0 1-64 0zM746.666667 757.333333V896a32 32 0 0 1-64 0v-138.666667a32 32 0 0 1 64 0zM277.333333 384v-128a32 32 0 0 1 64 0v128a32 32 0 0 1-64 0zM277.333333 768v-128a32 32 0 0 1 64 0v128a32 32 0 0 1-64 0z" p-id="5015"></path><path d="M192 426.666667a42.666667 42.666667 0 0 1 42.666667-42.666667h149.333333a42.666667 42.666667 0 0 1 42.666667 42.666667v170.666666a42.666667 42.666667 0 0 1-42.666667 42.666667h-149.333333a42.666667 42.666667 0 0 1-42.666667-42.666667v-170.666666z" p-id="5016"></path><path d="M388.266667 426.666667a4.266667 4.266667 0 0 0-4.266667-4.266667h-149.333333a4.266667 4.266667 0 0 0-4.266667 4.266667v170.666666c0 2.346667 1.92 4.266667 4.266667 4.266667h149.333333a4.266667 4.266667 0 0 0 4.266667-4.266667v-170.666666z m76.8 170.666666a81.066667 81.066667 0 0 1-81.066667 81.066667h-149.333333A81.066667 81.066667 0 0 1 153.6 597.333333v-170.666666a81.066667 81.066667 0 0 1 81.066667-81.066667h149.333333a81.066667 81.066667 0 0 1 81.066667 81.066667v170.666666zM597.333333 341.333333a42.666667 42.666667 0 0 1 42.666667-42.666666h149.333333a42.666667 42.666667 0 0 1 42.666667 42.666666v341.333334a42.666667 42.666667 0 0 1-42.666667 42.666666h-149.333333a42.666667 42.666667 0 0 1-42.666667-42.666666V341.333333z" p-id="5017"></path><path d="M793.6 341.333333a4.266667 4.266667 0 0 0-4.266667-4.266666h-149.333333a4.266667 4.266667 0 0 0-4.266667 4.266666v341.333334c0 2.346667 1.92 4.266667 4.266667 4.266666h149.333333a4.266667 4.266667 0 0 0 4.266667-4.266666V341.333333z m76.8 341.333334a81.066667 81.066667 0 0 1-81.066667 81.066666h-149.333333a81.066667 81.066667 0 0 1-81.066667-81.066666V341.333333a81.066667 81.066667 0 0 1 81.066667-81.066666h149.333333a81.066667 81.066667 0 0 1 81.066667 81.066666v341.333334z" p-id="5018"></path></svg>