<svg preserveAspectRatio="none" width="100%" height="100%" overflow="visible" style="display: block;" viewBox="0 0 75.1576 77.7675" fill="none" xmlns="http://www.w3.org/2000/svg">
<g id="Group 1565016">
<g id="Rectangle 2399" filter="url(#filter0_di_0_2395)">
<path d="M1.83801 20.4085C1.83801 16.7266 4.82277 13.7419 8.50467 13.7419H61.838C65.5199 13.7419 68.5047 16.7266 68.5047 20.4085V68.3438C68.5047 72.0257 65.5199 75.0105 61.838 75.0105H8.50467C4.82277 75.0105 1.83801 72.0257 1.83801 68.3438V20.4085Z" fill="var(--fill-0, #EDEFF2)" style="fill:#EDEFF2;fill:color(display-p3 0.9294 0.9373 0.9490);fill-opacity:1;"/>
</g>
<path id="Rectangle 2400 (Stroke)" d="M68.2963 20.4085C68.2963 16.8417 65.4048 13.9502 61.838 13.9502H8.50467C4.93783 13.9502 2.04634 16.8417 2.04634 20.4085V68.3439C2.04638 71.9107 4.93786 74.8022 8.50467 74.8022H61.838C65.4048 74.8022 68.2963 71.9107 68.2963 68.3439V20.4085ZM68.713 68.3439C68.713 72.1408 65.6349 75.2189 61.838 75.2189H8.50467C4.70774 75.2189 1.62971 72.1408 1.62967 68.3439V20.4085C1.62967 16.6116 4.70772 13.5335 8.50467 13.5335H61.838C65.635 13.5335 68.713 16.6116 68.713 20.4085V68.3439Z" fill="var(--fill-0, #91959E)" style="fill:#91959E;fill:color(display-p3 0.5686 0.5843 0.6196);fill-opacity:1;"/>
<path id="Ellipse 3 (Stroke)" d="M10.7929 19.9538C10.7929 19.3803 10.3281 18.9155 9.75464 18.9155C9.1812 18.9155 8.71634 19.3803 8.71634 19.9538C8.71634 20.5272 9.1812 20.9921 9.75464 20.9921C10.3281 20.9921 10.7929 20.5272 10.7929 19.9538ZM11.2083 19.9538C11.2083 20.7566 10.5575 21.4074 9.75464 21.4074C8.95183 21.4074 8.30102 20.7566 8.30102 19.9538C8.30102 19.151 8.95183 18.5002 9.75464 18.5002C10.5575 18.5002 11.2083 19.151 11.2083 19.9538Z" fill="var(--fill-0, #60636B)" style="fill:#60636B;fill:color(display-p3 0.3765 0.3882 0.4196);fill-opacity:1;"/>
<path id="Ellipse 4 (Stroke)" d="M15.7929 19.9522C15.7929 19.3787 15.3281 18.9139 14.7546 18.9139C14.1812 18.9139 13.7163 19.3787 13.7163 19.9522C13.7163 20.5256 14.1812 20.9905 14.7546 20.9905C15.3281 20.9905 15.7929 20.5256 15.7929 19.9522ZM16.2083 19.9522C16.2083 20.755 15.5575 21.4058 14.7546 21.4058C13.9518 21.4058 13.301 20.755 13.301 19.9522C13.301 19.1493 13.9518 18.4985 14.7546 18.4985C15.5575 18.4985 16.2083 19.1493 16.2083 19.9522Z" fill="var(--fill-0, #60636B)" style="fill:#60636B;fill:color(display-p3 0.3765 0.3882 0.4196);fill-opacity:1;"/>
<path id="Ellipse 6 (Stroke)" d="M20.7929 19.953C20.7929 19.3795 20.3281 18.9147 19.7546 18.9147C19.1812 18.9147 18.7163 19.3795 18.7163 19.953C18.7163 20.5264 19.1812 20.9913 19.7546 20.9913C20.3281 20.9913 20.7929 20.5264 20.7929 19.953ZM21.2083 19.953C21.2083 20.7558 20.5575 21.4066 19.7546 21.4066C18.9518 21.4066 18.301 20.7558 18.301 19.953C18.301 19.1502 18.9518 18.4993 19.7546 18.4993C20.5575 18.4993 21.2083 19.1502 21.2083 19.953Z" fill="var(--fill-0, #60636B)" style="fill:#60636B;fill:color(display-p3 0.3765 0.3882 0.4196);fill-opacity:1;"/>
<path id="Vector 306 (Stroke)" d="M74.3607 8.38536C72.7114 8.97445 71.8748 9.26408 71.0379 9.55404C70.1994 9.84451 69.3602 10.1357 67.7073 10.7261C67.4892 10.804 67.3723 11.041 67.4465 11.2557C67.5207 11.4702 67.7577 11.5813 67.9758 11.5036C69.6251 10.9145 70.4615 10.6241 71.2984 10.3341C72.1368 10.0436 72.9763 9.75322 74.6291 9.16287C74.8471 9.08499 74.964 8.84787 74.8899 8.63328C74.8157 8.41871 74.5788 8.30762 74.3607 8.38536Z" fill="url(#paint0_linear_0_2395)"/>
<path id="Vector 307 (Stroke)" d="M67.512 0.13122C67.3118 0.0221133 67.0567 0.0963556 66.9425 0.296933L63.3906 6.53918C63.2765 6.73976 63.3463 6.99119 63.5464 7.10032C63.7466 7.20942 64.0017 7.13519 64.1159 6.9346L67.6678 0.692352C67.7819 0.491765 67.7121 0.240338 67.512 0.13122Z" fill="url(#paint1_linear_0_2395)"/>
<path id="Vector 308 (Stroke)" d="M55.0682 0.973544C54.8452 1.03446 54.7102 1.26167 54.767 1.48164L55.9472 6.04976C56.004 6.26984 56.2309 6.39962 56.4541 6.33892C56.6774 6.27816 56.812 6.05015 56.7552 5.83004L55.5758 1.26174C55.5189 1.04162 55.2915 0.912777 55.0682 0.973544Z" fill="url(#paint2_linear_0_2395)"/>
</g>
<defs>
<filter id="filter0_di_0_2395" x="-4.47035e-08" y="12.8229" width="70.3427" height="64.9447" filterUnits="userSpaceOnUse" color-interpolation-filters="sRGB">
<feFlood flood-opacity="0" result="BackgroundImageFix"/>
<feColorMatrix in="SourceAlpha" type="matrix" values="0 0 0 0 0 0 0 0 0 0 0 0 0 0 0 0 0 0 127 0" result="hardAlpha"/>
<feOffset dy="0.919003"/>
<feGaussianBlur stdDeviation="0.919003"/>
<feComposite in2="hardAlpha" operator="out"/>
<feColorMatrix type="matrix" values="0 0 0 0 0.101961 0 0 0 0 0.113725 0 0 0 0 0.14902 0 0 0 0.1 0"/>
<feBlend mode="normal" in2="BackgroundImageFix" result="effect1_dropShadow_0_2395"/>
<feBlend mode="normal" in="SourceGraphic" in2="effect1_dropShadow_0_2395" result="shape"/>
<feColorMatrix in="SourceAlpha" type="matrix" values="0 0 0 0 0 0 0 0 0 0 0 0 0 0 0 0 0 0 127 0" result="hardAlpha"/>
<feOffset dy="0.919003"/>
<feComposite in2="hardAlpha" operator="arithmetic" k2="-1" k3="1"/>
<feColorMatrix type="matrix" values="0 0 0 0 1 0 0 0 0 1 0 0 0 0 1 0 0 0 1 0"/>
<feBlend mode="normal" in2="shape" result="effect2_innerShadow_0_2395"/>
</filter>
<linearGradient id="paint0_linear_0_2395" x1="75.7797" y1="8.47807" x2="65.3765" y2="11.9289" gradientUnits="userSpaceOnUse">
<stop stop-color="#ABADB2" style="stop-color:#ABADB2;stop-color:color(display-p3 0.6706 0.6784 0.6980);stop-opacity:1;"/>
<stop offset="1" stop-color="#ABADB2" stop-opacity="0" style="stop-color:none;stop-opacity:0;"/>
</linearGradient>
<linearGradient id="paint1_linear_0_2395" x1="67.7834" y1="-0.337132" x2="62.4918" y2="9.25623" gradientUnits="userSpaceOnUse">
<stop stop-color="#ABADB2" style="stop-color:#ABADB2;stop-color:color(display-p3 0.6706 0.6784 0.6980);stop-opacity:1;"/>
<stop offset="1" stop-color="#ABADB2" stop-opacity="0" style="stop-color:none;stop-opacity:0;"/>
</linearGradient>
<linearGradient id="paint2_linear_0_2395" x1="54.9642" y1="-0.868557" x2="56.9452" y2="7.35566" gradientUnits="userSpaceOnUse">
<stop stop-color="#ABADB2" style="stop-color:#ABADB2;stop-color:color(display-p3 0.6706 0.6784 0.6980);stop-opacity:1;"/>
<stop offset="1" stop-color="#ABADB2" stop-opacity="0" style="stop-color:none;stop-opacity:0;"/>
</linearGradient>
</defs>
</svg>
