<svg preserveAspectRatio="none" width="100%" height="100%" overflow="visible" style="display: block;" viewBox="0 0 77.0094 79.4237" fill="none" xmlns="http://www.w3.org/2000/svg">
<g id="&#230;&#156;&#170;&#232;&#191;&#158;&#230;&#142;&#165;&#229;&#134;&#133;&#231;&#189;&#145;">
<g id="Group 1565016">
<g id="Rectangle 2399" filter="url(#filter0_di_0_15426)">
<path d="M1.83801 20.4085C1.83801 16.7266 4.82277 13.7419 8.50467 13.7419H61.838C65.5199 13.7419 68.5047 16.7266 68.5047 20.4085V68.3438C68.5047 72.0257 65.5199 75.0105 61.838 75.0105H8.50467C4.82277 75.0105 1.83801 72.0257 1.83801 68.3438V20.4085Z" fill="var(--fill-0, #EDEFF2)" style="fill:#EDEFF2;fill:color(display-p3 0.9294 0.9373 0.9490);fill-opacity:1;"/>
</g>
<path id="Rectangle 2400 (Stroke)" d="M68.2963 20.4085C68.2963 16.8417 65.4048 13.9502 61.838 13.9502H8.50467C4.93783 13.9502 2.04634 16.8417 2.04634 20.4085V68.3439C2.04638 71.9107 4.93786 74.8022 8.50467 74.8022H61.838C65.4048 74.8022 68.2963 71.9107 68.2963 68.3439V20.4085ZM68.713 68.3439C68.713 72.1408 65.6349 75.2189 61.838 75.2189H8.50467C4.70774 75.2189 1.62971 72.1408 1.62967 68.3439V20.4085C1.62967 16.6116 4.70772 13.5335 8.50467 13.5335H61.838C65.635 13.5335 68.713 16.6116 68.713 20.4085V68.3439Z" fill="var(--fill-0, #91959E)" style="fill:#91959E;fill:color(display-p3 0.5686 0.5843 0.6196);fill-opacity:1;"/>
<path id="Ellipse 3 (Stroke)" d="M10.7929 19.9538C10.7929 19.3803 10.3281 18.9155 9.75464 18.9155C9.1812 18.9155 8.71634 19.3803 8.71634 19.9538C8.71634 20.5272 9.1812 20.9921 9.75464 20.9921C10.3281 20.9921 10.7929 20.5272 10.7929 19.9538ZM11.2083 19.9538C11.2083 20.7566 10.5575 21.4074 9.75464 21.4074C8.95183 21.4074 8.30102 20.7566 8.30102 19.9538C8.30102 19.151 8.95183 18.5002 9.75464 18.5002C10.5575 18.5002 11.2083 19.151 11.2083 19.9538Z" fill="var(--fill-0, #60636B)" style="fill:#60636B;fill:color(display-p3 0.3765 0.3882 0.4196);fill-opacity:1;"/>
<path id="Ellipse 4 (Stroke)" d="M15.7929 19.9522C15.7929 19.3787 15.3281 18.9139 14.7546 18.9139C14.1812 18.9139 13.7163 19.3787 13.7163 19.9522C13.7163 20.5256 14.1812 20.9905 14.7546 20.9905C15.3281 20.9905 15.7929 20.5256 15.7929 19.9522ZM16.2083 19.9522C16.2083 20.755 15.5575 21.4058 14.7546 21.4058C13.9518 21.4058 13.301 20.755 13.301 19.9522C13.301 19.1493 13.9518 18.4985 14.7546 18.4985C15.5575 18.4985 16.2083 19.1493 16.2083 19.9522Z" fill="var(--fill-0, #60636B)" style="fill:#60636B;fill:color(display-p3 0.3765 0.3882 0.4196);fill-opacity:1;"/>
<path id="Ellipse 6 (Stroke)" d="M20.7929 19.953C20.7929 19.3795 20.3281 18.9147 19.7546 18.9147C19.1812 18.9147 18.7163 19.3795 18.7163 19.953C18.7163 20.5264 19.1812 20.9913 19.7546 20.9913C20.3281 20.9913 20.7929 20.5264 20.7929 19.953ZM21.2083 19.953C21.2083 20.7558 20.5575 21.4066 19.7546 21.4066C18.9518 21.4066 18.301 20.7558 18.301 19.953C18.301 19.1502 18.9518 18.4993 19.7546 18.4993C20.5575 18.4993 21.2083 19.1502 21.2083 19.953Z" fill="var(--fill-0, #60636B)" style="fill:#60636B;fill:color(display-p3 0.3765 0.3882 0.4196);fill-opacity:1;"/>
<path id="Vector 306 (Stroke)" d="M74.3607 8.38536C72.7114 8.97445 71.8748 9.26408 71.0379 9.55404C70.1994 9.84451 69.3602 10.1357 67.7073 10.7261C67.4892 10.804 67.3723 11.041 67.4465 11.2557C67.5207 11.4702 67.7577 11.5813 67.9758 11.5036C69.6251 10.9145 70.4615 10.6241 71.2984 10.3341C72.1368 10.0436 72.9763 9.75322 74.6291 9.16287C74.8471 9.08499 74.964 8.84787 74.8899 8.63328C74.8157 8.41871 74.5788 8.30762 74.3607 8.38536Z" fill="url(#paint0_linear_0_15426)"/>
<path id="Vector 307 (Stroke)" d="M67.512 0.13122C67.3118 0.0221133 67.0567 0.0963556 66.9425 0.296933L63.3906 6.53918C63.2765 6.73976 63.3463 6.99119 63.5464 7.10032C63.7466 7.20942 64.0017 7.13519 64.1159 6.9346L67.6678 0.692352C67.7819 0.491765 67.7121 0.240338 67.512 0.13122Z" fill="url(#paint1_linear_0_15426)"/>
<path id="Vector 308 (Stroke)" d="M55.0682 0.973544C54.8452 1.03446 54.7102 1.26167 54.767 1.48164L55.9472 6.04976C56.004 6.26984 56.2309 6.39962 56.4541 6.33892C56.6774 6.27816 56.812 6.05015 56.7552 5.83004L55.5758 1.26174C55.5189 1.04162 55.2915 0.912777 55.0682 0.973544Z" fill="url(#paint2_linear_0_15426)"/>
<g id="Ellipse 5" filter="url(#filter1_di_0_15426)">
<path d="M75.1713 61.7635C75.1713 69.9943 68.4556 76.6667 60.1713 76.6667C56.4652 76.6667 53.073 75.3313 50.4555 73.1183C47.2223 70.3847 45.1713 66.3121 45.1713 61.7635C45.1713 53.5327 51.8871 46.8604 60.1713 46.8604C68.4556 46.8604 75.1713 53.5327 75.1713 61.7635Z" fill="var(--fill-0, white)" style="fill:white;fill-opacity:1;"/>
</g>
<path id="Ellipse 7" d="M75.1713 61.7635C75.1713 69.9943 68.4556 76.6667 60.1713 76.6667C56.4652 76.6667 53.073 75.3313 50.4555 73.1183C47.2223 70.3847 45.1713 66.3121 45.1713 61.7635C45.1713 53.5327 51.8871 46.8604 60.1713 46.8604C68.4556 46.8604 75.1713 53.5327 75.1713 61.7635Z" fill="var(--fill-0, white)" style="fill:white;fill-opacity:1;"/>
<path id="Ellipse 7 (Stroke)" d="M74.963 61.7635C74.963 53.6491 68.3418 47.0687 60.1713 47.0687C52.0009 47.0687 45.3797 53.6491 45.3797 61.7635C45.3797 66.2479 47.4018 70.2631 50.5904 72.959C53.1716 75.1412 56.5162 76.4583 60.1713 76.4583C68.3418 76.4583 74.963 69.878 74.963 61.7635ZM75.3797 61.7635C75.3797 70.1106 68.5694 76.875 60.1713 76.875C56.4143 76.875 52.9748 75.5208 50.3211 73.2772C47.0433 70.5059 44.963 66.3762 44.963 61.7635C44.963 53.4164 51.7733 46.652 60.1713 46.652C68.5694 46.652 75.3797 53.4164 75.3797 61.7635Z" fill="var(--fill-0, #91959E)" style="fill:#91959E;fill:color(display-p3 0.5686 0.5843 0.6196);fill-opacity:1;"/>
<path id="Union" d="M60.3194 66.9137C61.2307 66.914 61.9698 67.6639 61.9698 68.5885C61.9698 69.5132 61.2307 70.2631 60.3194 70.2633C59.4079 70.2633 58.668 69.5134 58.668 68.5885C58.6681 67.6638 59.4079 66.9137 60.3194 66.9137ZM60.3194 53.5173C61.2307 53.5175 61.9698 54.2563 61.9698 55.1676V63.5885C61.9697 64.4999 61.2307 65.2387 60.3194 65.2389C59.4079 65.2389 58.6681 64.5 58.668 63.5885V55.1676C58.6681 54.2562 59.4079 53.5173 60.3194 53.5173Z" fill="var(--fill-0, #DBDDE0)" style="fill:#DBDDE0;fill:color(display-p3 0.8588 0.8667 0.8784);fill-opacity:1;"/>
</g>
<path id="Ellipse 14 (Stroke)" d="M48.2963 40.2365C48.2962 33.0366 42.4213 27.1978 35.1713 27.1978C27.9214 27.1978 22.0465 33.0366 22.0463 40.2365C22.0463 47.4364 27.9213 53.276 35.1713 53.276C42.4214 53.276 48.2963 47.4364 48.2963 40.2365ZM48.713 40.2365C48.713 47.6691 42.6489 53.6927 35.1713 53.6927C27.6938 53.6927 21.6297 47.6691 21.6297 40.2365C21.6298 32.804 27.6938 26.7811 35.1713 26.7811C42.6489 26.7811 48.7129 32.804 48.713 40.2365Z" fill="var(--fill-0, #60636B)" style="fill:#60636B;fill:color(display-p3 0.3765 0.3882 0.4196);fill-opacity:1;"/>
<path id="Vector 1385 (Stroke)" d="M34.963 58.451V53.4836C34.963 53.3685 35.0563 53.2752 35.1713 53.2752C35.2864 53.2752 35.3797 53.3685 35.3797 53.4836V58.451C35.3797 58.5661 35.2864 58.6593 35.1713 58.6593C35.0563 58.6593 34.963 58.5661 34.963 58.451Z" fill="var(--fill-0, #60636B)" style="fill:#60636B;fill:color(display-p3 0.3765 0.3882 0.4196);fill-opacity:1;"/>
<path id="Ellipse 15 (Stroke)" d="M44.326 30.8909C43.9881 30.5552 43.4197 30.4259 42.6172 30.5456C41.8197 30.6646 40.8351 31.0238 39.7261 31.601C37.5101 32.7543 34.8399 34.7544 32.2471 37.3305C29.6544 39.9064 27.6417 42.5591 26.4809 44.7606C25.9 45.8625 25.5385 46.8408 25.4187 47.6331C25.2982 48.4305 25.4278 48.9958 25.7657 49.3315C26.1036 49.667 26.6722 49.7954 27.4745 49.6756C28.2719 49.5566 29.2566 49.1974 30.3656 48.6203C32.5815 47.467 35.2514 45.4673 37.844 42.8913C40.4368 40.3153 42.45 37.6623 43.6107 35.4606C44.1917 34.3587 44.5532 33.3805 44.673 32.5882C44.7934 31.7911 44.6637 31.2267 44.326 30.8909ZM44.6216 30.5973C45.0971 31.0699 45.215 31.7992 45.0863 32.6501C44.9569 33.5062 44.5728 34.5311 43.9808 35.6539C42.7955 37.902 40.7536 40.5879 38.1396 43.185C35.5255 45.7822 32.8223 47.8109 30.5596 48.9885C29.4294 49.5767 28.3979 49.9583 27.5363 50.0869C26.6799 50.2147 25.9458 50.0975 25.4701 49.6252C24.9944 49.1526 24.8761 48.4228 25.0048 47.5718C25.1342 46.7157 25.5183 45.6908 26.1103 44.5679C27.2955 42.3199 29.3374 39.6341 31.9515 37.0368C34.5655 34.4397 37.2689 32.411 39.5315 31.2334C40.6616 30.6452 41.6932 30.2636 42.5548 30.135C43.4115 30.0071 44.1459 30.1246 44.6216 30.5973Z" fill="var(--fill-0, #60636B)" style="fill:#60636B;fill:color(display-p3 0.3765 0.3882 0.4196);fill-opacity:1;"/>
<path id="Ellipse 16 (Stroke)" d="M25.9081 31.0331C26.2461 30.6971 26.814 30.5674 27.6146 30.6855C28.4103 30.8029 29.3927 31.1597 30.4988 31.734C32.7087 32.8813 35.3704 34.873 37.9541 37.4399C40.5378 40.007 42.5429 42.652 43.6977 44.8477C44.2756 45.9466 44.6349 46.9227 44.753 47.7133C44.8718 48.5086 44.7412 49.0729 44.4032 49.4088C44.0651 49.7445 43.4975 49.8738 42.6972 49.7558C41.9015 49.6384 40.919 49.2815 39.813 48.7073C37.6031 47.56 34.9409 45.5678 32.3571 43.0008C29.7735 40.4338 27.7689 37.7892 26.6141 35.5936C26.0361 34.4946 25.677 33.5186 25.5588 32.728C25.44 31.9328 25.5702 31.369 25.9081 31.0331ZM25.6125 30.7394C25.1372 31.2118 25.0179 31.9399 25.1449 32.7894C25.2726 33.6439 25.655 34.6657 26.244 35.7857C27.4234 38.028 29.4564 40.7061 32.0615 43.2945C34.6668 45.8829 37.3627 47.9032 39.6196 49.075C40.7468 49.6602 41.7755 50.0402 42.6355 50.1671C43.4904 50.2932 44.2233 50.1746 44.6988 49.7025C45.1742 49.2301 45.2939 48.5015 45.1669 47.6519C45.0392 46.7975 44.6568 45.7755 44.0678 44.6556C42.8884 42.4132 40.8549 39.7347 38.2497 37.1463C35.6445 34.558 32.949 32.538 30.6922 31.3663C29.5649 30.7811 28.5364 30.4011 27.6763 30.2742C26.8212 30.148 26.0879 30.267 25.6125 30.7394Z" fill="var(--fill-0, #60636B)" style="fill:#60636B;fill:color(display-p3 0.3765 0.3882 0.4196);fill-opacity:1;"/>
<path id="Vector 1386 (Stroke)" d="M32.6713 60.7272C32.7864 60.7272 32.8797 60.8205 32.8797 60.9355C32.8797 61.0506 32.7864 61.1439 32.6713 61.1439H13.9213C13.8063 61.1439 13.713 61.0506 13.713 60.9355C13.713 60.8205 13.8063 60.7272 13.9213 60.7272H32.6713ZM44.7547 60.7272C44.8697 60.7272 44.963 60.8205 44.963 60.9355C44.963 61.0506 44.8697 61.1439 44.7547 61.1439H37.6713C37.5563 61.1439 37.463 61.0506 37.463 60.9355C37.463 60.8205 37.5563 60.7272 37.6713 60.7272H44.7547Z" fill="var(--fill-0, #60636B)" style="fill:#60636B;fill:color(display-p3 0.3765 0.3882 0.4196);fill-opacity:1;"/>
<path id="Ellipse 17 (Stroke)" d="M37.463 60.9347C37.4629 59.6793 36.4382 58.6593 35.1713 58.6593C33.9045 58.6593 32.8797 59.6793 32.8797 60.9347C32.8797 62.1902 33.9044 63.2101 35.1713 63.2101C36.4383 63.2101 37.463 62.1902 37.463 60.9347ZM37.8797 60.9347C37.8797 62.4229 36.6658 63.6268 35.1713 63.6268C33.6768 63.6268 32.463 62.4229 32.463 60.9347C32.4631 59.4467 33.6769 58.2427 35.1713 58.2427C36.6658 58.2427 37.8796 59.4467 37.8797 60.9347Z" fill="var(--fill-0, #60636B)" style="fill:#60636B;fill:color(display-p3 0.3765 0.3882 0.4196);fill-opacity:1;"/>
</g>
<defs>
<filter id="filter0_di_0_15426" x="-4.47035e-08" y="12.8229" width="70.3427" height="64.9447" filterUnits="userSpaceOnUse" color-interpolation-filters="sRGB">
<feFlood flood-opacity="0" result="BackgroundImageFix"/>
<feColorMatrix in="SourceAlpha" type="matrix" values="0 0 0 0 0 0 0 0 0 0 0 0 0 0 0 0 0 0 127 0" result="hardAlpha"/>
<feOffset dy="0.919003"/>
<feGaussianBlur stdDeviation="0.919003"/>
<feComposite in2="hardAlpha" operator="out"/>
<feColorMatrix type="matrix" values="0 0 0 0 0.101961 0 0 0 0 0.113725 0 0 0 0 0.14902 0 0 0 0.1 0"/>
<feBlend mode="normal" in2="BackgroundImageFix" result="effect1_dropShadow_0_15426"/>
<feBlend mode="normal" in="SourceGraphic" in2="effect1_dropShadow_0_15426" result="shape"/>
<feColorMatrix in="SourceAlpha" type="matrix" values="0 0 0 0 0 0 0 0 0 0 0 0 0 0 0 0 0 0 127 0" result="hardAlpha"/>
<feOffset dy="0.919003"/>
<feComposite in2="hardAlpha" operator="arithmetic" k2="-1" k3="1"/>
<feColorMatrix type="matrix" values="0 0 0 0 1 0 0 0 0 1 0 0 0 0 1 0 0 0 1 0"/>
<feBlend mode="normal" in2="shape" result="effect2_innerShadow_0_15426"/>
</filter>
<filter id="filter1_di_0_15426" x="43.3333" y="45.9413" width="33.676" height="33.4824" filterUnits="userSpaceOnUse" color-interpolation-filters="sRGB">
<feFlood flood-opacity="0" result="BackgroundImageFix"/>
<feColorMatrix in="SourceAlpha" type="matrix" values="0 0 0 0 0 0 0 0 0 0 0 0 0 0 0 0 0 0 127 0" result="hardAlpha"/>
<feOffset dy="0.919003"/>
<feGaussianBlur stdDeviation="0.919003"/>
<feComposite in2="hardAlpha" operator="out"/>
<feColorMatrix type="matrix" values="0 0 0 0 0.101961 0 0 0 0 0.113725 0 0 0 0 0.14902 0 0 0 0.1 0"/>
<feBlend mode="normal" in2="BackgroundImageFix" result="effect1_dropShadow_0_15426"/>
<feBlend mode="normal" in="SourceGraphic" in2="effect1_dropShadow_0_15426" result="shape"/>
<feColorMatrix in="SourceAlpha" type="matrix" values="0 0 0 0 0 0 0 0 0 0 0 0 0 0 0 0 0 0 127 0" result="hardAlpha"/>
<feOffset dy="0.919003"/>
<feComposite in2="hardAlpha" operator="arithmetic" k2="-1" k3="1"/>
<feColorMatrix type="matrix" values="0 0 0 0 1 0 0 0 0 1 0 0 0 0 1 0 0 0 1 0"/>
<feBlend mode="normal" in2="shape" result="effect2_innerShadow_0_15426"/>
</filter>
<linearGradient id="paint0_linear_0_15426" x1="75.7797" y1="8.47807" x2="65.3765" y2="11.9289" gradientUnits="userSpaceOnUse">
<stop stop-color="#ABADB2" style="stop-color:#ABADB2;stop-color:color(display-p3 0.6706 0.6784 0.6980);stop-opacity:1;"/>
<stop offset="1" stop-color="#ABADB2" stop-opacity="0" style="stop-color:none;stop-opacity:0;"/>
</linearGradient>
<linearGradient id="paint1_linear_0_15426" x1="67.7834" y1="-0.337132" x2="62.4918" y2="9.25623" gradientUnits="userSpaceOnUse">
<stop stop-color="#ABADB2" style="stop-color:#ABADB2;stop-color:color(display-p3 0.6706 0.6784 0.6980);stop-opacity:1;"/>
<stop offset="1" stop-color="#ABADB2" stop-opacity="0" style="stop-color:none;stop-opacity:0;"/>
</linearGradient>
<linearGradient id="paint2_linear_0_15426" x1="54.9642" y1="-0.868557" x2="56.9452" y2="7.35566" gradientUnits="userSpaceOnUse">
<stop stop-color="#ABADB2" style="stop-color:#ABADB2;stop-color:color(display-p3 0.6706 0.6784 0.6980);stop-opacity:1;"/>
<stop offset="1" stop-color="#ABADB2" stop-opacity="0" style="stop-color:none;stop-opacity:0;"/>
</linearGradient>
</defs>
</svg>
