<svg width="38" height="38" viewBox="0 0 38 38" fill="none" xmlns="http://www.w3.org/2000/svg">
<path d="M24.5417 8.70833C25.1716 8.70833 25.7756 8.95856 26.221 9.40396C26.6664 9.84935 26.9167 10.4534 26.9167 11.0833V33.25C26.9167 33.8799 26.6664 34.484 26.221 34.9294C25.7756 35.3748 25.1716 35.625 24.5417 35.625H7.125C6.81311 35.625 6.50427 35.5636 6.21613 35.4442C5.92798 35.3249 5.66616 35.1499 5.44562 34.9294C5.22508 34.7088 5.05014 34.447 4.93079 34.1589C4.81143 33.8707 4.75 33.5619 4.75 33.25V11.0833C4.75 10.4534 5.00022 9.84935 5.44562 9.40396C5.89102 8.95856 6.49511 8.70833 7.125 8.70833H24.5417ZM23.75 11.875H7.91667V32.4583H23.75V11.875ZM30.8687 2.375C31.4593 2.37464 32.0289 2.59439 32.4663 2.99136C32.9037 3.38834 33.1775 3.93406 33.2342 4.522L33.2437 4.75V26.1139C33.2432 26.5175 33.0887 26.9056 32.8117 27.1991C32.5346 27.4925 32.156 27.6691 31.7531 27.6928C31.3503 27.7164 30.9536 27.5853 30.6441 27.3263C30.3346 27.0673 30.1357 26.6999 30.0881 26.2992L30.077 26.1139V5.54167H14.25C13.8622 5.54162 13.4879 5.39924 13.1981 5.14153C12.9083 4.88383 12.7231 4.52873 12.6777 4.14358L12.6667 3.95833C12.6667 3.57052 12.8091 3.19622 13.0668 2.90641C13.3245 2.61661 13.6796 2.43146 14.0647 2.38608L14.25 2.375H30.8687Z" fill="#AEB0BC"/>
</svg>
