<?xml version="1.0" encoding="UTF-8"?>
<svg width="244px" height="208px" viewBox="0 0 244 208" version="1.1" xmlns="http://www.w3.org/2000/svg" xmlns:xlink="http://www.w3.org/1999/xlink">
    <!-- Generator: Sketch 55 (78076) - https://sketchapp.com -->
    <title>404页面</title>
    <desc>Created with Sketch.</desc>
    <g id="Page-1" stroke="none" stroke-width="1" fill="none" fill-rule="evenodd">
        <g id="亮背景时使用" transform="translate(-544.000000, -256.000000)">
            <g id="404页面" transform="translate(544.000000, 256.000000)">
                <g id="背景/彩">
                    <g id="-">
                        <g id="编组" transform="translate(28.400000, 18.400000)">
                            <polyline id="路径" stroke="#DEF5FF" stroke-width="40" stroke-linecap="round" stroke-linejoin="round" points="121.6 27.4476562 49.6 71.0238281 121.6 66.6 129.6 66.6 72.167827 114.6"></polyline>
                            <path d="M1.6,146.2 C0.7163444,146.2 -5.68434189e-14,145.483656 -5.68434189e-14,144.6 C-5.68434189e-14,143.716344 0.7163444,143 1.6,143 L141.6,143 C142.483656,143 143.2,143.716344 143.2,144.6 C143.2,145.483656 142.483656,146.2 141.6,146.2 L1.6,146.2 Z M149.6,146.2 C148.716344,146.2 148,145.483656 148,144.6 C148,143.716344 148.716344,143 149.6,143 L154.6,143 C155.483656,143 156.2,143.716344 156.2,144.6 C156.2,145.483656 155.483656,146.2 154.6,146.2 L149.6,146.2 Z M167.6,146.2 C166.716344,146.2 166,145.483656 166,144.6 C166,143.716344 166.716344,143 167.6,143 L185.6,143 C186.483656,143 187.2,143.716344 187.2,144.6 C187.2,145.483656 186.483656,146.2 185.6,146.2 L167.6,146.2 Z M47.6,161.2 C46.7163444,161.2 46,160.483656 46,159.6 C46,158.716344 46.7163444,158 47.6,158 L61.6,158 C62.4836556,158 63.2,158.716344 63.2,159.6 C63.2,160.483656 62.4836556,161.2 61.6,161.2 L47.6,161.2 Z M70.6,161.2 C69.7163444,161.2 69,160.483656 69,159.6 C69,158.716344 69.7163444,158 70.6,158 L131.6,158 C132.483656,158 133.2,158.716344 133.2,159.6 C133.2,160.483656 132.483656,161.2 131.6,161.2 L70.6,161.2 Z M160,105.6 C160,103.466667 163.2,103.466667 163.2,105.6 L163.2,111.6 C163.2,112.483656 162.483656,113.2 161.6,113.2 L155.6,113.2 C153.466667,113.2 153.466667,110 155.6,110 L160,110 L160,105.6 Z M163.2,117.6 C163.2,119.733333 160,119.733333 160,117.6 L160,111.6 C160,110.716344 160.716344,110 161.6,110 L167.6,110 C169.733333,110 169.733333,113.2 167.6,113.2 L163.2,113.2 L163.2,117.6 Z M8,57.6 C8,55.4666667 11.2,55.4666667 11.2,57.6 L11.2,63.6 C11.2,64.4836556 10.4836556,65.2 9.6,65.2 L3.6,65.2 C1.46666667,65.2 1.46666667,62 3.6,62 L8,62 L8,57.6 Z M156.2,7 L161.6,7 C163.733333,7 163.733333,10.2 161.6,10.2 L156.2,10.2 L156.2,15.6 C156.2,17.7333333 153,17.7333333 153,15.6 L153,10.2 L147.6,10.2 C145.466667,10.2 145.466667,7 147.6,7 L153,7 L153,1.6 C153,-0.533333333 156.2,-0.533333333 156.2,1.6 L156.2,7 Z M11.2,69.6 C11.2,71.7333333 8,71.7333333 8,69.6 L8,63.6 C8,62.7163444 8.7163444,62 9.6,62 L15.6,62 C17.7333333,62 17.7333333,65.2 15.6,65.2 L11.2,65.2 L11.2,69.6 Z" id="Path-2" fill="#333745" fill-rule="nonzero"></path>
                            <path d="M28.1857864,122.286292 C29.1285955,121.343482 30.542809,122.757696 29.6,123.700505 L27.4786797,125.821825 C27.0881554,126.21235 26.4549904,126.21235 26.0644661,125.821825 L23.9431458,123.700505 C23.0003367,122.757696 24.4145503,121.343482 25.3573593,122.286292 L26.7715729,123.700505 L28.1857864,122.286292 Z M25.3573593,127.943146 C24.4145503,128.885955 23.0003367,127.471741 23.9431458,126.528932 L26.0644661,124.407612 C26.4549904,124.017088 27.0881554,124.017088 27.4786797,124.407612 L29.6,126.528932 C30.542809,127.471741 29.1285955,128.885955 28.1857864,127.943146 L26.7715729,126.528932 L25.3573593,127.943146 Z M45.8426407,17.6 C46.7854497,16.657191 48.1996633,18.0714045 47.2568542,19.0142136 L45.1355339,21.1355339 C44.7450096,21.5260582 44.1118446,21.5260582 43.7213203,21.1355339 L41.6,19.0142136 C40.657191,18.0714045 42.0714045,16.657191 43.0142136,17.6 L44.4284271,19.0142136 L45.8426407,17.6 Z M43.0142136,23.2568542 C42.0714045,24.1996633 40.657191,22.7854497 41.6,21.8426407 L43.7213203,19.7213203 C44.1118446,19.3307961 44.7450096,19.3307961 45.1355339,19.7213203 L47.2568542,21.8426407 C48.1996633,22.7854497 46.7854497,24.1996633 45.8426407,23.2568542 L44.4284271,21.8426407 L43.0142136,23.2568542 Z" id="Path复制" fill="#657180" fill-rule="nonzero"></path>
                        </g>
                    </g>
                </g>
                <g id="编组" transform="translate(64.076172, 24.703125)">
                    <g id="分组" transform="translate(66.000000, 69.000000) rotate(-338.000000) translate(-66.000000, -69.000000) translate(18.000000, 16.000000)">
                        <path d="M64.6055381,38 L76,38 L76,44 C76,46.209139 74.209139,48 72,48 L34,48 C31.790861,48 30,46.209139 30,44 L30,38 L39.3944619,38 C30.4648206,36.8710183 26,32.8710183 26,26 C26,11.6405965 37.6405965,0 52,0 C66.3594035,0 78,11.6405965 78,26 C78,32.8710183 73.5351794,36.8710183 64.6055381,38 L52,38 C47.1077458,38.4439539 42.9058997,38.4439539 39.3944619,38 Z" id="Oval-4" stroke="#333745" stroke-width="3.2" fill="#A5B6FF"></path>
                        <rect id="矩形" stroke="#333745" stroke-width="3.2" fill="#F0F3FF" x="13.6" y="29.6" width="76.8" height="12.8"></rect>
                        <path d="M29,39 C27.3431458,39 26,37.6568542 26,36 C26,34.3431458 27.3431458,33 29,33 C30.6568542,33 32,34.3431458 32,36 C32,37.6568542 30.6568542,39 29,39 Z M43,39 C41.3431458,39 40,37.6568542 40,36 C40,34.3431458 41.3431458,33 43,33 C44.6568542,33 46,34.3431458 46,36 C46,37.6568542 44.6568542,39 43,39 Z M61,39 C59.3431458,39 58,37.6568542 58,36 C58,34.3431458 59.3431458,33 61,33 C62.6568542,33 64,34.3431458 64,36 C64,37.6568542 62.6568542,39 61,39 Z M75,39 C73.3431458,39 72,37.6568542 72,36 C72,34.3431458 73.3431458,33 75,33 C76.6568542,33 78,34.3431458 78,36 C78,37.6568542 76.6568542,39 75,39 Z" id="Oval-3-Copy-3" fill="#333745"></path>
                        <path d="M14.9026465,49.1327046 C14.9026465,48.5804199 15.3503617,48.1327046 15.9026465,48.1327046 C16.4549312,48.1327046 16.9026465,48.5804199 16.9026465,49.1327046 L16.9026465,75.107314 C16.9026465,75.6595988 16.4549312,76.107314 15.9026465,76.107314 C15.3503617,76.107314 14.9026465,75.6595988 14.9026465,75.107314 L14.9026465,49.1327046 Z M14.9026465,81.8358296 C14.9026465,81.2835449 15.3503617,80.8358296 15.9026465,80.8358296 C16.4549312,80.8358296 16.9026465,81.2835449 16.9026465,81.8358296 L16.9026465,86.6815328 C16.9026465,87.2338175 16.4549312,87.6815328 15.9026465,87.6815328 C15.3503617,87.6815328 14.9026465,87.2338175 14.9026465,86.6815328 L14.9026465,81.8358296 Z M14.9026465,92.0975484 C14.9026465,91.5452636 15.3503617,91.0975484 15.9026465,91.0975484 C16.4549312,91.0975484 16.9026465,91.5452636 16.9026465,92.0975484 L16.9026465,106.759658 C16.9026465,107.311943 16.4549312,107.759658 15.9026465,107.759658 C15.3503617,107.759658 14.9026465,107.311943 14.9026465,106.759658 L14.9026465,92.0975484 Z" id="形状" fill="#333745" fill-rule="nonzero" transform="translate(15.902646, 77.946181) rotate(30.000000) translate(-15.902646, -77.946181) "></path>
                        <path d="M83.3778795,50.6130615 C83.3778795,50.0607768 83.8255947,49.6130615 84.3778795,49.6130615 C84.9301642,49.6130615 85.3778795,50.0607768 85.3778795,50.6130615 L83.9540357,80.8270894 C83.9540357,81.3793741 83.5063205,81.8270894 82.9540357,81.8270894 C82.401751,81.8270894 81.9540357,81.3793741 81.9540357,80.8270894 L83.3778795,50.6130615 Z" id="形状-copy" fill="#333745" fill-rule="nonzero" transform="translate(83.665958, 65.720075) scale(-1, 1) rotate(30.000000) translate(-83.665958, -65.720075) "></path>
                        <path d="M17.201978,52.3390917 C17.201978,51.786807 17.6496933,51.3390917 18.201978,51.3390917 C18.7542628,51.3390917 19.201978,51.786807 19.201978,52.3390917 L19.916939,64.3603667 C19.916939,64.9126514 19.4692237,65.3603667 18.916939,65.3603667 C18.3646542,65.3603667 17.916939,64.9126514 17.916939,64.3603667 L17.201978,52.3390917 Z" id="路径-copy" fill="#333745" fill-rule="nonzero" transform="translate(18.559458, 58.349729) rotate(48.000000) translate(-18.559458, -58.349729) "></path>
                        <path d="M88.1614356,54.0108034 C88.1614356,53.4585187 88.6091508,53.0108034 89.1614356,53.0108034 C89.7137203,53.0108034 90.1614356,53.4585187 90.1614356,54.0108034 L90.1614356,68.6729128 C90.1614356,69.2251976 89.7137203,69.6729128 89.1614356,69.6729128 C88.6091508,69.6729128 88.1614356,69.2251976 88.1614356,68.6729128 L88.1614356,54.0108034 Z" id="路径" fill="#333745" fill-rule="nonzero" transform="translate(89.161436, 61.341858) rotate(-44.000000) translate(-89.161436, -61.341858) "></path>
                    </g>
                    <path d="M36.7929688,107.124023 L25.9238281,107.124023 L25.9238281,102.216797 L36.7929688,89.296875 L41.9931641,89.296875 L41.9931641,102.495117 L44.6884766,102.495117 L44.6884766,107.124023 L41.9931641,107.124023 L41.9931641,111.137695 L36.7929688,111.137695 L36.7929688,107.124023 Z M36.7929688,102.495117 L36.7929688,95.7421875 L31.0507812,102.495117 L36.7929688,102.495117 Z" id="404" fill="#333745" fill-rule="nonzero" transform="translate(35.306152, 100.217285) rotate(-23.000000) translate(-35.306152, -100.217285) "></path>
                    <path d="M53.9238281,92.3125 C53.9238281,88.2304483 54.6586841,85.3740316 56.128418,83.7431641 C57.5981519,82.1122965 59.836899,81.296875 62.8447266,81.296875 C64.2900463,81.296875 65.4765579,81.4750959 66.4042969,81.831543 C67.3320359,82.1879901 68.0888643,82.6518526 68.6748047,83.2231445 C69.2607451,83.7944365 69.7221663,84.3950164 70.059082,85.0249023 C70.3959978,85.6547883 70.6669912,86.3896442 70.8720703,87.2294922 C71.2724629,88.8310627 71.4726562,90.5009679 71.4726562,92.2392578 C71.4726562,96.1357617 70.8134832,98.9872957 69.4951172,100.793945 C68.1767512,102.600595 65.9062661,103.503906 62.6835938,103.503906 C60.8769441,103.503906 59.4169978,103.215823 58.3037109,102.639648 C57.1904241,102.063474 56.2773473,101.218756 55.5644531,100.105469 C55.0468724,99.3144492 54.6440444,98.232917 54.355957,96.8608398 C54.0678697,95.4887627 53.9238281,93.9726646 53.9238281,92.3125 Z M59.8417969,92.3271484 C59.8417969,95.0615371 60.0834937,96.9291942 60.5668945,97.9301758 C61.0502954,98.9311573 61.750972,99.4316406 62.6689453,99.4316406 C63.2744171,99.4316406 63.7993142,99.2192404 64.2436523,98.7944336 C64.6879905,98.3696268 65.0151357,97.6982468 65.2250977,96.7802734 C65.4350596,95.8623001 65.5400391,94.4316503 65.5400391,92.4882812 C65.5400391,89.6367045 65.2983423,87.7202198 64.8149414,86.7387695 C64.3315406,85.7573193 63.6064501,85.2666016 62.6396484,85.2666016 C61.6533154,85.2666016 60.9404319,85.7670848 60.5009766,86.7680664 C60.0615212,87.769048 59.8417969,89.6220568 59.8417969,92.3271484 Z" id="路径-3" fill="#333745" fill-rule="nonzero" transform="translate(62.698242, 92.400391) rotate(-14.000000) translate(-62.698242, -92.400391) "></path>
                    <path d="M74.1945703,125.880859 L63.3254297,125.880859 L63.3254297,120.973633 L74.1945703,108.053711 L79.3947656,108.053711 L79.3947656,121.251953 L82.0900781,121.251953 L82.0900781,125.880859 L79.3947656,125.880859 L79.3947656,129.894531 L74.1945703,129.894531 L74.1945703,125.880859 Z M74.1945703,121.251953 L74.1945703,114.499023 L68.4523828,121.251953 L74.1945703,121.251953 Z" id="路径-2" fill="#333745" fill-rule="nonzero" transform="translate(72.707754, 118.974121) rotate(34.000000) translate(-72.707754, -118.974121) "></path>
                </g>
            </g>
        </g>
    </g>
</svg>