<?xml version="1.0" standalone="no"?><!DOCTYPE svg PUBLIC "-//W3C//DTD SVG 1.1//EN" "http://www.w3.org/Graphics/SVG/1.1/DTD/svg11.dtd"><svg t="1761718986492" class="icon" viewBox="0 0 1045 1024" version="1.1" xmlns="http://www.w3.org/2000/svg" p-id="24931" xmlns:xlink="http://www.w3.org/1999/xlink" width="204.1015625" height="200"><path d="M153.642667 870.4a38.4 38.4 0 1 1 0-76.8h725.333333a38.4 38.4 0 1 1 0 76.8h-725.333333zM153.642667 230.4a38.4 38.4 0 1 1 0-76.8h725.333333a38.4 38.4 0 1 1 0 76.8h-725.333333zM867.818667 547.413333c0 43.946667-7.68 70.4-29.013334 92.586667-24.32 25.173333-53.333333 34.56-85.76 34.56-33.28 0-60.586667-11.946667-81.92-33.28-30.72-30.72-29.866667-68.693333-29.866666-121.173333 0-52.48-0.853333-90.453333 29.866666-121.173334 21.333333-21.333333 47.786667-33.28 81.92-33.28 70.4 0 106.24 46.08 114.346667 97.28h-59.733333c-6.826667-28.586667-24.32-44.373333-54.613334-44.373333-16.213333 0-29.44 6.4-37.973333 16.213333-11.52 12.8-14.506667 26.88-14.506667 85.333334s2.986667 72.96 14.506667 85.76c8.533333 9.813333 21.76 15.786667 37.973333 15.786666 17.92 0 32.426667-6.4 42.24-17.066666 9.813333-11.093333 13.653333-24.746667 13.653334-40.533334v-11.52h-55.893334v-49.493333h114.773334v44.373333zM627.477333 368.213333l-100.693333 303.786667h-44.373333l-100.266667-303.786667h61.44l61.013333 197.973334 61.013334-197.973334h61.866666zM402.389333 672h-61.866666l-17.92-53.76h-107.946667l-18.346667 53.76h-61.866666l110.506666-303.786667h46.506667l110.933333 303.786667z m-95.573333-103.68l-37.12-110.506667-38.4 110.506667h75.52z" p-id="24932"></path></svg>