<?xml version="1.0" standalone="no"?><!DOCTYPE svg PUBLIC "-//W3C//DTD SVG 1.1//EN" "http://www.w3.org/Graphics/SVG/1.1/DTD/svg11.dtd"><svg t="1761719078262" class="icon" viewBox="0 0 1045 1024" version="1.1" xmlns="http://www.w3.org/2000/svg" p-id="25249" xmlns:xlink="http://www.w3.org/1999/xlink" width="204.1015625" height="200"><path d="M829.909333 224a25.6 25.6 0 0 0-25.6-25.6h-576a25.6 25.6 0 0 0-25.6 25.6v576a25.6 25.6 0 0 0 25.6 25.6h576a25.6 25.6 0 0 0 25.6-25.6v-576z m76.8 576a102.4 102.4 0 0 1-102.4 102.4h-576a102.4 102.4 0 0 1-102.4-102.4v-576a102.4 102.4 0 0 1 102.4-102.4h576a102.4 102.4 0 0 1 102.4 102.4v576z" p-id="25250"></path><path d="M360.576 853.333333V170.666667a38.4 38.4 0 1 1 76.8 0v682.666666a38.4 38.4 0 1 1-76.8 0zM595.242667 853.333333V170.666667a38.4 38.4 0 1 1 76.8 0v682.666666a38.4 38.4 0 1 1-76.8 0z" p-id="25251"></path></svg>