<?xml version="1.0" standalone="no"?><!DOCTYPE svg PUBLIC "-//W3C//DTD SVG 1.1//EN" "http://www.w3.org/Graphics/SVG/1.1/DTD/svg11.dtd"><svg t="1761719108329" class="icon" viewBox="0 0 1024 1024" version="1.1" xmlns="http://www.w3.org/2000/svg" p-id="25395" xmlns:xlink="http://www.w3.org/1999/xlink" width="200" height="200"><path d="M187.733333 810.666667a25.6 25.6 0 0 0 25.6 25.6h448a25.6 25.6 0 0 0 25.6-25.6V362.666667a25.6 25.6 0 0 0-25.6-25.6H213.333333A25.6 25.6 0 0 0 187.733333 362.666667v448zM110.933333 362.666667a102.4 102.4 0 0 1 102.4-102.4h448a102.4 102.4 0 0 1 102.4 102.4v448a102.4 102.4 0 0 1-102.4 102.4H213.333333A102.4 102.4 0 0 1 110.933333 810.666667V362.666667z" p-id="25396"></path><path d="M913.066667 213.333333v384a102.4 102.4 0 0 1-102.4 102.4v-76.8a25.6 25.6 0 0 0 25.6-25.6V213.333333A25.6 25.6 0 0 0 810.666667 187.733333H426.666667a25.6 25.6 0 0 0-25.6 25.6h-76.8A102.4 102.4 0 0 1 426.666667 110.933333h384a102.4 102.4 0 0 1 102.4 102.4z" p-id="25397"></path></svg>