<svg t="1763893219055" class="icon" viewBox="0 0 1024 1024" version="1.1" xmlns="http://www.w3.org/2000/svg" p-id="37917" width="200" height="200"><path d="M874.666667 829.781333a38.4 38.4 0 1 1 0 76.8H149.333333a38.4 38.4 0 1 1 0-76.8h725.333334zM715.456 201.728a25.6 25.6 0 0 0-36.224 0L309.802667 571.157333a25.6 25.6 0 0 0-7.466667 18.090667l-0.021333 101.034667h101.034666a25.6 25.6 0 0 0 18.090667-7.488l369.429333-369.450667a25.6 25.6 0 0 0 0-36.202667l-75.413333-75.413333z m129.706667 21.12a102.4 102.4 0 0 1 0 144.810667L475.733333 737.066667a102.4 102.4 0 0 1-72.384 29.994666h-118.101333a59.733333 59.733333 0 0 1-59.733333-59.733333V589.226667a102.4 102.4 0 0 1 29.994666-72.384L624.938667 147.413333a102.4 102.4 0 0 1 144.810666 0l75.413334 75.434667z" p-id="37918"></path></svg>