<?xml version="1.0" standalone="no"?><!DOCTYPE svg PUBLIC "-//W3C//DTD SVG 1.1//EN" "http://www.w3.org/Graphics/SVG/1.1/DTD/svg11.dtd"><svg t="1761720041129" class="icon" viewBox="0 0 1045 1024" version="1.1" xmlns="http://www.w3.org/2000/svg" p-id="26644" xmlns:xlink="http://www.w3.org/1999/xlink" width="204.1015625" height="200"><path d="M153.642667 490.666667a42.666667 42.666667 0 0 1 42.666666-42.666667h42.666667a42.666667 42.666667 0 0 1 42.666667 42.666667v42.666666a42.666667 42.666667 0 0 1-42.666667 42.666667h-42.666667a42.666667 42.666667 0 0 1-42.666666-42.666667v-42.666666zM452.309333 490.666667a42.666667 42.666667 0 0 1 42.666667-42.666667h42.666667a42.666667 42.666667 0 0 1 42.666666 42.666667v42.666666a42.666667 42.666667 0 0 1-42.666666 42.666667h-42.666667a42.666667 42.666667 0 0 1-42.666667-42.666667v-42.666666zM750.976 490.666667a42.666667 42.666667 0 0 1 42.666667-42.666667h42.666666a42.666667 42.666667 0 0 1 42.666667 42.666667v42.666666a42.666667 42.666667 0 0 1-42.666667 42.666667h-42.666666a42.666667 42.666667 0 0 1-42.666667-42.666667v-42.666666z" p-id="26645"></path></svg>