<?xml version="1.0" standalone="no"?><!DOCTYPE svg PUBLIC "-//W3C//DTD SVG 1.1//EN" "http://www.w3.org/Graphics/SVG/1.1/DTD/svg11.dtd"><svg t="1761720027830" class="icon" viewBox="0 0 1045 1024" version="1.1" xmlns="http://www.w3.org/2000/svg" p-id="26499" xmlns:xlink="http://www.w3.org/1999/xlink" width="204.1015625" height="200"><path d="M494.997333 874.666667a42.666667 42.666667 0 0 1-42.666666-42.666667v-42.666667a42.666667 42.666667 0 0 1 42.666666-42.666666h42.666667a42.666667 42.666667 0 0 1 42.666667 42.666666v42.666667a42.666667 42.666667 0 0 1-42.666667 42.666667h-42.666667zM494.997333 576a42.666667 42.666667 0 0 1-42.666666-42.666667v-42.666666a42.666667 42.666667 0 0 1 42.666666-42.666667h42.666667a42.666667 42.666667 0 0 1 42.666667 42.666667v42.666666a42.666667 42.666667 0 0 1-42.666667 42.666667h-42.666667zM494.997333 277.333333a42.666667 42.666667 0 0 1-42.666666-42.666666V192a42.666667 42.666667 0 0 1 42.666666-42.666667h42.666667a42.666667 42.666667 0 0 1 42.666667 42.666667v42.666667a42.666667 42.666667 0 0 1-42.666667 42.666666h-42.666667z" p-id="26500"></path></svg>