<?xml version="1.0" standalone="no"?><!DOCTYPE svg PUBLIC "-//W3C//DTD SVG 1.1//EN" "http://www.w3.org/Graphics/SVG/1.1/DTD/svg11.dtd"><svg t="1761720082286" class="icon" viewBox="0 0 1024 1024" version="1.1" xmlns="http://www.w3.org/2000/svg" p-id="26935" xmlns:xlink="http://www.w3.org/1999/xlink" width="200" height="200"><path d="M857.6 561.066667h-165.653333a17.642667 17.642667 0 0 0-15.445334 9.109333c-71.36 129.621333-257.642667 129.621333-329.002666 0a17.642667 17.642667 0 0 0-15.445334-9.109333H166.4v238.933333A25.6 25.6 0 0 0 192 825.6h640a25.6 25.6 0 0 0 25.6-25.6V561.066667z m-569.557333-362.666667a25.6 25.6 0 0 0-24.448 18.005333L180.181333 484.266667h151.893334c34.410667 0 66.133333 18.730667 82.709333 48.874666 42.176 76.586667 152.234667 76.586667 194.432 0a94.442667 94.442667 0 0 1 82.730667-48.853333h151.872l-83.413334-267.882667a25.6 25.6 0 0 0-24.448-18.005333H288.042667zM934.4 800a102.4 102.4 0 0 1-102.4 102.4H192a102.4 102.4 0 0 1-102.4-102.4V516.842667l1.728-5.589334L190.293333 193.557333A102.4 102.4 0 0 1 288.042667 121.6h447.914666a102.4 102.4 0 0 1 97.770667 71.957333l98.944 317.696 1.706667 5.589334V800z" p-id="26936"></path></svg>