<?xml version="1.0" standalone="no"?><!DOCTYPE svg PUBLIC "-//W3C//DTD SVG 1.1//EN" "http://www.w3.org/Graphics/SVG/1.1/DTD/svg11.dtd"><svg t="1761720943415" class="icon" viewBox="0 0 1024 1024" version="1.1" xmlns="http://www.w3.org/2000/svg" p-id="8699" xmlns:xlink="http://www.w3.org/1999/xlink" width="200" height="200"><path d="M321.066667 677.333333a25.6 25.6 0 0 0 25.6 25.6h469.333333a25.6 25.6 0 0 0 25.6-25.6v-469.333333a25.6 25.6 0 0 0-25.6-25.6h-469.333333a25.6 25.6 0 0 0-25.6 25.6v469.333333z m-76.8-469.333333a102.4 102.4 0 0 1 102.4-102.4h469.333333a102.4 102.4 0 0 1 102.4 102.4v469.333333a102.4 102.4 0 0 1-102.4 102.4h-469.333333a102.4 102.4 0 0 1-102.4-102.4v-469.333333z" p-id="8700"></path><path d="M182.4 485.333333v330.666667a25.6 25.6 0 0 0 25.6 25.6h341.333333a38.4 38.4 0 1 1 0 76.8h-341.333333a102.4 102.4 0 0 1-102.4-102.4v-330.666667a38.4 38.4 0 1 1 76.8 0zM464 481.066667a38.4 38.4 0 1 1 0-76.8h234.666667a38.4 38.4 0 1 1 0 76.8h-234.666667z" p-id="8701"></path><path d="M619.84 559.893333a38.4 38.4 0 1 1-76.8 0v-234.666666a38.4 38.4 0 1 1 76.8 0v234.666666z" p-id="8702"></path></svg>