<?xml version="1.0" standalone="no"?><!DOCTYPE svg PUBLIC "-//W3C//DTD SVG 1.1//EN" "http://www.w3.org/Graphics/SVG/1.1/DTD/svg11.dtd"><svg t="1761721043381" class="icon" viewBox="0 0 1045 1024" version="1.1" xmlns="http://www.w3.org/2000/svg" p-id="9604" xmlns:xlink="http://www.w3.org/1999/xlink" width="204.1015625" height="200"><path d="M314.816 156.416a38.4 38.4 0 1 0-76.8 0.021333v714.325334a38.4 38.4 0 1 0 76.8 0V156.416z" p-id="9605"></path><path d="M178.56 727.786667a32 32 0 1 0-45.269333 45.269333l120.682666 120.682667a32 32 0 1 0 45.248-45.269334L178.56 727.786667z" p-id="9606"></path><path d="M419.904 773.056a32 32 0 1 0-45.269333-45.269333l-120.661334 120.682666a32 32 0 0 0 45.248 45.269334l120.682667-120.682667zM694.272 318.058667h91.52L740.266667 189.930667l-45.994667 128.128z m140.330667 137.045333l-27.221334-76.032h-134.698666l-27.221334 76.032h-73.685333l127.658667-340.266667h81.664l127.658666 340.266667h-74.154666zM689.322667 837.397333h186.325333v65.706667H605.312v-65.706667l178.346667-209.322666h-176.469334v-65.237334h259.541334v65.237334l-177.408 209.322666z" p-id="9607"></path></svg>