<?xml version="1.0" standalone="no"?><!DOCTYPE svg PUBLIC "-//W3C//DTD SVG 1.1//EN" "http://www.w3.org/Graphics/SVG/1.1/DTD/svg11.dtd"><svg t="1761721079941" class="icon" viewBox="0 0 1024 1024" version="1.1" xmlns="http://www.w3.org/2000/svg" p-id="9896" xmlns:xlink="http://www.w3.org/1999/xlink" width="200" height="200"><path d="M198.4 800a25.6 25.6 0 0 0 25.6 25.6h576a25.6 25.6 0 0 0 25.6-25.6v-576a25.6 25.6 0 0 0-25.6-25.6h-576a25.6 25.6 0 0 0-25.6 25.6v576z m-76.8-576a102.4 102.4 0 0 1 102.4-102.4h576a102.4 102.4 0 0 1 102.4 102.4v576a102.4 102.4 0 0 1-102.4 102.4h-576a102.4 102.4 0 0 1-102.4-102.4v-576z" p-id="9897"></path><path d="M433.066667 853.333333a38.4 38.4 0 1 1-76.8 0V426.666667a38.4 38.4 0 1 1 76.8 0v426.666666zM667.733333 853.333333a38.4 38.4 0 1 1-76.8 0V448a38.4 38.4 0 1 1 76.8 0v405.333333z" p-id="9898"></path><path d="M170.666667 689.066667a38.4 38.4 0 1 1 0-76.8h682.666666a38.4 38.4 0 1 1 0 76.8H170.666667zM170.666667 465.066667a38.4 38.4 0 1 1 0-76.8h682.666666a38.4 38.4 0 1 1 0 76.8H170.666667z" p-id="9899"></path></svg>