<?xml version="1.0" standalone="no"?><!DOCTYPE svg PUBLIC "-//W3C//DTD SVG 1.1//EN" "http://www.w3.org/Graphics/SVG/1.1/DTD/svg11.dtd"><svg t="1761721108866" class="icon" viewBox="0 0 1024 1024" version="1.1" xmlns="http://www.w3.org/2000/svg" p-id="10189" xmlns:xlink="http://www.w3.org/1999/xlink" width="200" height="200"><path d="M671.04 269.226667c109.973333 109.973333 109.973333 288.277333 0 398.250666-109.973333 109.973333-288.277333 109.973333-398.250667 0-109.973333-109.973333-109.973333-288.277333 0-398.250666 109.973333-109.973333 288.277333-109.973333 398.250667 0zM725.333333 214.933333c-139.946667-139.946667-366.869333-139.946667-506.837333 0-139.946667 139.946667-139.946667 366.890667 0 506.837334 139.946667 139.968 366.890667 139.968 506.837333 0 139.968-139.946667 139.968-366.869333 0-506.837334z" fill="#60636B" p-id="10190"></path><path d="M605.098667 435.136a38.4 38.4 0 1 1 0 76.8h-256a38.4 38.4 0 1 1 0-76.8h256z" fill="#60636B" p-id="10191"></path><path d="M515.498667 601.536a38.4 38.4 0 1 1-76.8 0v-256a38.4 38.4 0 1 1 76.8 0v256zM852.053333 902.805333l-165.930666-165.952a38.4 38.4 0 1 1 54.314666-54.293333l165.930667 165.930667a38.4 38.4 0 1 1-54.314667 54.314666z" fill="#60636B" p-id="10192"></path></svg>