<?xml version="1.0" standalone="no"?><!DOCTYPE svg PUBLIC "-//W3C//DTD SVG 1.1//EN" "http://www.w3.org/Graphics/SVG/1.1/DTD/svg11.dtd"><svg t="1761708721507" class="icon" viewBox="0 0 1024 1024" version="1.1" xmlns="http://www.w3.org/2000/svg" p-id="9310" xmlns:xlink="http://www.w3.org/1999/xlink" width="200" height="200"><path d="M512 277.333333a42.666667 42.666667 0 0 1 42.666667 42.666667v149.333333h149.333333a42.666667 42.666667 0 1 1 0 85.333334h-149.333333v149.333333a42.666667 42.666667 0 1 1-85.333334 0v-149.333333h-149.333333a42.666667 42.666667 0 1 1 0-85.333334h149.333333v-149.333333a42.666667 42.666667 0 0 1 42.666667-42.666667z" p-id="9311"></path><path d="M234.666667 106.666667h554.666666a128 128 0 0 1 128 128v554.666666a128 128 0 0 1-128 128H234.666667a128 128 0 0 1-128-128V234.666667a128 128 0 0 1 128-128z m554.666666 85.333333H234.666667a42.666667 42.666667 0 0 0-42.666667 42.666667v554.666666a42.666667 42.666667 0 0 0 42.666667 42.666667h554.666666a42.666667 42.666667 0 0 0 42.666667-42.666667V234.666667a42.666667 42.666667 0 0 0-42.666667-42.666667z" p-id="9312"></path></svg>