<?xml version="1.0" standalone="no"?><!DOCTYPE svg PUBLIC "-//W3C//DTD SVG 1.1//EN" "http://www.w3.org/Graphics/SVG/1.1/DTD/svg11.dtd"><svg t="1766629296740" class="icon" viewBox="0 0 1024 1024" version="1.1" xmlns="http://www.w3.org/2000/svg" p-id="6212" xmlns:xlink="http://www.w3.org/1999/xlink" width="200" height="200"><path d="M533.717333 923.882667l-1.685333 3.477333c-9.493333 16.170667-34.474667 14.997333-41.770667-3.477333l-8-20.288 29.717334 11.690666 29.717333-11.690666-7.978667 20.266666zM490.261333 100.117333c7.765333-19.690667 35.690667-19.690667 43.456 0l88.021334 223.210667a140.096 140.096 0 0 0 78.933333 78.933333l202.901333 80 11.712 29.738667-11.712 29.717333-202.922666 80.042667a140.096 140.096 0 0 0-78.912 78.912l-80.042667 202.922667-29.696 11.690666-29.738667-11.690666-80.021333-202.922667a140.096 140.096 0 0 0-72.256-76.096l-6.656-2.816-223.210667-88.021333c-19.712-7.786667-19.712-35.690667 0-43.456l223.210667-88.021334a140.096 140.096 0 0 0 76.074667-72.256l2.837333-6.677333 88.021333-223.210667z m-16.576 251.392a216.874667 216.874667 0 0 1-122.197333 122.176L254.336 512l97.152 38.314667a216.896 216.896 0 0 1 122.197333 122.176L512 769.621333l38.293333-97.130666a216.896 216.896 0 0 1 122.197334-122.176L769.621333 512l-97.130666-38.314667a216.896 216.896 0 0 1-122.197334-122.176L512 254.357333l-38.293333 97.152z m450.176 138.773334c19.712 7.765333 19.712 35.669333 0 43.456l-20.288 7.978666 11.712-29.717333-11.712-29.717333 20.288 8zM799.232 100.352c7.893333-20.032 36.266667-20.032 44.16 0a142.421333 142.421333 0 0 0 80.234667 80.234667c20.053333 7.893333 20.053333 36.266667 0 44.16a142.4 142.4 0 0 0-80.213334 80.234666c-7.424 18.773333-32.810667 19.946667-42.453333 3.52l-1.706667-3.52a142.4 142.4 0 0 0-80.234666-80.213333l-13.354667-13.376c-4.373333-11.306667 0.042667-25.557333 13.354667-30.805333a142.421333 142.421333 0 0 0 80.213333-80.213334z m-80.256 124.373333l-3.477333-1.685333a22.933333 22.933333 0 0 1-9.834667-11.648l13.312 13.333333z" p-id="6213"></path></svg>