<?xml version="1.0" standalone="no"?><!DOCTYPE svg PUBLIC "-//W3C//DTD SVG 1.1//EN" "http://www.w3.org/Graphics/SVG/1.1/DTD/svg11.dtd"><svg t="1761725882938" class="icon" viewBox="0 0 1024 1024" version="1.1" xmlns="http://www.w3.org/2000/svg" p-id="11435" xmlns:xlink="http://www.w3.org/1999/xlink" width="200" height="200"><path d="M781.184 87.68a38.4 38.4 0 0 1 54.272-2.026667l130.666667 121.344a38.4 38.4 0 0 1-52.245334 56.277334l-130.666666-121.322667a38.4 38.4 0 0 1-2.026667-54.272zM484.266667 350.464a38.4 38.4 0 1 1 76.8 0v160.234667l99.562666 63.36a38.4 38.4 0 0 1-41.258666 64.810666l-109.418667-69.653333A55.466667 55.466667 0 0 1 484.266667 522.453333v-171.946666zM264.149333 87.68a38.4 38.4 0 0 0-54.272-2.026667L79.210667 206.997333a38.4 38.4 0 0 0 52.266666 56.277334l130.645334-121.322667a38.4 38.4 0 0 0 2.026666-54.272z" fill="#60636B" p-id="11436"></path><path d="M846.933333 531.797333c0-179.093333-145.173333-324.266667-324.266666-324.266666s-324.266667 145.194667-324.266667 324.266666c0 179.093333 145.173333 324.266667 324.266667 324.266667s324.266667-145.173333 324.266666-324.266667z m76.8 0c0 221.504-179.562667 401.066667-401.066666 401.066667-221.504 0-401.066667-179.562667-401.066667-401.066667 0-221.504 179.562667-401.066667 401.066667-401.066666 221.504 0 401.066667 179.562667 401.066666 401.066666z" fill="#60636B" p-id="11437"></path><path d="M802.986667 936.490667L731.733333 860.693333a38.4 38.4 0 1 1 55.957334-52.586666l71.232 75.797333a38.4 38.4 0 1 1-55.978667 52.586667zM242.368 936.490667l71.210667-75.797334a38.4 38.4 0 1 0-55.957334-52.586666l-71.210666 75.797333a38.4 38.4 0 1 0 55.957333 52.586667z" fill="#60636B" p-id="11438"></path></svg>