<svg xmlns="http://www.w3.org/2000/svg" viewBox="0 0 1024 1024" version="1.1"><path d="M746.666667 85.333333a128 128 0 0 1 128 128v597.333334a128 128 0 0 1-128 128H277.333333a128 128 0 0 1-128-128V213.333333a128 128 0 0 1 128-128h469.333334z m0 85.333334H277.333333a42.666667 42.666667 0 0 0-42.56 39.466666L234.666667 213.333333v597.333334a42.666667 42.666667 0 0 0 39.466666 42.56L277.333333 853.333333h469.333334a42.666667 42.666667 0 0 0 42.56-39.466666L789.333333 810.666667V213.333333a42.666667 42.666667 0 0 0-39.466666-42.56L746.666667 170.666667z m-128 490.666666a42.666667 42.666667 0 1 1 0 85.333334H405.333333a42.666667 42.666667 0 1 1 0-85.333334h213.333334z m0-128a42.666667 42.666667 0 1 1 0 85.333334H405.333333a42.666667 42.666667 0 1 1 0-85.333334h213.333334z m52.138666-259.946666a42.666667 42.666667 0 0 1 1.258667 57.664l-2.56 2.645333-155.946667 149.333333a42.666667 42.666667 0 0 1-56.170666 2.496l-2.837334-2.496-78.72-75.392a42.666667 42.666667 0 0 1 56.256-64.064l2.773334 2.432 49.194666 47.125334 126.442667-121.066667a42.666667 42.666667 0 0 1 60.309333 1.322667z" p-id="39125"></path></svg>