<?xml version="1.0" standalone="no"?><!DOCTYPE svg PUBLIC "-//W3C//DTD SVG 1.1//EN" "http://www.w3.org/Graphics/SVG/1.1/DTD/svg11.dtd"><svg t="1766627082316" class="icon" viewBox="0 0 1045 1024" version="1.1" xmlns="http://www.w3.org/2000/svg" p-id="10398" xmlns:xlink="http://www.w3.org/1999/xlink" width="204.1015625" height="200"><path d="M277.376 672h-76.8v-320h76.8v320z m398.933333-475.733333v76.8h-320V196.266667h320z m0 554.666666v76.8h-320v-76.8h320z m155.733334-78.933333h-76.8v-320h76.8v320z" p-id="10399"></path><path d="M281.642667 110.933333a81.066667 81.066667 0 0 1 81.066666 81.066667v85.333333a81.066667 81.066667 0 0 1-81.066666 81.066667H196.309333a81.066667 81.066667 0 0 1-81.066666-81.066667V192a81.066667 81.066667 0 0 1 81.066666-81.066667h85.333334z m-85.333334 76.8a4.266667 4.266667 0 0 0-4.266666 4.266667v85.333333c0 2.346667 1.92 4.266667 4.288 4.266667h85.290666c2.368 0 4.288-1.92 4.288-4.266667V192a4.266667 4.266667 0 0 0-4.266666-4.266667h-85.333334zM281.642667 665.6a81.066667 81.066667 0 0 1 81.066666 81.066667v85.333333a81.066667 81.066667 0 0 1-81.066666 81.066667H196.309333a81.066667 81.066667 0 0 1-81.066666-81.066667v-85.333333a81.066667 81.066667 0 0 1 81.066666-81.066667h85.333334z m-85.333334 76.8a4.266667 4.266667 0 0 0-4.266666 4.266667v85.333333c0 2.346667 1.92 4.266667 4.288 4.266667h85.290666c2.368 0 4.288-1.92 4.288-4.266667v-85.333333a4.266667 4.266667 0 0 0-4.266666-4.266667h-85.333334zM836.309333 110.933333a81.066667 81.066667 0 0 1 81.066667 81.066667v85.333333a81.066667 81.066667 0 0 1-81.066667 81.066667h-85.312a81.066667 81.066667 0 0 1-81.066666-81.066667V192a81.066667 81.066667 0 0 1 81.066666-81.066667h85.333334z m-85.333333 76.8a4.266667 4.266667 0 0 0-4.266667 4.266667v85.333333c0 2.346667 1.92 4.266667 4.288 4.266667h85.290667c2.368 0 4.288-1.92 4.288-4.266667V192a4.266667 4.266667 0 0 0-4.266667-4.266667h-85.333333zM836.309333 665.6a81.066667 81.066667 0 0 1 81.066667 81.066667v85.333333a81.066667 81.066667 0 0 1-81.066667 81.066667h-85.312a81.066667 81.066667 0 0 1-81.066666-81.066667v-85.333333a81.066667 81.066667 0 0 1 81.066666-81.066667h85.333334z m-85.333333 76.8a4.266667 4.266667 0 0 0-4.266667 4.266667v85.333333c0 2.346667 1.92 4.266667 4.288 4.266667h85.290667c2.368 0 4.288-1.92 4.288-4.266667v-85.333333a4.266667 4.266667 0 0 0-4.266667-4.266667h-85.333333z" p-id="10400"></path></svg>