<?xml version="1.0" standalone="no"?><!DOCTYPE svg PUBLIC "-//W3C//DTD SVG 1.1//EN" "http://www.w3.org/Graphics/SVG/1.1/DTD/svg11.dtd"><svg t="1766627108261" class="icon" viewBox="0 0 1045 1024" version="1.1" xmlns="http://www.w3.org/2000/svg" p-id="10545" xmlns:xlink="http://www.w3.org/1999/xlink" width="204.1015625" height="200"><path d="M840.576 320c0-4.522667-2.24-13.184-15.850667-25.472-13.589333-12.309333-35.434667-25.152-65.685333-36.714667-60.224-23.04-146.048-38.08-242.730667-38.08s-182.485333 15.04-242.730666 38.08c-30.250667 11.562667-52.074667 24.405333-65.685334 36.693334-13.589333 12.309333-15.850667 20.970667-15.850666 25.493333 0 4.522667 2.261333 13.184 15.850666 25.472 13.610667 12.309333 35.434667 25.152 65.706667 36.714667 60.224 23.04 146.026667 38.08 242.709333 38.08 96.682667 0 182.506667-15.04 242.730667-38.08 30.250667-11.562667 52.096-24.405333 65.706667-36.693334 13.589333-12.309333 15.829333-20.970667 15.829333-25.493333z m76.8 0c0 33.770667-18.048 61.568-41.152 82.453333-23.104 20.906667-54.357333 37.930667-89.749333 51.456-71.04 27.157333-166.549333 43.157333-270.165334 43.157334-103.594667 0-199.146667-16-270.165333-43.157334-35.370667-13.525333-66.645333-30.570667-89.749333-51.456-23.104-20.885333-41.152-48.682667-41.152-82.453333 0-33.770667 18.048-61.568 41.173333-82.453333 23.082667-20.906667 54.357333-37.930667 89.728-51.456C317.184 158.933333 412.714667 142.933333 516.309333 142.933333c103.616 0 199.146667 16 270.165334 43.157334 35.392 13.525333 66.645333 30.570667 89.749333 51.456 23.104 20.885333 41.152 48.682667 41.152 82.453333z" p-id="10546"></path><path d="M115.242667 512c0-32.853333 17.088-60.096 39.253333-80.725333 22.122667-20.608 52.053333-37.461333 85.909333-50.944l28.437334 71.338666c-28.693333 11.434667-49.258667 23.957333-61.994667 35.818667-12.672 11.797333-14.805333 20.096-14.805333 24.512 0 4.522667 2.261333 13.184 15.850666 25.472 13.610667 12.309333 35.434667 25.152 65.706667 36.714667 60.224 23.04 146.026667 38.08 242.709333 38.08 96.682667 0 182.506667-15.04 242.730667-38.08 30.250667-11.562667 52.096-24.405333 65.706667-36.693334 13.589333-12.309333 15.829333-20.970667 15.829333-25.493333 0-4.416-2.133333-12.714667-14.805333-24.533333-12.736-11.84-33.28-24.362667-61.973334-35.797334l28.437334-71.338666c33.834667 13.482667 63.786667 30.336 85.888 50.944 22.165333 20.629333 39.253333 47.872 39.253333 80.725333 0 33.770667-18.048 61.568-41.152 82.453333-23.104 20.906667-54.357333 37.930667-89.749333 51.456-71.04 27.157333-166.549333 43.157333-270.165334 43.157334-103.594667 0-199.146667-16-270.165333-43.157334-35.370667-13.525333-66.645333-30.570667-89.749333-51.456-23.104-20.885333-41.152-48.682667-41.152-82.453333z" p-id="10547"></path><path d="M115.242667 704c0-32.853333 17.088-60.096 39.253333-80.725333 22.122667-20.608 52.053333-37.461333 85.909333-50.944l28.437334 71.338666c-28.693333 11.434667-49.258667 23.957333-61.994667 35.818667-12.672 11.797333-14.805333 20.096-14.805333 24.512 0 4.522667 2.261333 13.184 15.850666 25.472 13.610667 12.309333 35.434667 25.152 65.706667 36.714667 60.224 23.04 146.026667 38.08 242.709333 38.08 96.682667 0 182.506667-15.04 242.730667-38.08 30.250667-11.562667 52.096-24.405333 65.706667-36.693334 13.589333-12.309333 15.829333-20.970667 15.829333-25.493333 0-4.416-2.133333-12.714667-14.805333-24.533333-12.736-11.84-33.28-24.362667-61.973334-35.797334l28.437334-71.338666c33.834667 13.482667 63.786667 30.336 85.888 50.944 22.165333 20.629333 39.253333 47.872 39.253333 80.725333 0 33.770667-18.048 61.568-41.152 82.453333-23.104 20.906667-54.357333 37.930667-89.749333 51.456-71.04 27.157333-166.549333 43.157333-270.165334 43.157334-103.594667 0-199.146667-16-270.165333-43.157334-35.370667-13.525333-66.645333-30.570667-89.749333-51.456-23.104-20.885333-41.152-48.682667-41.152-82.453333z" p-id="10548"></path></svg>