<svg class="icon" viewBox="0 0 1024 1024" version="1.1" xmlns="http://www.w3.org/2000/svg" width="200" height="200"><path d="M256 234.666667a64 64 0 1 1 128 0 64 64 0 0 1-128 0z m64-149.333334a149.333333 149.333333 0 1 0 0 298.666667 149.333333 149.333333 0 0 0 0-298.666667z m320 149.333334a64 64 0 1 1 128 0 64 64 0 0 1-128 0z m64-149.333334a149.333333 149.333333 0 1 0 0 298.666667 149.333333 149.333333 0 0 0 0-298.666667zM85.333333 640c0-117.824 95.509333-213.333333 213.333334-213.333333h42.666666a213.013333 213.013333 0 0 1 170.666667 85.312A213.013333 213.013333 0 0 1 682.666667 426.666667h42.666666c117.824 0 213.333333 95.509333 213.333334 213.333333v298.666667h-85.333334V640a128 128 0 0 0-128-128h-42.666666a128 128 0 0 0-128 128h-85.333334a128 128 0 0 0-128-128h-42.666666a128 128 0 0 0-128 128v298.666667H85.333333V640z m567.168 225.834667l12.501334-12.501334H358.997333l12.501334 12.501334a42.666667 42.666667 0 1 1-60.330667 60.330666l-85.333333-85.333333a42.666667 42.666667 0 0 1 0-60.330667l85.333333-85.333333a42.666667 42.666667 0 1 1 60.330667 60.330667l-12.501334 12.501333h306.005334l-12.501334-12.501333a42.666667 42.666667 0 1 1 60.330667-60.330667l85.333333 85.333333a42.666667 42.666667 0 0 1 0 60.330667l-85.333333 85.333333a42.666667 42.666667 0 1 1-60.330667-60.330666z" p-id="11335"></path></svg>
