<?xml version="1.0" standalone="no"?><!DOCTYPE svg PUBLIC "-//W3C//DTD SVG 1.1//EN" "http://www.w3.org/Graphics/SVG/1.1/DTD/svg11.dtd"><svg t="1761726132511" class="icon" viewBox="0 0 1024 1024" version="1.1" xmlns="http://www.w3.org/2000/svg" p-id="12397" xmlns:xlink="http://www.w3.org/1999/xlink" width="200" height="200"><path d="M832 793.6a25.6 25.6 0 0 0 25.6-25.6V256a25.6 25.6 0 0 0-25.6-25.6H192A25.6 25.6 0 0 0 166.4 256v512A25.6 25.6 0 0 0 192 793.6h640zM192 870.4A102.4 102.4 0 0 1 89.6 768V256A102.4 102.4 0 0 1 192 153.6h640a102.4 102.4 0 0 1 102.4 102.4v512a102.4 102.4 0 0 1-102.4 102.4H192z" p-id="12398"></path><path d="M874.666667 345.6a38.4 38.4 0 1 1 0 76.8H149.333333a38.4 38.4 0 1 1 0-76.8h725.333334zM437.333333 622.933333a38.4 38.4 0 1 1 0 76.8H298.666667a38.4 38.4 0 1 1 0-76.8h138.666666z" p-id="12399"></path></svg>