<?xml version="1.0" standalone="no"?><!DOCTYPE svg PUBLIC "-//W3C//DTD SVG 1.1//EN" "http://www.w3.org/Graphics/SVG/1.1/DTD/svg11.dtd"><svg t="1761726147397" class="icon" viewBox="0 0 1045 1024" version="1.1" xmlns="http://www.w3.org/2000/svg" p-id="12543" xmlns:xlink="http://www.w3.org/1999/xlink" width="204.1015625" height="200"><path d="M878.976 174.933333a38.4 38.4 0 1 1 0 76.8h-533.333333a38.4 38.4 0 1 1 0-76.8h533.333333zM196.309333 174.933333a38.4 38.4 0 1 1 0 76.8h-42.666666a38.4 38.4 0 1 1 0-76.8h42.666666zM196.309333 473.6a38.4 38.4 0 1 1 0 76.8h-42.666666a38.4 38.4 0 1 1 0-76.8h42.666666zM196.309333 772.266667a38.4 38.4 0 1 1 0 76.8h-42.666666a38.4 38.4 0 1 1 0-76.8h42.666666zM868.309333 473.6a38.4 38.4 0 1 1 0 76.8h-533.333333a38.4 38.4 0 1 1 0-76.8h533.333333zM868.309333 772.266667a38.4 38.4 0 1 1 0 76.8h-533.333333a38.4 38.4 0 1 1 0-76.8h533.333333z" p-id="12544"></path></svg>