<svg xmlns="http://www.w3.org/2000/svg" viewBox="0 0 1024 1024" version="1.1"><path d="M576 106.666667a85.333333 85.333333 0 0 1 85.333333 85.333333v170.666667h170.666667a85.333333 85.333333 0 0 1 85.333333 85.333333v384a85.333333 85.333333 0 0 1-85.333333 85.333333H448a85.333333 85.333333 0 0 1-85.333333-85.333333v-170.666667H192a85.333333 85.333333 0 0 1-85.333333-85.333333V192a85.333333 85.333333 0 0 1 85.333333-85.333333h384z m256 341.333333h-170.666667v128a85.333333 85.333333 0 0 1-85.333333 85.333333h-128v170.666667h384V448zM576 192H192v384h170.666667v-128a85.333333 85.333333 0 0 1 85.333333-85.333333h128V192z m0 256h-128v128h128v-128z" p-id="39185"></path></svg>