<?xml version="1.0" standalone="no"?><!DOCTYPE svg PUBLIC "-//W3C//DTD SVG 1.1//EN" "http://www.w3.org/Graphics/SVG/1.1/DTD/svg11.dtd"><svg t="1761726177755" class="icon" viewBox="0 0 1024 1024" version="1.1" xmlns="http://www.w3.org/2000/svg" p-id="12834" xmlns:xlink="http://www.w3.org/1999/xlink" width="200" height="200"><path d="M612.266667 202.666667a25.6 25.6 0 0 0-25.6-25.6h-384a25.6 25.6 0 0 0-25.6 25.6v384a25.6 25.6 0 0 0 25.6 25.6h384a25.6 25.6 0 0 0 25.6-25.6v-384z m76.8 384a102.4 102.4 0 0 1-102.4 102.4h-384a102.4 102.4 0 0 1-102.4-102.4v-384a102.4 102.4 0 0 1 102.4-102.4h384a102.4 102.4 0 0 1 102.4 102.4v384z" p-id="12835"></path><path d="M846.933333 437.333333a25.6 25.6 0 0 0-25.6-25.6h-384a25.6 25.6 0 0 0-25.6 25.6v384a25.6 25.6 0 0 0 25.6 25.6h384a25.6 25.6 0 0 0 25.6-25.6v-384z m76.8 384a102.4 102.4 0 0 1-102.4 102.4h-384a102.4 102.4 0 0 1-102.4-102.4v-384a102.4 102.4 0 0 1 102.4-102.4h384a102.4 102.4 0 0 1 102.4 102.4v384z" p-id="12836"></path></svg>