<?xml version="1.0" standalone="no"?><!DOCTYPE svg PUBLIC "-//W3C//DTD SVG 1.1//EN" "http://www.w3.org/Graphics/SVG/1.1/DTD/svg11.dtd"><svg t="1761726193840" class="icon" viewBox="0 0 1024 1024" version="1.1" xmlns="http://www.w3.org/2000/svg" p-id="12980" xmlns:xlink="http://www.w3.org/1999/xlink" width="200" height="200"><path d="M793.6 192A25.6 25.6 0 0 0 768 166.4H256A25.6 25.6 0 0 0 230.4 192v640a25.6 25.6 0 0 0 25.6 25.6h512a25.6 25.6 0 0 0 25.6-25.6V192z m76.8 640a102.4 102.4 0 0 1-102.4 102.4H256A102.4 102.4 0 0 1 153.6 832V192A102.4 102.4 0 0 1 256 89.6h512A102.4 102.4 0 0 1 870.4 192v640z" p-id="12981"></path><path d="M529.066667 356.16l23.296-16.341333a59.733333 59.733333 0 0 1 64.682666-2.538667l3.925334 2.56 23.296 16.32V169.770667h-115.2v186.389333z m192 32.853333c0 48.341333-54.464 76.650667-94.037334 48.874667L586.666667 409.6l-40.362667 28.309333c-39.573333 27.776-94.037333-0.533333-94.037333-48.896V92.970667h268.8v296.021333z" p-id="12982"></path></svg>