<?xml version="1.0" standalone="no"?><!DOCTYPE svg PUBLIC "-//W3C//DTD SVG 1.1//EN" "http://www.w3.org/Graphics/SVG/1.1/DTD/svg11.dtd"><svg t="1761726228878" class="icon" viewBox="0 0 1024 1024" version="1.1" xmlns="http://www.w3.org/2000/svg" p-id="13272" xmlns:xlink="http://www.w3.org/1999/xlink" width="200" height="200"><path d="M550.4 725.333333a38.4 38.4 0 1 1-76.8 0v-78.570666l-72.234667-63.189334a38.4 38.4 0 0 1 50.602667-57.813333L512 578.304l60.032-52.544a38.4 38.4 0 0 1 50.602667 57.813333L550.4 646.762667V725.333333z" p-id="13273"></path><path d="M793.6 448c0-155.52-126.08-281.6-281.6-281.6-155.52 0-281.6 126.08-281.6 281.6 0 95.872 47.893333 180.565333 121.237333 231.466667 27.669333 19.2 49.429333 51.434667 49.429334 90.154666V832a25.6 25.6 0 0 0 25.6 25.6h170.666666a25.6 25.6 0 0 0 25.6-25.6v-62.378667c0-38.72 21.76-70.933333 49.429334-90.133333C745.706667 628.565333 793.6 543.872 793.6 448z m76.8 0c0 122.112-61.12 229.930667-154.24 294.592-11.306667 7.829333-16.426667 18.304-16.426667 27.029333V832a102.4 102.4 0 0 1-102.4 102.4h-170.666666a102.4 102.4 0 0 1-102.4-102.4v-62.378667c0-8.725333-5.12-19.2-16.426667-27.029333C214.741333 677.952 153.6 570.112 153.6 448c0-197.930667 160.469333-358.4 358.4-358.4S870.4 250.069333 870.4 448z" p-id="13274"></path></svg>