<?xml version="1.0" standalone="no"?><!DOCTYPE svg PUBLIC "-//W3C//DTD SVG 1.1//EN" "http://www.w3.org/Graphics/SVG/1.1/DTD/svg11.dtd"><svg t="1761726257499" class="icon" viewBox="0 0 1024 1024" version="1.1" xmlns="http://www.w3.org/2000/svg" p-id="13418" xmlns:xlink="http://www.w3.org/1999/xlink" width="200" height="200"><path d="M934.4 768a102.4 102.4 0 0 1-102.4 102.4H192a102.421333 102.421333 0 0 1-102.4-102.442667V256.042667A102.421333 102.421333 0 0 1 192 153.6h640a102.4 102.4 0 0 1 102.4 102.4v512z m-76.8-512a25.6 25.6 0 0 0-25.6-25.6H192c-14.101333 0-25.6 11.477333-25.6 25.642667v511.914666c0 14.165333 11.498667 25.642667 25.6 25.642667h640a25.6 25.6 0 0 0 25.6-25.6V256z" p-id="13419"></path><path d="M757.333333 409.6a38.4 38.4 0 1 1 0 76.8h-128a38.4 38.4 0 1 1 0-76.8h128zM693.333333 537.6a38.4 38.4 0 1 1 0 76.8h-64a38.4 38.4 0 1 1 0-76.8h64zM469.333333 426.666667a74.666667 74.666667 0 1 1-149.333333 0 74.666667 74.666667 0 0 1 149.333333 0z" p-id="13420"></path><path d="M473.6 640c0-16.277333-8.106667-33.024-23.509333-46.592-15.530667-13.632-36.010667-21.674667-55.424-21.674667-19.413333 0-39.893333 8.042667-55.424 21.674667-15.424 13.568-23.509333 30.314667-23.509334 46.592a38.4 38.4 0 1 1-76.8 0c0-42.645333 21.12-79.210667 49.621334-104.277333 28.416-24.96 66.602667-40.789333 106.112-40.789334 39.509333 0 77.696 15.829333 106.112 40.789334C529.28 560.789333 550.4 597.376 550.4 640a38.4 38.4 0 1 1-76.8 0z" p-id="13421"></path></svg>