<?xml version="1.0" standalone="no"?><!DOCTYPE svg PUBLIC "-//W3C//DTD SVG 1.1//EN" "http://www.w3.org/Graphics/SVG/1.1/DTD/svg11.dtd"><svg t="1761726270038" class="icon" viewBox="0 0 1024 1024" version="1.1" xmlns="http://www.w3.org/2000/svg" p-id="13565" xmlns:xlink="http://www.w3.org/1999/xlink" width="200" height="200"><path d="M768 89.6A102.4 102.4 0 0 1 870.4 192v640c0 56.576-45.909333 102.4-102.442667 102.4H256.042667A102.421333 102.421333 0 0 1 153.6 832V192A102.4 102.4 0 0 1 256 89.6h512zM256 166.4A25.6 25.6 0 0 0 230.4 192v640c0 14.101333 11.477333 25.6 25.642667 25.6h511.914666c14.165333 0 25.642667-11.498667 25.642667-25.6V192A25.6 25.6 0 0 0 768 166.4H256z" p-id="13566"></path><path d="M650.666667 654.933333a38.4 38.4 0 1 1 0 76.8h-277.333334a38.4 38.4 0 1 1 0-76.8h277.333334zM586.666667 352a74.666667 74.666667 0 1 1-149.333334 0 74.666667 74.666667 0 0 1 149.333334 0z" p-id="13567"></path><path d="M590.933333 565.333333c0-16.277333-8.106667-33.024-23.509333-46.592C551.893333 505.109333 531.413333 497.066667 512 497.066667c-19.413333 0-39.893333 8.042667-55.424 21.674666-15.424 13.568-23.509333 30.314667-23.509333 46.592a38.4 38.4 0 1 1-76.8 0c0-42.624 21.12-79.210667 49.621333-104.277333C434.304 436.096 472.490667 420.266667 512 420.266667c39.509333 0 77.696 15.829333 106.112 40.789333 28.501333 25.066667 49.621333 61.653333 49.621333 104.277333a38.4 38.4 0 1 1-76.8 0z" p-id="13568"></path></svg>