<svg xmlns="http://www.w3.org/2000/svg" viewBox="0 0 1024 1024" version="1.1"><path d="M746.666667 85.333333a128 128 0 0 1 128 128v597.333334a128 128 0 0 1-128 128H277.333333a128 128 0 0 1-128-128V213.333333a128 128 0 0 1 128-128h469.333334z m0 85.333334H277.333333a42.666667 42.666667 0 0 0-42.56 39.466666L234.666667 213.333333v597.333334a42.666667 42.666667 0 0 0 39.466666 42.56L277.333333 853.333333h469.333334a42.666667 42.666667 0 0 0 42.56-39.466666L789.333333 810.666667V213.333333a42.666667 42.666667 0 0 0-39.466666-42.56L746.666667 170.666667zM362.666667 682.666667a21.333333 21.333333 0 0 1 21.333333 21.333333v42.666667a21.333333 21.333333 0 0 1-21.333333 21.333333h-42.666667a21.333333 21.333333 0 0 1-21.333333-21.333333v-42.666667a21.333333 21.333333 0 0 1 21.333333-21.333333h42.666667z m170.666666 0a21.333333 21.333333 0 0 1 21.333334 21.333333v42.666667a21.333333 21.333333 0 0 1-21.333334 21.333333h-42.666666a21.333333 21.333333 0 0 1-21.333334-21.333333v-42.666667a21.333333 21.333333 0 0 1 21.333334-21.333333h42.666666z m170.666667 0a21.333333 21.333333 0 0 1 21.333333 21.333333v42.666667a21.333333 21.333333 0 0 1-21.333333 21.333333h-42.666667a21.333333 21.333333 0 0 1-21.333333-21.333333v-42.666667a21.333333 21.333333 0 0 1 21.333333-21.333333h42.666667z m-341.333333-149.333334a21.333333 21.333333 0 0 1 21.333333 21.333334v42.666666a21.333333 21.333333 0 0 1-21.333333 21.333334h-42.666667a21.333333 21.333333 0 0 1-21.333333-21.333334v-42.666666a21.333333 21.333333 0 0 1 21.333333-21.333334h42.666667z m341.333333 0a21.333333 21.333333 0 0 1 21.333333 21.333334v42.666666a21.333333 21.333333 0 0 1-21.333333 21.333334h-42.666667a21.333333 21.333333 0 0 1-21.333333-21.333334v-42.666666a21.333333 21.333333 0 0 1 21.333333-21.333334h42.666667z m-170.666667 0a21.333333 21.333333 0 0 1 21.333334 21.333334v42.666666a21.333333 21.333333 0 0 1-21.333334 21.333334h-42.666666a21.333333 21.333333 0 0 1-21.333334-21.333334v-42.666666a21.333333 21.333333 0 0 1 21.333334-21.333334h42.666666z m128-320a64 64 0 0 1 63.893334 60.245334L725.333333 277.333333v128a64 64 0 0 1-60.245333 63.893334L661.333333 469.333333H362.666667a64 64 0 0 1-63.893334-60.245333L298.666667 405.333333v-128a64 64 0 0 1 60.245333-63.893333L362.666667 213.333333h298.666666z m-21.333333 85.333334H384v85.333333h256v-85.333333z" p-id="39255"></path></svg>