<?xml version="1.0" standalone="no"?><!DOCTYPE svg PUBLIC "-//W3C//DTD SVG 1.1//EN" "http://www.w3.org/Graphics/SVG/1.1/DTD/svg11.dtd"><svg t="1766629074117" class="icon" viewBox="0 0 1024 1024" version="1.1" xmlns="http://www.w3.org/2000/svg" p-id="6065" xmlns:xlink="http://www.w3.org/1999/xlink" width="200" height="200"><path d="M192 524.8a12.8 12.8 0 0 1 12.8-12.8H277.333333a64 64 0 0 1 64 64h-98.133333A51.2 51.2 0 0 1 192 524.8zM819.2 512a12.8 12.8 0 0 1 12.8 12.8 51.2 51.2 0 0 1-51.2 51.2H682.666667a64 64 0 0 1 64-64h72.533333z" p-id="6066"></path><path d="M156.437333 405.333333H85.333333a21.333333 21.333333 0 0 0-21.333333 21.333334v21.333333a42.666667 42.666667 0 0 0 37.866667 42.410667A170.666667 170.666667 0 0 0 85.333333 563.669333V746.666667a85.333333 85.333333 0 0 0 85.333334 85.333333h31.573333a85.333333 85.333333 0 0 0 56.682667-21.546667l59.626666-53.013333A42.666667 42.666667 0 0 1 346.88 746.666667h330.24a42.666667 42.666667 0 0 1 28.330667 10.773333l59.626666 53.013333A85.333333 85.333333 0 0 0 821.781333 832H853.333333a85.333333 85.333333 0 0 0 85.333334-85.333333v-182.997334a170.645333 170.645333 0 0 0-16.533334-73.258666A42.666667 42.666667 0 0 0 960 448v-21.333333a21.333333 21.333333 0 0 0-21.333333-21.333334h-71.104l-91.562667-137.344A170.666667 170.666667 0 0 0 633.984 192H390.016a170.666667 170.666667 0 0 0-142.016 75.989333L156.437333 405.333333z m233.578667-128h243.968a85.333333 85.333333 0 0 1 71.018667 37.994667L764.992 405.333333H259.008l59.989333-90.005333A85.333333 85.333333 0 0 1 390.016 277.333333z m431.872 213.333334l17.109333 25.664a85.333333 85.333333 0 0 1 14.336 47.36V746.666667h-31.573333l-59.605333-52.992A128 128 0 0 0 677.12 661.333333H346.88a128 128 0 0 0-85.034667 32.341334L202.24 746.666667H170.666667v-182.997334a85.333333 85.333333 0 0 1 14.336-47.338666L202.112 490.666667h619.776z" p-id="6067"></path></svg>