<?xml version="1.0" standalone="no"?><!DOCTYPE svg PUBLIC "-//W3C//DTD SVG 1.1//EN" "http://www.w3.org/Graphics/SVG/1.1/DTD/svg11.dtd"><svg t="1766628918221" class="icon" viewBox="0 0 1024 1024" version="1.1" xmlns="http://www.w3.org/2000/svg" p-id="6652" xmlns:xlink="http://www.w3.org/1999/xlink" width="200" height="200"><path d="M683.733333 683.434667a102.4 102.4 0 0 1 93.589334 60.8l8.874666 19.989333a25.6 25.6 0 0 0 23.381334 15.210667H832a25.6 25.6 0 0 0 25.6-25.6V531.392a68.288 68.288 0 0 0-28.586667-55.573333l-19.989333-14.272H214.976l-19.989333 14.293333c-17.941333 12.8-28.586667 33.493333-28.586667 55.552v222.442667a25.6 25.6 0 0 0 25.6 25.6h22.4a25.6 25.6 0 0 0 23.381333-15.210667l8.896-19.989333a102.4 102.4 0 0 1 93.568-60.8h343.509334z m-35.456-432.042667a1369.792 1369.792 0 0 0-272.554666 0l-43.605334 4.352a25.6 25.6 0 0 0-18.56 11.008l-10.837333 15.829333a388.266667 388.266667 0 0 0-49.749333 102.186667h518.058666a388.266667 388.266667 0 0 0-49.749333-102.186667l-10.816-15.829333a25.6 25.6 0 0 0-18.581333-11.008l-43.605334-4.352zM934.4 753.834667a102.4 102.4 0 0 1-102.4 102.4h-22.4a102.4 102.4 0 0 1-93.589333-60.821334l-8.874667-19.989333a25.6 25.6 0 0 0-23.381333-15.210667H340.245333a25.6 25.6 0 0 0-23.36 15.210667l-8.896 19.989333a102.4 102.4 0 0 1-93.568 60.8H192a102.4 102.4 0 0 1-102.4-102.4V531.413333a145.066667 145.066667 0 0 1 60.757333-118.058666l18.688-13.354667 4.352-16.512a465.152 465.152 0 0 1 65.92-144.277333l10.858667-15.786667a102.4 102.4 0 0 1 74.304-44.074667l43.605333-4.373333a1446.4 1446.4 0 0 1 287.829334 0l43.605333 4.373333a102.4 102.4 0 0 1 74.304 44.053334l10.837333 15.808a465.194667 465.194667 0 0 1 65.941334 144.277333l4.330666 16.512 18.709334 13.376a145.066667 145.066667 0 0 1 60.757333 118.037333v222.442667z" p-id="6653"></path><path d="M192 537.706667v-9.066667c0-25.386667 25.173333-43.093333 49.066667-34.496 21.12 7.594667 41.28 17.6 60.117333 29.802667l30.570667 19.797333a15.786667 15.786667 0 0 1-4.906667 28.608c-29.76 7.146667-60.586667 8.810667-90.944 4.949333L225.706667 576A38.613333 38.613333 0 0 1 192 537.706667zM832 537.706667v-9.066667c0-25.386667-25.173333-43.093333-49.066667-34.496-21.12 7.594667-41.28 17.6-60.117333 29.802667l-30.570667 19.797333a15.786667 15.786667 0 0 0 4.906667 28.608c29.76 7.146667 60.586667 8.810667 90.944 4.949333L798.293333 576A38.613333 38.613333 0 0 0 832 537.706667zM842.666667 374.272a21.333333 21.333333 0 0 1 25.322666-20.970667l32 6.101334a21.333333 21.333333 0 0 1 17.344 20.949333v5.632a21.333333 21.333333 0 0 1-19.306666 21.226667l-32 3.050666a21.333333 21.333333 0 0 1-23.36-21.248v-14.741333zM181.333333 374.272a21.333333 21.333333 0 0 0-25.322666-20.949333l-32 6.08A21.333333 21.333333 0 0 0 106.666667 380.373333v5.610667a21.333333 21.333333 0 0 0 19.306666 21.226667l32 3.050666a21.333333 21.333333 0 0 0 23.36-21.226666v-14.762667z" p-id="6654"></path></svg>