<?xml version="1.0" standalone="no"?><!DOCTYPE svg PUBLIC "-//W3C//DTD SVG 1.1//EN" "http://www.w3.org/Graphics/SVG/1.1/DTD/svg11.dtd"><svg t="1766628950342" class="icon" viewBox="0 0 1024 1024" version="1.1" xmlns="http://www.w3.org/2000/svg" p-id="6799" xmlns:xlink="http://www.w3.org/1999/xlink" width="200" height="200"><path d="M459.541333 278.677333c20.181333-45.482667 84.736-45.482667 104.917334 0l19.562666 44.053334 47.722667 5.461333c48.661333 5.546667 68.437333 65.6 32.64 98.986667l-36.330667 33.856 9.813334 48.789333c9.749333 48.490667-42.325333 85.76-85.098667 60.949333L512 547.093333l-40.768 23.68c-42.773333 24.832-94.848-12.458667-85.12-60.949333l9.813333-48.789333-36.309333-33.856c-35.797333-33.386667-16.021333-93.44 32.64-98.986667l47.701333-5.461333 19.584-44.074667z m41.301334 78.784a57.408 57.408 0 0 1-45.930667 33.706667l-28.224 3.242667 21.824 20.352c14.570667 13.589333 21.056 33.770667 17.130667 53.290666l-5.76 28.672 23.296-13.525333a57.386667 57.386667 0 0 1 57.642666 0l23.274667 13.525333-5.76-28.672a57.429333 57.429333 0 0 1 17.152-53.290666l21.802667-20.352-28.202667-3.221334a57.408 57.408 0 0 1-45.930667-33.728L512 332.330667l-11.157333 25.130666z" p-id="6800"></path><path d="M512 70.250667c188.522667 0 341.333333 152.810667 341.333333 341.333333 0 117.333333-59.2 220.8-149.333333 282.24v144.874667c0 61.824-66.410667 100.906667-120.426667 70.890666L512 869.824l-71.573333 39.765333C386.410667 939.605333 320 900.522667 320 838.72v-144.896c-90.133333-61.44-149.333333-164.906667-149.333333-282.24 0-188.522667 152.810667-341.333333 341.333333-341.333333z m115.2 662.698666a340.693333 340.693333 0 0 1-115.2 19.968 340.693333 340.693333 0 0 1-115.2-19.968v105.770667a3.946667 3.946667 0 0 0 2.090667 3.669333 3.946667 3.946667 0 0 0 4.224 0.064l79.872-44.373333a59.733333 59.733333 0 0 1 58.026666 0l79.829334 44.373333a3.946667 3.946667 0 0 0 2.133333 0.597334c0.597333-0.021333 1.344-0.213333 2.112-0.64a4.565333 4.565333 0 0 0 1.6-1.557334 3.989333 3.989333 0 0 0 0.490667-2.133333v-105.770667zM512 147.050667c-146.090667 0-264.533333 118.442667-264.533333 264.533333 0 146.090667 118.442667 264.533333 264.533333 264.533333 146.090667 0 264.533333-118.442667 264.533333-264.533333 0-146.090667-118.442667-264.533333-264.533333-264.533333z" p-id="6801"></path></svg>