<?xml version="1.0" standalone="no"?><!DOCTYPE svg PUBLIC "-//W3C//DTD SVG 1.1//EN" "http://www.w3.org/Graphics/SVG/1.1/DTD/svg11.dtd"><svg t="1766629138465" class="icon" viewBox="0 0 1024 1024" version="1.1" xmlns="http://www.w3.org/2000/svg" p-id="6065" xmlns:xlink="http://www.w3.org/1999/xlink" width="200" height="200"><path d="M681.6 507.306667c0-151.488-105.6-271.573333-270.933333-271.573334-165.333333 0-270.933333 120.085333-270.933334 271.573334 0 66.496 23.530667 136.874667 66.133334 179.562666l16.106666 16.170667-21.589333 72.746667c-0.426667 1.365333-0.256 2.048-0.128 2.432a4.693333 4.693333 0 0 0 1.450667 2.048 4.693333 4.693333 0 0 0 2.282666 1.066666c0.384 0.064 1.088 0.128 2.346667-0.512l76.117333-37.696 17.450667 9.344 0.149333 0.064 0.576 0.32 2.282667 1.194667c2.005333 1.045333 4.778667 2.474667 7.957333 4.053333 6.677333 3.306667 13.866667 6.677333 18.922667 8.597334 29.013333 11.029333 49.621333 12.224 80.874667 12.224 165.333333 0 270.933333-120.106667 270.933333-271.594667z m76.8 0c0 190.933333-137.024 348.416-347.733333 348.416-34.666667 0-66.218667-1.28-108.16-17.258667a276.842667 276.842667 0 0 1-20.885334-9.237333l-41.173333 20.416c-63.445333 31.402667-133.845333-27.861333-113.706667-95.722667l8.96-30.208c-49.621333-59.968-72.746667-142.634667-72.746666-216.384C62.933333 316.416 199.936 158.933333 410.666667 158.933333c210.709333 0 347.733333 157.482667 347.733333 348.373334z" p-id="6066"></path><path d="M961.066667 586.666667c0-101.973333-50.112-193.109333-136.96-241.813334a274.346667 274.346667 0 0 0-15.573334-8.085333 38.4 38.4 0 0 0-33.152 69.290667l3.733334 1.813333c2.517333 1.28 5.013333 2.624 7.466666 3.989333 60.8 34.090667 97.706667 98.496 97.706667 174.784 0 49.557333-18.048 101.504-49.813333 132.565334l-16.661334 16.32 12.48 41.066666c0.426667 1.365333 0.256 2.048 0.149334 2.432a4.693333 4.693333 0 0 1-1.450667 2.026667 4.672 4.672 0 0 1-2.24 1.109333c-0.405333 0.064-1.109333 0.128-2.389333-0.490666l-45.461334-21.973334-17.109333 8.917334h-0.021333l-0.085334 0.042666-0.426666 0.234667a271.381333 271.381333 0 0 1-7.978667 3.989333c-5.269333 2.56-10.709333 5.013333-14.336 6.378667-21.802667 8.085333-37.12 9.002667-61.610667 9.002667a38.4 38.4 0 0 0 0 76.8c27.797333 0 53.845333-1.002667 88.32-13.802667 4.586667-1.706667 9.514667-3.904 13.952-5.952l11.328 5.504c62.976 30.442667 131.946667-27.733333 113.408-94.506667 38.805333-47.957333 56.725333-112.32 56.725334-169.664zM218.666667 528a42.666667 42.666667 0 1 1 85.333333 0 42.666667 42.666667 0 0 1-85.333333 0zM368 528a42.666667 42.666667 0 1 1 85.333333 0 42.666667 42.666667 0 0 1-85.333333 0zM517.333333 528a42.666667 42.666667 0 1 1 85.333334 0 42.666667 42.666667 0 0 1-85.333334 0z" p-id="6067"></path></svg>