<svg t="1761726508336" class="icon" viewBox="0 0 1045 1024" version="1.1" xmlns="http://www.w3.org/2000/svg" p-id="14352" width="200" height="200"><path d="M95.317333 546.325333a81.109333 81.109333 0 0 1 0-68.586666l140.906667-301.930667a38.4 38.4 0 1 1 69.589333 32.448L164.906667 510.208a4.309333 4.309333 0 0 0 0 3.626667l140.906666 301.973333a38.4 38.4 0 1 1-69.589333 32.448L95.317333 546.346667zM937.386667 546.325333a81.109333 81.109333 0 0 0 0-68.586666L796.48 175.808a38.4 38.4 0 1 0-69.589333 32.448l140.928 301.952a4.288 4.288 0 0 1 0 3.626667l-140.928 301.973333a38.4 38.4 0 1 0 69.589333 32.448L937.386667 546.346667zM390.933333 831.786667l176.682667-659.413334a38.4 38.4 0 1 1 74.176 19.861334l-176.682667 659.413333a38.4 38.4 0 1 1-74.176-19.882667z" p-id="14353"></path></svg>