<?xml version="1.0" standalone="no"?><!DOCTYPE svg PUBLIC "-//W3C//DTD SVG 1.1//EN" "http://www.w3.org/Graphics/SVG/1.1/DTD/svg11.dtd"><svg t="1766627865582" class="icon" viewBox="0 0 1045 1024" version="1.1" xmlns="http://www.w3.org/2000/svg" p-id="7097" xmlns:xlink="http://www.w3.org/1999/xlink" width="204.1015625" height="200"><path d="M784.213333 487.082667v-298.666667a25.6 25.6 0 0 0-25.6-25.6h-512a25.6 25.6 0 0 0-25.6 25.6v640c0 14.165333 11.456 25.6 25.557334 25.6h189.824a38.4 38.4 0 1 1 0 76.8h-189.824a102.357333 102.357333 0 0 1-102.357334-102.4v-640a102.4 102.4 0 0 1 102.4-102.4h512a102.4 102.4 0 0 1 102.4 102.4v298.666667a38.4 38.4 0 1 1-76.8 0z" p-id="7098"></path><path d="M353.28 408.149333a38.4 38.4 0 1 1 0-76.8h298.666667a38.4 38.4 0 1 1 0 76.8h-298.666667zM353.28 578.816a38.4 38.4 0 1 1 0-76.8h192a38.4 38.4 0 1 1 0 76.8h-192zM645.333333 605.12c18.538667-26.965333 58.666667-26.965333 77.226667 0l1.770667 2.794667 36.373333 61.482666 69.738667 15.616c34.816 7.808 48.533333 50.048 24.96 76.8l-47.232 53.653334 6.698666 71.125333c3.349333 35.498667-32.597333 61.610667-65.344 47.466667l-65.578666-28.352-65.6 28.373333c-32.746667 14.122667-68.693333-11.989333-65.344-47.488l6.677333-71.125333-47.189333-53.632c-23.594667-26.773333-9.856-69.013333 24.96-76.8l69.696-15.637334 36.394666-61.482666 1.792-2.773334z m21.333334 114.496a46.933333 46.933333 0 0 1-30.122667 21.909333l-33.109333 7.381334 22.4 25.472a46.933333 46.933333 0 0 1 11.541333 35.413333l-3.2 33.749333 31.146667-13.44 4.501333-1.685333a46.933333 46.933333 0 0 1 28.224 0l4.522667 1.706667 31.104 13.418666-3.178667-33.749333a46.933333 46.933333 0 0 1 11.52-35.413333l22.4-25.472-33.066667-7.381334a46.954667 46.954667 0 0 1-30.144-21.909333l-17.28-29.184-17.258666 29.184z" p-id="7099"></path></svg>