<?xml version="1.0" standalone="no"?><!DOCTYPE svg PUBLIC "-//W3C//DTD SVG 1.1//EN" "http://www.w3.org/Graphics/SVG/1.1/DTD/svg11.dtd"><svg t="1761726801647" class="icon" viewBox="0 0 1024 1024" version="1.1" xmlns="http://www.w3.org/2000/svg" p-id="15167" xmlns:xlink="http://www.w3.org/1999/xlink" width="200" height="200"><path d="M529.770667 118.570667a346.858667 346.858667 0 0 1 340.906666 282.922666l10.026667 53.354667c60.842667 28.032 103.466667 89.344 103.466667 160.768 0 98.048-80.234667 177.066667-177.770667 177.066667-7.125333 0-14.08-0.853333-20.757333-2.432-8.298667 11.434667-18.410667 22.4-29.141334 32.341333a334.933333 334.933333 0 0 1-59.157333 43.370667 335.146667 335.146667 0 0 1-67.157333 29.546666c-21.525333 6.656-44.48 10.986667-64.746667 9.728a38.4 38.4 0 0 1 4.821333-76.650666c7.210667 0.448 20.117333-1.173333 37.226667-6.464a258.176 258.176 0 0 0 96.832-55.893334c9.813333-9.088 16.64-17.194667 20.821333-23.402666a89.962667 89.962667 0 0 1-9.770666-40.896v-172.608c0-48.064 37.44-86.997333 84.16-90.496l-4.330667-23.189334a270.08 270.08 0 0 0-530.858667 0l-4.352 23.189334c46.72 3.498667 84.181333 42.432 84.181334 90.474666v172.629334c0 50.368-41.173333 90.752-91.029334 90.752-97.536 0-177.770667-79.018667-177.770666-177.066667 0-71.424 42.624-132.736 103.466666-160.768l10.026667-53.333333a346.858667 346.858667 0 0 1 340.906667-282.944z m-276.629334 396.8c-55.616 0-100.970667 45.12-100.970666 100.266666 0 55.104 45.354667 100.266667 100.970666 100.266667a14.208 14.208 0 0 0 14.229334-13.973333v-172.608a14.208 14.208 0 0 0-14.229334-13.973334z m553.258667 0a14.208 14.208 0 0 0-14.229333 13.930666v172.629334c0 7.466667 6.272 13.952 14.229333 13.973333 55.616 0 100.970667-45.162667 100.970667-100.266667 0-55.146667-45.354667-100.266667-100.970667-100.266666z" fill="#60636B" p-id="15168"></path><path d="M583.402667 647.317333a38.4 38.4 0 1 1 63.402666 43.306667c-25.216 36.928-71.850667 59.392-117.034666 59.392s-91.818667-22.464-117.034667-59.413333a38.4 38.4 0 1 1 63.402667-43.306667c9.557333 13.994667 31.296 25.941333 53.632 25.941333 22.357333 0 44.074667-11.946667 53.632-25.92z" fill="#60636B" p-id="15169"></path></svg>