<?xml version="1.0" standalone="no"?><!DOCTYPE svg PUBLIC "-//W3C//DTD SVG 1.1//EN" "http://www.w3.org/Graphics/SVG/1.1/DTD/svg11.dtd"><svg t="1761726889032" class="icon" viewBox="0 0 1024 1024" version="1.1" xmlns="http://www.w3.org/2000/svg" p-id="15754" xmlns:xlink="http://www.w3.org/1999/xlink" width="200" height="200"><path d="M90.752 213.333333v330.666667a102.4 102.4 0 0 0 102.4 102.4h149.333333v-76.8h-149.333333a25.6 25.6 0 0 1-25.6-25.6V213.333333a25.6 25.6 0 0 1 25.6-25.6h149.333333V110.933333h-149.333333a102.4 102.4 0 0 0-102.4 102.4z" p-id="15755"></path><path d="M550.848 913.066667c96.512 0 163.797333-95.744 131.114667-186.538667L653.098667 646.4h177.706666a102.4 102.4 0 0 0 100.693334-121.130667l-61.546667-330.666666A102.421333 102.421333 0 0 0 769.28 110.933333H304.106667v480.490667a102.4 102.4 0 0 0 12.864 49.706667l45.290666 81.514666 0.085334 0.192 67.072 119.210667A139.349333 139.349333 0 0 0 550.826667 913.066667z m-169.984-725.333334H769.28c12.330667 0 22.933333 8.810667 25.173333 20.906667l61.525334 330.666667a25.6 25.6 0 0 1-25.173334 30.293333h-208.704a54.997333 54.997333 0 0 0-51.754666 73.621333l39.36 109.312a62.570667 62.570667 0 1 1-113.386667 51.84l-67.050667-119.210666-45.162666-81.301334a25.6 25.6 0 0 1-3.221334-12.437333V187.733333z" p-id="15756"></path></svg>