<?xml version="1.0" standalone="no"?><!DOCTYPE svg PUBLIC "-//W3C//DTD SVG 1.1//EN" "http://www.w3.org/Graphics/SVG/1.1/DTD/svg11.dtd"><svg t="1761727060272" class="icon" viewBox="0 0 1045 1024" version="1.1" xmlns="http://www.w3.org/2000/svg" p-id="16567" xmlns:xlink="http://www.w3.org/1999/xlink" width="204.1015625" height="200"><path d="M115.242667 810.666667V213.333333a102.4 102.4 0 0 1 102.4-102.4h232.746666a38.4 38.4 0 1 1 0 76.8h-232.746666a25.6 25.6 0 0 0-25.6 25.6v597.333334a25.6 25.6 0 0 0 25.6 25.6h597.333333a25.6 25.6 0 0 0 25.6-25.6V577.92a38.4 38.4 0 0 1 76.8 0V810.666667a102.4 102.4 0 0 1-102.4 102.4h-597.333333a102.4 102.4 0 0 1-102.4-102.4z" p-id="16568"></path><path d="M647.850667 434.773333a38.4 38.4 0 1 1-54.293334-54.314666L819.84 154.176a38.4 38.4 0 1 1 54.293333 54.314667L647.850667 434.752z" p-id="16569"></path><path d="M652.714667 189.994667a38.4 38.4 0 1 1 0-76.8h224a38.4 38.4 0 1 1 0 76.8h-224z" p-id="16570"></path><path d="M915.093333 375.594667a38.4 38.4 0 1 1-76.8 0v-224a38.4 38.4 0 1 1 76.8 0v224z" p-id="16571"></path></svg>