<svg t="1761727391450" class="icon" viewBox="0 0 1024 1024" version="1.1" xmlns="http://www.w3.org/2000/svg" p-id="18551" width="200" height="200"><path d="M153.642667 831.957333v-640a102.4 102.4 0 0 1 102.4-102.4H570.88a102.4 102.4 0 0 1 72.384 29.994667l197.205333 197.184a102.4 102.4 0 0 1 29.973334 72.384v442.837333a102.4 102.4 0 0 1-102.4 102.4h-512a102.4 102.4 0 0 1-102.4-102.4z m76.8 0a25.6 25.6 0 0 0 25.6 25.6h512a25.6 25.6 0 0 0 25.6-25.6V389.12a25.6 25.6 0 0 0-7.488-18.069333l-197.205334-197.205334a25.6 25.6 0 0 0-18.069333-7.488H256.042667a25.6 25.6 0 0 0-25.6 25.6v640z" p-id="18552"></path><path d="M562.218667 522.624h-188.842667v149.333333h188.842667v-5.461333a36.266667 36.266667 0 0 1 39.146666-36.16l4.202667 0.576 45.141333 8.981333V554.666667l-45.141333 9.002666a36.266667 36.266667 0 0 1-43.349333-35.584v-5.461333z m152.490666 127.274667c0 36.842667-34.56 61.781333-68.544 54.357333l-23.530666-4.672a56.469333 56.469333 0 0 1-52.821334 36.373333h-204.074666c-30.272 0-56.362667-24.106667-56.362667-55.701333v-165.930667c0-31.594667 26.090667-55.68 56.384-55.701333h204.053333c23.68 0 44.757333 14.784 52.821334 36.352l23.530666-4.672c33.984-7.424 68.544 17.536 68.544 54.4v105.173333z" p-id="18553"></path></svg>