<?xml version="1.0" standalone="no"?><!DOCTYPE svg PUBLIC "-//W3C//DTD SVG 1.1//EN" "http://www.w3.org/Graphics/SVG/1.1/DTD/svg11.dtd"><svg t="1761727285088" class="icon" viewBox="0 0 1024 1024" version="1.1" xmlns="http://www.w3.org/2000/svg" p-id="17793" xmlns:xlink="http://www.w3.org/1999/xlink" width="200" height="200"><path d="M153.642667 831.957333v-640a102.4 102.4 0 0 1 102.4-102.4H570.88a102.4 102.4 0 0 1 72.384 29.994667l197.205333 197.184a102.4 102.4 0 0 1 29.973334 72.384v442.837333a102.4 102.4 0 0 1-102.4 102.4h-512a102.4 102.4 0 0 1-102.4-102.4z m76.8 0a25.6 25.6 0 0 0 25.6 25.6h512a25.6 25.6 0 0 0 25.6-25.6V389.12a25.6 25.6 0 0 0-7.488-18.069333l-197.205334-197.205334a25.6 25.6 0 0 0-18.069333-7.488H256.042667a25.6 25.6 0 0 0-25.6 25.6v640z" p-id="17794"></path><path d="M512.042667 426.624a21.333333 21.333333 0 0 0-21.333334 21.333333v160.746667a85.333333 85.333333 0 1 0 42.666667 73.92v-178.218667c15.637333 17.706667 42.666667 28.885333 64 28.885334 35.349333 0 70.954667-33.344 48.853333-60.928-12.074667-15.104-33.344-24.405333-70.186666-24.405334h-42.666667a21.333333 21.333333 0 0 0-21.333333-21.333333z" p-id="17795"></path></svg>