<?xml version="1.0" standalone="no"?><!DOCTYPE svg PUBLIC "-//W3C//DTD SVG 1.1//EN" "http://www.w3.org/Graphics/SVG/1.1/DTD/svg11.dtd"><svg t="1761727357202" class="icon" viewBox="0 0 1024 1024" version="1.1" xmlns="http://www.w3.org/2000/svg" p-id="18405" xmlns:xlink="http://www.w3.org/1999/xlink" width="200" height="200"><path d="M613.12 520.832h-71.424v225.792H488.32V520.832h-71.424v-47.616h196.224v47.616z" p-id="18406"></path><path d="M153.642667 831.957333v-640a102.4 102.4 0 0 1 102.4-102.4H570.88a102.4 102.4 0 0 1 72.384 29.994667l197.205333 197.184a102.4 102.4 0 0 1 29.973334 72.384v442.837333a102.4 102.4 0 0 1-102.4 102.4h-512a102.4 102.4 0 0 1-102.4-102.4z m76.8 0a25.6 25.6 0 0 0 25.6 25.6h512a25.6 25.6 0 0 0 25.6-25.6V389.12a25.6 25.6 0 0 0-7.488-18.069333l-197.205334-197.205334a25.6 25.6 0 0 0-18.069333-7.488H256.042667a25.6 25.6 0 0 0-25.6 25.6v640z" p-id="18407"></path></svg>