<?xml version="1.0" standalone="no"?><!DOCTYPE svg PUBLIC "-//W3C//DTD SVG 1.1//EN" "http://www.w3.org/Graphics/SVG/1.1/DTD/svg11.dtd"><svg t="1761727249569" class="icon" viewBox="0 0 1024 1024" version="1.1" xmlns="http://www.w3.org/2000/svg" p-id="17443" xmlns:xlink="http://www.w3.org/1999/xlink" width="200" height="200"><path d="M153.642667 831.957333v-640a102.4 102.4 0 0 1 102.4-102.4H570.88a102.4 102.4 0 0 1 72.384 29.994667l197.205333 197.184a102.4 102.4 0 0 1 29.973334 72.384v442.837333a102.4 102.4 0 0 1-102.4 102.4h-512a102.4 102.4 0 0 1-102.4-102.4z m76.8 0a25.6 25.6 0 0 0 25.6 25.6h512a25.6 25.6 0 0 0 25.6-25.6V389.12a25.6 25.6 0 0 0-7.488-18.069333l-197.205334-197.205334a25.6 25.6 0 0 0-18.069333-7.488H256.042667a25.6 25.6 0 0 0-25.6 25.6v640z" p-id="17444"></path><path d="M688 663.530667c0 18.56-6.4 32-15.68 41.28-9.6 9.28-25.6 14.72-40.64 14.72-15.36 0-30.4-4.8-40.64-14.72-11.52-10.88-15.68-25.28-15.68-38.72h42.88c0 4.8 0.96 8.96 3.2 12.16 2.24 2.88 5.44 4.48 10.24 4.48 4.16 0 7.68-1.6 10.24-4.48 2.24-2.56 3.2-6.4 3.2-11.2v-33.6a44.8 44.8 0 0 1-10.24 9.28c-3.84 2.24-8.64 3.2-15.04 3.2-16 0-23.04-3.2-31.36-13.12-11.2-13.44-14.08-32.64-14.08-66.56s2.88-52.8 14.08-66.24c8.32-9.92 15.36-13.44 31.36-13.44 5.44 0 11.52 1.6 16.32 4.16 4.16 2.24 7.68 5.44 10.88 8.64v-10.24h40.96v174.4z m-42.88-70.4v-52.48c0-5.44-1.28-9.28-3.84-11.84a12.544 12.544 0 0 0-9.6-3.84c-5.44 0-8.32 2.56-11.2 6.72-3.52 5.44-3.2 21.76-3.2 35.2 0 13.44-0.32 29.76 3.2 35.2 2.88 4.16 5.76 6.72 11.2 6.72a12.373333 12.373333 0 0 0 9.92-4.16c2.24-2.56 3.52-6.4 3.52-11.52zM548.266667 575.210667c0 34.24 0 59.84-11.818667 74.56-8.32 10.56-17.92 14.08-32 14.08-5.44 0-11.52-1.6-16.32-4.16a44.693333 44.693333 0 0 1-10.56-8.64v65.92h-42.88v-227.84h40.96v12.48c1.92-3.2 8.64-8.64 12.48-10.88 4.8-2.56 10.88-4.16 16.32-4.16 14.08 0 23.68 3.52 32 14.08 11.84 14.72 11.84 40.32 11.84 74.56z m-42.88 0c0-19.52 0-36.48-3.2-43.52a12.074667 12.074667 0 0 0-11.178667-6.72c-3.2 0-6.72 1.28-9.28 3.52-2.56 2.56-4.16 6.72-4.16 12.16v69.12c0 5.44 1.6 9.6 4.16 12.16 2.56 2.24 6.08 3.52 9.28 3.52 4.16 0 8.96-1.92 11.2-6.72 3.2-7.04 3.2-24 3.2-43.52zM398.976 661.610667c0 22.4-7.68 36.16-19.84 44.8-12.48 8.96-26.56 10.56-44.16 10.56v-38.4c14.72 0 21.12-4.8 21.12-19.84v-162.88h42.88v165.76z m1.28-184.64h-45.44v-45.44h45.44v45.44z" p-id="17445"></path></svg>