<svg xmlns="http://www.w3.org/2000/svg" viewBox="0 0 1024 1024" version="1.1"><path d="M627.498667 97.834667l-0.362667-0.384c5.973333 3.562667 11.52 7.893333 16.533333 12.885333l205.994667 205.994667c5.013333 5.013333 9.322667 10.56 12.885333 16.533333a41.813333 41.813333 0 0 1 11.733334 35.882667c0.256 2.624 0.384 5.269333 0.384 7.936V810.666667a128 128 0 0 1-128 128H277.333333a128 128 0 0 1-128-128V213.333333a128 128 0 0 1 128-128h305.984c2.666667 0 5.333333 0.128 7.978667 0.362667l0.64-0.064a41.749333 41.749333 0 0 1 35.562667 12.202667zM554.666667 170.666667H277.333333a42.666667 42.666667 0 0 0-42.56 39.466666L234.666667 213.333333v597.333334a42.666667 42.666667 0 0 0 39.466666 42.56L277.333333 853.333333h469.333334a42.666667 42.666667 0 0 0 42.56-39.466666L789.333333 810.666667V405.333333h-192a42.666667 42.666667 0 0 1-42.56-39.466666L554.666667 362.666667l-0.021334-192z m-151.402667 394.090666c15.914667 0 29.397333 5.866667 40.448 17.621334 11.029333 11.733333 16.554667 29.013333 16.554667 51.754666 0 24-5.397333 42.282667-16.192 54.869334-10.773333 12.586667-24.682667 18.88-41.685334 18.88-10.816 0-19.84-2.709333-26.986666-8.128a52.373333 52.373333 0 0 1-11.52-13.12v70.997333h-35.242667v-189.866667h34.133333v20.117334l2.346667-3.413334c3.136-4.330667 6.442667-7.850667 9.898667-10.602666 7.914667-6.08 17.344-9.109333 28.245333-9.109334z m206.762667-44.757333V704H575.36v-18.88l-2.602667 3.861333a47.061333 47.061333 0 0 1-14.784 13.76c-6.485333 3.669333-14.570667 5.504-24.234666 5.504-15.936 0-29.312-6.442667-40.192-19.306666-10.88-12.885333-16.32-29.397333-16.32-49.557334 0-23.253333 5.354667-41.557333 16.064-54.890666s25.024-19.989333 42.944-19.989334c8.234667 0 15.573333 1.813333 21.994666 5.44 6.4 3.626667 11.626667 8.64 15.616 15.061334v-65.002667h36.138667z m82.624-2.133333c2.24 0 4.288 0.064 6.122666 0.213333 1.834667 0.106667 4.330667 0.298667 7.488 0.554667v28.992l-1.344-0.149334a151.296 151.296 0 0 0-8.704-0.426666c-4.693333-0.106667-7.957333 0.938667-9.749333 3.136a11.328 11.328 0 0 0-2.688 7.317333v11.498667h23.36v25.130666h-23.36V704h-35.498667v-109.866667h-19.882666v-25.130666h19.498666v-8.746667l0.085334-4.693333c0.490667-12.074667 2.922667-20.544 7.296-25.429334 5.162667-8.170667 17.621333-12.266667 37.376-12.266666z m-148.373334 77.76c-10.432 0-18.069333 3.925333-22.933333 11.818666-4.885333 7.872-7.317333 17.642667-7.317333 29.312 0 12.586667 2.474667 22.634667 7.424 30.186667 4.970667 7.530667 12.48 11.306667 22.570666 11.306667 10.090667 0 17.749333-3.754667 22.997334-11.242667 5.248-7.509333 7.893333-17.216 7.893333-29.141333 0-16.64-4.224-28.586667-12.650667-35.733334a27.178667 27.178667 0 0 0-17.984-6.506666z m-151.253333 0.256c-12.928 0-21.802667 6.122667-26.624 18.368-2.496 6.506667-3.754667 14.741333-3.754667 24.746666 0 15.829333 4.202667 26.965333 12.629334 33.386667 4.992 3.733333 10.922667 5.610667 17.749333 5.610667 9.92 0 17.493333-3.84 22.677333-11.498667 5.205333-7.68 7.829333-17.877333 7.829334-30.613333 0-10.517333-2.410667-19.797333-7.189334-27.882667-4.8-8.085333-12.586667-12.117333-23.317333-12.117333zM640 231.018667V320h88.981333L640 231.018667z" p-id="39505"></path></svg>