<?xml version="1.0" standalone="no"?><!DOCTYPE svg PUBLIC "-//W3C//DTD SVG 1.1//EN" "http://www.w3.org/Graphics/SVG/1.1/DTD/svg11.dtd"><svg t="1766627488102" class="icon" viewBox="0 0 1045 1024" version="1.1" xmlns="http://www.w3.org/2000/svg" p-id="6360" xmlns:xlink="http://www.w3.org/1999/xlink" width="204.1015625" height="200"><path d="M814.976 891.733333h-597.333333a102.4 102.4 0 0 1-102.4-102.4v-74.666666a38.4 38.4 0 1 1 76.8 0V789.333333a25.6 25.6 0 0 0 25.6 25.6h597.333333a25.6 25.6 0 0 0 25.6-25.6v-74.666666a38.4 38.4 0 1 1 76.8 0V789.333333a102.4 102.4 0 0 1-102.4 102.4z m0-640h-597.333333a25.6 25.6 0 0 0-25.6 25.6v74.666667a38.4 38.4 0 1 1-76.8 0V277.333333a102.4 102.4 0 0 1 102.4-102.4h597.333333a102.4 102.4 0 0 1 102.4 102.4v74.666667a38.4 38.4 0 1 1-76.8 0V277.333333a25.6 25.6 0 0 0-25.6-25.6z" p-id="6361"></path><path d="M328.576 128a38.4 38.4 0 1 1 76.8 0v149.333333a38.4 38.4 0 1 1-76.8 0V128zM627.242667 128a38.4 38.4 0 1 1 76.8 0v149.333333a38.4 38.4 0 1 1-76.8 0V128zM708.650667 547.925333h23.594666v32.256h-51.968v14.634667h57.344v32.256h-57.344v48.384h-40.618666v-48.384h-57.344v-32.256h57.344v-14.634667h-52.266667v-32.256h23.594667c-4.778667-8.362667-10.453333-18.517333-12.544-22.101333l39.125333-4.778667c2.986667 4.778667 10.453333 18.816 15.232 26.88h14.336c5.077333-8.96 11.648-21.504 14.634667-26.88l39.424 4.48a2061.44 2061.44 0 0 0-12.544 22.4z m-27.477334-65.408h104.832v156.501334c0 25.984-11.050667 40.917333-36.437333 42.410666-14.634667 0.597333-35.541333 1.194667-48.981333 1.194667-2.389333-13.141333-4.48-25.685333-7.466667-39.125333 9.557333 0.896 17.92 0.896 31.957333 0.896 14.933333 0 19.413333-5.674667 19.413334-19.712v-106.624h-168.746667v163.370666h-41.216v-198.912h102.442667v-16.426666h-112.896v-35.84h112.896v-24.192h44.202666v24.192h114.090667v35.84H681.173333v16.426666zM476.885333 454.442667c8.362667 2.986667 18.218667 6.570667 28.373334 9.856a381.866667 381.866667 0 0 1-7.466667 30.464c-5.674667 17.024-17.621333 24.192-41.813333 24.192h-83.328c-27.178667 0-41.813333-9.557333-41.813334-41.514667v-70.186667h40.618667v29.568c41.813333-6.570667 78.250667-13.141333 115.584-21.802666l13.141333 35.242666c-7.765333 1.493333-15.530667 2.688-23.296 4.181334z m-9.856 1.493333c-30.464 5.376-60.928 9.856-95.573333 14.634667 0.597333 11.648 5.077333 14.336 18.517333 14.336h53.461334c11.946667 0 17.621333-3.285333 20.608-13.44 1.194667-3.882667 2.090667-9.258667 2.986666-15.530667z m-15.829333 214.741333h-77.952v14.037334h-40.917333v-151.722667h158.890666v151.125333H451.2v-13.44z m0-34.944v-17.322666h-77.952v17.322666h77.952z m0-49.877333v-17.621333h-77.952v17.621333h77.952z m-152.618667-13.44v71.978667c0 25.685333-9.258667 35.541333-29.866666 37.333333-11.648 1.194667-19.413333 1.493333-30.762667 1.493333a1044.565333 1044.565333 0 0 0-6.869333-40.32c5.376 0 11.648 0.298667 17.92 0 7.765333 0 10.453333-3.285333 10.453333-12.245333v-47.488c-8.661333 2.389333-17.92 5.077333-27.776 7.765333l-2.688-45.994666c9.856-1.493333 20.010667-3.584 30.464-5.674667v-47.786667h-25.685333V453.546667h25.685333v-45.696h39.125333v45.696h24.192v37.930666h-24.192v39.125334c7.765333-1.792 15.530667-3.882667 23.594667-5.674667 0 16.426667 0 29.568 0.298667 41.216-5.973333 1.493333-14.037333 3.584-23.893334 6.272z" p-id="6362"></path></svg>