<?xml version="1.0" standalone="no"?><!DOCTYPE svg PUBLIC "-//W3C//DTD SVG 1.1//EN" "http://www.w3.org/Graphics/SVG/1.1/DTD/svg11.dtd"><svg t="1766627519075" class="icon" viewBox="0 0 1045 1024" version="1.1" xmlns="http://www.w3.org/2000/svg" p-id="6507" xmlns:xlink="http://www.w3.org/1999/xlink" width="204.1015625" height="200"><path d="M270.997333 170.666667a42.666667 42.666667 0 0 0-42.666666 42.666666v597.333334a42.666667 42.666667 0 0 0 42.666666 42.666666h192a42.666667 42.666667 0 1 1 0 85.333334h-192a128 128 0 0 1-128-128V213.333333a128 128 0 0 1 128-128h469.333334a128 128 0 0 1 128 128v256a42.666667 42.666667 0 1 1-85.333334 0V213.333333a42.666667 42.666667 0 0 0-42.666666-42.666666h-469.333334z" p-id="6508"></path><path d="M356.330667 384a42.666667 42.666667 0 0 1 42.666666-42.666667h213.333334a42.666667 42.666667 0 1 1 0 85.333334h-213.333334a42.666667 42.666667 0 0 1-42.666666-42.666667zM356.330667 512a42.666667 42.666667 0 0 1 42.666666-42.666667h213.333334a42.666667 42.666667 0 1 1 0 85.333334h-213.333334a42.666667 42.666667 0 0 1-42.666666-42.666667zM740.010667 624.021333a38.4 38.4 0 0 1 54.314666 0l90.496 90.496a38.4 38.4 0 0 1 0 54.314667l-0.213333 0.170667-90.282667 90.346666a38.4 38.4 0 0 1-54.314666-54.293333l24.661333-24.704a153.728 153.728 0 0 0-137.386667 106.282667 38.421333 38.421333 0 0 1-73.130666-23.509334c28.970667-90.133333 112-156.117333 210.986666-159.68l-25.130666-25.130666a38.4 38.4 0 0 1 0-54.293334z" p-id="6509"></path></svg>