<svg viewBox="0 0 1024 1024" version="1.1" xmlns="http://www.w3.org/2000/svg"><path d="M775.616 691.626667c18.432 7.872 32.64 12.16 45.568 13.546666 46.336 4.949333 87.68-12.458667 119.082667-48.853333 68.48-79.36 75.733333-189.930667 3.84-282.474667-76.309333-98.304-227.52-148.458667-430.72-153.792-163.2-4.266667-333.909333 49.536-416.96 134.336-77.013333 78.592-82.602667 213.973333-20.970667 292.138667 42.453333 53.845333 99.584 76.970667 157.76 56.810667 9.514667-3.285333 20.501333-8.490667 34.069333-16l10.666667-6.08 11.754667-6.976 11.136-6.826667 12.074666-7.573333 13.056-8.384 10.56-6.890667 22.101334-14.677333c7.552-5.056 15.296-10.304 23.189333-15.701334l17.984-12.394666 35.84-25.173334 0.128-75.52 6.229333-1.536c44.309333-9.941333 97.92-9.130667 148.885334 2.474667l2.56 0.64 0.810666 90.88 33.578667 19.776 16.106667 9.344 21.696 12.352c16.106667 9.045333 31.509333 17.493333 45.952 25.152l12.586666 6.613333 16.981334 8.64 12.501333 6.122667 11.456 5.376 10.496 4.650667z m54.613333-71.296l-1.28-0.213334a37.12 37.12 0 0 1-3.349333-0.810666l-4.352-1.386667-5.333333-2.005333a228.906667 228.906667 0 0 1-3.072-1.216l-6.848-2.922667-7.893334-3.562667-13.738666-6.570666-10.154667-5.056-16.597333-8.576-16.597334-8.832-10.88-5.909334-22.72-12.629333-11.797333-6.677333-16.469333-9.429334-0.896-105.301333-29.141334-9.536c-90.816-29.653333-195.264-30.186667-272 0.96l-26.581333 10.794667-0.128 90.816-4.821333 3.328-23.338667 15.957333c-3.733333 2.56-7.466667 5.034667-11.093333 7.488l-21.376 14.186667-16.469334 10.709333-11.84 7.509333-10.837333 6.72-13.738667 8.256-7.786666 4.48-6.869334 3.797334-5.973333 3.136-5.056 2.453333-2.197333 0.96-3.690667 1.450667c-20.202667 6.997333-41.130667-1.472-62.848-29.013334-35.328-44.8-31.722667-131.968 14.912-179.584 64.490667-65.834667 212.373333-112.426667 353.770667-108.736 180.16 4.736 308.48 47.296 365.568 120.810667 46.037333 59.285333 41.770667 124.8-1.066667 174.4-13.546667 15.701333-27.648 21.653333-45.397333 19.754667z" p-id="7532"></path></svg>
