<?xml version="1.0" standalone="no"?><!DOCTYPE svg PUBLIC "-//W3C//DTD SVG 1.1//EN" "http://www.w3.org/Graphics/SVG/1.1/DTD/svg11.dtd"><svg t="1761727742179" class="icon" viewBox="0 0 1024 1024" version="1.1" xmlns="http://www.w3.org/2000/svg" p-id="20093" xmlns:xlink="http://www.w3.org/1999/xlink" width="200" height="200"><path d="M836.266667 803.84V425.301333c0-8.426667-4.16-16.32-11.093334-21.12l-298.666666-205.12a25.621333 25.621333 0 0 0-29.013334 0l-298.666666 205.141334c-6.933333 4.778667-11.093333 12.672-11.093334 21.12V803.84a25.6 25.6 0 0 0 25.6 25.6h165.333334a4.266667 4.266667 0 0 0 4.266666-4.266667v-163.136a81.066667 81.066667 0 0 1 81.066667-81.066666h96a81.066667 81.066667 0 0 1 81.066667 81.066666v163.136c0 2.346667 1.92 4.266667 4.266666 4.266667H810.666667a25.6 25.6 0 0 0 25.6-25.6z m76.8 0a102.4 102.4 0 0 1-102.4 102.4h-165.333334a81.066667 81.066667 0 0 1-81.066666-81.066667v-163.136a4.266667 4.266667 0 0 0-4.266667-4.266666h-96a4.266667 4.266667 0 0 0-4.266667 4.266666v163.136a81.066667 81.066667 0 0 1-81.066666 81.066667H213.333333a102.4 102.4 0 0 1-102.4-102.4V425.301333a102.4 102.4 0 0 1 44.416-84.416l298.666667-205.141333a102.4 102.4 0 0 1 115.968 0l298.666667 205.141333a102.421333 102.421333 0 0 1 44.416 84.416V803.84z" p-id="20094"></path></svg>