<?xml version="1.0" standalone="no"?><!DOCTYPE svg PUBLIC "-//W3C//DTD SVG 1.1//EN" "http://www.w3.org/Graphics/SVG/1.1/DTD/svg11.dtd"><svg t="1761727796280" class="icon" viewBox="0 0 1024 1024" version="1.1" xmlns="http://www.w3.org/2000/svg" p-id="20533" xmlns:xlink="http://www.w3.org/1999/xlink" width="200" height="200"><path d="M680.661333 91.797333c46.208 0 74.922667 50.176 51.52 89.984l-119.765333 203.690667h186.986667c54.421333 0 80.490667 66.88 40.405333 103.722667L375.36 916.138667c-44.8 41.173333-115.306667-3.157333-97.578667-61.376l84.074667-276.245334h-137.301333c-42.453333 0-71.338667-43.008-55.317334-82.282666L308.202667 155.52a102.4 102.4 0 0 1 94.805333-63.722667h277.653333z m-277.653333 76.8a25.6 25.6 0 0 0-23.701333 15.914667l-129.386667 317.226667h134.954667a59.733333 59.733333 0 0 1 57.152 77.12l-72.533334 238.357333L755.584 462.293333h-173.013333c-46.186667 0-74.88-50.197333-51.477334-90.026666l119.744-203.690667H403.008z" p-id="20534"></path></svg>