<?xml version="1.0" standalone="no"?><!DOCTYPE svg PUBLIC "-//W3C//DTD SVG 1.1//EN" "http://www.w3.org/Graphics/SVG/1.1/DTD/svg11.dtd"><svg t="1761727983821" class="icon" viewBox="0 0 1024 1024" version="1.1" xmlns="http://www.w3.org/2000/svg" p-id="21054" xmlns:xlink="http://www.w3.org/1999/xlink" width="200" height="200"><path d="M793.6 490.666667a25.6 25.6 0 0 0-25.6-25.6H256a25.6 25.6 0 0 0-25.6 25.6v330.666666a25.6 25.6 0 0 0 25.6 25.6h512a25.6 25.6 0 0 0 25.6-25.6V490.666667z m76.8 330.666666a102.4 102.4 0 0 1-102.4 102.4H256a102.4 102.4 0 0 1-102.4-102.4V490.666667a102.4 102.4 0 0 1 102.4-102.4h512a102.4 102.4 0 0 1 102.4 102.4v330.666666z" p-id="21055"></path><path d="M473.6 618.666667a38.4 38.4 0 1 1 76.8 0v85.333333a38.4 38.4 0 1 1-76.8 0v-85.333333zM665.6 426.666667v-106.666667c0-78.933333-64-142.933333-142.933333-142.933333H512a153.6 153.6 0 0 0-153.6 153.6V426.666667a38.4 38.4 0 1 1-76.8 0v-96c0-127.253333 103.146667-230.4 230.4-230.4h10.666667c121.365333 0 219.733333 98.368 219.733333 219.733333v106.666667a38.4 38.4 0 1 1-76.8 0z" p-id="21056"></path></svg>