<?xml version="1.0" standalone="no"?><!DOCTYPE svg PUBLIC "-//W3C//DTD SVG 1.1//EN" "http://www.w3.org/Graphics/SVG/1.1/DTD/svg11.dtd"><svg t="1761728018869" class="icon" viewBox="0 0 1024 1024" version="1.1" xmlns="http://www.w3.org/2000/svg" p-id="21491" xmlns:xlink="http://www.w3.org/1999/xlink" width="200" height="200"><path d="M89.6 379.370667c0-46.634667 51.072-75.306667 90.88-50.986667l318.165333 194.453333a25.6 25.6 0 0 0 26.709334 0l318.165333-194.432c39.808-24.32 90.88 4.330667 90.88 50.986667V789.333333a102.4 102.4 0 0 1-102.4 102.4H192A102.4 102.4 0 0 1 89.6 789.333333V379.370667zM832 814.933333a25.6 25.6 0 0 0 25.6-25.6V409.792L565.397333 588.373333a102.4 102.4 0 0 1-106.794666 0L166.4 409.813333V789.333333A25.6 25.6 0 0 0 192 814.933333h640z" p-id="21492"></path><path d="M416 369.066667a38.4 38.4 0 1 1 0-76.8h192a38.4 38.4 0 1 1 0 76.8h-192z" p-id="21493"></path><path d="M750.933333 234.666667A25.6 25.6 0 0 0 725.333333 209.066667H298.666667a25.6 25.6 0 0 0-25.6 25.6v170.666666H196.266667v-170.666666A102.4 102.4 0 0 1 298.666667 132.266667h426.666666a102.4 102.4 0 0 1 102.4 102.4v170.666666h-76.8v-170.666666z" p-id="21494"></path></svg>