<?xml version="1.0" standalone="no"?><!DOCTYPE svg PUBLIC "-//W3C//DTD SVG 1.1//EN" "http://www.w3.org/Graphics/SVG/1.1/DTD/svg11.dtd"><svg t="1761728066510" class="icon" viewBox="0 0 1045 1024" version="1.1" xmlns="http://www.w3.org/2000/svg" p-id="21933" xmlns:xlink="http://www.w3.org/1999/xlink" width="204.1015625" height="200"><path d="M260.330667 149.333333a21.333333 21.333333 0 0 1 21.333333 21.333334v85.333333a21.333333 21.333333 0 0 1-21.333333 21.333333h-85.333334a21.333333 21.333333 0 0 1-21.333333-21.333333V170.666667a21.333333 21.333333 0 0 1 21.333333-21.333334h85.333334zM260.330667 448a21.333333 21.333333 0 0 1 21.333333 21.333333v85.333334a21.333333 21.333333 0 0 1-21.333333 21.333333h-85.333334a21.333333 21.333333 0 0 1-21.333333-21.333333v-85.333334a21.333333 21.333333 0 0 1 21.333333-21.333333h85.333334zM260.330667 746.666667a21.333333 21.333333 0 0 1 21.333333 21.333333v85.333333a21.333333 21.333333 0 0 1-21.333333 21.333334h-85.333334a21.333333 21.333333 0 0 1-21.333333-21.333334v-85.333333a21.333333 21.333333 0 0 1 21.333333-21.333333h85.333334zM558.997333 149.333333a21.333333 21.333333 0 0 1 21.333334 21.333334v85.333333a21.333333 21.333333 0 0 1-21.333334 21.333333h-85.333333a21.333333 21.333333 0 0 1-21.333333-21.333333V170.666667a21.333333 21.333333 0 0 1 21.333333-21.333334h85.333333zM558.997333 448a21.333333 21.333333 0 0 1 21.333334 21.333333v85.333334a21.333333 21.333333 0 0 1-21.333334 21.333333h-85.333333a21.333333 21.333333 0 0 1-21.333333-21.333333v-85.333334a21.333333 21.333333 0 0 1 21.333333-21.333333h85.333333zM558.997333 746.666667a21.333333 21.333333 0 0 1 21.333334 21.333333v85.333333a21.333333 21.333333 0 0 1-21.333334 21.333334h-85.333333a21.333333 21.333333 0 0 1-21.333333-21.333334v-85.333333a21.333333 21.333333 0 0 1 21.333333-21.333333h85.333333zM857.664 149.333333a21.333333 21.333333 0 0 1 21.333333 21.333334v85.333333a21.333333 21.333333 0 0 1-21.333333 21.333333h-85.333333a21.333333 21.333333 0 0 1-21.333334-21.333333V170.666667a21.333333 21.333333 0 0 1 21.333334-21.333334h85.333333zM857.664 448a21.333333 21.333333 0 0 1 21.333333 21.333333v85.333334a21.333333 21.333333 0 0 1-21.333333 21.333333h-85.333333a21.333333 21.333333 0 0 1-21.333334-21.333333v-85.333334a21.333333 21.333333 0 0 1 21.333334-21.333333h85.333333zM857.664 746.666667a21.333333 21.333333 0 0 1 21.333333 21.333333v85.333333a21.333333 21.333333 0 0 1-21.333333 21.333334h-85.333333a21.333333 21.333333 0 0 1-21.333334-21.333334v-85.333333a21.333333 21.333333 0 0 1 21.333334-21.333333h85.333333z" p-id="21934"></path></svg>