<?xml version="1.0" standalone="no"?><!DOCTYPE svg PUBLIC "-//W3C//DTD SVG 1.1//EN" "http://www.w3.org/Graphics/SVG/1.1/DTD/svg11.dtd"><svg t="1761728122497" class="icon" viewBox="0 0 1024 1024" version="1.1" xmlns="http://www.w3.org/2000/svg" p-id="22516" xmlns:xlink="http://www.w3.org/1999/xlink" width="200" height="200"><path d="M669.973333 635.648c66.624 0 127.744-23.125333 175.957334-61.802667 21.610667-17.322667 49.194667-17.130667 69.162666-6.848 21.162667 10.88 39.082667 36.8 29.226667 68.48-56.234667 180.48-224.554667 311.616-423.68 311.616l-11.456-0.149333C269.44 940.864 76.928 744.597333 76.906667 503.36c0-199.082667 131.114667-367.445333 311.594666-423.68 31.68-9.856 57.6 8.064 68.48 29.205333 9.642667 18.730667 10.410667 44.138667-3.797333 65.045334l-3.029333 4.117333-7.061334 9.173333a280.128 280.128 0 0 0-54.72 166.826667l0.106667 7.253333c3.84 152.170667 128.426667 274.346667 281.493333 274.346667z m-9.237333 76.672c-193.664-4.906667-349.141333-163.456-349.162667-358.293333 0-65.962667 17.941333-127.786667 49.066667-180.906667-122.496 59.456-206.933333 185.002667-206.933333 330.24l0.128 9.493333c5.034667 198.250667 167.338667 357.44 366.805333 357.44 145.237333 0 270.762667-84.416 330.218667-206.912a356.629333 356.629333 0 0 1-180.885334 49.066667l-9.237333-0.128z" p-id="22517"></path></svg>