<svg xmlns="http://www.w3.org/2000/svg" viewBox="0 0 1024 1024" version="1.1"><path d="M810.666667 170.666667a128 128 0 0 1 128 128v426.666666a128 128 0 0 1-128 128H213.333333a128 128 0 0 1-128-128V298.666667a128 128 0 0 1 128-128h597.333334z m0 85.333333H213.333333a42.666667 42.666667 0 0 0-42.56 39.466667L170.666667 298.666667v426.666666a42.666667 42.666667 0 0 0 39.466666 42.56L213.333333 768h597.333334a42.666667 42.666667 0 0 0 42.56-39.466667L853.333333 725.333333V298.666667a42.666667 42.666667 0 0 0-39.466666-42.56L810.666667 256z m-42.666667 213.333333a42.666667 42.666667 0 1 1 0 85.333334 42.666667 42.666667 0 0 1 0-85.333334z" p-id="38735"></path></svg>