<?xml version="1.0" standalone="no"?><!DOCTYPE svg PUBLIC "-//W3C//DTD SVG 1.1//EN" "http://www.w3.org/Graphics/SVG/1.1/DTD/svg11.dtd"><svg t="1761728213756" class="icon" viewBox="0 0 1024 1024" version="1.1" xmlns="http://www.w3.org/2000/svg" p-id="23036" xmlns:xlink="http://www.w3.org/1999/xlink" width="200" height="200"><path d="M868.266667 512c0-196.757333-159.509333-356.266667-356.266667-356.266667-196.757333 0-356.266667 159.509333-356.266667 356.266667 0 196.757333 159.509333 356.266667 356.266667 356.266667 196.757333 0 356.266667-159.509333 356.266667-356.266667z m76.8 0c0 239.168-193.898667 433.066667-433.066667 433.066667S78.933333 751.146667 78.933333 512 272.853333 78.933333 512 78.933333 945.066667 272.853333 945.066667 512z" p-id="23037"></path><path d="M433.066667 629.333333a38.4 38.4 0 1 1-76.8 0v-234.666666a38.4 38.4 0 1 1 76.8 0v234.666666zM667.733333 629.333333a38.4 38.4 0 1 1-76.8 0v-234.666666a38.4 38.4 0 1 1 76.8 0v234.666666z" p-id="23038"></path></svg>