<?xml version="1.0" standalone="no"?><!DOCTYPE svg PUBLIC "-//W3C//DTD SVG 1.1//EN" "http://www.w3.org/Graphics/SVG/1.1/DTD/svg11.dtd"><svg t="1766627531241" class="icon" viewBox="0 0 1045 1024" version="1.1" xmlns="http://www.w3.org/2000/svg" p-id="6654" xmlns:xlink="http://www.w3.org/1999/xlink" width="204.1015625" height="200"><path d="M813.909333 486.037333v-298.666666a25.6 25.6 0 0 0-25.6-25.6h-512a25.6 25.6 0 0 0-25.6 25.6v640c0 14.165333 11.456 25.6 25.557334 25.6h189.845333a38.4 38.4 0 1 1 0 76.8H276.266667a102.357333 102.357333 0 0 1-102.357334-102.4v-640a102.4 102.4 0 0 1 102.4-102.4h512a102.4 102.4 0 0 1 102.4 102.4v298.666666a38.4 38.4 0 1 1-76.8 0z" p-id="6655"></path><path d="M382.976 407.082667a38.4 38.4 0 1 1 0-76.8h298.666667a38.4 38.4 0 1 1 0 76.8h-298.666667zM382.976 577.749333a38.4 38.4 0 1 1 0-76.8h192a38.4 38.4 0 1 1 0 76.8h-192zM805.376 900.629333a38.4 38.4 0 1 1-76.8 0v-139.434666a38.4 38.4 0 1 1 76.8 0v139.434666z" p-id="6656"></path><path d="M670.976 811.029333a38.4 38.4 0 1 1 0-76.8h192a38.4 38.4 0 1 1 0 76.8h-192z" p-id="6657"></path><path d="M811.776 629.610667a38.4 38.4 0 1 1 54.4 54.186666l-99.2 99.690667-99.2-99.712a38.4 38.4 0 1 1 54.4-54.165333l44.8 45.013333 44.8-45.013333z" p-id="6658"></path></svg>