<svg xmlns="http://www.w3.org/2000/svg" viewBox="0 0 1024 1024" version="1.1"><path d="M429.994667 156.8c8.149333 10.112 15.146667 23.189333 22.634666 41.792l4.138667 10.709333 4.309333 11.882667 4.48 13.184 5.909334 18.133333 4.224 13.568c4.8 15.616 9.728 32.490667 14.72 50.282667l6.613333 24.064 4.757333 18.005333 9.770667 37.738667-63.701333 64.810667 1.365333 2.282666c27.84 44.224 65.173333 82.730667 103.552 107.008l5.482667 3.328 53.482666-53.333333 43.157334 7.573333 21.482666 3.946667c9.386667 1.749333 18.56 3.52 27.498667 5.290667l25.984 5.248 12.352 2.581333 15.146667 3.328 13.909333 3.178667 12.693333 3.029333 13.226667 3.370667 11.861333 3.264c14.912 4.266667 26.346667 8.362667 35.413334 12.757333 55.381333 26.88 79.424 83.626667 71.381333 151.744-11.712 98.858667-111.381333 190.613333-221.397333 191.744-118.72 1.237333-277.461333-81.429333-389.824-199.850667-139.925333-147.456-211.370667-289.834667-195.84-413.312 14.613333-116.266667 97.92-189.333333 202.474666-197.013333 47.914667-3.541333 89.472 13.376 118.741334 49.642667z m-65.642667 54.613333l-0.768-1.045333c-11.2-13.866667-25.386667-19.669333-46.08-18.133333-65.344 4.8-114.688 48.106667-124.074667 122.56-11.605333 92.373333 49.024 213.184 173.098667 343.936 97.344 102.592 234.88 174.208 327.04 173.269333 66.624-0.704 130.816-59.776 137.514667-116.437333 4.117333-34.858667-4.693333-55.637333-23.914667-64.96l-3.626667-1.6a96.512 96.512 0 0 0-2.261333-0.853334l-5.312-1.856-6.421333-2.005333-7.552-2.176-8.661334-2.346667-15.573333-3.861333-12.416-2.922667-13.653333-3.050666-19.221334-4.074667-25.152-5.077333-13.141333-2.56-27.797333-5.205334-5.76-1.066666-64.298667 64.128-26.432-11.157334c-76.266667-32.256-149.76-106.453333-193.002667-191.658666l-13.866666-27.349334 73.813333-75.093333-4.970667-18.304-3.626666-13.077333-7.125334-25.002667c-1.194667-4.053333-2.346667-8-3.52-11.882667l-5.482666-17.962666-5.696-17.792-3.605334-10.773334-5.077333-14.357333-3.050667-8.106667-2.773333-6.890666c-0.426667-1.066667-0.874667-2.069333-1.28-3.029334l-2.389333-5.184-2.090667-4.074666a37.034667 37.034667 0 0 0-1.792-2.965334z" p-id="38875"></path></svg>