<?xml version="1.0" standalone="no"?><!DOCTYPE svg PUBLIC "-//W3C//DTD SVG 1.1//EN" "http://www.w3.org/Graphics/SVG/1.1/DTD/svg11.dtd"><svg t="1766631339683" class="icon" viewBox="0 0 1024 1024" version="1.1" xmlns="http://www.w3.org/2000/svg" p-id="6065" xmlns:xlink="http://www.w3.org/1999/xlink" width="200" height="200"><path d="M376.426667 538.325333a102.4 102.4 0 0 1 3.072-147.776l14.144-13.013333a25.6 25.6 0 0 0 6.826666-27.328l-44.906666-127.829333a50.346667 50.346667 0 0 0-76.8-24.277334 215.552 215.552 0 0 0-89.6 189.653334c3.2 48.149333 20.074667 94.506667 48.597333 133.418666l38.016 51.84a814.976 814.976 0 0 0 175.253333 175.232l51.818667 37.994667a254.421333 254.421333 0 0 0 133.418667 48.597333 215.552 215.552 0 0 0 189.653333-89.6 50.346667 50.346667 0 0 0-24.298667-76.8l-127.786666-44.885333a25.6 25.6 0 0 0-27.349334 6.826667l-13.013333 14.144a102.4 102.4 0 0 1-147.776 3.072l-109.269333-109.269334z m163.584 54.976a25.6 25.6 0 0 0 36.928-0.768l13.034666-14.165333a102.4 102.4 0 0 1 109.290667-27.264l127.829333 44.906667c79.893333 28.074667 110.549333 124.949333 61.312 193.877333a292.394667 292.394667 0 0 1-257.237333 121.6 331.264 331.264 0 0 1-173.76-63.317333l-51.797333-37.973334a891.882667 891.882667 0 0 1-191.786667-191.786666l-37.973333-51.818667a331.264 331.264 0 0 1-63.317334-173.738667c-6.741333-100.906667 39.232-198.4 121.6-257.258666 68.906667-49.216 165.802667-18.56 193.877334 61.333333l44.906666 127.808a102.4 102.4 0 0 1-27.264 109.290667l-14.165333 13.034666a25.6 25.6 0 0 0-0.768 36.949334l109.269333 109.290666z" p-id="6066"></path></svg>