<?xml version="1.0" standalone="no"?><!DOCTYPE svg PUBLIC "-//W3C//DTD SVG 1.1//EN" "http://www.w3.org/Graphics/SVG/1.1/DTD/svg11.dtd"><svg t="1766628358983" class="icon" viewBox="0 0 1045 1024" version="1.1" xmlns="http://www.w3.org/2000/svg" p-id="6801" xmlns:xlink="http://www.w3.org/1999/xlink" width="204.1015625" height="200"><path d="M894.506667 285.994667c49.92 20.053333 49.92 90.773333 0 110.848l-340.437334 136.874666a102.464 102.464 0 0 1-76.416 0L137.216 396.842667c-49.92-20.074667-49.92-90.773333 0.021333-110.848L477.674667 149.12a102.4 102.4 0 0 1 76.373333 0l340.437333 136.874667z m-369.066667-65.642667a25.664 25.664 0 0 0-19.136 0L205.269333 341.44l301.034667 121.045333c6.122667 2.453333 12.992 2.453333 19.114667 0l301.034666-121.045333-301.013333-121.066667z" p-id="6802"></path><path d="M885.930667 500.224a38.4 38.4 0 0 1 28.522666 71.296L554.816 715.52a102.4 102.4 0 0 1-76.096 0L119.082667 571.52a38.4 38.4 0 0 1 28.544-71.296l359.637333 143.978667a25.6 25.6 0 0 0 19.008 0l359.658667-144z" p-id="6803"></path><path d="M885.013333 659.626667a38.4 38.4 0 0 1 28.544 71.317333l-359.637333 143.978667a102.4 102.4 0 0 1-76.096 0L118.144 730.944a38.4 38.4 0 0 1 28.544-71.317333l359.658667 144c6.101333 2.432 12.906667 2.432 18.986666 0l359.68-144z" p-id="6804"></path></svg>