<?xml version="1.0" standalone="no"?><!DOCTYPE svg PUBLIC "-//W3C//DTD SVG 1.1//EN" "http://www.w3.org/Graphics/SVG/1.1/DTD/svg11.dtd"><svg t="1761728355298" class="icon" viewBox="0 0 1045 1024" version="1.1" xmlns="http://www.w3.org/2000/svg" p-id="24348" xmlns:xlink="http://www.w3.org/1999/xlink" width="204.1015625" height="200"><path d="M213.376 160a38.4 38.4 0 0 0-76.8 0v149.333333a38.4 38.4 0 1 0 76.8 0v-149.333333z" p-id="24349"></path><path d="M324.309333 347.733333a38.4 38.4 0 1 0 0-76.8h-149.333333a38.4 38.4 0 1 0 0 76.8h149.333333z" p-id="24350"></path><path d="M938.709333 512c0-233.28-189.12-422.4-422.4-422.4-143.744 0-270.72 71.850667-346.965333 181.418667a38.4 38.4 0 0 0 63.061333 43.882666C294.890667 225.066667 398.762667 166.4 516.309333 166.4c190.869333 0 345.6 154.730667 345.6 345.6s-154.730667 345.6-345.6 345.6-345.6-154.730667-345.6-345.6a38.4 38.4 0 1 0-76.8 0c0 233.28 189.12 422.4 422.4 422.4s422.4-189.12 422.4-422.4z" p-id="24351"></path></svg>