<?xml version="1.0" standalone="no"?><!DOCTYPE svg PUBLIC "-//W3C//DTD SVG 1.1//EN" "http://www.w3.org/Graphics/SVG/1.1/DTD/svg11.dtd"><svg t="1761728406867" class="icon" viewBox="0 0 1045 1024" version="1.1" xmlns="http://www.w3.org/2000/svg" p-id="24937" xmlns:xlink="http://www.w3.org/1999/xlink" width="204.1015625" height="200"><path d="M829.909333 309.333333v-85.333333a25.6 25.6 0 0 0-25.6-25.6h-85.333333a38.4 38.4 0 1 1 0-76.8h85.333333a102.4 102.4 0 0 1 102.4 102.4v85.333333a38.4 38.4 0 1 1-76.8 0zM202.709333 309.333333v-85.333333a25.6 25.6 0 0 1 25.6-25.6h85.333334a38.4 38.4 0 1 0 0-76.8h-85.333334a102.4 102.4 0 0 0-102.4 102.4v85.333333a38.4 38.4 0 1 0 76.8 0zM829.909333 714.666667v85.333333a25.6 25.6 0 0 1-25.6 25.6h-85.333333a38.4 38.4 0 1 0 0 76.8h85.333333a102.4 102.4 0 0 0 102.4-102.4v-85.333333a38.4 38.4 0 1 0-76.8 0zM202.709333 714.666667v85.333333a25.6 25.6 0 0 0 25.6 25.6h85.333334a38.4 38.4 0 1 1 0 76.8h-85.333334a102.4 102.4 0 0 1-102.4-102.4v-85.333333a38.4 38.4 0 1 1 76.8 0zM217.642667 550.4a38.4 38.4 0 1 1 0-76.8h597.333333a38.4 38.4 0 1 1 0 76.8h-597.333333z" p-id="24938"></path></svg>