<?xml version="1.0" standalone="no"?><!DOCTYPE svg PUBLIC "-//W3C//DTD SVG 1.1//EN" "http://www.w3.org/Graphics/SVG/1.1/DTD/svg11.dtd"><svg t="1761728484865" class="icon" viewBox="0 0 1024 1024" version="1.1" xmlns="http://www.w3.org/2000/svg" p-id="25138" xmlns:xlink="http://www.w3.org/1999/xlink" width="200" height="200"><path d="M763.2 470.933333c0 161.429333-130.837333 292.266667-292.266667 292.266667-161.408 0-292.266667-130.837333-292.266666-292.266667 0-161.408 130.858667-292.266667 292.266666-292.266666 161.429333 0 292.266667 130.858667 292.266667 292.266666z m76.8 0c0-203.818667-165.226667-369.066667-369.066667-369.066666-203.818667 0-369.066667 165.248-369.066666 369.066666 0 203.84 165.248 369.066667 369.066666 369.066667 203.84 0 369.066667-165.226667 369.066667-369.066667z" p-id="25139"></path><path d="M856.576 910.869333l-165.930667-165.930666a38.4 38.4 0 0 1 54.293334-54.293334l165.930666 165.930667a38.4 38.4 0 1 1-54.293333 54.293333z" p-id="25140"></path></svg>