<svg viewBox="0 0 1024 1024" version="1.1" xmlns="http://www.w3.org/2000/svg"><path d="M511.872 332.352a179.648 179.648 0 1 1 0 359.296 179.648 179.648 0 0 1 0-359.296z m0 89.813333a89.813333 89.813333 0 1 0 0 179.669334 89.813333 89.813333 0 0 0 0-179.648z" p-id="4696"></path><path d="M579.242667 85.333333a89.813333 89.813333 0 0 1 89.813333 89.813334l0.021333 13.674666c15.317333 7.466667 30.016 16 44.032 25.472l11.882667-6.848a89.813333 89.813333 0 0 1 122.709333 32.874667l67.370667 116.693333a89.813333 89.813333 0 0 1-32.874667 122.709334l-11.904 6.869333a364.352 364.352 0 0 1 0 50.794667l11.904 6.890666a89.813333 89.813333 0 0 1 32.853334 122.709334l-67.349334 116.693333a89.813333 89.813333 0 0 1-122.709333 32.874667l-11.882667-6.826667a359.04 359.04 0 0 1-44.032 25.450667v13.653333A89.813333 89.813333 0 0 1 579.264 938.666667h-134.762667a89.813333 89.813333 0 0 1-89.813333-89.813334v-13.653333c-15.317333-7.466667-30.037333-16-44.053333-25.493333l-11.882667 6.848a89.813333 89.813333 0 0 1-122.688-32.874667l-67.370667-116.693333a89.813333 89.813333 0 0 1 32.874667-122.709334l11.904-6.890666a364.650667 364.650667 0 0 1 0-50.794667l-11.904-6.890667a89.813333 89.813333 0 0 1-32.874667-122.688l67.370667-116.693333a89.813333 89.813333 0 0 1 122.688-32.874667l11.882667 6.848a358.890667 358.890667 0 0 1 44.053333-25.472v-13.653333A89.813333 89.813333 0 0 1 444.501333 85.333333h134.741334z m-134.677334 159.616l-50.517333 24.618667c-8.597333 4.181333-16.938667 8.810667-25.024 13.888l-8 5.205333-46.570667 31.530667-60.586666-34.965333-67.392 116.693333 60.501333 34.986667-3.904 55.936c-0.426667 6.357333-0.661333 12.736-0.661333 19.157333l0.170666 9.6 0.490667 9.536 3.904 55.850667L186.453333 622.08l67.413334 116.672 60.586666-34.944 46.528 31.509333c7.914667 5.376 16.106667 10.304 24.533334 14.784l8.512 4.330667 50.517333 24.618667-0.064 69.781333h134.741333l0.064-69.824 50.432-24.576a269.013333 269.013333 0 0 0 25.002667-13.866667l8-5.226666 46.506667-31.488 60.650666 34.922666 67.349334-116.693333-60.458667-35.093333 3.904-55.850667c0.426667-6.336 0.64-12.714667 0.64-19.136l-0.149333-9.6-0.490667-9.557333-3.925333-55.936 60.501333-34.986667-67.370667-116.693333-60.672 34.922666-46.506666-31.488c-7.893333-5.333333-16.064-10.282667-24.490667-14.762666l-8.490667-4.330667-50.432-24.554667-0.064-69.845333h-134.741333l0.064 69.781333z" p-id="4697"></path></svg>
