<?xml version="1.0" standalone="no"?><!DOCTYPE svg PUBLIC "-//W3C//DTD SVG 1.1//EN" "http://www.w3.org/Graphics/SVG/1.1/DTD/svg11.dtd"><svg t="1761728596199" class="icon" viewBox="0 0 1024 1024" version="1.1" xmlns="http://www.w3.org/2000/svg" p-id="25604" xmlns:xlink="http://www.w3.org/1999/xlink" width="200" height="200"><path d="M836.266667 371.264a25.6 25.6 0 0 0-12.010667-21.717333l-298.666667-186.944a25.6 25.6 0 0 0-27.178666 0l-298.666667 186.944a25.6 25.6 0 0 0-12.010667 21.717333v115.114667a281.6 281.6 0 0 0 111.957334 224.746666l197.397333 148.992a25.6 25.6 0 0 0 30.570667 0.170667l193.834666-142.549333A281.6 281.6 0 0 0 836.266667 490.88v-119.616z m76.8 119.616a358.4 358.4 0 0 1-146.069334 288.725333l-193.834666 142.570667a102.4 102.4 0 0 1-122.346667-0.768l-197.397333-148.970667A358.4 358.4 0 0 1 110.933333 486.4v-115.114667a102.4 102.4 0 0 1 48.064-86.826666l298.666667-186.901334a102.421333 102.421333 0 0 1 108.672 0l298.666667 186.901334a102.4 102.4 0 0 1 48.064 86.826666v119.616z" p-id="25605"></path><path d="M612.842667 433.664a38.4 38.4 0 1 1 54.314666 54.293333l-119.189333 119.168a81.066667 81.066667 0 0 1-114.602667 0l-65.856-65.834666a38.4 38.4 0 1 1 54.314667-54.293334l65.813333 65.834667a4.266667 4.266667 0 0 0 6.058667 0l119.146667-119.168z" p-id="25606"></path></svg>