<svg viewBox="0 0 1024 1024" version="1.1" xmlns="http://www.w3.org/2000/svg"><path d="M127.146667 128a128 128 0 0 1 124.650666 98.922667l1.088 5.12 11.882667 62.4a126.933333 126.933333 0 0 1 57.685333-16.96l6.357334-0.149334h476.032c78.805333 0 138.496 70.4 126.506666 147.562667l-0.810666 4.629333-45.184 213.333334a127.68 127.68 0 0 1-33.92 65.024A106.709333 106.709333 0 0 1 822.826667 917.333333a106.666667 106.666667 0 0 1-88.576-166.122666L737.493333 746.666667h-341.333333a106.666667 106.666667 0 1 1-113.962667-38.784 127.637333 127.637333 0 0 1-32.533333-58.773334l-1.365333-6.250666-45.162667-213.333334-1.002667-5.802666-0.704-5.76-32.362666-169.941334a42.666667 42.666667 0 0 0-38.528-34.56L127.146667 213.333333H91.093333a42.666667 42.666667 0 0 1-3.2-85.226666L91.093333 128h36.053334z m183.68 661.333333a21.333333 21.333333 0 1 0 0 42.666667 21.333333 21.333333 0 0 0 0-42.666667z m512 0a21.333333 21.333333 0 1 0 0 42.666667 21.333333 21.333333 0 0 0 0-42.666667z m-17.984-426.666666H328.810667c-23.466667 0-41.813333 18.709333-42.645334 41.024v3.072l38.826667 182.592h-0.085333l7.189333 37.376a42.666667 42.666667 0 0 0 38.506667 34.474666l3.392 0.128h385.664a42.666667 42.666667 0 0 0 41.130666-31.317333l0.768-3.285333 45.184-213.333334a42.666667 42.666667 0 0 0-38.72-50.624l-3.2-0.106666z" p-id="4968"></path></svg>
