<?xml version="1.0" standalone="no"?><!DOCTYPE svg PUBLIC "-//W3C//DTD SVG 1.1//EN" "http://www.w3.org/Graphics/SVG/1.1/DTD/svg11.dtd"><svg t="1761728976655" class="icon" viewBox="0 0 1024 1024" version="1.1" xmlns="http://www.w3.org/2000/svg" p-id="9716" xmlns:xlink="http://www.w3.org/1999/xlink" width="200" height="200"><path d="M836.266667 486.4H187.733333v334.933333a25.6 25.6 0 0 0 25.6 25.6h597.333334a25.6 25.6 0 0 0 25.6-25.6V486.4z m-223.210667 68.586667a38.4 38.4 0 0 1 55.893333 52.693333l-129.152 136.896a81.066667 81.066667 0 0 1-119.381333-1.578667l-50.432-56.384-12.629333-13.056a38.4 38.4 0 0 1 55.296-53.312l13.226666 13.76 0.512 0.512 0.490667 0.554667 50.773333 56.725333a4.266667 4.266667 0 0 0 6.293334 0.085334l129.109333-136.896zM836.266667 288a25.6 25.6 0 0 0-25.6-25.6h-110.933334v46.933333a38.4 38.4 0 1 1-76.8 0v-46.933333H401.066667v46.933333a38.4 38.4 0 1 1-76.8 0v-46.933333H213.333333a25.6 25.6 0 0 0-25.6 25.6v121.6h648.533334v-121.6z m76.8 533.333333a102.4 102.4 0 0 1-102.4 102.4H213.333333a102.4 102.4 0 0 1-102.4-102.4v-533.333333A102.4 102.4 0 0 1 213.333333 185.6h110.933334V138.666667a38.4 38.4 0 1 1 76.8 0v46.933333h221.866666V138.666667a38.4 38.4 0 1 1 76.8 0v46.933333H810.666667a102.4 102.4 0 0 1 102.4 102.4v533.333333z" p-id="9717"></path></svg>