<?xml version="1.0" standalone="no"?><!DOCTYPE svg PUBLIC "-//W3C//DTD SVG 1.1//EN" "http://www.w3.org/Graphics/SVG/1.1/DTD/svg11.dtd"><svg t="1761728988868" class="icon" viewBox="0 0 1024 1024" version="1.1" xmlns="http://www.w3.org/2000/svg" p-id="9861" xmlns:xlink="http://www.w3.org/1999/xlink" width="200" height="200"><path d="M224 198.4a25.6 25.6 0 0 0-25.6 25.6v576a25.6 25.6 0 0 0 25.6 25.6h576a25.6 25.6 0 0 0 25.6-25.6v-576a25.6 25.6 0 0 0-25.6-25.6h-576z m576-76.8a102.4 102.4 0 0 1 102.4 102.4v576a102.4 102.4 0 0 1-102.4 102.4h-576a102.4 102.4 0 0 1-102.4-102.4v-576a102.4 102.4 0 0 1 102.4-102.4h576z" p-id="9862"></path><path d="M384 433.066667H170.666667a38.4 38.4 0 1 1 0-76.8h213.333333a38.4 38.4 0 1 1 0 76.8z" p-id="9863"></path><path d="M356.266667 842.666667v-682.666667a38.4 38.4 0 1 1 76.8 0v682.666667a38.4 38.4 0 1 1-76.8 0z" p-id="9864"></path></svg>