<?xml version="1.0" standalone="no"?><!DOCTYPE svg PUBLIC "-//W3C//DTD SVG 1.1//EN" "http://www.w3.org/Graphics/SVG/1.1/DTD/svg11.dtd"><svg t="1761729018540" class="icon" viewBox="0 0 1024 1024" version="1.1" xmlns="http://www.w3.org/2000/svg" p-id="10181" xmlns:xlink="http://www.w3.org/1999/xlink" width="200" height="200"><path d="M868.266667 512c0-196.757333-159.509333-356.266667-356.266667-356.266667-196.757333 0-356.266667 159.509333-356.266667 356.266667 0 196.757333 159.509333 356.266667 356.266667 356.266667 196.757333 0 356.266667-159.509333 356.266667-356.266667z m76.8 0c0 239.168-193.898667 433.066667-433.066667 433.066667S78.933333 751.146667 78.933333 512 272.853333 78.933333 512 78.933333 945.066667 272.853333 945.066667 512z" p-id="10182"></path><path d="M473.6 320a38.4 38.4 0 1 1 76.8 0v169.450667l61.290667 25.728 63.701333 25.088a38.4 38.4 0 0 1-28.117333 71.466666l-64-25.173333-0.405334-0.170667-0.426666-0.170666-74.858667-31.424a55.466667 55.466667 0 0 1-33.984-51.157334V320z" p-id="10183"></path></svg>