<svg class="icon" viewBox="0 0 1024 1024" version="1.1" xmlns="http://www.w3.org/2000/svg" p-id="5169" width="200" height="200"><path d="M810.666667 170.666667a128 128 0 0 1 128 128v426.666666a128 128 0 0 1-128 128H213.333333a128 128 0 0 1-128-128V298.666667a128 128 0 0 1 128-128h597.333334z m0 85.333333H213.333333a42.666667 42.666667 0 0 0-42.56 39.466667L170.666667 298.666667v426.666666a42.666667 42.666667 0 0 0 39.466666 42.56L213.333333 768h597.333334a42.666667 42.666667 0 0 0 42.56-39.466667L853.333333 725.333333V298.666667a42.666667 42.666667 0 0 0-39.466666-42.56L810.666667 256z m-499.754667 101.674667l1.92 2.666666L405.333333 499.072V384a42.666667 42.666667 0 0 1 39.466667-42.56L448 341.333333a42.666667 42.666667 0 0 1 42.56 39.466667L490.666667 384v256c0 41.109333-51.904 57.898667-76.245334 26.325333l-1.92-2.666666L320 524.949333V640a42.666667 42.666667 0 0 1-39.466667 42.56L277.333333 682.666667a42.666667 42.666667 0 0 1-42.56-39.466667L234.666667 640V384c0-41.109333 51.904-57.898667 76.245333-26.325333zM682.666667 341.333333a106.666667 106.666667 0 0 1 106.56 102.037334L789.333333 448v128a106.666667 106.666667 0 0 1-102.037333 106.56L682.666667 682.666667h-42.666667a106.666667 106.666667 0 0 1-106.56-102.037334L533.333333 576v-128a106.666667 106.666667 0 0 1 102.037334-106.56L640 341.333333h42.666667z m0 85.333334h-42.666667a21.333333 21.333333 0 0 0-21.184 18.837333L618.666667 448v128a21.333333 21.333333 0 0 0 18.837333 21.184L640 597.333333h42.666667a21.333333 21.333333 0 0 0 21.184-18.837333L704 576v-128a21.333333 21.333333 0 0 0-21.333333-21.333333z" p-id="5170"></path></svg>
