<?xml version="1.0" standalone="no"?><!DOCTYPE svg PUBLIC "-//W3C//DTD SVG 1.1//EN" "http://www.w3.org/Graphics/SVG/1.1/DTD/svg11.dtd"><svg t="1766628300424" class="icon" viewBox="0 0 1045 1024" version="1.1" xmlns="http://www.w3.org/2000/svg" p-id="6651" xmlns:xlink="http://www.w3.org/1999/xlink" width="204.1015625" height="200"><path d="M878.976 473.6a38.4 38.4 0 1 1 0 76.8h-725.333333a38.4 38.4 0 1 1 0-76.8h725.333333zM553.450667 128a38.4 38.4 0 1 0-76.8 0v266.325333a38.4 38.4 0 1 0 76.8 0V128z" p-id="6652"></path><path d="M436.8 261.930667a38.4 38.4 0 1 0-54.314667 54.293333l105.6 105.6a38.4 38.4 0 1 0 54.293334-54.314667l-105.6-105.6z" p-id="6653"></path><path d="M647.978667 316.224a38.4 38.4 0 1 0-54.293334-54.293333l-105.6 105.6a38.4 38.4 0 0 0 54.293334 54.293333l105.6-105.6zM553.450667 896a38.4 38.4 0 1 1-76.8 0V629.653333a38.4 38.4 0 1 1 76.8 0v266.346667z" p-id="6654"></path><path d="M436.8 762.069333a38.4 38.4 0 1 1-54.314667-54.293333l105.6-105.6a38.4 38.4 0 1 1 54.293334 54.314667l-105.6 105.6z" p-id="6655"></path><path d="M647.978667 707.776a38.4 38.4 0 1 1-54.293334 54.293333l-105.6-105.6a38.4 38.4 0 1 1 54.293334-54.293333l105.6 105.6z" p-id="6656"></path></svg>