<?xml version="1.0" standalone="no"?><!DOCTYPE svg PUBLIC "-//W3C//DTD SVG 1.1//EN" "http://www.w3.org/Graphics/SVG/1.1/DTD/svg11.dtd"><svg t="1761729447549" class="icon" viewBox="0 0 1045 1024" version="1.1" xmlns="http://www.w3.org/2000/svg" p-id="11380" xmlns:xlink="http://www.w3.org/1999/xlink" width="204.1015625" height="200"><path d="M115.242667 790.570667v-192a38.4 38.4 0 1 1 76.8 0v192a25.6 25.6 0 0 0 25.6 25.6h597.333333a25.6 25.6 0 0 0 25.6-25.6v-192a38.4 38.4 0 1 1 76.8 0v192a102.4 102.4 0 0 1-102.4 102.4h-597.333333a102.4 102.4 0 0 1-102.4-102.4z" p-id="11381"></path><path d="M327.829333 349.077333a38.4 38.4 0 0 1 0-54.293333l146.261334-146.261333a59.733333 59.733333 0 0 1 84.458666 0l146.24 146.261333a38.4 38.4 0 1 1-54.293333 54.293333l-95.786667-95.786666v377.941333a38.4 38.4 0 1 1-76.8 0V253.269333l-95.786666 95.786667a38.4 38.4 0 0 1-54.293334 0z" p-id="11382"></path></svg>