<?xml version="1.0" standalone="no"?><!DOCTYPE svg PUBLIC "-//W3C//DTD SVG 1.1//EN" "http://www.w3.org/Graphics/SVG/1.1/DTD/svg11.dtd"><svg t="1761729484772" class="icon" viewBox="0 0 1045 1024" version="1.1" xmlns="http://www.w3.org/2000/svg" p-id="11671" xmlns:xlink="http://www.w3.org/1999/xlink" width="204.1015625" height="200"><path d="M494.250667 473.6a143.616 143.616 0 1 1 0-287.253333 143.616 143.616 0 0 1 0 287.253333z m0 76.8c121.728 0 220.437333-98.688 220.437333-220.437333 0-121.728-98.709333-220.416-220.437333-220.416-121.749333 0-220.416 98.688-220.437334 220.416 0 121.749333 98.688 220.437333 220.416 220.437333zM114.56 829.12c0-133.525333 108.224-241.749333 241.728-241.749333h206.208a38.4 38.4 0 1 1 0 76.8h-206.208a164.970667 164.970667 0 0 0-164.949333 164.949333c0 4.693333 3.84 8.533333 8.533333 8.533333h362.624a38.4 38.4 0 1 1 0 76.8H199.893333a85.333333 85.333333 0 0 1-85.333333-85.333333zM879.722667 712.512a38.4 38.4 0 1 1 0 76.8h-234.666667a38.4 38.4 0 1 1 0-76.8h234.666667z" p-id="11672"></path><path d="M800.789333 868.245333a38.4 38.4 0 1 1-76.8 0v-234.666666a38.4 38.4 0 1 1 76.8 0v234.666666z" p-id="11673"></path></svg>