<?xml version="1.0" standalone="no"?><!DOCTYPE svg PUBLIC "-//W3C//DTD SVG 1.1//EN" "http://www.w3.org/Graphics/SVG/1.1/DTD/svg11.dtd"><svg t="1766631386606" class="icon" viewBox="0 0 1024 1024" version="1.1" xmlns="http://www.w3.org/2000/svg" p-id="6211" xmlns:xlink="http://www.w3.org/1999/xlink" width="200" height="200"><path d="M836.266667 412.693333a25.6 25.6 0 0 0-11.690667-21.482666l-298.666667-193.28a25.621333 25.621333 0 0 0-27.818666 0l-298.666667 193.28a25.6 25.6 0 0 0-11.690667 21.482666v391.850667a25.6 25.6 0 0 0 25.6 25.6h597.333334a25.6 25.6 0 0 0 25.6-25.6V412.693333z m76.8 391.850667a102.4 102.4 0 0 1-102.4 102.4H213.333333a102.4 102.4 0 0 1-102.4-102.4V412.693333a102.4 102.4 0 0 1 46.784-85.973333l298.666667-193.258667a102.4 102.4 0 0 1 111.232 0l298.666667 193.28a102.4 102.4 0 0 1 46.784 85.973334v391.829333z" p-id="6212"></path><path d="M650.666667 638.144a38.4 38.4 0 1 1 0 76.8h-277.333334a38.4 38.4 0 1 1 0-76.8h277.333334z" p-id="6213"></path></svg>