<svg class="icon" viewBox="0 0 1024 1024" version="1.1" xmlns="http://www.w3.org/2000/svg" p-id="11027" width="200" height="200"><path d="M576.128 143.786667l277.333333 160.576A128 128 0 0 1 917.333333 415.125333V789.333333a128 128 0 0 1-128 128H234.666667a128 128 0 0 1-128-128V415.146667a128 128 0 0 1 63.872-110.784l277.333333-160.554667a128 128 0 0 1 128.256 0z m-42.752 73.856a42.666667 42.666667 0 0 0-39.381333-1.749334l-3.370667 1.749334-277.333333 160.576a42.666667 42.666667 0 0 0-21.141334 33.429333L192 415.125333V789.333333a42.666667 42.666667 0 0 0 39.466667 42.56L234.666667 832h554.666666a42.666667 42.666667 0 0 0 42.56-39.466667L832 789.333333V415.146667a42.666667 42.666667 0 0 0-18.346667-35.072l-2.944-1.856-277.333333-160.576z" p-id="11028"></path><path d="M341.333333 704a42.666667 42.666667 0 0 1 42.666667-42.666667h256a42.666667 42.666667 0 1 1 0 85.333334H384a42.666667 42.666667 0 0 1-42.666667-42.666667z" p-id="11029"></path></svg>
