<?xml version="1.0" standalone="no"?><!DOCTYPE svg PUBLIC "-//W3C//DTD SVG 1.1//EN" "http://www.w3.org/Graphics/SVG/1.1/DTD/svg11.dtd"><svg t="1761729516836" class="icon" viewBox="0 0 1024 1024" version="1.1" xmlns="http://www.w3.org/2000/svg" p-id="11963" xmlns:xlink="http://www.w3.org/1999/xlink" width="200" height="200"><path d="M696.96 88.234667a102.4 102.4 0 0 1 85.034667 45.354666l160.32 239.018667a102.4 102.4 0 0 1-10.090667 126.784L602.581333 853.653333a123.733333 123.733333 0 0 1-181.162666 0L91.776 499.392a102.4 102.4 0 0 1-10.090667-126.784l160.32-239.018667a102.4 102.4 0 0 1 85.034667-45.354666h369.92z m-369.92 76.8c-8.533333 0-16.512 4.266667-21.269333 11.349333L145.472 415.402667a25.6 25.6 0 0 0 2.517333 31.68L477.653333 801.322667a46.933333 46.933333 0 0 0 68.693334 0l329.664-354.24a25.6 25.6 0 0 0 2.517333-31.68L718.229333 176.384a25.621333 25.621333 0 0 0-21.269333-11.370667H327.04z" p-id="11964"></path><path d="M602.176 494.144a38.4 38.4 0 1 1 54.293333 54.293333l-87.146666 87.168a81.066667 81.066667 0 0 1-114.624 0l-87.189334-87.168a38.4 38.4 0 1 1 54.293334-54.293333l87.168 87.168a4.266667 4.266667 0 0 0 6.058666 0l87.146667-87.168z" p-id="11965"></path></svg>