<?xml version="1.0" standalone="no"?><!DOCTYPE svg PUBLIC "-//W3C//DTD SVG 1.1//EN" "http://www.w3.org/Graphics/SVG/1.1/DTD/svg11.dtd"><svg t="1766628428145" class="icon" viewBox="0 0 1045 1024" version="1.1" xmlns="http://www.w3.org/2000/svg" p-id="7095" xmlns:xlink="http://www.w3.org/1999/xlink" width="204.1015625" height="200"><path d="M840.576 494.506667v-69.248c0-8.405333-4.138667-16.277333-11.093333-21.056l-298.666667-205.141334a25.6 25.6 0 0 0-29.013333 0l-298.666667 205.141334c-6.933333 4.778667-11.093333 12.672-11.093333 21.12V803.84a25.6 25.6 0 0 0 25.6 25.6h254.72a38.4 38.4 0 1 1 0 76.8h-254.72a102.4 102.4 0 0 1-102.4-102.4V425.301333a102.4 102.4 0 0 1 44.416-84.416l298.666666-205.141333a102.4 102.4 0 0 1 115.968 0l298.666667 205.141333a102.357333 102.357333 0 0 1 44.416 84.373334v69.248a38.4 38.4 0 1 1-76.8 0z" p-id="7096"></path><path d="M860.778667 774.4a38.4 38.4 0 1 0 0-76.8h-234.666667a38.4 38.4 0 1 0 0 76.8h234.666667z" p-id="7097"></path><path d="M706.282667 671.488a38.4 38.4 0 1 0-54.314667-54.293333l-90.496 90.517333a38.4 38.4 0 1 0 54.293333 54.293333l90.517334-90.517333z" p-id="7098"></path><path d="M651.968 852.522667a38.4 38.4 0 1 0 54.314667-54.314667l-90.517334-90.496a38.4 38.4 0 1 0-54.293333 54.293333l90.496 90.496z" p-id="7099"></path></svg>