<?xml version="1.0" standalone="no"?><!DOCTYPE svg PUBLIC "-//W3C//DTD SVG 1.1//EN" "http://www.w3.org/Graphics/SVG/1.1/DTD/svg11.dtd"><svg t="1766628398526" class="icon" viewBox="0 0 1024 1024" version="1.1" xmlns="http://www.w3.org/2000/svg" p-id="6949" xmlns:xlink="http://www.w3.org/1999/xlink" width="200" height="200"><path d="M261.610667 154.197333a38.4 38.4 0 0 1 54.314666 54.293334L232.106667 292.266667h408.64c156.714667 0 283.733333 127.04 283.733333 283.733333 0 156.693333-127.04 283.733333-283.733333 283.733333h-458.666667a38.4 38.4 0 0 1 0-76.8h458.666667c114.282667 0 206.933333-92.650667 206.933333-206.933333 0-114.282667-92.650667-206.933333-206.933333-206.933333H229.12l86.826667 86.826666a38.4 38.4 0 0 1-54.314667 54.272l-150.826667-150.826666a38.4 38.4 0 0 1-2.645333-51.413334l2.645333-2.901333 150.826667-150.826667z" fill="#60636B" p-id="6950"></path></svg>