<svg xmlns="http://www.w3.org/2000/svg" viewBox="0 0 480 300" fill="none">
<rect width="480" height="300" fill="#EEF1F6"/>
<rect x="10" y="10" width="460" height="280" rx="10" fill="#FFFFFF"/>
<rect x="10" y="10" width="58" height="280" rx="10" fill="#F8F9FB"/>
<rect x="18" y="28" width="18" height="4" rx="2" fill="#D7DCE5"/>
<rect x="18" y="40" width="18" height="4" rx="2" fill="#D7DCE5"/>
<rect x="18" y="52" width="18" height="4" rx="2" fill="#237FFA" opacity="0.85"/>
<rect x="18" y="64" width="18" height="4" rx="2" fill="#D7DCE5"/>

<rect x="82" y="28" width="120" height="10" rx="3" fill="#9AA3B2"/>
<rect x="82" y="52" width="86" height="56" rx="8" fill="#FAFBFC" stroke="#EEF1F6"/>
<rect x="180" y="52" width="86" height="56" rx="8" fill="#FAFBFC" stroke="#EEF1F6"/>
<rect x="278" y="52" width="86" height="56" rx="8" fill="#FAFBFC" stroke="#EEF1F6"/>
<rect x="376" y="52" width="74" height="56" rx="8" fill="#FAFBFC" stroke="#EEF1F6"/>
<rect x="92" y="64" width="36" height="6" rx="2" fill="#C9D2DF"/>
<rect x="92" y="78" width="52" height="10" rx="2" fill="#237FFA" opacity="0.75"/>
<rect x="82" y="120" width="180" height="84" rx="8" fill="#FAFBFC" stroke="#EEF1F6"/>
<path d="M96 180 L120 160 L144 168 L168 140 L192 150 L216 132 L240 148" stroke="#237FFA" stroke-width="3" stroke-linecap="round"/>
<rect x="270" y="120" width="180" height="84" rx="8" fill="#FAFBFC" stroke="#EEF1F6"/>
<circle cx="310" cy="162" r="24" stroke="#34C759" stroke-width="10" opacity="0.8"/>
<circle cx="310" cy="162" r="24" stroke="#237FFA" stroke-width="10" stroke-dasharray="50 100" opacity="0.8"/>
<rect x="82" y="214" width="368" height="60" rx="8" fill="#FAFBFC" stroke="#EEF1F6"/>
<rect x="96" y="230" width="340" height="8" rx="2" fill="#E8ECF2"/>
<rect x="96" y="248" width="340" height="8" rx="2" fill="#E8ECF2"/>

</svg>