<svg xmlns="http://www.w3.org/2000/svg" viewBox="0 0 480 300" fill="none">
<rect width="480" height="300" fill="#EEF1F6"/>
<rect x="10" y="10" width="460" height="280" rx="10" fill="#FFFFFF"/>
<rect x="10" y="10" width="58" height="280" rx="10" fill="#F8F9FB"/>
<rect x="18" y="28" width="18" height="4" rx="2" fill="#D7DCE5"/>
<rect x="18" y="40" width="18" height="4" rx="2" fill="#D7DCE5"/>
<rect x="18" y="52" width="18" height="4" rx="2" fill="#237FFA" opacity="0.85"/>
<rect x="18" y="64" width="18" height="4" rx="2" fill="#D7DCE5"/>

<rect x="82" y="28" width="120" height="10" rx="3" fill="#9AA3B2"/>
<rect x="82" y="52" width="220" height="18" rx="9" fill="#F5F7FA"/>
<rect x="90" y="58" width="36" height="6" rx="2" fill="#237FFA"/>
<rect x="132" y="58" width="36" height="6" rx="2" fill="#D7DCE5"/>
<rect x="174" y="58" width="36" height="6" rx="2" fill="#D7DCE5"/>
<rect x="82" y="82" width="368" height="88" rx="8" fill="#FAFBFC" stroke="#EEF1F6"/>
<rect x="96" y="98" width="72" height="6" rx="2" fill="#C9D2DF"/>
<rect x="96" y="116" width="120" height="6" rx="2" fill="#E8ECF2"/>
<rect x="240" y="98" width="72" height="6" rx="2" fill="#C9D2DF"/>
<rect x="240" y="116" width="120" height="6" rx="2" fill="#E8ECF2"/>
<rect x="82" y="182" width="368" height="92" rx="8" fill="#FAFBFC" stroke="#EEF1F6"/>
<rect x="96" y="198" width="72" height="6" rx="2" fill="#C9D2DF"/>
<rect x="96" y="216" width="160" height="6" rx="2" fill="#E8ECF2"/>
<rect x="96" y="234" width="120" height="6" rx="2" fill="#E8ECF2"/>

</svg>