<svg xmlns="http://www.w3.org/2000/svg" viewBox="0 0 480 300" fill="none">
<rect width="480" height="300" fill="#EEF1F6"/>
<rect x="10" y="10" width="460" height="280" rx="10" fill="#FFFFFF"/>
<rect x="10" y="10" width="58" height="280" rx="10" fill="#F8F9FB"/>
<rect x="18" y="28" width="18" height="4" rx="2" fill="#D7DCE5"/>
<rect x="18" y="40" width="18" height="4" rx="2" fill="#D7DCE5"/>
<rect x="18" y="52" width="18" height="4" rx="2" fill="#237FFA" opacity="0.85"/>
<rect x="18" y="64" width="18" height="4" rx="2" fill="#D7DCE5"/>

<rect x="82" y="28" width="120" height="10" rx="3" fill="#9AA3B2"/>
<rect x="82" y="52" width="250" height="178" rx="8" fill="#FAFBFC" stroke="#EEF1F6" opacity="0.55"/>
<rect x="300" y="52" width="150" height="178" rx="8" fill="#FFFFFF" stroke="#D7DCE5"/>
<rect x="316" y="68" width="80" height="8" rx="2" fill="#9AA3B2"/>
<rect x="316" y="92" width="72" height="6" rx="2" fill="#C9D2DF"/>
<rect x="316" y="108" width="118" height="16" rx="4" fill="#F5F7FA" stroke="#E8ECF2"/>
<rect x="316" y="134" width="72" height="6" rx="2" fill="#C9D2DF"/>
<rect x="316" y="150" width="118" height="16" rx="4" fill="#F5F7FA" stroke="#E8ECF2"/>
<rect x="316" y="176" width="72" height="6" rx="2" fill="#C9D2DF"/>
<rect x="316" y="192" width="118" height="16" rx="4" fill="#F5F7FA" stroke="#E8ECF2"/>
<rect x="316" y="224" width="44" height="12" rx="6" fill="#237FFA"/>

</svg>