<svg xmlns="http://www.w3.org/2000/svg" viewBox="0 0 480 300" fill="none">
<rect width="480" height="300" fill="#EEF1F6"/>
<rect x="10" y="10" width="460" height="280" rx="10" fill="#FFFFFF"/>
<rect x="10" y="10" width="58" height="280" rx="10" fill="#F8F9FB"/>
<rect x="18" y="28" width="18" height="4" rx="2" fill="#D7DCE5"/>
<rect x="18" y="40" width="18" height="4" rx="2" fill="#D7DCE5"/>
<rect x="18" y="52" width="18" height="4" rx="2" fill="#237FFA" opacity="0.85"/>
<rect x="18" y="64" width="18" height="4" rx="2" fill="#D7DCE5"/>

<rect x="82" y="28" width="120" height="10" rx="3" fill="#9AA3B2"/>
<rect x="82" y="56" width="250" height="18" rx="9" fill="#F5F7FA"/>
<rect x="90" y="62" width="38" height="6" rx="2" fill="#237FFA"/>
<rect x="134" y="62" width="38" height="6" rx="2" fill="#D7DCE5"/>
<rect x="178" y="62" width="38" height="6" rx="2" fill="#D7DCE5"/>

<rect x="82" y="88" width="258" height="156" rx="8" fill="#F5F7FA"/>
<rect x="96" y="104" width="86" height="6" rx="2" fill="#C9D2DF"/>
<rect x="96" y="120" width="140" height="6" rx="2" fill="#E8ECF2"/>
<rect x="96" y="136" width="124" height="6" rx="2" fill="#E8ECF2"/>
<rect x="96" y="164" width="228" height="1.5" fill="#E8ECF2"/>
<rect x="96" y="182" width="72" height="6" rx="2" fill="#D7DCE5"/>
<rect x="96" y="198" width="120" height="6" rx="2" fill="#E8ECF2"/>
<rect x="96" y="214" width="88" height="6" rx="2" fill="#E8ECF2"/>

<rect x="312" y="74" width="138" height="170" rx="10" fill="#FFFFFF" stroke="#DCE3ED"/>
<rect x="328" y="90" width="70" height="7" rx="2" fill="#9AA3B2"/>
<rect x="414" y="90" width="20" height="20" rx="10" fill="#F5F7FA"/>
<path d="M420 100H428" stroke="#C9D2DF" stroke-linecap="round" stroke-width="1.5"/>

<rect x="328" y="116" width="106" height="44" rx="8" fill="#FAFBFC" stroke="#EEF1F6"/>
<rect x="340" y="128" width="40" height="6" rx="2" fill="#C9D2DF"/>
<rect x="388" y="128" width="30" height="6" rx="2" fill="#C9D2DF"/>
<rect x="340" y="144" width="78" height="6" rx="2" fill="#E8ECF2"/>

<rect x="328" y="172" width="42" height="6" rx="2" fill="#D7DCE5"/>
<rect x="328" y="188" width="96" height="6" rx="2" fill="#E8ECF2"/>
<rect x="328" y="204" width="82" height="6" rx="2" fill="#E8ECF2"/>
<rect x="328" y="220" width="64" height="6" rx="2" fill="#E8ECF2"/>

<rect x="328" y="256" width="44" height="12" rx="6" fill="#237FFA"/>
<rect x="378" y="256" width="44" height="12" rx="6" fill="#F5F7FA" stroke="#E8ECF2"/>
</svg>
