<svg xmlns="http://www.w3.org/2000/svg" viewBox="0 0 480 300" fill="none">
<rect width="480" height="300" fill="#EEF1F6"/>
<rect x="10" y="10" width="460" height="280" rx="10" fill="#FFFFFF"/>
<rect x="10" y="10" width="58" height="280" rx="10" fill="#F8F9FB"/>
<rect x="18" y="28" width="18" height="4" rx="2" fill="#D7DCE5"/>
<rect x="18" y="40" width="18" height="4" rx="2" fill="#D7DCE5"/>
<rect x="18" y="52" width="18" height="4" rx="2" fill="#237FFA" opacity="0.85"/>
<rect x="18" y="64" width="18" height="4" rx="2" fill="#D7DCE5"/>

<rect x="82" y="28" width="120" height="10" rx="3" fill="#9AA3B2"/>
<rect x="82" y="52" width="368" height="178" rx="8" fill="#FAFBFC" stroke="#EEF1F6"/>
<circle cx="266" cy="118" r="24" fill="#EEF3FF"/>
<rect x="254" y="106" width="24" height="24" rx="6" fill="#237FFA" opacity="0.25"/>
<rect x="214" y="152" width="104" height="8" rx="2" fill="#9AA3B2"/>
<rect x="230" y="168" width="72" height="6" rx="2" fill="#D7DCE5"/>
<rect x="248" y="188" width="36" height="14" rx="7" fill="#237FFA"/>

</svg>