<svg xmlns="http://www.w3.org/2000/svg" viewBox="0 0 480 300" fill="none">
<rect width="480" height="300" fill="#EEF1F6"/>
<rect x="10" y="10" width="460" height="280" rx="10" fill="#FFFFFF"/>
<rect x="10" y="10" width="58" height="280" rx="10" fill="#F8F9FB"/>
<rect x="18" y="28" width="18" height="4" rx="2" fill="#D7DCE5"/>
<rect x="18" y="40" width="18" height="4" rx="2" fill="#D7DCE5"/>
<rect x="18" y="52" width="18" height="4" rx="2" fill="#237FFA" opacity="0.85"/>
<rect x="18" y="64" width="18" height="4" rx="2" fill="#D7DCE5"/>

<rect x="82" y="28" width="120" height="10" rx="3" fill="#9AA3B2"/>
<rect x="82" y="52" width="368" height="170" rx="8" fill="#FAFBFC" stroke="#EEF1F6"/>
<rect x="96" y="68" width="72" height="6" rx="2" fill="#C9D2DF"/>
<rect x="96" y="84" width="100" height="18" rx="4" fill="#F5F7FA" stroke="#E8ECF2"/>
<rect x="210" y="84" width="100" height="18" rx="4" fill="#F5F7FA" stroke="#E8ECF2"/>
<rect x="324" y="84" width="100" height="18" rx="4" fill="#F5F7FA" stroke="#E8ECF2"/>
<rect x="96" y="116" width="72" height="6" rx="2" fill="#C9D2DF"/>
<rect x="96" y="132" width="328" height="18" rx="4" fill="#F5F7FA" stroke="#E8ECF2"/>
<rect x="96" y="164" width="72" height="6" rx="2" fill="#C9D2DF"/>
<rect x="96" y="180" width="100" height="18" rx="4" fill="#F5F7FA" stroke="#E8ECF2"/>
<rect x="82" y="236" width="368" height="34" rx="8" fill="#F8F9FB" stroke="#EEF1F6"/>
<rect x="330" y="248" width="44" height="12" rx="6" fill="#237FFA"/>
<rect x="280" y="248" width="40" height="12" rx="6" fill="#E8ECF2"/>

</svg>