<svg xmlns="http://www.w3.org/2000/svg" viewBox="0 0 480 300" fill="none">
<rect width="480" height="300" fill="#EEF1F6"/>
<rect x="10" y="10" width="460" height="280" rx="10" fill="#FFFFFF"/>
<rect x="10" y="10" width="58" height="280" rx="10" fill="#F8F9FB"/>
<rect x="18" y="28" width="18" height="4" rx="2" fill="#D7DCE5"/>
<rect x="18" y="40" width="18" height="4" rx="2" fill="#D7DCE5"/>
<rect x="18" y="52" width="18" height="4" rx="2" fill="#237FFA" opacity="0.85"/>
<rect x="18" y="64" width="18" height="4" rx="2" fill="#D7DCE5"/>

<rect x="82" y="28" width="96" height="10" rx="3" fill="#9AA3B2"/>
<rect x="360" y="24" width="44" height="18" rx="9" fill="#237FFA"/>
<rect x="82" y="52" width="368" height="34" rx="8" fill="#F5F7FA"/>
<rect x="92" y="62" width="120" height="8" rx="2" fill="#D7DCE5"/>
<rect x="230" y="62" width="48" height="8" rx="2" fill="#D7DCE5"/>
<rect x="82" y="96" width="368" height="178" rx="8" fill="#FAFBFC" stroke="#EEF1F6"/>
<rect x="96" y="112" width="80" height="6" rx="2" fill="#C9D2DF"/>
<rect x="96" y="132" width="340" height="8" rx="2" fill="#E8ECF2"/>
<rect x="96" y="150" width="340" height="8" rx="2" fill="#E8ECF2"/>
<rect x="96" y="168" width="340" height="8" rx="2" fill="#E8ECF2"/>
<rect x="96" y="186" width="340" height="8" rx="2" fill="#E8ECF2"/>
<rect x="96" y="204" width="340" height="8" rx="2" fill="#E8ECF2"/>
<rect x="96" y="248" width="120" height="8" rx="2" fill="#D7DCE5"/>

</svg>