<svg xmlns="http://www.w3.org/2000/svg" viewBox="0 0 480 300" fill="none">
<rect width="480" height="300" fill="#EEF1F6"/>
<rect x="10" y="10" width="460" height="280" rx="10" fill="#FFFFFF"/>
<rect x="10" y="10" width="58" height="280" rx="10" fill="#F8F9FB"/>
<rect x="18" y="28" width="18" height="4" rx="2" fill="#D7DCE5"/>
<rect x="18" y="40" width="18" height="4" rx="2" fill="#D7DCE5"/>
<rect x="18" y="52" width="18" height="4" rx="2" fill="#237FFA" opacity="0.85"/>
<rect x="18" y="64" width="18" height="4" rx="2" fill="#D7DCE5"/>

<rect x="82" y="28" width="120" height="10" rx="3" fill="#9AA3B2"/>
<rect x="82" y="52" width="368" height="28" rx="8" fill="#F5F7FA"/>

<rect x="82" y="92" width="368" height="138" rx="8" fill="#FAFBFC" stroke="#EEF1F6"/>
<rect x="96" y="106" width="122" height="8" rx="2" fill="#C9D2DF"/>
<rect x="242" y="106" width="74" height="8" rx="2" fill="#D7DCE5"/>
<rect x="334" y="106" width="98" height="8" rx="2" fill="#D7DCE5"/>
<rect x="96" y="124" width="336" height="2" fill="#EEF1F6"/>

<rect x="94" y="138" width="344" height="22" rx="6" fill="#FFFFFF"/>
<rect x="108" y="144" width="10" height="10" rx="2" fill="#237FFA" opacity="0.16" stroke="#237FFA"/>
<path d="M111 149H115" stroke="#237FFA" stroke-linecap="round" stroke-width="1.5"/>
<path d="M113 147V151" stroke="#237FFA" stroke-linecap="round" stroke-width="1.5"/>
<rect x="128" y="146" width="74" height="6" rx="2" fill="#9AA3B2"/>
<rect x="242" y="146" width="74" height="6" rx="2" fill="#E8ECF2"/>
<rect x="334" y="146" width="82" height="6" rx="2" fill="#E8ECF2"/>

<path d="M127 155V204" stroke="#D7DCE5" stroke-width="2"/>
<path d="M127 175H144" stroke="#D7DCE5" stroke-width="2"/>
<path d="M127 199H144" stroke="#D7DCE5" stroke-width="2"/>

<rect x="94" y="168" width="344" height="22" rx="6" fill="#FFFFFF"/>
<rect x="144" y="174" width="10" height="10" rx="2" fill="#34C759" opacity="0.14" stroke="#34C759"/>
<path d="M147 179H151" stroke="#34C759" stroke-linecap="round" stroke-width="1.5"/>
<rect x="164" y="176" width="68" height="6" rx="2" fill="#C9D2DF"/>
<rect x="242" y="176" width="74" height="6" rx="2" fill="#E8ECF2"/>
<rect x="334" y="176" width="82" height="6" rx="2" fill="#E8ECF2"/>

<rect x="94" y="192" width="344" height="22" rx="6" fill="#FFFFFF"/>
<circle cx="149" cy="203" r="5" fill="#D7DCE5"/>
<rect x="164" y="200" width="60" height="6" rx="2" fill="#D7DCE5"/>
<rect x="242" y="200" width="74" height="6" rx="2" fill="#E8ECF2"/>
<rect x="334" y="200" width="82" height="6" rx="2" fill="#E8ECF2"/>

<rect x="96" y="246" width="96" height="8" rx="2" fill="#D7DCE5"/>
</svg>
