<svg xmlns="http://www.w3.org/2000/svg" viewBox="0 0 1024 1024" version="1.1"><path d="M816.7 125.5c15 0 15.1 29.6 15.1 30.8v154.3l0.1 2.6 0.1 1.5c0 35.4-18.1 76.8-68.9 76.8-22.3 0-43.1-8.2-58.7-23.1-15-14.4-23.3-33.3-23.4-53.6 0-2.7 0.3-5.8 0.9-9.8 2.9-18.4-6.6-36.5-23.4-44.5l-2.9-1.4c-5.7-2.7-11.9-4.1-18.1-4.1-8.8 0-17.6 2.8-25 8.2-12.5 9.2-18.9 24.6-16.6 39.9 0.7 4.6 1 8.3 1 11.5v0.2c-0.1 42.2-36.7 76.6-81.4 76.6-44.9 0-81.4-34.5-81.4-76.8 0-3.4 0.4-7.3 1.1-11.9 2.6-15.5-3.7-31.1-16.3-40.5-7.4-5.6-16.3-8.4-25.2-8.4-6.2 0-12.4 1.4-18.2 4.2l-3.2 1.5c-16.6 8-26.1 25.9-23.3 44.2 0.7 4.4 1 7.8 1 10.9 0 42.4-36.8 76.8-82.1 76.8-45.7 0-84.5-35-84.7-76.6V156.1c0-15 15.9-30.8 30.9-30.8h602.6m0-41.8H214.3c-38.8 0-72.9 35.5-72.9 72.9v158.9c0.3 65.4 58.3 118.4 126.7 118.4 68.5 0 124.1-53.2 124.1-118.8 0-5.9-0.6-11.6-1.5-17.2l3.2-1.5c-1 6.2-1.7 12.4-1.7 18.8 0 65.6 55.3 118.8 123.4 118.8 68 0 123.2-53 123.4-118.5v-0.4 0.4c0 65.5 55.7 118.5 124.1 118.5 68.5 0 110.9-53.2 110.9-118.8 0-1.9-0.1-3.7-0.2-5.6v-153c0.1-37.4-18.3-72.9-57.1-72.9zM639.1 314.8c0-6-0.6-11.8-1.5-17.7l2.9 1.4c-0.8 5.4-1.4 10.8-1.4 16.3z m131.4 175.4h-42v197c0 27.7-23.2 50.3-51.6 50.3h-328c-28.5 0-51.6-22.6-51.6-50.3v-197h-42v197c0 50.9 42 92.3 93.7 92.3h327.9c51.6 0 93.7-41.4 93.7-92.3v-197h-0.1zM203 703.7h0.1-0.1m625.1-43.8c-9.3 0-17.8 6.2-20.3 15.6-3 11.2 3.7 22.7 14.9 25.7 85.2 22.6 123.3 51.5 123.3 70.1 0 42.4-167 104-428.7 104s-428.7-61.6-428.7-104c0-16.3 29.9-43.8 114.3-67.6 11.2-3.1 17.7-14.8 14.5-25.9-2.6-9.3-11-15.3-20.2-15.3-1.9 0-3.8 0.3-5.7 0.8-94.7 26.7-144.8 64.1-144.8 108 0 95.9 236.8 146 470.7 146 233.9 0 470.7-50.2 470.7-146 0-45.5-53.4-83.8-154.6-110.7-1.8-0.4-3.6-0.7-5.4-0.7z" p-id="11245"></path></svg>