<svg xmlns="http://www.w3.org/2000/svg" viewBox="0 0 1024 1024" version="1.1"><path d="M936 120a16 16 0 0 1 16 16v576a16 16 0 0 1-16 16H552v96h208a8 8 0 0 1 8 8v64a8 8 0 0 1-8 8H264a8 8 0 0 1-8-8v-64a8 8 0 0 1 8-8l208-0.002V728H88a16 16 0 0 1-16-16V136a16 16 0 0 1 16-16h848zM404 472h-144a8 8 0 0 0-8 8v64a8 8 0 0 0 8 8h144a8 8 0 0 0 8-8v-64a8 8 0 0 0-8-8z m360 0H460a8 8 0 0 0-8 8v64a8 8 0 0 0 8 8h304a8 8 0 0 0 8-8v-64a8 8 0 0 0-8-8z m-360-168h-144a8 8 0 0 0-8 8v64a8 8 0 0 0 8 8h144a8 8 0 0 0 8-8v-64a8 8 0 0 0-8-8z m360 0H460a8 8 0 0 0-8 8v64a8 8 0 0 0 8 8h304a8 8 0 0 0 8-8v-64a8 8 0 0 0-8-8z" p-id="11675"></path></svg>