<svg xmlns="http://www.w3.org/2000/svg" viewBox="0 0 1024 1024" version="1.1"><path d="M184 112a8 8 0 0 1 8 8v712h712a8 8 0 0 1 8 8v64a8 8 0 0 1-8 8H120a8 8 0 0 1-8-8V120a8 8 0 0 1 8-8h64z m160 256a8 8 0 0 1 8 8v328a8 8 0 0 1-8 8h-64a8 8 0 0 1-8-8V376a8 8 0 0 1 8-8h64z m320 152a8 8 0 0 1 8 8v176a8 8 0 0 1-8 8h-64a8 8 0 0 1-8-8v-176a8 8 0 0 1 8-8h64z m-160-64a8 8 0 0 1 8 8v240a8 8 0 0 1-8 8h-64a8 8 0 0 1-8-8V464a8 8 0 0 1 8-8h64z m320-224a8 8 0 0 1 8 8v464a8 8 0 0 1-8 8h-64a8 8 0 0 1-8-8V240a8 8 0 0 1 8-8h64z" p-id="13625"></path></svg>