<svg xmlns="http://www.w3.org/2000/svg" viewBox="0 0 1024 1024" version="1.1"><path d="M888 432a8 8 0 0 1 8 8v520h-140V432h132zM688 64a8 8 0 0 1 8 8v888h-182V732a8 8 0 0 0-7.6-7.99L506 724h-188a8 8 0 0 0-7.99 7.6l-0.01 0.4v228H128l3.964-888.036a8 8 0 0 1 8-7.964H688zM374 460h-56a8 8 0 0 0-7.99 7.6l-0.01 0.4v112a8 8 0 0 0 7.6 7.99l0.4 0.01h56a8 8 0 0 0 7.99-7.6l0.01-0.4v-112a8 8 0 0 0-8-8z m132 0h-56a8 8 0 0 0-7.99 7.6l-0.01 0.4v112a8 8 0 0 0 7.6 7.99l0.4 0.01h56a8 8 0 0 0 7.99-7.6l0.01-0.4v-112a8 8 0 0 0-8-8z m-132-232h-56a8 8 0 0 0-7.99 7.6l-0.01 0.4v112a8 8 0 0 0 7.6 7.99l0.4 0.01h56a8 8 0 0 0 7.99-7.6l0.01-0.4v-112a8 8 0 0 0-8-8z m132 0h-56a8 8 0 0 0-7.99 7.6l-0.01 0.4v112a8 8 0 0 0 7.6 7.99l0.4 0.01h56a8 8 0 0 0 7.99-7.6l0.01-0.4v-112a8 8 0 0 0-8-8z" p-id="11735"></path></svg>