<svg xmlns="http://www.w3.org/2000/svg" viewBox="0 0 1024 1024" version="1.1"><path d="M696 72v64a8 8 0 0 1-8 8H232v736h560v-120a8 8 0 0 1 8-8h64a8 8 0 0 1 8 8v192a8 8 0 0 1-8 8H160a8 8 0 0 1-8-8V72a8 8 0 0 1 8-8h528a8 8 0 0 1 8 8zM336 280h352a8 8 0 0 1 8 8v64a8 8 0 0 1-8 8H336a8 8 0 0 1-8-8v-64a8 8 0 0 1 8-8zM336 472h352a8 8 0 0 1 8 8v64a8 8 0 0 1-8 8H336a8 8 0 0 1-8-8v-64a8 8 0 0 1 8-8zM336 664h192a8 8 0 0 1 8 8v64a8 8 0 0 1-8 8h-192a8 8 0 0 1-8-8v-64a8 8 0 0 1 8-8zM864 624a8 8 0 0 1 8 8v64a8 8 0 0 1-8 8h-64a8 8 0 0 1-8-8v-64a8 8 0 0 1 8-8h64z m0-560a8 8 0 0 1 8 8v504a8 8 0 0 1-8 8h-64a8 8 0 0 1-8-8V72a8 8 0 0 1 8-8h64z" p-id="12785"></path></svg>