<svg xmlns="http://www.w3.org/2000/svg" viewBox="0 0 1024 1024" version="1.1"><path d="M406.056 80c4.418 0 7.944 3.58 7.944 8v52h196V88a8 8 0 0 1 8-8h64a8 8 0 0 1 8 8v52h192a16 16 0 0 1 16 16v756a16 16 0 0 1-16 16H134a16 16 0 0 1-16-16V156a16 16 0 0 1 16-16h200V88a8 8 0 0 1 8-8h64.056zM198 419.998V848h620V419.998H198zM334 220H198v119.998L818 340v-120h-128v50a8 8 0 0 1-8 8h-64a8 8 0 0 1-8-8v-50h-196v50a8 8 0 0 1-8 8h-64a8 8 0 0 1-8-8v-50zM558 708h184a8 8 0 0 1 8 8v64a8 8 0 0 1-8 8h-184a8 8 0 0 1-8-8v-64a8 8 0 0 1 8-8z" p-id="12725"></path></svg>