<svg xmlns="http://www.w3.org/2000/svg" viewBox="0 0 1024 1024" version="1.1"><path d="M764 304l-132-132v132h132zM552 144H232v736h560V384H560a8 8 0 0 1-8-8V144z m320 160v648a8 8 0 0 1-8 8H160a8 8 0 0 1-8-8V72a8 8 0 0 1 8-8h472l240 240zM353.612 727.868c20.552 0 34.768-6.66 42.646-19.98 4.654-7.88 6.982-18.55 6.982-32.014V565.66h-33.086v110.752c0 7.662-0.752 13.106-2.256 16.328-2.506 5.442-7.662 8.164-15.468 8.164-7.878 0-13.016-2.488-15.416-7.466-2.4-4.976-3.74-13.588-4.028-25.834v-3.652h-31.26v3.652c0 18.62 3.51 33.32 10.528 44.096 7.02 10.78 20.804 16.168 41.358 16.168zM469.626 724v-56.934h33.624c17.546 0 31.044-3.866 40.498-11.6 9.454-7.736 14.18-20.948 14.18-39.64 0-17.116-4.726-29.756-14.18-37.92-9.454-8.164-22.128-12.246-38.028-12.246h-68.964V724h32.87z m30.832-84.22h-30.832v-46.62h30.832c7.806 0 13.874 1.754 18.208 5.264 4.332 3.508 6.498 9.38 6.498 17.618 0 8.234-2.166 14.25-6.5 18.046-4.332 3.796-10.4 5.694-18.206 5.694z m147.166 88.41c12.748 0 23.49-2.686 32.228-8.058 5.084-3.08 10.814-8.378 17.188-15.898l3.33 19.766h21.914v-84.97h-65.958v26.426h36.632c-1.648 10.384-6.016 18.78-13.106 25.19s-16.186 9.614-27.286 9.614c-11.314 0-21.412-4.046-30.292-12.14-8.88-8.092-13.32-21.878-13.32-41.356 0-19.336 4.1-33.82 12.3-43.452 8.2-9.632 18.672-14.448 31.42-14.448 6.66 0 12.712 1.18 18.154 3.544 9.74 4.298 15.862 11.852 18.37 22.666h32.548c-1.79-15.254-8.79-27.984-21-38.188-12.212-10.206-28.38-15.308-48.5-15.308-23.204 0-41.86 7.734-55.968 23.204-14.108 15.468-21.162 36.02-21.162 61.66 0 25.35 6.98 45.332 20.946 59.94 13.392 14.54 30.58 21.808 51.562 21.808z" p-id="11435"></path></svg>