<svg xmlns="http://www.w3.org/2000/svg" viewBox="0 0 1024 1024" version="1.1"><path d="M890.676 86H133.43a56 56 0 0 0-30.986 9.354l-0.766 0.518C76.544 113.16 69.84 147.48 86.784 172.986l280.348 422.05v233.428a48 48 0 0 0 31.08 44.92l196.376 73.972a48 48 0 0 0 16.92 3.08h0.794c26.144-0.428 47.206-21.754 47.206-48l-0.002-307.49L937.45 172.794A56 56 0 0 0 946.676 142c0-30.928-25.072-56-56-56zM193.102 166h638.192a8 8 0 0 1 6.682 12.4L579.508 570.976l-0.002 273.648a8 8 0 0 1-10.82 7.486l-116.374-43.836a8 8 0 0 1-5.18-7.488v-229.9L186.44 178.426A8 8 0 0 1 193.102 166z" p-id="13445"></path></svg>