<svg xmlns="http://www.w3.org/2000/svg" viewBox="0 0 1024 1024" version="1.1"><path d="M857.196 120.344l45.254 45.254a8 8 0 0 1 0 11.314l-186.166 186.166 56.888 56.888a4 4 0 0 1 1.156 2.476l0.016 0.352a4 4 0 0 1-3.702 3.988l-0.3 0.012H600a4 4 0 0 1-3.99-3.7l-0.01-0.3v-170.344a4 4 0 0 1 6.574-3.06l0.254 0.232 56.888 56.888 186.166-186.166a8 8 0 0 1 11.314 0zM165.598 902.45l-45.254-45.254a8 8 0 0 1 0-11.314l186.166-186.166-56.888-56.888a4 4 0 0 1-1.156-2.476l-0.016-0.352a4 4 0 0 1 3.702-3.99l0.3-0.01h170.342a4 4 0 0 1 3.988 3.7l0.012 0.3v170.344a4 4 0 0 1-6.574 3.06l-0.254-0.232-56.888-56.888-186.166 186.166a8 8 0 0 1-11.314 0zM165.598 120.344L120.344 165.598a8 8 0 0 0 0 11.314l186.166 186.166-56.888 56.888a4 4 0 0 0-1.156 2.476l-0.016 0.352a4 4 0 0 0 3.702 3.988l0.3 0.012h170.342a4 4 0 0 0 3.988-3.7l0.012-0.3v-170.344a4 4 0 0 0-6.574-3.06l-0.254 0.232-56.888 56.888-186.166-186.166a8 8 0 0 0-11.314 0zM857.196 902.45l45.254-45.254a8 8 0 0 0 0-11.314l-186.166-186.166 56.888-56.888a4 4 0 0 0 1.156-2.476l0.016-0.352a4 4 0 0 0-3.702-3.99l-0.3-0.01H600a4 4 0 0 0-3.99 3.7L596 600v170.344a4 4 0 0 0 6.574 3.06l0.254-0.232 56.888-56.888 186.166 186.166a8 8 0 0 0 11.314 0z" p-id="13725"></path></svg>