<svg xmlns="http://www.w3.org/2000/svg" viewBox="0 0 1024 1024" version="1.1"><path d="M944 110a8 8 0 0 1 8 8v640a8 8 0 0 1-8 8H542.374l-209.1 159.316a12 12 0 0 1-6.712 2.44l-0.562 0.014a12 12 0 0 1-11.992-11.55l-0.008-0.45V766H80a8 8 0 0 1-8-8V118a8 8 0 0 1 8-8h864zM344 350h-64a8 8 0 0 0-8 8v160a8 8 0 0 0 8 8h64a8 8 0 0 0 8-8v-160a8 8 0 0 0-8-8z m200 0h-64a8 8 0 0 0-8 8v160a8 8 0 0 0 8 8h64a8 8 0 0 0 8-8v-160a8 8 0 0 0-8-8z m200 0h-64a8 8 0 0 0-8 8v160a8 8 0 0 0 8 8h64a8 8 0 0 0 8-8v-160a8 8 0 0 0-8-8z" p-id="11965"></path></svg>