<svg xmlns="http://www.w3.org/2000/svg" viewBox="0 0 1024 1024" version="1.1"><path d="M540 648c87.482 0 158.566 70.208 159.98 157.354L700 808v136a8 8 0 0 1-8 8h-64a8 8 0 0 1-8-8v-136c0-43.74-35.104-79.282-78.678-79.99L540 728H240c-43.74 0-79.282 35.104-79.99 78.678L160 808v136a8 8 0 0 1-8 8H88a8 8 0 0 1-8-8v-136c0-87.482 70.208-158.566 157.354-159.98L240 648h300z m400 224a8 8 0 0 1 8 8v64a8 8 0 0 1-8 8h-192a8 8 0 0 1-8-8v-64a8 8 0 0 1 8-8h192z m0-300a8 8 0 0 1 8 8v64a8 8 0 0 1-8 8h-192a8 8 0 0 1-8-8v-64a8 8 0 0 1 8-8h192zM390 116c132.548 0 240 107.452 240 240s-107.452 240-240 240S150 488.548 150 356 257.452 116 390 116z m0 80c-88.366 0-160 71.634-160 160s71.634 160 160 160 160-71.634 160-160-71.634-160-160-160z m550 76a8 8 0 0 1 8 8v64a8 8 0 0 1-8 8h-192a8 8 0 0 1-8-8v-64a8 8 0 0 1 8-8h192z" p-id="12495"></path></svg>