<svg xmlns="http://www.w3.org/2000/svg" viewBox="0 0 1024 1024" version="1.1"><path d="M179.158 179.158c156.21-156.21 409.474-156.21 565.684 0 146.664 146.662 155.628 378.88 26.89 536l167.89 167.896a8 8 0 0 1 0 11.314l-45.254 45.254a8 8 0 0 1-11.314 0l-167.892-167.892c-157.12 128.74-389.34 119.776-536.004-26.888-156.21-156.21-156.21-409.474 0-565.684z m56.568 56.568c-124.968 124.968-124.968 327.58 0 452.548 124.968 124.968 327.58 124.968 452.548 0 124.968-124.968 124.968-327.58 0-452.548-124.968-124.968-327.58-124.968-452.548 0zM302 422h320a8 8 0 0 1 8 8v64a8 8 0 0 1-8 8H302a8 8 0 0 1-8-8v-64a8 8 0 0 1 8-8z" p-id="13565"></path></svg>