<?xml version="1.0" standalone="no"?><!DOCTYPE svg PUBLIC "-//W3C//DTD SVG 1.1//EN" "http://www.w3.org/Graphics/SVG/1.1/DTD/svg11.dtd"><svg t="1766653010522" class="icon" viewBox="0 0 1024 1024" version="1.1" xmlns="http://www.w3.org/2000/svg" p-id="11495" xmlns:xlink="http://www.w3.org/1999/xlink" width="200" height="200"><path d="M512 78.933333c239.168 0 433.066667 193.898667 433.066667 433.066667S751.146667 945.066667 512 945.066667 78.933333 751.146667 78.933333 512 272.853333 78.933333 512 78.933333z m0 213.653334a38.4 38.4 0 0 0-38.4 38.4V473.6h-142.613333a38.4 38.4 0 1 0 0 76.778667H473.6v142.613333a38.4 38.4 0 1 0 76.778667 0V550.4h142.634666a38.378667 38.378667 0 1 0 0-76.778667H550.4v-142.613333a38.4 38.4 0 0 0-38.378667-38.4z" p-id="11496"></path></svg>