<?xml version="1.0" standalone="no"?><!DOCTYPE svg PUBLIC "-//W3C//DTD SVG 1.1//EN" "http://www.w3.org/Graphics/SVG/1.1/DTD/svg11.dtd"><svg t="1766547282910" class="icon" viewBox="0 0 1024 1024" version="1.1" xmlns="http://www.w3.org/2000/svg" p-id="1295" xmlns:xlink="http://www.w3.org/1999/xlink" width="200" height="200"><path d="M810.666667 110.933333a102.4 102.4 0 0 1 102.4 102.4v597.333334a102.4 102.4 0 0 1-102.4 102.4H213.333333A102.4 102.4 0 0 1 110.933333 810.666667V213.333333A102.4 102.4 0 0 1 213.333333 110.933333h597.333334z m-143.509334 245.909334a38.4 38.4 0 0 0-54.314666 0L512 457.728l-100.842667-100.842667a38.4 38.4 0 1 0-54.314666 54.272L457.728 512l-100.842667 100.842667a38.4 38.4 0 0 0 54.272 54.314666L512 566.272l100.842667 100.842667a38.4 38.4 0 1 0 54.314666-54.272L566.272 512l100.842667-100.842667a38.4 38.4 0 0 0 0-54.314666z" p-id="1296"></path></svg>