<svg t="1761651782224" class="icon" viewBox="0 0 1024 1024" version="1.1" xmlns="http://www.w3.org/2000/svg" p-id="14021" width="200" height="200"><path d="M512 78.933333c239.168 0 433.066667 193.898667 433.066667 433.066667S751.146667 945.066667 512 945.066667 78.933333 751.146667 78.933333 512 272.853333 78.933333 512 78.933333zM512 640a42.666667 42.666667 0 1 0 0 85.333333 42.666667 42.666667 0 0 0 0-85.333333z m0-337.066667a38.4 38.4 0 0 0-38.4 38.4v213.333334a38.4 38.4 0 1 0 76.8 0V341.333333a38.4 38.4 0 0 0-38.4-38.4z" p-id="14022"></path></svg>