<svg xmlns="http://www.w3.org/2000/svg" viewBox="0 0 1024 1024" version="1.1"><path d="M512 85.333333c235.648 0 426.666667 191.018667 426.666667 426.666667s-191.018667 426.666667-426.666667 426.666667S85.333333 747.648 85.333333 512 276.352 85.333333 512 85.333333z m21.333333 341.333334h-42.666666a21.333333 21.333333 0 0 0-21.333334 21.333333v277.333333a21.333333 21.333333 0 0 0 21.333334 21.333334h42.666666a21.333333 21.333333 0 0 0 21.333334-21.333334V448a21.333333 21.333333 0 0 0-21.333334-21.333333z m0-149.333334h-42.666666a21.333333 21.333333 0 0 0-21.333334 21.333334v42.666666a21.333333 21.333333 0 0 0 21.333334 21.333334h42.666666a21.333333 21.333333 0 0 0 21.333334-21.333334v-42.666666a21.333333 21.333333 0 0 0-21.333334-21.333334z" p-id="47561"></path></svg>