<?xml version="1.0" standalone="no"?><!DOCTYPE svg PUBLIC "-//W3C//DTD SVG 1.1//EN" "http://www.w3.org/Graphics/SVG/1.1/DTD/svg11.dtd"><svg t="1766562547397" class="icon" viewBox="0 0 1024 1024" version="1.1" xmlns="http://www.w3.org/2000/svg" p-id="5044" xmlns:xlink="http://www.w3.org/1999/xlink" width="200" height="200"><path d="M955.733333 517.333333v32a102.4 102.4 0 0 1-102.4 102.4H170.666667a102.4 102.4 0 0 1-102.4-102.4v-32h887.466666zM68.266667 229.333333A102.4 102.4 0 0 1 170.666667 126.933333h682.666666a102.4 102.4 0 0 1 102.4 102.4v224H68.266667v-224zM228.842667 747.157333a38.4 38.4 0 0 1 54.314666-54.314666 128.917333 128.917333 0 0 1 0 182.314666 38.4 38.4 0 0 1-54.314666-54.314666c20.352-20.352 20.352-53.333333 0-73.685334zM473.6 858.666667v-138.666667a38.4 38.4 0 1 1 76.8 0v138.666667a38.4 38.4 0 1 1-76.8 0zM796.202667 747.157333a38.4 38.4 0 0 0-54.314667-54.314666 128.917333 128.917333 0 0 0 0 182.314666 38.4 38.4 0 0 0 54.314667-54.314666 52.096 52.096 0 0 1 0-73.685334z" p-id="5045"></path></svg>