<?xml version="1.0" standalone="no"?><!DOCTYPE svg PUBLIC "-//W3C//DTD SVG 1.1//EN" "http://www.w3.org/Graphics/SVG/1.1/DTD/svg11.dtd"><svg t="1761655285043" class="icon" viewBox="0 0 1024 1024" version="1.1" xmlns="http://www.w3.org/2000/svg" p-id="5700" xmlns:xlink="http://www.w3.org/1999/xlink" width="200" height="200"><path d="M512 130.752c221.504 0 401.066667 179.562667 401.066667 401.066667 0 113.792-47.424 216.533333-123.562667 289.493333l58.773333 62.592a38.4 38.4 0 0 1-55.957333 52.586667l-63.317333-67.370667A399.168 399.168 0 0 1 512 932.864c-79.957333 0-154.453333-23.402667-217.024-63.744l-63.274667 67.370667a38.4 38.4 0 0 1-55.978666-52.586667l58.773333-62.549333A399.893333 399.893333 0 0 1 110.933333 531.818667c0-221.504 179.562667-401.066667 401.066667-401.066667z m0 181.333333a38.4 38.4 0 0 0-38.4 38.4v171.946667c0 18.965333 9.706667 36.608 25.685333 46.805333l109.44 69.632a38.421333 38.421333 0 0 0 41.237334-64.789333L550.4 510.72v-160.234667a38.4 38.4 0 0 0-38.4-38.4z" fill="#60636B" p-id="5701"></path><path d="M199.210667 85.653333a38.4 38.4 0 0 1 52.266666 56.32l-130.688 121.322667a38.4 38.4 0 0 1-52.266666-56.298667l130.688-121.344zM770.517333 87.68a38.4 38.4 0 0 1 54.272-2.026667l130.666667 121.344a38.4 38.4 0 0 1-52.266667 56.298667l-130.645333-121.344a38.4 38.4 0 0 1-2.026667-54.272z" fill="#60636B" p-id="5702"></path></svg>