<?xml version="1.0" standalone="no"?><!DOCTYPE svg PUBLIC "-//W3C//DTD SVG 1.1//EN" "http://www.w3.org/Graphics/SVG/1.1/DTD/svg11.dtd"><svg t="1761655309269" class="icon" viewBox="0 0 1024 1024" version="1.1" xmlns="http://www.w3.org/2000/svg" p-id="5846" xmlns:xlink="http://www.w3.org/1999/xlink" width="200" height="200"><path d="M445.888 317.909333a128 128 0 0 1-128 128H277.333333a128 128 0 0 1-128-128V149.333333H317.866667a128 128 0 0 1 128 128v40.576zM149.333333 642.090667a64 64 0 0 1 64-64H381.866667a64 64 0 0 1 64 64V810.666667a64 64 0 0 1-64 64H213.333333a64 64 0 0 1-64-64v-168.576zM578.090667 213.333333a64 64 0 0 1 64-64h168.554666a64 64 0 0 1 64 64v168.576a64 64 0 0 1-64 64h-168.554666a64 64 0 0 1-64-64V213.333333zM578.090667 642.090667a64 64 0 0 1 64-64h168.554666a64 64 0 0 1 64 64V810.666667a64 64 0 0 1-64 64h-168.554666a64 64 0 0 1-64-64v-168.576z" p-id="5847"></path><path d="M187.733333 317.909333a89.6 89.6 0 0 0 89.6 89.6h40.554667a89.6 89.6 0 0 0 89.6-89.6V277.333333a89.6 89.6 0 0 0-89.6-89.6H187.733333v130.133334zM110.933333 174.933333a64 64 0 0 1 64-64H317.866667a166.4 166.4 0 0 1 166.4 166.4v40.576a166.4 166.4 0 0 1-166.4 166.4H277.333333a166.4 166.4 0 0 1-166.4-166.4V174.933333zM407.488 810.666667v-168.576a25.6 25.6 0 0 0-25.6-25.6H213.333333a25.6 25.6 0 0 0-25.6 25.6v168.597333A25.6 25.6 0 0 0 213.333333 836.266667h168.576a25.6 25.6 0 0 0 25.6-25.6z m76.8 0a102.4 102.4 0 0 1-102.4 102.4H213.333333A102.4 102.4 0 0 1 110.933333 810.666667v-168.576a102.4 102.4 0 0 1 102.4-102.4h168.533334a102.4 102.4 0 0 1 102.442666 102.4V810.666667zM836.266667 213.333333A25.6 25.6 0 0 0 810.666667 187.733333h-168.576a25.6 25.6 0 0 0-25.6 25.6v168.554667a25.6 25.6 0 0 0 25.6 25.6h168.554666a25.6 25.6 0 0 0 25.6-25.6v-168.533333z m76.8 168.554667c0 56.554667-45.866667 102.421333-102.4 102.421333h-168.576a102.4 102.4 0 0 1-102.4-102.4V213.333333a102.4 102.4 0 0 1 102.4-102.4h168.554666a102.4 102.4 0 0 1 102.4 102.4v168.554667zM836.266667 642.090667a25.6 25.6 0 0 0-25.6-25.6h-168.576a25.6 25.6 0 0 0-25.6 25.6v168.597333a25.6 25.6 0 0 0 25.6 25.578667H810.666667a25.6 25.6 0 0 0 25.6-25.6v-168.576z m76.8 168.597333a102.4 102.4 0 0 1-102.4 102.4h-168.576a102.4 102.4 0 0 1-102.4-102.4v-168.597333a102.4 102.4 0 0 1 102.4-102.4H810.666667a102.4 102.4 0 0 1 102.4 102.4v168.597333z" p-id="5848"></path></svg>