<svg xmlns="http://www.w3.org/2000/svg" viewBox="0 0 1024 1024" version="1.1"><path d="M341.333333 554.666667a128 128 0 0 1 128 128v106.666666a128 128 0 0 1-128 128h-106.666666a128 128 0 0 1-128-128v-106.666666a128 128 0 0 1 128-128h106.666666z m448 0a128 128 0 0 1 128 128v106.666666a128 128 0 0 1-128 128h-106.666666a128 128 0 0 1-128-128v-106.666666a128 128 0 0 1 128-128h106.666666zM341.333333 106.666667a128 128 0 0 1 128 128v106.666666a128 128 0 0 1-128 128h-106.666666a128 128 0 0 1-128-128v-106.666666a128 128 0 0 1 128-128h106.666666z m448 0a128 128 0 0 1 128 128v106.666666a128 128 0 0 1-128 128h-106.666666a128 128 0 0 1-128-128v-106.666666a128 128 0 0 1 128-128h106.666666z" p-id="14901"></path></svg>