<?xml version="1.0" standalone="no"?><!DOCTYPE svg PUBLIC "-//W3C//DTD SVG 1.1//EN" "http://www.w3.org/Graphics/SVG/1.1/DTD/svg11.dtd"><svg t="1761655341103" class="icon" viewBox="0 0 1024 1024" version="1.1" xmlns="http://www.w3.org/2000/svg" p-id="5992" xmlns:xlink="http://www.w3.org/1999/xlink" width="200" height="200"><path d="M870.4 832c0 56.576-45.909333 102.4-102.442667 102.4H256.042667A102.421333 102.421333 0 0 1 153.6 832V192A102.4 102.4 0 0 1 256 89.6h512A102.4 102.4 0 0 1 870.4 192v640z m-181.333333-170.666667a38.4 38.4 0 0 0-38.4-38.4h-277.333334a38.4 38.4 0 1 0 0 76.8h277.333334a38.4 38.4 0 0 0 38.4-38.4z m-21.546667-271.872a38.4 38.4 0 0 0-55.04-53.589333l-138.773333 142.421333-62.208-63.829333a38.4 38.4 0 0 0-54.997334 53.589333l74.410667 76.394667a59.754667 59.754667 0 0 0 85.589333 0l145.28-149.098667 5.717334-5.888z" p-id="5993"></path></svg>