<?xml version="1.0" standalone="no"?><!DOCTYPE svg PUBLIC "-//W3C//DTD SVG 1.1//EN" "http://www.w3.org/Graphics/SVG/1.1/DTD/svg11.dtd"><svg t="1761655782249" class="icon" viewBox="0 0 1024 1024" version="1.1" xmlns="http://www.w3.org/2000/svg" p-id="6633" xmlns:xlink="http://www.w3.org/1999/xlink" width="200" height="200"><path d="M934.4 768a102.4 102.4 0 0 1-102.4 102.4H192A102.4 102.4 0 0 1 89.6 768V422.4h844.8V768zM256 665.6a38.4 38.4 0 1 0 0 76.8h138.666667a38.4 38.4 0 1 0 0-76.8H256z m576-512a102.4 102.4 0 0 1 102.4 102.4v89.6H89.6V256A102.4 102.4 0 0 1 192 153.6h640z" p-id="6634"></path></svg>