<?xml version="1.0" standalone="no"?><!DOCTYPE svg PUBLIC "-//W3C//DTD SVG 1.1//EN" "http://www.w3.org/Graphics/SVG/1.1/DTD/svg11.dtd"><svg t="1761655807762" class="icon" viewBox="0 0 1024 1024" version="1.1" xmlns="http://www.w3.org/2000/svg" p-id="6778" xmlns:xlink="http://www.w3.org/1999/xlink" width="200" height="200"><path d="M194.794667 448c0-164.949333 133.717333-298.666667 298.666666-298.666667h37.056c164.949333 0 298.666667 133.717333 298.666667 298.666667v236.650667a21.333333 21.333333 0 0 0 3.242667 11.306666l23.808 38.165334C882.837333 776.746667 852.181333 832 801.941333 832H222.037333c-50.24 0-80.896-55.253333-54.293333-97.877333l23.829333-38.186667a21.333333 21.333333 0 0 0 3.221334-11.306667V448zM618.666667 832a106.666667 106.666667 0 1 1-213.333334 0h213.333334z" p-id="6779"></path><path d="M565.333333 138.666667a53.333333 53.333333 0 1 1-106.666666 0 53.333333 53.333333 0 0 1 106.666666 0z" p-id="6780"></path></svg>