<?xml version="1.0" standalone="no"?><!DOCTYPE svg PUBLIC "-//W3C//DTD SVG 1.1//EN" "http://www.w3.org/Graphics/SVG/1.1/DTD/svg11.dtd"><svg t="1761655841939" class="icon" viewBox="0 0 1024 1024" version="1.1" xmlns="http://www.w3.org/2000/svg" p-id="7070" xmlns:xlink="http://www.w3.org/1999/xlink" width="200" height="200"><path d="M774.4 89.642667a96 96 0 0 1 96 96v652.714666a96 96 0 0 1-96 96H249.6a96 96 0 0 1-96-96V185.642667a96 96 0 0 1 96-96h524.8zM554.666667 143.317333a42.666667 42.666667 0 0 0-42.666667 42.666667v202.837333a21.333333 21.333333 0 0 0 31.786667 18.602667l66.56-37.333333a21.333333 21.333333 0 0 1 20.885333 0l66.581333 37.333333a21.333333 21.333333 0 0 0 31.786667-18.602667V185.984a42.666667 42.666667 0 0 0-42.666667-42.666667H554.666667z" p-id="7071"></path></svg>