<?xml version="1.0" standalone="no"?><!DOCTYPE svg PUBLIC "-//W3C//DTD SVG 1.1//EN" "http://www.w3.org/Graphics/SVG/1.1/DTD/svg11.dtd"><svg t="1761655876996" class="icon" viewBox="0 0 1024 1024" version="1.1" xmlns="http://www.w3.org/2000/svg" p-id="7361" xmlns:xlink="http://www.w3.org/1999/xlink" width="200" height="200"><path d="M512 96c194.410667 0 352 157.589333 352 352 0 119.936-60.010667 225.813333-151.509333 289.322667-12.650667 8.789333-19.157333 21.077333-19.157334 32.298666V832a96 96 0 0 1-96 96h-170.666666a96 96 0 0 1-96-96v-62.378667c0-11.221333-6.506667-23.509333-19.157334-32.298666C220.010667 673.813333 160 567.936 160 448c0-194.410667 157.589333-352 352-352z m109.418667 437.610667a32 32 0 0 0-45.141334-3.029334L512 586.837333l-64.277333-56.256a32 32 0 0 0-42.112 48.170667l74.986666 65.621333a32.341333 32.341333 0 0 0-0.597333 6.293334v64a32 32 0 0 0 28.736 31.829333L512 746.666667a32 32 0 0 0 32-32v-64c0-2.133333-0.234667-4.245333-0.64-6.272l75.029333-65.642667a32 32 0 0 0 3.029334-45.141333z" p-id="7362"></path></svg>