<?xml version="1.0" standalone="no"?><!DOCTYPE svg PUBLIC "-//W3C//DTD SVG 1.1//EN" "http://www.w3.org/Graphics/SVG/1.1/DTD/svg11.dtd"><svg t="1761655899389" class="icon" viewBox="0 0 1024 1024" version="1.1" xmlns="http://www.w3.org/2000/svg" p-id="7506" xmlns:xlink="http://www.w3.org/1999/xlink" width="200" height="200"><path d="M405.333333 128a85.333333 85.333333 0 0 1 85.333334 85.333333v192a85.333333 85.333333 0 0 1-85.333334 85.333334h-192a85.333333 85.333333 0 0 1-85.333333-85.333334v-192a85.333333 85.333333 0 0 1 85.333333-85.333333h192z m-96 64a21.333333 21.333333 0 0 0-21.333333 21.333333v74.666667H213.333333a21.333333 21.333333 0 1 0 0 42.666667h74.666667V405.333333a21.333333 21.333333 0 1 0 42.666667 0v-74.666666H405.333333a21.333333 21.333333 0 1 0 0-42.666667h-74.666666V213.333333a21.333333 21.333333 0 0 0-21.333334-21.333333zM426.666667 533.333333a64 64 0 0 1 64 64v234.666667a64 64 0 0 1-64 64H192a64 64 0 0 1-64-64V597.333333a64 64 0 0 1 64-64h234.666667z m-11.818667 69.141334a20.458667 20.458667 0 0 0-30.165333 0l-75.413334 80.128-75.413333-80.128a20.48 20.48 0 0 0-30.186667 0 23.68 23.68 0 0 0 0 32.042666l75.413334 80.149334-75.413334 80.149333a23.68 23.68 0 0 0 0 32.042667 20.458667 20.458667 0 0 0 30.165334 0l75.413333-80.149334 75.434667 80.149334a20.48 20.48 0 0 0 30.186666 0 23.68 23.68 0 0 0 0-32.042667l-75.456-80.170667 75.434667-80.128a23.68 23.68 0 0 0 0-32.042666zM832 128a64 64 0 0 1 64 64v234.666667a64 64 0 0 1-64 64H597.333333a64 64 0 0 1-64-64V192a64 64 0 0 1 64-64h234.666667z m-213.333333 170.666667a21.333333 21.333333 0 1 0 0 42.666666h192a21.333333 21.333333 0 1 0 0-42.666666h-192zM832 533.333333a64 64 0 0 1 64 64v234.666667a64 64 0 0 1-64 64H597.333333a64 64 0 0 1-64-64V597.333333a64 64 0 0 1 64-64h234.666667zM618.666667 746.666667a21.333333 21.333333 0 1 0 0 42.666666h192a21.333333 21.333333 0 1 0 0-42.666666h-192z m0-106.666667a21.333333 21.333333 0 1 0 0 42.666667h192a21.333333 21.333333 0 1 0 0-42.666667h-192z" p-id="7507"></path></svg>