<?xml version="1.0" standalone="no"?><!DOCTYPE svg PUBLIC "-//W3C//DTD SVG 1.1//EN" "http://www.w3.org/Graphics/SVG/1.1/DTD/svg11.dtd"><svg t="1761655916932" class="icon" viewBox="0 0 1024 1024" version="1.1" xmlns="http://www.w3.org/2000/svg" p-id="7651" xmlns:xlink="http://www.w3.org/1999/xlink" width="200" height="200"><path d="M870.4 486.4a42.666667 42.666667 0 0 1 42.666667 42.666667v292.266666a102.4 102.4 0 0 1-102.4 102.4H213.333333a102.4 102.4 0 0 1-102.4-102.4V529.066667a42.666667 42.666667 0 0 1 42.666667-42.666667h716.8zM661.333333 100.266667a38.4 38.4 0 0 1 38.4 38.4v46.933333H810.666667a102.4 102.4 0 0 1 102.4 102.4v78.933333a42.666667 42.666667 0 0 1-42.666667 42.666667H153.6a42.666667 42.666667 0 0 1-42.666667-42.666667v-78.933333A102.4 102.4 0 0 1 213.333333 185.6h110.933334V138.666667a38.4 38.4 0 1 1 76.8 0v46.933333h221.866666V138.666667A38.4 38.4 0 0 1 661.333333 100.266667z" p-id="7652"></path></svg>