<?xml version="1.0" standalone="no"?><!DOCTYPE svg PUBLIC "-//W3C//DTD SVG 1.1//EN" "http://www.w3.org/Graphics/SVG/1.1/DTD/svg11.dtd"><svg t="1761655937646" class="icon" viewBox="0 0 1024 1024" version="1.1" xmlns="http://www.w3.org/2000/svg" p-id="7796" xmlns:xlink="http://www.w3.org/1999/xlink" width="200" height="200"><path d="M578.645333 138.666667a96 96 0 0 1 72.746667 33.365333l56.490667 65.621333a32 32 0 0 0 24.234666 11.114667H832a96 96 0 0 1 96 96V789.333333a96 96 0 0 1-96 96H192A96 96 0 0 1 96 789.333333V344.768a96 96 0 0 1 96-96h99.882667a32 32 0 0 0 24.234666-11.114667l56.490667-65.621333a96 96 0 0 1 72.746667-33.365333h133.290666zM512 384a166.4 166.4 0 1 0 0 332.8A166.4 166.4 0 0 0 512 384z" p-id="7797"></path></svg>