<?xml version="1.0" standalone="no"?><!DOCTYPE svg PUBLIC "-//W3C//DTD SVG 1.1//EN" "http://www.w3.org/Graphics/SVG/1.1/DTD/svg11.dtd"><svg t="1766579910457" class="icon" viewBox="0 0 1024 1024" version="1.1" xmlns="http://www.w3.org/2000/svg" p-id="5014" xmlns:xlink="http://www.w3.org/1999/xlink" width="200" height="200"><path d="M634.005333 192a170.666667 170.666667 0 0 1 141.994667 76.010667L867.562667 405.333333H938.666667a21.333333 21.333333 0 0 1 21.333333 21.333334v21.333333a42.666667 42.666667 0 0 1-37.845333 42.389333A170.666667 170.666667 0 0 1 938.666667 563.669333V746.666667a85.333333 85.333333 0 0 1-85.333334 85.333333h-31.573333c-20.885333 0-41.066667-7.68-56.682667-21.546667l-59.626666-53.013333A42.688 42.688 0 0 0 677.12 746.666667H346.901333c-10.453333 0-20.544 3.84-28.373333 10.773333l-59.605333 52.992A85.354667 85.354667 0 0 1 202.218667 832H170.666667a85.333333 85.333333 0 0 1-85.333334-85.333333v-182.997334a170.666667 170.666667 0 0 1 16.512-73.28A42.666667 42.666667 0 0 1 64 448v-21.333333a21.333333 21.333333 0 0 1 21.333333-21.333334h71.104l91.562667-137.344A170.666667 170.666667 0 0 1 389.994667 192H634.026667zM204.778667 512a12.8 12.8 0 0 0-12.778667 12.8 51.2 51.2 0 0 0 51.2 51.2H341.333333a64 64 0 0 0-64-64H204.8zM746.666667 512a64 64 0 0 0-64 64h98.133333a51.2 51.2 0 0 0 51.2-51.2 12.8 12.8 0 0 0-12.8-12.8H746.666667zM389.994667 277.333333a85.333333 85.333333 0 0 0-70.997334 37.994667L259.008 405.333333h505.984l-59.989333-90.005333A85.333333 85.333333 0 0 0 634.005333 277.333333H389.973333z" fill="#60636B" p-id="5015"></path></svg>