<?xml version="1.0" standalone="no"?><!DOCTYPE svg PUBLIC "-//W3C//DTD SVG 1.1//EN" "http://www.w3.org/Graphics/SVG/1.1/DTD/svg11.dtd"><svg t="1761655979706" class="icon" viewBox="0 0 1024 1024" version="1.1" xmlns="http://www.w3.org/2000/svg" p-id="7941" xmlns:xlink="http://www.w3.org/1999/xlink" width="200" height="200"><path d="M934.4 753.834667a102.4 102.4 0 0 1-102.4 102.4h-22.4a102.4 102.4 0 0 1-93.589333-60.821334l-8.874667-19.989333a25.6 25.6 0 0 0-23.381333-15.210667H340.245333a25.6 25.6 0 0 0-23.36 15.210667l-8.896 19.989333a102.4 102.4 0 0 1-93.568 60.8H192a102.4 102.4 0 0 1-102.4-102.4V531.413333a145.066667 145.066667 0 0 1 60.757333-118.058666l4.693334-3.370667-29.077334-2.752A21.333333 21.333333 0 0 1 106.666667 385.962667v-5.589334a21.333333 21.333333 0 0 1 17.344-20.970666l32-6.08a21.333333 21.333333 0 0 1 22.869333 11.029333 465.216 465.216 0 0 1 60.458667-125.162667l10.837333-15.786666a102.4 102.4 0 0 1 74.304-44.074667l43.605333-4.373333a1446.4 1446.4 0 0 1 287.829334 0l43.605333 4.373333a102.4 102.4 0 0 1 74.304 44.053333l10.837333 15.808a465.173333 465.173333 0 0 1 60.48 125.162667 21.333333 21.333333 0 0 1 22.869334-11.050667l32 6.101334a21.333333 21.333333 0 0 1 17.322666 20.970666v5.589334a21.333333 21.333333 0 0 1-19.306666 21.248l-29.077334 2.773333 4.693334 3.349333A145.066667 145.066667 0 0 1 934.4 531.413333v222.442667zM326.826667 572.352a15.786667 15.786667 0 0 0 4.906666-28.629333l-30.570666-19.797334a293.333333 293.333333 0 0 0-60.117334-29.781333A36.650667 36.650667 0 0 0 192 528.618667v9.088c0 19.413333 14.442667 35.84 33.706667 38.293333l10.197333 1.28c30.357333 3.882667 61.184 2.197333 90.944-4.928z m449.749333-211.285333c-10.901333-30.656-40.32-84.501333-64.554667-110.656-8.106667-8.746667-21.034667-14.421333-35.328-15.488-109.525333-8.106667-219.904-8.106667-329.429333 0-14.293333 1.066667-27.221333 6.72-35.328 15.488-24.213333 26.154667-53.653333 80-64.554667 110.656l-6.912 19.413333h543.018667l-6.912-19.413333zM832 528.64c0-25.386667-25.173333-43.093333-49.066667-34.474667a293.333333 293.333333 0 0 0-60.117333 29.781334l-30.570667 19.797333a15.786667 15.786667 0 0 0 4.906667 28.629333c29.76 7.125333 60.586667 8.810667 90.944 4.928l10.197333-1.28A38.613333 38.613333 0 0 0 832 537.706667v-9.088z" fill="#60636B" p-id="7942"></path></svg>