<?xml version="1.0" standalone="no"?><!DOCTYPE svg PUBLIC "-//W3C//DTD SVG 1.1//EN" "http://www.w3.org/Graphics/SVG/1.1/DTD/svg11.dtd"><svg t="1761656046518" class="icon" viewBox="0 0 1024 1024" version="1.1" xmlns="http://www.w3.org/2000/svg" p-id="8233" xmlns:xlink="http://www.w3.org/1999/xlink" width="200" height="200"><path d="M512 60.736c188.522667 0 341.333333 152.810667 341.333333 341.333333 0 188.501333-152.810667 341.333333-341.333333 341.333334s-341.333333-152.832-341.333333-341.333334c0-188.522667 152.810667-341.333333 341.333333-341.333333z m35.306667 208.170667c-13.589333-30.592-57.024-30.592-70.613334 0l-24.021333 54.122666a9.685333 9.685333 0 0 1-7.744 5.674667l-58.645333 6.72c-32.746667 3.733333-46.058667 44.16-21.952 66.645333l44.288 41.301334a9.685333 9.685333 0 0 1 2.88 8.981333l-11.946667 59.456c-6.549333 32.64 28.48 57.770667 57.28 41.045333l50.304-29.226666a9.664 9.664 0 0 1 9.728 0l50.304 29.226666c28.8 16.725333 63.829333-8.405333 57.258667-41.045333l-11.946667-59.456a9.685333 9.685333 0 0 1 2.901333-8.96l44.288-41.322667c24.106667-22.485333 10.794667-62.912-21.973333-66.645333l-58.624-6.72a9.685333 9.685333 0 0 1-7.744-5.674667l-24.021333-54.122666z" p-id="8234"></path><path d="M704 886.677333c0 32.533333-34.965333 53.12-63.402667 37.290667L512 852.522667l-128.597333 71.466666c-28.437333 15.808-63.402667-4.757333-63.402667-37.290666v-152.021334a382.208 382.208 0 0 0 192 51.413334c69.952 0 135.509333-18.730667 192-51.413334v152.042667z" p-id="8235"></path><path d="M704 684.288a339.733333 339.733333 0 0 1-192 59.093333 339.733333 339.733333 0 0 1-192-59.093333v-87.765333h384v87.765333z" p-id="8236"></path></svg>