<?xml version="1.0" standalone="no"?><!DOCTYPE svg PUBLIC "-//W3C//DTD SVG 1.1//EN" "http://www.w3.org/Graphics/SVG/1.1/DTD/svg11.dtd"><svg t="1766566727736" class="icon" viewBox="0 0 1024 1024" version="1.1" xmlns="http://www.w3.org/2000/svg" p-id="5044" xmlns:xlink="http://www.w3.org/1999/xlink" width="200" height="200"><path d="M955.733333 558.72c0 57.301333-17.92 121.642667-56.661333 169.6l13.546667 44.608c15.146667 49.834667-36.266667 93.845333-83.136 71.168l-55.210667-26.709333a208.618667 208.618667 0 0 1-13.930667 5.930666 212.053333 212.053333 0 0 1-7.850666 2.752c-25.408 8.32-51.797333-1.493333-64.533334-23.957333-11.84-20.949333-8.426667-46.613333 7.04-64.981333l7.104-8.448a345.6 345.6 0 0 0 67.413334-319.36l-12.821334-44.053334c-11.050667-37.866667 28.672-70.506667 63.701334-52.352l1.066666 0.576C909.546667 362.88 955.733333 458.304 955.733333 558.72z" p-id="5045"></path><path d="M742.4 502.058667c0 181.013333-133.973333 328.405333-337.066667 328.405333-33.472 0-63.957333-1.194667-104.533333-16.149333a272.533333 272.533333 0 0 1-20.053333-8.597334l-80.384 38.570667c-46.933333 22.528-98.218667-21.589333-82.986667-71.36l20.778667-67.648C90.538667 648.746667 68.266667 571.285333 68.266667 502.058667 68.266667 321.066667 202.24 173.674667 405.333333 173.674667s337.066667 147.370667 337.066667 328.384zM298.666667 510.72a42.666667 42.666667 0 1 0-85.333334 0 42.666667 42.666667 0 0 0 85.333334 0z m149.333333 0a42.666667 42.666667 0 1 0-85.333333 0 42.666667 42.666667 0 0 0 85.333333 0z m149.333333 0a42.666667 42.666667 0 1 0-85.333333 0 42.666667 42.666667 0 0 0 85.333333 0z" p-id="5046"></path></svg>