<svg xmlns="http://www.w3.org/2000/svg" viewBox="0 0 1024 1024" version="1.1"><path d="M810.666667 149.333333a128 128 0 0 1 128 128v362.666667a128 128 0 0 1-128 128h-184.896l-92.48 138.709333a25.6 25.6 0 0 1-5.056 5.610667l-2.026667 1.493333a25.6 25.6 0 0 1-33.834667-4.864l-1.664-2.24L398.229333 768H213.333333a128 128 0 0 1-128-128V277.333333a128 128 0 0 1 128-128h597.333334zM341.333333 426.666667h-42.666666a21.333333 21.333333 0 0 0-21.333334 21.333333v42.666667a21.333333 21.333333 0 0 0 21.333334 21.333333h42.666666a21.333333 21.333333 0 0 0 21.333334-21.333333v-42.666667a21.333333 21.333333 0 0 0-21.333334-21.333333z m192 0h-42.666666a21.333333 21.333333 0 0 0-21.333334 21.333333v42.666667a21.333333 21.333333 0 0 0 21.333334 21.333333h42.666666a21.333333 21.333333 0 0 0 21.333334-21.333333v-42.666667a21.333333 21.333333 0 0 0-21.333334-21.333333z m192 0h-42.666666a21.333333 21.333333 0 0 0-21.333334 21.333333v42.666667a21.333333 21.333333 0 0 0 21.333334 21.333333h42.666666a21.333333 21.333333 0 0 0 21.333334-21.333333v-42.666667a21.333333 21.333333 0 0 0-21.333334-21.333333z" p-id="15361"></path></svg>