<?xml version="1.0" standalone="no"?><!DOCTYPE svg PUBLIC "-//W3C//DTD SVG 1.1//EN" "http://www.w3.org/Graphics/SVG/1.1/DTD/svg11.dtd"><svg t="1761656407667" class="icon" viewBox="0 0 1024 1024" version="1.1" xmlns="http://www.w3.org/2000/svg" p-id="8581" xmlns:xlink="http://www.w3.org/1999/xlink" width="200" height="200"><path d="M490.666667 181.333333c135.488 0 245.333333 109.845333 245.333333 245.333334 0 3.669333-0.106667 7.296-0.277333 10.922666A202.666667 202.666667 0 0 1 725.333333 842.666667H309.333333c-117.824 0-213.333333-95.509333-213.333333-213.333334 0-95.530667 62.784-176.405333 149.354667-203.584C245.845333 290.666667 355.477333 181.333333 490.666667 181.333333z" p-id="8582"></path><path d="M57.6 629.333333c0-103.146667 62.016-191.68 150.72-230.613333C222.336 255.146667 343.381333 142.933333 490.666667 142.933333c148.970667 0 271.104 114.816 282.794666 260.8C883.541333 426.026667 966.4 523.349333 966.4 640c0 133.12-107.946667 241.066667-241.066667 241.066667H309.333333c-139.029333 0-251.733333-112.704-251.733333-251.733334z m76.8 0a174.933333 174.933333 0 0 0 174.933333 174.933334H725.333333a164.266667 164.266667 0 0 0 8.469334-328.32l-38.122667-1.941334 1.706667-38.101333c0.128-3.306667 0.213333-6.336 0.213333-9.237333 0-114.282667-92.650667-206.933333-206.933333-206.933334-114.026667 0-206.506667 92.224-206.933334 206.165334l-0.085333 28.074666-26.794667 8.426667A175.04 175.04 0 0 0 134.4 629.333333z" p-id="8583"></path></svg>