<?xml version="1.0" standalone="no"?><!DOCTYPE svg PUBLIC "-//W3C//DTD SVG 1.1//EN" "http://www.w3.org/Graphics/SVG/1.1/DTD/svg11.dtd"><svg t="1761656435532" class="icon" viewBox="0 0 1024 1024" version="1.1" xmlns="http://www.w3.org/2000/svg" p-id="8872" xmlns:xlink="http://www.w3.org/1999/xlink" width="200" height="200"><path d="M490.666667 142.933333c148.970667 0 271.104 114.816 282.794666 260.8C883.541333 426.026667 966.4 523.349333 966.4 640c0 133.12-107.946667 241.066667-241.066667 241.066667H309.333333c-139.029333 0-251.733333-112.704-251.733333-251.733334 0-103.146667 62.016-191.68 150.72-230.613333C222.336 255.146667 343.381333 142.933333 490.666667 142.933333z m18.133333 312.362667a38.272 38.272 0 0 0-23.466667 11.050667l-84.842666 84.864a38.4 38.4 0 0 0 54.272 54.314666l18.176-18.176v153.642667a38.4 38.4 0 0 0 76.8 0v-155.946667l20.458666 20.48a38.4 38.4 0 1 0 54.272-54.314666l-84.842666-84.864a38.528 38.528 0 0 0-23.466667-11.050667 38.72 38.72 0 0 0-7.36 0z" p-id="8873"></path></svg>