<?xml version="1.0" standalone="no"?><!DOCTYPE svg PUBLIC "-//W3C//DTD SVG 1.1//EN" "http://www.w3.org/Graphics/SVG/1.1/DTD/svg11.dtd"><svg t="1766581610974" class="icon" viewBox="0 0 1024 1024" version="1.1" xmlns="http://www.w3.org/2000/svg" p-id="9656" xmlns:xlink="http://www.w3.org/1999/xlink" width="200" height="200"><path d="M512 78.933333c239.168 0 433.066667 193.898667 433.066667 433.066667S751.146667 945.066667 512 945.066667 78.933333 751.146667 78.933333 512 272.853333 78.933333 512 78.933333z m156.16 304.085334a21.333333 21.333333 0 0 0-27.178667-27.157334l-182.229333 63.509334a64 64 0 0 0-39.381333 39.381333l-63.509334 182.229333a21.333333 21.333333 0 0 0 27.157334 27.157334l182.229333-63.509334a64 64 0 0 0 39.381333-39.381333l63.509334-182.229333z" p-id="9657"></path></svg>