<?xml version="1.0" standalone="no"?><!DOCTYPE svg PUBLIC "-//W3C//DTD SVG 1.1//EN" "http://www.w3.org/Graphics/SVG/1.1/DTD/svg11.dtd"><svg t="1766629894975" class="icon" viewBox="0 0 1024 1024" version="1.1" xmlns="http://www.w3.org/2000/svg" p-id="10885" xmlns:xlink="http://www.w3.org/1999/xlink" width="200" height="200"><path d="M512 118.570667A346.858667 346.858667 0 0 1 852.906667 401.493333l10.026666 53.354667c60.842667 28.032 103.466667 89.344 103.466667 160.768 0 98.048-80.234667 177.066667-177.770667 177.066667-7.125333 0-14.08-0.853333-20.757333-2.410667-8.298667 11.413333-18.432 22.4-29.141333 32.32a334.976 334.976 0 0 1-126.314667 72.917333c-21.525333 6.656-44.48 10.986667-64.746667 9.728a38.4 38.4 0 0 1 4.821334-76.650666c7.210667 0.448 20.117333-1.152 37.226666-6.442667 16.512-5.12 34.56-12.949333 51.456-22.677333a258.218667 258.218667 0 0 0 45.376-33.237334c9.813333-9.088 16.661333-17.173333 20.842667-23.381333a89.962667 89.962667 0 0 1-9.792-40.917333v-172.608c0-48.064 37.44-86.997333 84.16-90.496l-4.330667-23.189334a270.08 270.08 0 0 0-530.858666 0l-4.352 23.189334c46.72 3.498667 84.181333 42.453333 84.181333 90.474666v172.629334c0 50.368-41.173333 90.752-91.029333 90.752-97.536 0-177.770667-79.018667-177.770667-177.066667 0-71.424 42.624-132.736 103.466667-160.768l10.026666-53.333333A346.858667 346.858667 0 0 1 512 118.549333z" p-id="10886"></path><path d="M565.632 647.317333a38.4 38.4 0 1 1 63.402667 43.306667c-25.216 36.928-71.850667 59.392-117.034667 59.392s-91.818667-22.464-117.034667-59.413333a38.4 38.4 0 1 1 63.402667-43.306667c9.557333 13.994667 31.274667 25.941333 53.632 25.941333 22.336 0 44.074667-11.946667 53.632-25.92z" p-id="10887"></path></svg>