<svg xmlns="http://www.w3.org/2000/svg" viewBox="0 0 1024 1024" version="1.1"><path d="M874.666667 490.666667a42.666667 42.666667 0 0 1 42.666666 42.666666v256a128 128 0 0 1-128 128H234.666667a128 128 0 0 1-128-128V533.333333a42.666667 42.666667 0 0 1 42.666666-42.666666h725.333334z m-128 213.333333h-85.333334a42.666667 42.666667 0 1 0 0 85.333333h85.333334a42.666667 42.666667 0 1 0 0-85.333333zM661.333333 64a42.666667 42.666667 0 0 1 42.666667 42.666667v42.666666h85.333333a128 128 0 0 1 128 128v85.333334a42.666667 42.666667 0 0 1-42.666666 42.666666H149.333333a42.666667 42.666667 0 0 1-42.666666-42.666666v-85.333334a128 128 0 0 1 128-128h85.333333V106.666667a42.666667 42.666667 0 1 1 85.333333 0v42.666666h213.333334V106.666667a42.666667 42.666667 0 0 1 42.666666-42.666667z" p-id="15431"></path></svg>