<?xml version="1.0" standalone="no"?><!DOCTYPE svg PUBLIC "-//W3C//DTD SVG 1.1//EN" "http://www.w3.org/Graphics/SVG/1.1/DTD/svg11.dtd"><svg t="1761657159634" class="icon" viewBox="0 0 1024 1024" version="1.1" xmlns="http://www.w3.org/2000/svg" p-id="11109" xmlns:xlink="http://www.w3.org/1999/xlink" width="200" height="200"><path d="M613.376 96a44.8 44.8 0 0 1 31.658667 13.12l205.845333 205.845333a44.8 44.8 0 0 1 13.12 31.658667V832a96 96 0 0 1-96 96H256A96 96 0 0 1 160 832V192A96 96 0 0 1 256 96h357.376zM387.2 507.946667c-14.4 0-28.16 2.88-40.32 14.72-16.64 16-16.96 48-16.96 73.92 0 25.92 0.32 57.6 16.96 73.6 12.16 11.84 23.04 15.04 40.32 15.04 16.64 0 31.04-4.16 40.64-14.72 10.56-11.84 14.4-27.52 15.36-40.96H400.64c0 2.56-0.96 8.32-2.24 10.56-2.88 4.16-5.76 6.72-11.2 6.72a12.437333 12.437333 0 0 1-11.2-6.72c-2.56-4.8-3.2-18.24-3.2-29.76h71.36c-0.32-27.52 2.24-67.52-16.96-87.68-11.818667-12.16-24.96-14.72-40-14.72z m271.872 0c-14.4 0-28.16 2.88-40.32 14.72-16.64 16-16.96 48-16.96 73.92 0 25.92 0.32 57.6 16.96 73.6 12.16 11.84 23.04 15.04 40.32 15.04 16.64 0 31.04-4.16 40.64-14.72 10.56-11.84 14.4-27.52 15.36-40.96h-42.581333c0 2.56-0.938667 8.32-2.218667 10.56-2.88 4.16-5.76 6.72-11.2 6.72a12.437333 12.437333 0 0 1-11.221333-6.72c-2.56-4.8-3.2-18.24-3.2-29.76h71.36c-0.32-27.52 2.261333-67.52-16.938667-87.68-11.84-12.16-24.96-14.72-40-14.72z m-164.778667 87.36L452.373333 682.666667h47.68l19.84-44.48L539.733333 682.666667h47.68l-42.56-87.36 40.618667-84.8H537.813333l-17.92 43.84-17.92-43.84h-47.36l39.68 84.8z m-107.093333-48.96c5.44 0 8.64 2.88 11.2 6.4 2.24 3.52 2.88 15.04 2.88 26.56h-28.48c0-11.52 0.96-23.04 3.2-26.56 2.56-3.52 5.76-6.4 11.2-6.4z m271.872 0c5.44 0 8.64 2.88 11.2 6.4 2.24 3.541333 2.88 15.061333 2.88 26.56h-28.48c0-11.52 0.938667-23.04 3.2-26.56 2.56-3.52 5.76-6.4 11.2-6.4z" p-id="11110"></path></svg>