<?xml version="1.0" standalone="no"?><!DOCTYPE svg PUBLIC "-//W3C//DTD SVG 1.1//EN" "http://www.w3.org/Graphics/SVG/1.1/DTD/svg11.dtd"><svg t="1761657123723" class="icon" viewBox="0 0 1024 1024" version="1.1" xmlns="http://www.w3.org/2000/svg" p-id="10817" xmlns:xlink="http://www.w3.org/1999/xlink" width="200" height="200"><path d="M609.834667 96a53.333333 53.333333 0 0 1 37.717333 15.616l200.832 200.832a53.333333 53.333333 0 0 1 15.616 37.717333V832a96 96 0 0 1-96 96H256A96 96 0 0 1 160 832V192A96 96 0 0 1 256 96h353.834667zM384 458.666667a21.333333 21.333333 0 0 0-21.333333 21.333333v149.333333a21.333333 21.333333 0 0 0 21.333333 21.333334h106.666667v42.666666h-42.666667a21.333333 21.333333 0 1 0 0 42.666667h128a21.333333 21.333333 0 1 0 0-42.666667h-42.666667v-42.666666h106.666667a21.333333 21.333333 0 0 0 21.333333-21.333334v-149.333333a21.333333 21.333333 0 0 0-21.333333-21.333333H384z" p-id="10818"></path></svg>