<?xml version="1.0" standalone="no"?><!DOCTYPE svg PUBLIC "-//W3C//DTD SVG 1.1//EN" "http://www.w3.org/Graphics/SVG/1.1/DTD/svg11.dtd"><svg t="1761657112107" class="icon" viewBox="0 0 1024 1024" version="1.1" xmlns="http://www.w3.org/2000/svg" p-id="10672" xmlns:xlink="http://www.w3.org/1999/xlink" width="200" height="200"><path d="M613.376 96a44.8 44.8 0 0 1 31.658667 13.12l205.845333 205.845333a44.8 44.8 0 0 1 13.12 31.658667V832a96 96 0 0 1-96 96H256A96 96 0 0 1 160 832V192A96 96 0 0 1 256 96h357.376zM512 416a21.333333 21.333333 0 0 0-21.333333 21.333333v160.746667a85.333333 85.333333 0 1 0 42.666666 73.92v-178.24c15.637333 17.706667 42.666667 28.906667 64 28.906667l-0.021333-0.021334c35.349333 0 70.976-33.322667 48.896-60.906666-12.074667-15.104-33.365333-24.405333-70.208-24.405334h-42.666667a21.333333 21.333333 0 0 0-21.333333-21.333333z" p-id="10673"></path></svg>