<?xml version="1.0" standalone="no"?><!DOCTYPE svg PUBLIC "-//W3C//DTD SVG 1.1//EN" "http://www.w3.org/Graphics/SVG/1.1/DTD/svg11.dtd"><svg t="1761657358747" class="icon" viewBox="0 0 1024 1024" version="1.1" xmlns="http://www.w3.org/2000/svg" p-id="24379" xmlns:xlink="http://www.w3.org/1999/xlink" width="200" height="200"><path d="M81.621333 778.666667v-533.333334a102.4 102.4 0 0 1 102.4-102.4h163.242667c29.248 0 57.109333 12.501333 76.544 34.346667l47.146667 53.056c4.864 5.461333 11.84 8.597333 19.157333 8.597333h248.576a102.4 102.4 0 0 1 102.4 102.4v42.666667a38.4 38.4 0 1 1-76.8 0v-42.666667a25.6 25.6 0 0 0-25.6-25.6H490.112a102.421333 102.421333 0 0 1-76.544-34.389333l-47.146667-53.013333a25.642667 25.642667 0 0 0-19.157333-8.597334H184.021333a25.6 25.6 0 0 0-25.6 25.6v533.333334a25.6 25.6 0 0 0 25.6 25.6h384a38.4 38.4 0 1 1 0 76.8h-384a102.4 102.4 0 0 1-102.4-102.4z" p-id="24380"></path><path d="M207.594667 455.210667A64 64 0 0 1 270.037333 405.333333h569.898667a64 64 0 0 1 62.421333 78.122667l-69.930666 309.333333a64 64 0 0 1-62.421334 49.877334H200.106667a64 64 0 0 1-62.421334-78.101334l69.909334-309.333333z" p-id="24381"></path><path d="M839.936 366.933333c65.664 0 114.346667 60.928 99.882667 124.992l-69.930667 309.333334a102.4 102.4 0 0 1-99.861333 79.786666H200.106667c-65.664 0-114.346667-60.906667-99.882667-124.970666l69.930667-309.333334a102.4 102.4 0 0 1 99.861333-79.786666h569.92z m-569.92 76.8a25.6 25.6 0 0 0-24.96 19.946667l-69.930667 309.333333a25.6 25.6 0 0 0 24.96 31.253334h569.941334a25.6 25.6 0 0 0 24.96-19.946667l69.930666-309.333333a25.6 25.6 0 0 0-24.96-31.253334H269.994667z" p-id="24382"></path></svg>