<?xml version="1.0" standalone="no"?><!DOCTYPE svg PUBLIC "-//W3C//DTD SVG 1.1//EN" "http://www.w3.org/Graphics/SVG/1.1/DTD/svg11.dtd"><svg t="1766581917466" class="icon" viewBox="0 0 1024 1024" version="1.1" xmlns="http://www.w3.org/2000/svg" p-id="9948" xmlns:xlink="http://www.w3.org/1999/xlink" width="200" height="200"><path d="M942.954667 554.730667c-19.818667 202.304-178.816 363.733333-379.968 387.306666 90.496-86.826667 153.194667-206.976 172.821333-342.528a1445.717333 1445.717333 0 0 0 104.021333-17.941333 1116.458667 1116.458667 0 0 0 90.218667-22.805333c4.821333-1.450667 9.109333-2.816 12.906667-4.053334z m-849.002667 4.053333c20.864 6.272 51.285333 14.528 90.218667 22.784 29.525333 6.250667 63.957333 12.458667 102.869333 17.792 17.664 134.741333 77.482667 254.592 164.672 341.504-196.757333-27.413333-351.189333-186.965333-370.688-386.133333 3.797333 1.216 8.106667 2.581333 12.928 4.053333z m272.021333 49.365333c44.586667 3.84 93.44 6.250667 146.026667 6.250667 52.053333 0 100.373333-2.346667 144.576-6.122667-20.373333 111.744-74.154667 209.493333-148.650667 280.192-71.850667-70.72-123.392-168.576-141.952-280.32zM515.626667 135.893333c81.130667 91.925333 149.973333 237.589333 149.973333 372.373334 0 7.402667-0.213333 14.762667-0.490667 22.08a1613.44 1613.44 0 0 1-153.109333 7.253333c-55.893333 0-107.221333-2.858667-153.429333-7.253333a571.434667 571.434667 0 0 1-0.170667-14.464c0-153.984 61.824-290.410667 157.226667-379.989334z m-54.677334-53.973333C350.72 186.581333 281.6 342.613333 281.6 515.904l0.042667 5.12a1353.770667 1353.770667 0 0 1-81.578667-14.592 1037.888 1037.888 0 0 1-83.946667-21.205333 601.365333 601.365333 0 0 1-26.410666-8.597334l-1.152-0.426666-0.170667-0.064a38.528 38.528 0 0 0-7.786667-2.090667c17.770667-204.522667 177.642667-368.298667 380.373334-392.106667z m110.421334 1.066667C770.133333 110.250667 925.866667 272.341333 943.381333 474.026667c-2.602667 0.405333-5.205333 1.109333-7.765333 2.069333l0.021333 0.021333-0.213333 0.064-1.130667 0.426667-5.12 1.792c-4.693333 1.6-11.818667 3.946667-21.290666 6.826667-18.986667 5.696-47.274667 13.44-83.946667 21.184a1354.624 1354.624 0 0 1-81.706667 14.592c0.085333-4.224 0.170667-8.469333 0.170667-12.736 0-158.378667-79.488-322.56-171.029333-425.28z" p-id="9949"></path></svg>