<?xml version="1.0" standalone="no"?><!DOCTYPE svg PUBLIC "-//W3C//DTD SVG 1.1//EN" "http://www.w3.org/Graphics/SVG/1.1/DTD/svg11.dtd"><svg t="1761657428536" class="icon" viewBox="0 0 1024 1024" version="1.1" xmlns="http://www.w3.org/2000/svg" p-id="24526" xmlns:xlink="http://www.w3.org/1999/xlink" width="200" height="200"><path d="M517.205333 212.096c83.413333-111.36 236.032-129.429333 339.925334-37.546667 102.165333 90.368 117.12 251.946667 35.306666 362.282667-36.650667 49.429333-114.602667 135.658667-181.824 208a10865.344 10865.344 0 0 1-116.565333 123.434667l-7.616 7.957333c-0.853333 0.917333-1.536 1.6-2.005333 2.069333l-0.512 0.554667-0.192 0.170667-0.981334 1.002666-1.045333 0.938667v0.042667l-0.064 0.042666-0.128 0.106667-0.405333 0.362667-1.301334 1.130666c-39.722667 34.218667-95.893333 34.218667-135.594666 0l-1.301334-1.130666-0.405333-0.362667-0.128-0.106667-0.064-0.042666-1.066667-0.981334-0.981333-1.002666-0.170667-0.170667-0.533333-0.554667-1.984-2.069333c-1.770667-1.813333-4.330667-4.501333-7.637333-7.957333a10871.125333 10871.125333 0 0 1-116.565334-123.434667c-67.2-72.341333-145.152-158.570667-181.802666-208C49.749333 426.517333 64.704 264.917333 166.826667 174.570667c103.893333-91.882667 256.512-73.813333 339.925333 37.525333l5.226667 6.165333 5.205333-6.186666z" fill="#60636B" p-id="24527"></path></svg>