<?xml version="1.0" standalone="no"?><!DOCTYPE svg PUBLIC "-//W3C//DTD SVG 1.1//EN" "http://www.w3.org/Graphics/SVG/1.1/DTD/svg11.dtd"><svg t="1761657505828" class="icon" viewBox="0 0 1024 1024" version="1.1" xmlns="http://www.w3.org/2000/svg" p-id="25109" xmlns:xlink="http://www.w3.org/1999/xlink" width="200" height="200"><path d="M182.485333 384a85.333333 85.333333 0 0 1 85.333334 85.333333v352a85.333333 85.333333 0 0 1-170.666667 0V469.333333a85.333333 85.333333 0 0 1 85.333333-85.333333zM550.848 117.333333c92.074667 0 156.288 91.349333 125.098667 177.984L644.010667 384h186.794666a96 96 0 0 1 94.378667 113.557333l-61.525333 330.666667A96.021333 96.021333 0 0 1 769.28 906.666667H406.506667a96.021333 96.021333 0 0 1-96.021334-96V432.576c0-16.298667 4.16-32.362667 12.074667-46.613333l45.269333-81.493334 0.085334-0.149333 67.072-119.210667A132.970667 132.970667 0 0 1 550.826667 117.333333z" fill="#60636B" p-id="25110"></path></svg>