<?xml version="1.0" standalone="no"?><!DOCTYPE svg PUBLIC "-//W3C//DTD SVG 1.1//EN" "http://www.w3.org/Graphics/SVG/1.1/DTD/svg11.dtd"><svg t="1761657591610" class="icon" viewBox="0 0 1024 1024" version="1.1" xmlns="http://www.w3.org/2000/svg" p-id="25834" xmlns:xlink="http://www.w3.org/1999/xlink" width="200" height="200"><path d="M608 292.266667a38.4 38.4 0 1 1 0 76.8h-192a38.4 38.4 0 1 1 0-76.8h192z" fill="#60636B" p-id="25835"></path><path d="M725.333333 132.266667a102.4 102.4 0 0 1 102.4 102.4v103.381333l15.786667-9.642667 3.776-2.133333c39.168-20.373333 87.104 7.914667 87.104 53.12V789.333333a102.4 102.4 0 0 1-102.4 102.4H192A102.4 102.4 0 0 1 89.6 789.333333V379.370667c0-46.634667 51.072-75.306667 90.88-50.986667l15.786667 9.664V234.666667A102.4 102.4 0 0 1 298.666667 132.266667h426.666666zM298.666667 209.066667a25.6 25.6 0 0 0-25.6 25.6v150.293333l225.578666 137.877333a25.6 25.6 0 0 0 26.709334 0L750.933333 384.96V234.666667A25.6 25.6 0 0 0 725.333333 209.066667H298.666667z" fill="#60636B" p-id="25836"></path></svg>