<?xml version="1.0" standalone="no"?><!DOCTYPE svg PUBLIC "-//W3C//DTD SVG 1.1//EN" "http://www.w3.org/Graphics/SVG/1.1/DTD/svg11.dtd"><svg t="1761657610469" class="icon" viewBox="0 0 1024 1024" version="1.1" xmlns="http://www.w3.org/2000/svg" p-id="26008" xmlns:xlink="http://www.w3.org/1999/xlink" width="200" height="200"><path d="M656 618.666667c0 141.376-114.624 256-256 256s-256-114.624-256-256c0-141.397333 114.624-256 256-256s256 114.602667 256 256z" p-id="26009"></path><path d="M617.6 618.666667c0-120.192-97.429333-217.6-217.6-217.6-120.170667 0-217.6 97.408-217.6 217.6 0 120.170667 97.429333 217.6 217.6 217.6 120.170667 0 217.6-97.429333 217.6-217.6z m76.8 0c0 162.581333-131.797333 294.4-294.4 294.4-162.581333 0-294.4-131.818667-294.4-294.4 0-162.602667 131.818667-294.4 294.4-294.4 162.602667 0 294.4 131.797333 294.4 294.4z" p-id="26010"></path><path d="M831.509333 143.509333a38.4 38.4 0 1 1 54.314667 54.293334l-261.333333 261.333333a38.4 38.4 0 1 1-54.314667-54.293333l261.333333-261.333334z" p-id="26011"></path><path d="M880 110.933333a38.4 38.4 0 1 1 0 76.8h-163.349333a38.4 38.4 0 1 1 0-76.8h163.349333z" p-id="26012"></path><path d="M918.4 312.682667a38.4 38.4 0 1 1-76.8 0V149.333333a38.4 38.4 0 1 1 76.8 0v163.349334z" p-id="26013"></path></svg>