<?xml version="1.0" standalone="no"?><!DOCTYPE svg PUBLIC "-//W3C//DTD SVG 1.1//EN" "http://www.w3.org/Graphics/SVG/1.1/DTD/svg11.dtd"><svg t="1761657625707" class="icon" viewBox="0 0 1024 1024" version="1.1" xmlns="http://www.w3.org/2000/svg" p-id="26157" xmlns:xlink="http://www.w3.org/1999/xlink" width="200" height="200"><path d="M832 134.762667a102.4 102.4 0 0 1 102.4 102.4v447.722666a102.4 102.4 0 0 1-102.4 102.4h-196.608c-8.746667 0-16.917333 4.48-21.632 11.882667l-33.322667 52.501333c-31.850667 50.154667-105.024 50.154667-136.874666 0l-33.344-52.48a25.642667 25.642667 0 0 0-21.610667-11.904H192a102.4 102.4 0 0 1-102.4-102.4V237.162667a102.4 102.4 0 0 1 102.4-102.4h640z m-448 362.666666a38.4 38.4 0 1 0 0 76.8h256a38.4 38.4 0 1 0 0-76.8H384z m0-149.333333a38.4 38.4 0 1 0 0 76.8h256a38.4 38.4 0 1 0 0-76.8H384z" p-id="26158"></path></svg>