<?xml version="1.0" standalone="no"?><!DOCTYPE svg PUBLIC "-//W3C//DTD SVG 1.1//EN" "http://www.w3.org/Graphics/SVG/1.1/DTD/svg11.dtd"><svg t="1761657755916" class="icon" viewBox="0 0 1024 1024" version="1.1" xmlns="http://www.w3.org/2000/svg" p-id="26884" xmlns:xlink="http://www.w3.org/1999/xlink" width="200" height="200"><path d="M512 78.933333c239.168 0 433.066667 193.898667 433.066667 433.066667S751.146667 945.066667 512 945.066667 78.933333 751.146667 78.933333 512 272.853333 78.933333 512 78.933333z m-117.333333 277.333334a38.4 38.4 0 0 0-38.4 38.4v234.666666a38.4 38.4 0 1 0 76.8 0v-234.666666a38.4 38.4 0 0 0-38.4-38.4z m234.666666 0a38.4 38.4 0 0 0-38.4 38.4v234.666666a38.4 38.4 0 1 0 76.8 0v-234.666666a38.4 38.4 0 0 0-38.4-38.4z" p-id="26885"></path></svg>