<?xml version="1.0" standalone="no"?><!DOCTYPE svg PUBLIC "-//W3C//DTD SVG 1.1//EN" "http://www.w3.org/Graphics/SVG/1.1/DTD/svg11.dtd"><svg t="1761657921495" class="icon" viewBox="0 0 1024 1024" version="1.1" xmlns="http://www.w3.org/2000/svg" p-id="27784" xmlns:xlink="http://www.w3.org/1999/xlink" width="200" height="200"><path d="M160 224a64 64 0 0 1 64-64h149.333333a64 64 0 0 1 64 64v149.333333a64 64 0 0 1-64 64h-149.333333a64 64 0 0 1-64-64v-149.333333z" p-id="27785"></path><path d="M398.933333 224a25.6 25.6 0 0 0-25.6-25.6h-149.333333a25.6 25.6 0 0 0-25.6 25.6v149.333333a25.6 25.6 0 0 0 25.6 25.6h149.333333a25.6 25.6 0 0 0 25.6-25.6v-149.333333z m76.8 149.333333a102.4 102.4 0 0 1-102.4 102.4h-149.333333a102.4 102.4 0 0 1-102.4-102.4v-149.333333a102.4 102.4 0 0 1 102.4-102.4h149.333333a102.4 102.4 0 0 1 102.4 102.4v149.333333zM160 650.666667a64 64 0 0 1 64-64h149.333333a64 64 0 0 1 64 64v149.333333a64 64 0 0 1-64 64h-149.333333a64 64 0 0 1-64-64v-149.333333z" p-id="27786"></path><path d="M398.933333 650.666667a25.6 25.6 0 0 0-25.6-25.6h-149.333333a25.6 25.6 0 0 0-25.6 25.6v149.333333a25.6 25.6 0 0 0 25.6 25.6h149.333333a25.6 25.6 0 0 0 25.6-25.6v-149.333333z m76.8 149.333333a102.4 102.4 0 0 1-102.4 102.4h-149.333333a102.4 102.4 0 0 1-102.4-102.4v-149.333333a102.4 102.4 0 0 1 102.4-102.4h149.333333a102.4 102.4 0 0 1 102.4 102.4v149.333333zM586.666667 224a64 64 0 0 1 64-64h149.333333a64 64 0 0 1 64 64v149.333333a64 64 0 0 1-64 64h-149.333333a64 64 0 0 1-64-64v-149.333333z" p-id="27787"></path><path d="M825.6 224a25.6 25.6 0 0 0-25.6-25.6h-149.333333a25.6 25.6 0 0 0-25.6 25.6v149.333333a25.6 25.6 0 0 0 25.6 25.6h149.333333a25.6 25.6 0 0 0 25.6-25.6v-149.333333z m76.8 149.333333a102.4 102.4 0 0 1-102.4 102.4h-149.333333a102.4 102.4 0 0 1-102.4-102.4v-149.333333a102.4 102.4 0 0 1 102.4-102.4h149.333333a102.4 102.4 0 0 1 102.4 102.4v149.333333zM870.4 832a38.4 38.4 0 1 1-76.8 0V618.666667a38.4 38.4 0 1 1 76.8 0v213.333333zM657.066667 832a38.4 38.4 0 1 1-76.8 0V618.666667a38.4 38.4 0 1 1 76.8 0v213.333333z" p-id="27788"></path></svg>