<?xml version="1.0" standalone="no"?><!DOCTYPE svg PUBLIC "-//W3C//DTD SVG 1.1//EN" "http://www.w3.org/Graphics/SVG/1.1/DTD/svg11.dtd"><svg t="1761658129214" class="icon" viewBox="0 0 1024 1024" version="1.1" xmlns="http://www.w3.org/2000/svg" p-id="28372" xmlns:xlink="http://www.w3.org/1999/xlink" width="200" height="200"><path d="M457.664 97.536a102.421333 102.421333 0 0 1 108.672 0l298.666667 186.901333a102.4 102.4 0 0 1 48.064 86.826667v119.616a358.421333 358.421333 0 0 1-146.069334 288.725333l-193.834666 142.570667a102.4 102.4 0 0 1-122.346667-0.768l-197.397333-148.970667A358.4 358.4 0 0 1 110.933333 486.4v-115.114667a102.4 102.4 0 0 1 48.064-86.826666l298.666667-186.901334z m209.493333 336.128a38.4 38.4 0 0 0-54.314666 0l-119.146667 119.168a4.288 4.288 0 0 1-6.058667 0l-65.813333-65.834667a38.4 38.4 0 1 0-54.314667 54.293334l65.856 65.834666a81.066667 81.066667 0 0 0 114.602667 0l119.189333-119.168a38.4 38.4 0 0 0 0-54.293333z" p-id="28373"></path></svg>