<?xml version="1.0" standalone="no"?><!DOCTYPE svg PUBLIC "-//W3C//DTD SVG 1.1//EN" "http://www.w3.org/Graphics/SVG/1.1/DTD/svg11.dtd"><svg t="1765368537308" class="icon" viewBox="0 0 1024 1024" version="1.1" xmlns="http://www.w3.org/2000/svg" p-id="6330" xmlns:xlink="http://www.w3.org/1999/xlink" width="200" height="200"><path d="M387.157333 589.973333c3.050667 2.688 61.653333 53.226667 124.842667 53.226667s121.792-50.538667 124.864-53.226667c0.064-0.064 0.149333-0.064 0.234667 0 2.965333 2.794667 57.130667 53.226667 120.234666 53.226667 35.818667 0 76.586667-6.144 105.536-26.901333 4.650667-3.328 11.797333-0.213333 11.797334 5.504V835.2a64 64 0 0 1-64 64H213.333333a64 64 0 0 1-64-64V621.802667c0-5.717333 7.168-8.832 11.797334-5.504 28.928 20.757333 69.738667 26.901333 105.536 26.901333 63.125333 0 117.269333-50.432 120.234666-53.226667 0.085333-0.064 0.170667-0.064 0.256 0zM729.344 124.8c41.493333 0 80.490667 23.530667 97.642667 62.037333h0.042666l72.341334 159.68c13.930667 30.72 32.213333 80.576 9.152 127.829334-26.282667 53.866667-83.136 89.92-147.626667 89.92-49.152 0-93.973333-21.013333-124.117333-54.933334-30.506667 33.962667-75.733333 54.933333-124.778667 54.933334-49.066667 0-94.293333-20.970667-124.8-54.933334-30.144 33.92-74.944 54.933333-124.096 54.933334-64.490667 0-121.344-36.053333-147.626667-89.92-23.04-47.253333-4.778667-97.088 9.152-127.829334l72.341334-159.68c17.130667-38.485333 56.149333-62.037333 97.685333-62.037333h434.688z" fill="#60636B" p-id="6331"></path></svg>