<?xml version="1.0" standalone="no"?><!DOCTYPE svg PUBLIC "-//W3C//DTD SVG 1.1//EN" "http://www.w3.org/Graphics/SVG/1.1/DTD/svg11.dtd"><svg t="1761658462676" class="icon" viewBox="0 0 1024 1024" version="1.1" xmlns="http://www.w3.org/2000/svg" p-id="29276" xmlns:xlink="http://www.w3.org/1999/xlink" width="200" height="200"><path d="M453.504 174.677333c22.506667-50.709333 94.485333-50.709333 116.992 0l63.637333 143.424a64 64 0 0 0 51.221334 37.610667l155.477333 17.792c54.250667 6.208 76.309333 73.152 36.373333 110.4l-117.418666 109.504a64 64 0 0 0-19.093334 59.413333l31.701334 157.653334c10.88 54.08-47.189333 95.658667-94.869334 67.968l-133.397333-77.44a64 64 0 0 0-64.256 0l-133.397333 77.44c-47.701333 27.690667-105.749333-13.888-94.869334-67.968l31.68-157.653334a64 64 0 0 0-19.093333-59.413333l-117.397333-109.504c-39.936-37.248-17.877333-104.192 36.373333-110.4l155.456-17.792a64 64 0 0 0 51.221333-37.610667l63.658667-143.424z" p-id="29277"></path><path d="M418.389333 159.104c36.010667-81.152 151.189333-81.152 187.221334 0l63.637333 143.424a25.6 25.6 0 0 0 20.48 15.04l155.477333 17.792c86.805333 9.92 122.090667 117.013333 58.197334 176.618667l-117.418667 109.525333a25.6 25.6 0 0 0-7.637333 23.765333l31.701333 157.653334c17.386667 86.506667-75.52 153.024-151.829333 108.714666l-133.376-77.44a25.6 25.6 0 0 0-25.706667 0l-133.376 77.44c-76.309333 44.309333-169.194667-22.186667-151.808-108.714666l31.701333-157.653334a25.6 25.6 0 0 0-7.637333-23.765333l-117.418667-109.525333c-63.893333-59.605333-28.608-166.698667 58.197334-176.64l155.477333-17.770667a25.6 25.6 0 0 0 20.48-15.04l63.637333-143.424z m117.013334 31.146667c-9.002667-20.266667-37.802667-20.266667-46.805334 0l-63.637333 143.424a102.4 102.4 0 0 1-81.962667 60.202666l-155.477333 17.792c-21.696 2.474667-30.506667 29.226667-14.549333 44.138667l117.418666 109.525333a102.4 102.4 0 0 1 30.549334 95.061334l-31.701334 157.653333c-4.330667 21.610667 18.901333 38.250667 37.973334 27.178667l133.376-77.44a102.4 102.4 0 0 1 102.826666 0l133.376 77.44c19.072 11.093333 42.304-5.546667 37.973334-27.178667l-31.701334-157.653333a102.4 102.4 0 0 1 30.549334-95.061334l117.418666-109.525333c15.957333-14.890667 7.146667-41.664-14.549333-44.16l-155.477333-17.770667a102.4 102.4 0 0 1-81.962667-60.224L535.402667 190.293333z" p-id="29278"></path></svg>