<?xml version="1.0" standalone="no"?><!DOCTYPE svg PUBLIC "-//W3C//DTD SVG 1.1//EN" "http://www.w3.org/Graphics/SVG/1.1/DTD/svg11.dtd"><svg t="1761658510289" class="icon" viewBox="0 0 1024 1024" version="1.1" xmlns="http://www.w3.org/2000/svg" p-id="29742" xmlns:xlink="http://www.w3.org/1999/xlink" width="200" height="200"><path d="M725.333333 511.936c0 117.824-95.530667 213.333333-213.333333 213.333333-117.824 0-213.333333-95.509333-213.333333-213.333333 0-117.802667 95.509333-213.333333 213.333333-213.333333 117.802667 0 213.333333 95.530667 213.333333 213.333333z" p-id="29743"></path><path d="M686.933333 511.936a174.933333 174.933333 0 1 0-349.888 0 174.933333 174.933333 0 0 0 349.866667 0z m76.8 0c0 139.029333-112.704 251.733333-251.733333 251.733333s-251.733333-112.704-251.733333-251.733333 112.704-251.733333 251.733333-251.733333 251.733333 112.725333 251.733333 251.733333zM550.4 181.290667a38.4 38.4 0 1 1-76.8 0v-64a38.4 38.4 0 1 1 76.8 0v64zM550.272 906.709333a38.4 38.4 0 1 1-76.8 0v-64a38.4 38.4 0 1 1 76.8 0v64zM842.709333 550.4a38.4 38.4 0 1 1 0-76.8h64a38.4 38.4 0 1 1 0 76.8h-64zM117.269333 550.293333a38.4 38.4 0 1 1 0-76.8h64a38.4 38.4 0 1 1 0 76.8h-64zM718.698667 772.992a38.4 38.4 0 1 1 54.293333-54.293333l45.248 45.269333a38.4 38.4 0 1 1-54.293333 54.293333l-45.248-45.269333zM205.802667 259.968a38.4 38.4 0 1 1 54.314666-54.293333l45.226667 45.226666a38.4 38.4 0 1 1-54.293333 54.314667l-45.226667-45.248zM250.986667 718.72a38.4 38.4 0 1 1 54.293333 54.272l-45.248 45.269333a38.4 38.4 0 1 1-54.293333-54.314666l45.248-45.226667zM764.032 205.824a38.4 38.4 0 1 1 54.293333 54.293333l-45.248 45.248a38.4 38.4 0 1 1-54.314666-54.293333l45.269333-45.248z" p-id="29744"></path></svg>