<?xml version="1.0" standalone="no"?><!DOCTYPE svg PUBLIC "-//W3C//DTD SVG 1.1//EN" "http://www.w3.org/Graphics/SVG/1.1/DTD/svg11.dtd"><svg t="1761658525856" class="icon" viewBox="0 0 1024 1024" version="1.1" xmlns="http://www.w3.org/2000/svg" p-id="29888" xmlns:xlink="http://www.w3.org/1999/xlink" width="200" height="200"><path d="M518.336 861.653333a102.4 102.4 0 0 1-144.810667 0l-211.178666-211.2a102.4 102.4 0 0 1 0-144.789333L505.642667 162.346667c19.2-19.2 45.226667-29.994667 72.384-29.994667h232.533333a81.066667 81.066667 0 0 1 81.066667 81.066667v232.533333a102.421333 102.421333 0 0 1-29.973334 72.384L518.336 861.653333z m187.242667-467.797333a53.333333 53.333333 0 1 0-75.456-75.434667 53.333333 53.333333 0 0 0 75.456 75.434667z" p-id="29889"></path></svg>