<?xml version="1.0" standalone="no"?><!DOCTYPE svg PUBLIC "-//W3C//DTD SVG 1.1//EN" "http://www.w3.org/Graphics/SVG/1.1/DTD/svg11.dtd"><svg t="1761702244953" class="icon" viewBox="0 0 1024 1024" version="1.1" xmlns="http://www.w3.org/2000/svg" p-id="31743" xmlns:xlink="http://www.w3.org/1999/xlink" width="200" height="200"><path d="M955.733333 505.962667c0 213.76-181.248 378.410667-443.733333 378.410666-44.586667 0-83.370667-1.386667-135.509333-17.984-10.645333-3.413333-23.146667-8.384-32.341334-12.202666l-1.28-0.554667-87.829333 36.416c-64.853333 26.88-130.922667-35.818667-107.434667-101.994667l15.744-44.437333C99.306667 678.912 68.266667 588.266667 68.266667 505.962667 68.266667 292.224 249.514667 127.573333 512 127.573333s443.733333 164.650667 443.733333 378.389334zM384 485.973333a21.333333 21.333333 0 0 0-21.333333-21.333333h-42.666667a21.333333 21.333333 0 0 0-21.333333 21.333333v42.666667a21.333333 21.333333 0 0 0 21.333333 21.333333h42.666667a21.333333 21.333333 0 0 0 21.333333-21.333333v-42.666667z m170.666667 0a21.333333 21.333333 0 0 0-21.333334-21.333333h-42.666666a21.333333 21.333333 0 0 0-21.333334 21.333333v42.666667a21.333333 21.333333 0 0 0 21.333334 21.333333h42.666666a21.333333 21.333333 0 0 0 21.333334-21.333333v-42.666667z m170.666666 0a21.333333 21.333333 0 0 0-21.333333-21.333333h-42.666667a21.333333 21.333333 0 0 0-21.333333 21.333333v42.666667a21.333333 21.333333 0 0 0 21.333333 21.333333h42.666667a21.333333 21.333333 0 0 0 21.333333-21.333333v-42.666667z" p-id="31744"></path></svg>