<svg viewBox="0 0 1024 1024" version="1.1" xmlns="http://www.w3.org/2000/svg"><path d="M583.893333 106.666667C779.861333 106.666667 938.666667 265.493333 938.666667 461.44c0 193.642667-155.157333 351.04-347.946667 354.666667l-6.826667 0.064h-101.973333l-49.344 49.344c-56.362667 56.384-152.042667 18.133333-155.392-60.16l-0.085333-4.245334v-24.533333C163.242667 717.610667 85.333333 598.677333 85.333333 461.44c0-193.642667 155.157333-351.061333 347.946667-354.688L440.106667 106.666667h143.786666zM341.333333 426.666667h-42.666666l-2.496 0.149333a21.333333 21.333333 0 0 0-18.688 18.688L277.333333 448v42.666667l0.149334 2.496a21.333333 21.333333 0 0 0 18.688 18.688L298.666667 512h42.666666l2.496-0.149333a21.333333 21.333333 0 0 0 18.688-18.688L362.666667 490.666667v-42.666667l-0.149334-2.496a21.333333 21.333333 0 0 0-18.688-18.688L341.333333 426.666667z m192 0h-42.666666a21.333333 21.333333 0 0 0-21.184 18.837333L469.333333 448v42.666667a21.333333 21.333333 0 0 0 18.837334 21.184L490.666667 512h42.666666a21.333333 21.333333 0 0 0 21.184-18.837333L554.666667 490.666667v-42.666667a21.333333 21.333333 0 0 0-18.837334-21.184L533.333333 426.666667z m192 0h-42.666666a21.333333 21.333333 0 0 0-21.184 18.837333L661.333333 448v42.666667a21.333333 21.333333 0 0 0 18.837334 21.184L682.666667 512h42.666666a21.333333 21.333333 0 0 0 21.184-18.837333L746.666667 490.666667v-42.666667a21.333333 21.333333 0 0 0-18.837334-21.184L725.333333 426.666667z" p-id="3548"></path></svg>
