<?xml version="1.0" standalone="no"?><!DOCTYPE svg PUBLIC "-//W3C//DTD SVG 1.1//EN" "http://www.w3.org/Graphics/SVG/1.1/DTD/svg11.dtd"><svg t="1761658551310" class="icon" viewBox="0 0 1024 1024" version="1.1" xmlns="http://www.w3.org/2000/svg" p-id="30178" xmlns:xlink="http://www.w3.org/1999/xlink" width="200" height="200"><path d="M870.4 486.4a42.666667 42.666667 0 0 1 42.666667 42.666667v292.266666a102.4 102.4 0 0 1-102.4 102.4H213.333333a102.4 102.4 0 0 1-102.4-102.4V529.066667a42.666667 42.666667 0 0 1 42.666667-42.666667h716.8z m-204.053333 113.109333a38.421333 38.421333 0 0 0-54.293334 1.578667l-129.109333 136.896a4.266667 4.266667 0 0 1-6.293333-0.085333l-50.773334-56.746667-0.490666-0.533333-0.490667-0.512-13.248-13.76a38.4 38.4 0 0 0-55.296 53.333333l12.650667 13.056 50.410666 56.362667a81.066667 81.066667 0 0 0 119.381334 1.578666l129.152-136.896a38.4 38.4 0 0 0-1.6-54.272z" p-id="30179"></path><path d="M661.333333 100.266667a38.4 38.4 0 0 1 38.4 38.4v46.933333H810.666667a102.4 102.4 0 0 1 102.4 102.4v78.933333a42.666667 42.666667 0 0 1-42.666667 42.666667H153.6a42.666667 42.666667 0 0 1-42.666667-42.666667v-78.933333A102.4 102.4 0 0 1 213.333333 185.6h110.933334V138.666667a38.4 38.4 0 1 1 76.8 0v46.933333h221.866666V138.666667A38.4 38.4 0 0 1 661.333333 100.266667z" p-id="30180"></path></svg>