<?xml version="1.0" standalone="no"?><!DOCTYPE svg PUBLIC "-//W3C//DTD SVG 1.1//EN" "http://www.w3.org/Graphics/SVG/1.1/DTD/svg11.dtd"><svg t="1761658584688" class="icon" viewBox="0 0 1024 1024" version="1.1" xmlns="http://www.w3.org/2000/svg" p-id="30324" xmlns:xlink="http://www.w3.org/1999/xlink" width="200" height="200"><path d="M128 192a64 64 0 0 1 64-64h128a64 64 0 0 1 64 64v128a64 64 0 0 1-64 64H192a64 64 0 0 1-64-64V192zM128 512a64 64 0 0 1 64-64h128a64 64 0 0 1 64 64v320a64 64 0 0 1-64 64H192a64 64 0 0 1-64-64V512zM448 192a64 64 0 0 1 64-64h320a64 64 0 0 1 64 64v640a64 64 0 0 1-64 64H512a64 64 0 0 1-64-64V192z" p-id="30325"></path></svg>