<svg xmlns="http://www.w3.org/2000/svg" viewBox="0 0 1024 1024" version="1.1"><path d="M320 490.666667a85.333333 85.333333 0 0 1 85.333333 85.333333v256a85.333333 85.333333 0 0 1-85.333333 85.333333H192a85.333333 85.333333 0 0 1-85.333333-85.333333V576a85.333333 85.333333 0 0 1 85.333333-85.333333h128zM832 106.666667a85.333333 85.333333 0 0 1 85.333333 85.333333v640a85.333333 85.333333 0 0 1-85.333333 85.333333H576a85.333333 85.333333 0 0 1-85.333333-85.333333V192a85.333333 85.333333 0 0 1 85.333333-85.333333h256zM320 106.666667a85.333333 85.333333 0 0 1 85.333333 85.333333v128a85.333333 85.333333 0 0 1-85.333333 85.333333H192a85.333333 85.333333 0 0 1-85.333333-85.333333V192a85.333333 85.333333 0 0 1 85.333333-85.333333h128z" p-id="15421"></path></svg>