<?xml version="1.0" standalone="no"?><!DOCTYPE svg PUBLIC "-//W3C//DTD SVG 1.1//EN" "http://www.w3.org/Graphics/SVG/1.1/DTD/svg11.dtd"><svg t="1761658658152" class="icon" viewBox="0 0 1024 1024" version="1.1" xmlns="http://www.w3.org/2000/svg" p-id="30905" xmlns:xlink="http://www.w3.org/1999/xlink" width="200" height="200"><path d="M512 113.514667c106.346667 0 208.384 42.24 283.605333 117.461333 60.565333 60.586667 98.282667 150.336 111.786667 235.2 9.898667 62.229333-42.026667 108.138667-96.725333 108.138667H571.733333v233.770666a102.421333 102.421333 0 0 1-174.826666 72.405334l-18.730667-18.773334a38.4 38.4 0 0 1 54.293333-54.272l18.752 18.730667a25.6 25.6 0 0 0 43.712-18.090667V574.293333H213.333333c-54.72 0-106.624-45.909333-96.746666-108.16 13.504-84.842667 51.221333-174.592 111.786666-235.178666A401.088 401.088 0 0 1 512 113.514667z" fill="#60636B" p-id="30906"></path></svg>