<?xml version="1.0" standalone="no"?><!DOCTYPE svg PUBLIC "-//W3C//DTD SVG 1.1//EN" "http://www.w3.org/Graphics/SVG/1.1/DTD/svg11.dtd"><svg t="1761658670546" class="icon" viewBox="0 0 1024 1024" version="1.1" xmlns="http://www.w3.org/2000/svg" p-id="31050" xmlns:xlink="http://www.w3.org/1999/xlink" width="200" height="200"><path d="M768 398.933333a102.4 102.4 0 0 1 102.4 102.4v320a102.4 102.4 0 0 1-102.4 102.4H256a102.4 102.4 0 0 1-102.4-102.4v-320a102.4 102.4 0 0 1 102.4-102.4h512z m-256 181.333334a38.4 38.4 0 0 0-38.4 38.4v85.333333a38.4 38.4 0 1 0 76.8 0v-85.333333a38.4 38.4 0 0 0-38.4-38.4z" p-id="31051"></path><path d="M665.6 320c0-78.933333-64-142.933333-142.933333-142.933333H512a153.6 153.6 0 0 0-153.6 153.6V426.666667a38.4 38.4 0 1 1-76.8 0v-96c0-127.253333 103.146667-230.4 230.4-230.4h10.666667c121.365333 0 219.733333 98.368 219.733333 219.733333a38.4 38.4 0 1 1-76.8 0z" p-id="31052"></path></svg>