<?xml version="1.0" standalone="no"?><!DOCTYPE svg PUBLIC "-//W3C//DTD SVG 1.1//EN" "http://www.w3.org/Graphics/SVG/1.1/DTD/svg11.dtd"><svg t="1761658686310" class="icon" viewBox="0 0 1024 1024" version="1.1" xmlns="http://www.w3.org/2000/svg" p-id="31196" xmlns:xlink="http://www.w3.org/1999/xlink" width="200" height="200"><path d="M512 78.933333c239.168 0 433.066667 193.898667 433.066667 433.066667S751.146667 945.066667 512 945.066667 78.933333 751.146667 78.933333 512 272.853333 78.933333 512 78.933333z m30.506667 242.56a38.4 38.4 0 0 0-54.314667 0l-120.682667 120.682667a38.4 38.4 0 1 0 54.314667 54.314667l54.954667-54.976v237.802666a38.4 38.4 0 0 0 76.8 0V441.173333l55.296 55.317334a38.4 38.4 0 1 0 54.293333-54.314667L542.506667 321.493333z" p-id="31197"></path></svg>