<?xml version="1.0" standalone="no"?><!DOCTYPE svg PUBLIC "-//W3C//DTD SVG 1.1//EN" "http://www.w3.org/Graphics/SVG/1.1/DTD/svg11.dtd"><svg t="1761658729958" class="icon" viewBox="0 0 1024 1024" version="1.1" xmlns="http://www.w3.org/2000/svg" p-id="31341" xmlns:xlink="http://www.w3.org/1999/xlink" width="200" height="200"><path d="M672 164.266667a102.4 102.4 0 0 1 102.4 102.4v63.125333l66.56-19.712c51.968-15.381333 104.106667 23.552 104.106667 77.738667V614.826667c0 54.186667-52.138667 93.12-104.106667 77.738666l-66.56-19.733333v84.48a102.4 102.4 0 0 1-102.4 102.4h-490.666667a102.4 102.4 0 0 1-102.4-102.4v-490.666667a102.4 102.4 0 0 1 102.4-102.4h490.666667z m-426.666667 128a38.4 38.4 0 1 0 0 76.8h106.666667a38.4 38.4 0 1 0 0-76.8h-106.666667z" fill="#60636B" p-id="31342"></path></svg>