<?xml version="1.0" standalone="no"?><!DOCTYPE svg PUBLIC "-//W3C//DTD SVG 1.1//EN" "http://www.w3.org/Graphics/SVG/1.1/DTD/svg11.dtd"><svg t="1766584528908" class="icon" viewBox="0 0 1024 1024" version="1.1" xmlns="http://www.w3.org/2000/svg" p-id="5161" xmlns:xlink="http://www.w3.org/1999/xlink" width="200" height="200"><path d="M696.96 109.568a102.4 102.4 0 0 1 85.034667 45.354667l160.32 239.018666a102.4 102.4 0 0 1-10.090667 126.784L602.581333 874.986667a123.733333 123.733333 0 0 1-181.162666 0L91.776 520.725333a102.4 102.4 0 0 1-10.090667-126.784l160.32-239.018666a102.4 102.4 0 0 1 85.034667-45.354667h369.92z m-40.490667 405.909333a38.4 38.4 0 0 0-54.272 0l-87.168 87.168a4.266667 4.266667 0 0 1-6.058666 0l-87.168-87.168a38.4 38.4 0 1 0-54.272 54.293334l87.146666 87.168a81.066667 81.066667 0 0 0 114.624 0l87.168-87.168a38.4 38.4 0 0 0 0-54.293334z" p-id="5162"></path></svg>