<?xml version="1.0" standalone="no"?><!DOCTYPE svg PUBLIC "-//W3C//DTD SVG 1.1//EN" "http://www.w3.org/Graphics/SVG/1.1/DTD/svg11.dtd"><svg t="1761658774765" class="icon" viewBox="0 0 1024 1024" version="1.1" xmlns="http://www.w3.org/2000/svg" p-id="31486" xmlns:xlink="http://www.w3.org/1999/xlink" width="200" height="200"><path d="M923.733333 454.4V768a102.4 102.4 0 0 1-102.4 102.4h-618.666666A102.4 102.4 0 0 1 100.266667 768V454.4h823.466666zM100.266667 256a102.4 102.4 0 0 1 102.4-102.4h618.666666a102.4 102.4 0 0 1 102.4 102.4v121.6H100.266667V256z m273.066666 10.666667a32 32 0 1 0 64 0 32 32 0 0 0-64 0z m-85.333333 0a32 32 0 1 0 64 0 32 32 0 0 0-64 0z m-85.333333 0a32 32 0 1 0 64 0 32 32 0 0 0-64 0z" p-id="31487"></path></svg>