<?xml version="1.0" standalone="no"?><!DOCTYPE svg PUBLIC "-//W3C//DTD SVG 1.1//EN" "http://www.w3.org/Graphics/SVG/1.1/DTD/svg11.dtd"><svg t="1766584496559" class="icon" viewBox="0 0 1024 1024" version="1.1" xmlns="http://www.w3.org/2000/svg" p-id="5014" xmlns:xlink="http://www.w3.org/1999/xlink" width="200" height="200"><path d="M403.221333 602.837333a17.941333 17.941333 0 1 1 0 35.904 17.941333 17.941333 0 0 1 0-35.904z" p-id="5015"></path><path d="M746.666667 85.333333a128 128 0 0 1 128 128v597.333334a128 128 0 0 1-128 128H277.333333a128 128 0 0 1-128-128V213.333333a128 128 0 0 1 128-128h469.333334z m-154.88 278.208c-35.050667-35.029333-82.858667-26.048-117.888 8.96a89.728 89.728 0 0 0-16.128 104.938667l-98.048 98.048a62.784 62.784 0 1 0 88.789333 88.789333l98.048-98.048a89.728 89.728 0 0 0 104.917333-16.128c35.029333-35.029333 44.010667-82.837333 8.981334-117.866666a17.941333 17.941333 0 0 0-25.386667 0l-31.381333 31.381333a4.16 4.16 0 0 1-5.866667 0l-37.44-37.44a4.16 4.16 0 0 1 0-5.866667l31.381333-31.402666a17.941333 17.941333 0 0 0 0-25.365334z" p-id="5016"></path></svg>