<svg preserveAspectRatio="none" width="100%" height="100%" overflow="visible" style="display: block;" viewBox="0 0 34.6249 30.8825" fill="none" xmlns="http://www.w3.org/2000/svg">
<g id="Group 1565017">
<path id="Vector 1388 (Stroke)" d="M33.4957 0.958129C32.1442 -0.304422 30.0506 -0.320696 28.6797 0.920694L24.8271 4.40865C24.662 4.5581 24.4331 4.60712 24.2282 4.53642C22.5802 3.96777 20.4568 3.04314 17.1505 3.04309H16.9422V3.45976H17.1505C20.3732 3.45981 22.4265 4.35551 24.0923 4.9303C24.4464 5.05248 24.8337 4.96532 25.1071 4.71789L28.9596 1.22913C30.17 0.133195 32.0185 0.147801 33.2117 1.26249C34.4207 2.39205 34.546 4.26592 33.4982 5.54634L31.5223 7.96008C31.1151 8.45773 30.996 9.12417 31.1642 9.73498C31.3986 10.5862 31.6918 11.8161 31.8706 13.0748C32.062 14.4231 32.1464 15.9782 32.1774 17.0454C32.1952 17.6595 32.2791 18.2695 32.4248 18.8658C32.8902 20.7706 33.4429 23.7069 33.2898 25.609C33.2464 26.1482 33.1927 26.6778 33.0595 27.1821C32.8114 28.1217 32.1333 29.1596 30.7785 29.1596C28.7843 29.1596 28.1487 28.1262 28.0628 27.6956L27.9025 26.6857L27.4907 26.7508L27.5232 26.9567L27.6526 27.7688L27.6535 27.7762C27.7842 28.434 28.62 29.5763 30.7785 29.5763C32.4116 29.5763 33.1933 28.3075 33.4624 27.2887C33.6059 26.7454 33.6622 26.1833 33.7057 25.6424C33.8647 23.6665 33.2954 20.6713 32.83 18.7666C32.6912 18.1981 32.611 17.6175 32.594 17.0332C32.5629 15.9593 32.4769 14.3867 32.2824 13.0162C32.1004 11.7346 31.8029 10.4866 31.5654 9.62431C31.4305 9.13444 31.5295 8.60963 31.8453 8.22375L33.8204 5.81083C35.0076 4.36047 34.8653 2.23764 33.4957 0.958129Z" fill="var(--fill-0, #60636B)" style="fill:#60636B;fill:color(display-p3 0.3765 0.3882 0.4196);fill-opacity:1;"/>
<path id="Vector 1390 (Stroke)" d="M1.12914 0.957966C2.48064 -0.304585 4.57424 -0.320859 5.94522 0.920531L9.79776 4.40849C9.96284 4.55794 10.1918 4.60696 10.3967 4.53625C12.0447 3.96761 14.1681 3.04298 17.4744 3.04293V3.45959C14.2516 3.45965 12.1984 4.35534 10.5326 4.93013C10.1785 5.05232 9.79112 4.96516 9.51781 4.71773L5.66527 1.22896C4.45486 0.133032 2.60633 0.147638 1.41315 1.26233C0.204183 2.39189 0.0788741 4.26575 1.12669 5.54618L3.10261 7.95992C3.50975 8.45756 3.62891 9.12401 3.46068 9.73482C3.22625 10.5861 2.93303 11.816 2.7543 13.0747C2.56289 14.4229 2.47849 15.9781 2.4475 17.0452C2.42965 17.6594 2.3458 18.2694 2.2001 18.8657C1.73472 20.7705 1.18194 23.7067 1.33503 25.6088C1.3786 26.1501 1.43391 26.6732 1.62311 27.1429C2.00851 28.0995 3.00895 29.2156 4.39574 29.2156C4.85609 29.2156 5.18398 29.0938 5.4374 28.9283C6.09431 28.4994 6.42158 27.6872 6.69798 26.858L7.09349 26.9899C6.82192 27.8046 6.45918 28.7581 5.66527 29.2767C5.34476 29.4859 4.93778 29.6323 4.39574 29.6323C2.77203 29.6323 1.65691 28.3397 1.23737 27.2983C1.02165 26.7628 0.962549 26.1811 0.919175 25.6422C0.760145 23.6663 1.32943 20.6712 1.79483 18.7664C1.93372 18.1979 2.01386 17.6174 2.03083 17.033C2.06202 15.9591 2.14794 14.3865 2.34252 13.0161C2.52449 11.7345 2.82198 10.4865 3.05947 9.62414C3.19439 9.13427 3.09539 8.60947 2.77953 8.22359L0.804429 5.81067C-0.382759 4.36031 -0.240465 2.23748 1.12914 0.957966Z" fill="var(--fill-0, #60636B)" style="fill:#60636B;fill:color(display-p3 0.3765 0.3882 0.4196);fill-opacity:1;"/>
<path id="Rectangle 2408 (Stroke)" d="M30.4375 14.0075C30.4375 10.9009 27.9191 8.38249 24.8125 8.38249H9.95731C6.85071 8.38249 4.33231 10.9009 4.33231 14.0075C4.33231 15.5033 5.54487 16.7158 7.04065 16.7158H27.7291C29.2249 16.7158 30.4375 15.5033 30.4375 14.0075ZM30.8541 14.0075C30.8541 15.7334 29.455 17.1325 27.7291 17.1325H7.04065C5.31476 17.1325 3.91565 15.7334 3.91565 14.0075C3.91565 10.6708 6.62059 7.96582 9.95731 7.96582H24.8125C28.1492 7.96582 30.8541 10.6708 30.8541 14.0075Z" fill="var(--fill-0, #60636B)" style="fill:#60636B;fill:color(display-p3 0.3765 0.3882 0.4196);fill-opacity:1;"/>
<path id="Vector 1389 (Stroke)" d="M5.26045 22.3408V16.5075C5.26045 16.3924 5.35373 16.2992 5.46879 16.2992C5.58385 16.2992 5.67712 16.3924 5.67712 16.5075V22.3408C5.67712 26.8281 9.31481 30.4658 13.8021 30.4658H20.4981C24.9854 30.4658 28.6231 26.8281 28.6231 22.3408V16.7834C28.6231 16.6684 28.7164 16.5751 28.8314 16.575C28.9465 16.575 29.0397 16.6683 29.0397 16.7834V22.3408C29.0397 27.0583 25.2155 30.8825 20.4981 30.8825H13.8021C9.08469 30.8825 5.26045 27.0583 5.26045 22.3408Z" fill="var(--fill-0, #60636B)" style="fill:#60636B;fill:color(display-p3 0.3765 0.3882 0.4196);fill-opacity:1;"/>
<path id="Vector 1391 (Stroke)" d="M24.7676 24.6772C24.8341 24.5835 24.9643 24.5612 25.0581 24.6276C25.1519 24.6941 25.1743 24.8243 25.1078 24.9181L24.731 25.4487C23.9105 26.6044 22.5806 27.2911 21.1633 27.2911H19.2403C19.1252 27.2911 19.0319 27.1979 19.0319 27.0828C19.0319 26.9678 19.1252 26.8745 19.2403 26.8745H21.1633C22.4456 26.8745 23.6493 26.2534 24.3916 25.2078L24.7676 24.6772Z" fill="var(--fill-0, #60636B)" style="fill:#60636B;fill:color(display-p3 0.3765 0.3882 0.4196);fill-opacity:1;"/>
</g>
</svg>
