<svg preserveAspectRatio="none" width="100%" height="100%" overflow="visible" style="display: block;" viewBox="0 0 77.0093 67.0093" fill="none" xmlns="http://www.w3.org/2000/svg">
<g id="&#229;&#138;&#159;&#232;&#131;&#189;&#229;&#187;&#186;&#232;&#174;&#190;&#228;&#184;&#173;">
<g id="Vector 1371" filter="url(#filter0_di_0_17174)">
<path d="M8.83801 49.3399V60.7523C8.83801 62.6853 7.271 64.2523 5.33801 64.2523C3.40501 64.2523 1.83801 62.6853 1.83801 60.7523V7.58567C1.83801 3.90377 4.82277 0.919003 8.50467 0.919003H65.1713C68.8532 0.919003 71.838 3.90377 71.838 7.58567V60.7523C71.838 62.6853 70.271 64.2523 68.338 64.2523C66.405 64.2523 64.838 62.6853 64.838 60.7523V49.3398C64.838 48.4194 64.0918 47.6732 63.1713 47.6732H10.5047C9.5842 47.6732 8.83801 48.4194 8.83801 49.3399Z" fill="var(--fill-0, #EDEFF2)" style="fill:#EDEFF2;fill:color(display-p3 0.9294 0.9373 0.9490);fill-opacity:1;"/>
</g>
<path id="Vector 1385 (Stroke)" d="M71.6296 7.5858C71.6296 4.01896 68.7381 1.12747 65.1713 1.12747H8.50462C4.93779 1.12747 2.04629 4.01896 2.04629 7.5858V60.7523L2.05036 60.9216C2.13837 62.6609 3.57689 64.0441 5.33812 64.0441C7.15598 64.044 8.62995 62.5702 8.62995 60.7523V49.3404C8.62995 48.3048 9.46942 47.4654 10.5049 47.4654H63.171C64.2065 47.4654 65.046 48.3048 65.046 49.3404V60.7523C65.046 62.5702 66.5199 64.044 68.3378 64.0441C70.1557 64.0441 71.6296 62.5702 71.6296 60.7523V7.5858ZM72.0463 60.7523C72.0463 62.8004 70.3858 64.4608 68.3378 64.4608C66.2898 64.4607 64.6293 62.8003 64.6293 60.7523V49.3404C64.6293 48.5349 63.9764 47.882 63.171 47.882H10.5049C9.69953 47.882 9.04662 48.5349 9.04662 49.3404V60.7523C9.04662 62.8003 7.3861 64.4607 5.33812 64.4608C3.35415 64.4608 1.73395 62.9028 1.63451 60.9435L1.62962 60.7523V7.5858C1.62962 3.78884 4.70767 0.7108 8.50462 0.7108H65.1713C68.9682 0.7108 72.0463 3.78884 72.0463 7.5858V60.7523Z" fill="var(--fill-0, #91959E)" style="fill:#91959E;fill:color(display-p3 0.5686 0.5843 0.6196);fill-opacity:1;"/>
<path id="Vector 1383 (Stroke)" d="M42.6713 28.2107C42.7864 28.2107 42.8797 28.3039 42.8797 28.419C42.8797 28.5341 42.7864 28.6273 42.6713 28.6273H32.6713C32.5563 28.6273 32.463 28.5341 32.463 28.419C32.463 28.3039 32.5563 28.2107 32.6713 28.2107H42.6713Z" fill="var(--fill-0, #60636B)" style="fill:#60636B;fill:color(display-p3 0.3765 0.3882 0.4196);fill-opacity:1;"/>
<path id="Vector 1384 (Stroke)" d="M39.338 33.2107C39.4531 33.2107 39.5463 33.3039 39.5463 33.419C39.5463 33.5341 39.4531 33.6273 39.338 33.6273H32.6713C32.5563 33.6273 32.463 33.5341 32.463 33.419C32.463 33.3039 32.5563 33.2107 32.6713 33.2107H39.338Z" fill="var(--fill-0, #60636B)" style="fill:#60636B;fill:color(display-p3 0.3765 0.3882 0.4196);fill-opacity:1;"/>
<path id="Vector 1372 (Stroke)" d="M69.338 17.3773C69.4531 17.3773 69.5463 17.4706 69.5463 17.5857C69.5463 17.7007 69.4531 17.794 69.338 17.794H4.33801C4.22295 17.794 4.12967 17.7007 4.12967 17.5857C4.12967 17.4706 4.22295 17.3773 4.33801 17.3773H69.338Z" fill="var(--fill-0, #91959E)" style="fill:#91959E;fill:color(display-p3 0.5686 0.5843 0.6196);fill-opacity:1;"/>
<path id="Vector 1378 (Stroke)" d="M13.9461 2.64623C14.0064 2.54569 14.1294 2.51829 14.2206 2.58475C14.3117 2.65121 14.3371 2.78623 14.2769 2.88674C12.7753 5.39126 11.6038 7.3459 10.4321 9.30025C9.26036 11.2547 8.08786 13.2091 6.58625 15.7138C6.52601 15.8141 6.40347 15.842 6.31233 15.7758C6.22113 15.7094 6.19628 15.5738 6.25656 15.4733L13.9461 2.64623Z" fill="var(--fill-0, #91959E)" style="fill:#91959E;fill:color(display-p3 0.5686 0.5843 0.6196);fill-opacity:1;"/>
<path id="Vector 1380 (Stroke)" d="M32.1684 2.64623C32.2287 2.54569 32.3517 2.51829 32.4429 2.58475C32.534 2.65121 32.5594 2.78623 32.4992 2.88674L24.8086 15.7138C24.7484 15.8141 24.6258 15.842 24.5347 15.7758C24.4435 15.7094 24.4186 15.5738 24.4789 15.4733L32.1684 2.64623Z" fill="var(--fill-0, #91959E)" style="fill:#91959E;fill:color(display-p3 0.5686 0.5843 0.6196);fill-opacity:1;"/>
<path id="Vector 1381 (Stroke)" d="M50.5018 2.64623C50.5621 2.54569 50.685 2.51829 50.7762 2.58475C50.8674 2.65121 50.8928 2.78623 50.8326 2.88674L43.1419 15.7138C43.0817 15.8141 42.9592 15.842 42.868 15.7758C42.7768 15.7094 42.752 15.5738 42.8122 15.4733L50.5018 2.64623Z" fill="var(--fill-0, #91959E)" style="fill:#91959E;fill:color(display-p3 0.5686 0.5843 0.6196);fill-opacity:1;"/>
<path id="Vector 1382 (Stroke)" d="M67.9246 4.54549C67.9863 4.44615 68.11 4.42083 68.2001 4.48883C68.2902 4.55693 68.3132 4.69324 68.2515 4.79263L61.4734 15.7167C61.4117 15.8161 61.2886 15.842 61.1984 15.774C61.1082 15.7059 61.0853 15.5696 61.147 15.4702L67.9246 4.54549Z" fill="var(--fill-0, #91959E)" style="fill:#91959E;fill:color(display-p3 0.5686 0.5843 0.6196);fill-opacity:1;"/>
<g id="264" filter="url(#filter1_di_0_17174)">
<path d="M73.9959 29.3785C74.8597 31.0033 75.2613 32.8451 75.1544 34.6922C75.0476 36.5393 74.4368 38.317 73.3918 39.8207C72.3467 41.3244 70.91 42.493 69.2466 43.1919C67.7884 43.8045 66.2082 44.0342 64.6473 43.8655C64.3522 43.8335 64.0566 43.9429 63.8686 44.1725L48.9086 62.4418C47.1942 64.5354 44.164 64.8591 42.0634 63.1731C39.8712 61.4135 39.5331 58.1499 41.3162 55.9597L56.2996 37.555C56.4787 37.335 56.5311 37.0396 56.455 36.7663C56.0188 35.1988 55.9669 33.5413 56.3086 31.9439C56.6953 30.1369 57.57 28.4799 58.8324 27.1642C60.0948 25.8484 61.6934 24.9275 63.4441 24.5079C65.1949 24.0882 67.0261 24.187 68.7267 24.7927C68.8253 24.8278 68.9009 24.9103 68.9286 25.0133C68.9564 25.1163 68.9329 25.2267 68.8658 25.3086L64.5015 30.6346C64.2161 30.9829 64.259 31.4951 64.5986 31.791L67.9524 34.7141C68.307 35.0231 68.8469 34.9776 69.1448 34.6136L73.4726 29.3251C73.5402 29.2425 73.6433 29.1995 73.7481 29.2102C73.8528 29.2209 73.9456 29.2839 73.9959 29.3785Z" fill="var(--fill-0, white)" style="fill:white;fill-opacity:1;"/>
</g>
<path id="265 (Stroke)" d="M75.3625 34.7043C75.4715 32.8195 75.0618 30.9397 74.1801 29.2812C74.0979 29.1265 73.9444 29.0215 73.7691 29.0036C73.5939 28.9858 73.4229 29.0577 73.3118 29.1933L68.9832 34.4822C68.7597 34.7549 68.3555 34.7887 68.0896 34.557L64.7351 31.6347C64.4805 31.4128 64.4487 31.0284 64.6627 30.7672L69.0271 25.4408C69.1371 25.3065 69.1748 25.1263 69.1296 24.9591C69.0844 24.7917 68.961 24.6555 68.7968 24.5969C67.0583 23.9778 65.1857 23.8765 63.3956 24.3056C61.6055 24.7346 59.9717 25.6763 58.682 27.0204C57.3925 28.3645 56.4993 30.0565 56.1047 31.9008C55.7559 33.5311 55.8092 35.2228 56.2545 36.8227C56.3137 37.0358 56.2713 37.2604 56.1381 37.4241L41.1544 55.8282C39.2989 58.1074 39.6501 61.5029 41.9332 63.3355C44.1236 65.0936 47.2832 64.7551 49.0694 62.5738L64.0295 44.3048C64.1692 44.1342 64.3935 44.048 64.6244 44.0728C66.2205 44.2454 67.8367 44.0106 69.3274 43.3843C71.0278 42.6699 72.4952 41.4752 73.5624 39.9395C74.6296 38.4039 75.2535 36.5893 75.3625 34.7043ZM73.8123 29.4765C74.658 31.0673 75.0513 32.8715 74.9467 34.6807C74.842 36.4898 74.2434 38.2302 73.2206 39.7019C72.1979 41.1736 70.7925 42.3169 69.1663 43.0002C67.7407 43.5992 66.1957 43.8235 64.67 43.6586C64.311 43.6198 63.9435 43.7526 63.7073 44.0411L48.7472 62.3101C47.1046 64.3159 44.2043 64.6247 42.1936 63.0108C40.0925 61.3242 39.7671 58.1931 41.4775 56.0919L56.4612 37.6869C56.6861 37.4107 56.7483 37.0445 56.6557 36.7112C56.2284 35.176 56.1777 33.5523 56.5125 31.9879C56.8911 30.2182 57.7472 28.5959 58.9823 27.3085C60.2174 26.0212 61.7811 25.1211 63.4924 24.7108C65.2038 24.3006 66.9942 24.397 68.6568 24.9892C68.6897 25.0009 68.7172 25.0296 68.7276 25.0681C68.738 25.1067 68.7289 25.1478 68.7048 25.1771L64.3404 30.5027C63.9836 30.9381 64.0374 31.5781 64.4617 31.948L67.8153 34.8712C68.2586 35.2575 68.9339 35.2009 69.3062 34.7458L73.634 29.4577C73.658 29.4285 73.6928 29.4144 73.7268 29.4179C73.761 29.4214 73.7939 29.442 73.8123 29.4765Z" fill="var(--fill-0, #91959E)" style="fill:#91959E;fill:color(display-p3 0.5686 0.5843 0.6196);fill-opacity:1;"/>
<path id="Rectangle 2406 (Stroke)" d="M13.0714 38.6238L8.94665 34.499C8.5397 34.0921 8.54057 33.4319 8.94722 33.0253L13.0714 28.9011C13.1528 28.8197 13.2847 28.8197 13.3661 28.9011C13.4474 28.9824 13.4474 29.1143 13.3661 29.1957L9.24185 33.3199C8.99763 33.5641 8.99734 33.9604 9.24127 34.2044L13.3661 38.3292C13.4474 38.4105 13.4474 38.5424 13.3661 38.6238C13.2847 38.7051 13.1528 38.7051 13.0714 38.6238Z" fill="var(--fill-0, #60636B)" style="fill:#60636B;fill:color(display-p3 0.3765 0.3882 0.4196);fill-opacity:1;"/>
<path id="Rectangle 2407 (Stroke)" d="M24.309 38.6515L28.4338 34.5267C28.8406 34.1199 28.8406 33.4603 28.4338 33.0535L24.309 28.9287C24.2276 28.8474 24.0957 28.8474 24.0144 28.9287C23.933 29.0101 23.933 29.142 24.0144 29.2234L28.1392 33.3482C28.3832 33.5922 28.3832 33.988 28.1392 34.232L24.0144 38.3568C23.933 38.4382 23.933 38.5701 24.0144 38.6515C24.0957 38.7328 24.2276 38.7328 24.309 38.6515Z" fill="var(--fill-0, #60636B)" style="fill:#60636B;fill:color(display-p3 0.3765 0.3882 0.4196);fill-opacity:1;"/>
<path id="Vector 1379 (Stroke)" d="M21.5778 28.3145C21.6355 28.215 21.7631 28.1811 21.8627 28.2388C21.9618 28.2966 21.9957 28.4235 21.9383 28.5228L16.1384 38.5228C16.0807 38.6223 15.9539 38.6562 15.8544 38.5985C15.7549 38.5408 15.721 38.414 15.7787 38.3145L21.5778 28.3145Z" fill="var(--fill-0, #60636B)" style="fill:#60636B;fill:color(display-p3 0.3765 0.3882 0.4196);fill-opacity:1;"/>
</g>
<defs>
<filter id="filter0_di_0_17174" x="-4.47035e-08" y="-1.49012e-08" width="73.676" height="67.0093" filterUnits="userSpaceOnUse" color-interpolation-filters="sRGB">
<feFlood flood-opacity="0" result="BackgroundImageFix"/>
<feColorMatrix in="SourceAlpha" type="matrix" values="0 0 0 0 0 0 0 0 0 0 0 0 0 0 0 0 0 0 127 0" result="hardAlpha"/>
<feOffset dy="0.919003"/>
<feGaussianBlur stdDeviation="0.919003"/>
<feComposite in2="hardAlpha" operator="out"/>
<feColorMatrix type="matrix" values="0 0 0 0 0.101961 0 0 0 0 0.113725 0 0 0 0 0.14902 0 0 0 0.1 0"/>
<feBlend mode="normal" in2="BackgroundImageFix" result="effect1_dropShadow_0_17174"/>
<feBlend mode="normal" in="SourceGraphic" in2="effect1_dropShadow_0_17174" result="shape"/>
<feColorMatrix in="SourceAlpha" type="matrix" values="0 0 0 0 0 0 0 0 0 0 0 0 0 0 0 0 0 0 127 0" result="hardAlpha"/>
<feOffset dy="0.919003"/>
<feComposite in2="hardAlpha" operator="arithmetic" k2="-1" k3="1"/>
<feColorMatrix type="matrix" values="0 0 0 0 1 0 0 0 0 1 0 0 0 0 1 0 0 0 1 0"/>
<feBlend mode="normal" in2="shape" result="effect2_innerShadow_0_17174"/>
</filter>
<filter id="filter1_di_0_17174" x="38.3333" y="23.3333" width="38.676" height="43.676" filterUnits="userSpaceOnUse" color-interpolation-filters="sRGB">
<feFlood flood-opacity="0" result="BackgroundImageFix"/>
<feColorMatrix in="SourceAlpha" type="matrix" values="0 0 0 0 0 0 0 0 0 0 0 0 0 0 0 0 0 0 127 0" result="hardAlpha"/>
<feOffset dy="0.919003"/>
<feGaussianBlur stdDeviation="0.919003"/>
<feComposite in2="hardAlpha" operator="out"/>
<feColorMatrix type="matrix" values="0 0 0 0 0.101961 0 0 0 0 0.113725 0 0 0 0 0.14902 0 0 0 0.1 0"/>
<feBlend mode="normal" in2="BackgroundImageFix" result="effect1_dropShadow_0_17174"/>
<feBlend mode="normal" in="SourceGraphic" in2="effect1_dropShadow_0_17174" result="shape"/>
<feColorMatrix in="SourceAlpha" type="matrix" values="0 0 0 0 0 0 0 0 0 0 0 0 0 0 0 0 0 0 127 0" result="hardAlpha"/>
<feOffset dy="0.919003"/>
<feComposite in2="hardAlpha" operator="arithmetic" k2="-1" k3="1"/>
<feColorMatrix type="matrix" values="0 0 0 0 1 0 0 0 0 1 0 0 0 0 1 0 0 0 1 0"/>
<feBlend mode="normal" in2="shape" result="effect2_innerShadow_0_17174"/>
</filter>
</defs>
</svg>
