<?xml version="1.0" standalone="no"?><!DOCTYPE svg PUBLIC "-//W3C//DTD SVG 1.1//EN" "http://www.w3.org/Graphics/SVG/1.1/DTD/svg11.dtd"><svg t="1763969032619" class="icon" viewBox="0 0 1024 1024" version="1.1" xmlns="http://www.w3.org/2000/svg" p-id="3943" xmlns:xlink="http://www.w3.org/1999/xlink" width="200" height="200"><path d="M421.482667 526.762667a128 128 0 0 0 181.013333 0l256.426667-256.426667a64 64 0 1 0-90.474667-90.517333L512 436.266667 255.530667 179.84a64 64 0 1 0-90.496 90.496l256.426666 256.426667z m0 298.666666a128 128 0 0 0 181.013333 0l256.426667-256.426666a64 64 0 1 0-90.474667-90.517334L512 734.933333 255.530667 478.506667a64 64 0 1 0-90.496 90.496l256.426666 256.426666z" p-id="3944"></path></svg>