<?xml version="1.0" standalone="no"?><!DOCTYPE svg PUBLIC "-//W3C//DTD SVG 1.1//EN" "http://www.w3.org/Graphics/SVG/1.1/DTD/svg11.dtd"><svg t="1763969197864" class="icon" viewBox="0 0 1024 1024" version="1.1" xmlns="http://www.w3.org/2000/svg" p-id="5538" xmlns:xlink="http://www.w3.org/1999/xlink" width="200" height="200"><path d="M421.504 497.237333a128 128 0 0 1 181.013333 0l256.426667 256.426667a64 64 0 1 1-90.496 90.517333l-256.426667-256.426666-256.469333 256.426666a64 64 0 1 1-90.496-90.517333l256.426667-256.426667z m0-298.666666a128 128 0 0 1 181.013333 0l256.426667 256.426666a64 64 0 1 1-90.496 90.517334l-256.426667-256.426667-256.469333 256.426667a64 64 0 1 1-90.496-90.517334l256.426667-256.426666z" p-id="5539"></path></svg>