<?xml version="1.0" standalone="no"?><!DOCTYPE svg PUBLIC "-//W3C//DTD SVG 1.1//EN" "http://www.w3.org/Graphics/SVG/1.1/DTD/svg11.dtd"><svg t="1763968410989" class="icon" viewBox="0 0 1024 1024" version="1.1" xmlns="http://www.w3.org/2000/svg" p-id="1909" xmlns:xlink="http://www.w3.org/1999/xlink" width="200" height="200"><path d="M584.405333 796.672l256.426667-256.448a38.4 38.4 0 1 0-54.293333-54.293333l-256.426667 256.426666a25.6 25.6 0 0 1-36.224 0l-256.426667-256.426666a38.4 38.4 0 1 0-54.314666 54.293333l256.426666 256.426667a102.4 102.4 0 0 0 144.832 0z" p-id="1910"></path><path d="M584.405333 519.338667l256.426667-256.448a38.4 38.4 0 1 0-54.293333-54.293334l-256.426667 256.426667a25.6 25.6 0 0 1-36.224 0l-256.426667-256.426667a38.4 38.4 0 1 0-54.314666 54.293334l256.426666 256.426666a102.4 102.4 0 0 0 144.832 0z" p-id="1911"></path></svg>