<?xml version="1.0" standalone="no"?><!DOCTYPE svg PUBLIC "-//W3C//DTD SVG 1.1//EN" "http://www.w3.org/Graphics/SVG/1.1/DTD/svg11.dtd"><svg t="1763969084142" class="icon" viewBox="0 0 1024 1024" version="1.1" xmlns="http://www.w3.org/2000/svg" p-id="4233" xmlns:xlink="http://www.w3.org/1999/xlink" width="200" height="200"><path d="M526.762667 587.733333a128 128 0 0 0 0-181.013333l-256.426667-256.426667a64 64 0 1 0-90.517333 90.496l256.426666 256.426667L179.84 753.706667a64 64 0 1 0 90.496 90.496l256.426667-256.426667z m298.666666 0a128 128 0 0 0 0-181.013333l-256.426666-256.426667a64 64 0 1 0-90.517334 90.496l256.426667 256.426667L478.506667 753.706667a64 64 0 1 0 90.496 90.496l256.426666-256.426667z" p-id="4234"></path></svg>