<?xml version="1.0" standalone="no"?><!DOCTYPE svg PUBLIC "-//W3C//DTD SVG 1.1//EN" "http://www.w3.org/Graphics/SVG/1.1/DTD/svg11.dtd"><svg t="1761718412173" class="icon" viewBox="0 0 1024 1024" version="1.1" xmlns="http://www.w3.org/2000/svg" p-id="11661" xmlns:xlink="http://www.w3.org/1999/xlink" width="200" height="200"><path d="M635.136 443.136a38.4 38.4 0 1 1-54.293333-54.272l245.333333-245.333333a38.4 38.4 0 1 1 54.293333 54.272l-245.333333 245.333333z" fill="#60636B" p-id="11662"></path><path d="M746.666667 465.066667a38.4 38.4 0 1 0 0-76.8h-149.333334a38.4 38.4 0 1 0 0 76.8h149.333334z" fill="#60636B" p-id="11663"></path><path d="M635.733333 277.333333v149.333334a38.4 38.4 0 1 1-76.8 0v-149.333334a38.4 38.4 0 1 1 76.8 0zM388.842667 580.842667a38.4 38.4 0 1 1 54.293333 54.293333l-245.333333 245.333333a38.4 38.4 0 1 1-54.293334-54.272l245.333334-245.333333z" fill="#60636B" p-id="11664"></path><path d="M277.333333 558.933333a38.4 38.4 0 1 0 0 76.8h149.333334a38.4 38.4 0 1 0 0-76.8h-149.333334z" fill="#60636B" p-id="11665"></path><path d="M388.266667 746.666667v-149.333334a38.4 38.4 0 1 1 76.8 0v149.333334a38.4 38.4 0 1 1-76.8 0z" fill="#60636B" p-id="11666"></path></svg>