<svg width="28" height="28" viewBox="0 0 28 28" fill="none" xmlns="http://www.w3.org/2000/svg">
<path d="M14.0468 0C6.28161 0 0 6.4139 0 14.3426C0 20.6921 4.00887 26.0424 9.59603 27.944C10.2905 28.0729 10.5114 27.6539 10.5114 27.2671V24.7854C6.59727 25.6556 5.80812 22.8838 5.80812 22.8838C5.17681 21.24 4.2614 20.7888 4.2614 20.7888C2.99876 19.8863 4.35609 19.9185 4.35609 19.9185C5.77656 20.0152 6.50257 21.4012 6.50257 21.4012C7.76521 23.5928 9.78543 22.9482 10.5746 22.5937C10.7008 21.659 11.0796 21.0466 11.4584 20.6921C8.33339 20.3375 5.05054 19.1128 5.05054 13.6013C5.05054 12.022 5.58716 10.765 6.50257 9.76589C6.34474 9.41135 5.87126 7.96097 6.62884 5.96267C6.62884 5.96267 7.79677 5.5759 10.4799 7.44528C11.6162 7.12297 12.8158 6.96182 13.9837 6.96182C15.1832 6.96182 16.3827 7.12297 17.4875 7.44528C20.1706 5.5759 21.3385 5.96267 21.3385 5.96267C22.0961 7.92874 21.6226 9.41135 21.4648 9.76589C22.3486 10.765 22.9168 12.0543 22.9168 13.6013C22.9168 19.1128 19.634 20.3375 16.509 20.6921C17.014 21.1433 17.4559 22.0135 17.4559 23.335V27.2994C17.4559 27.6861 17.6769 28.1051 18.4029 27.9762C23.9901 26.0746 27.9989 20.6921 27.9989 14.3749C28.0936 6.4139 21.812 0 14.0468 0Z" fill="black"/>
</svg>
