<svg width="24" height="24" viewBox="0 0 24 24" fill="none" xmlns="http://www.w3.org/2000/svg">
<rect width="24" height="24" rx="8" fill="#2660FF"/>
<path fill-rule="evenodd" clip-rule="evenodd" d="M9.32159 6.75C9.32159 6.75 10.2332 11.4224 15.5 11.6347C15.5 13.9001 15.5 15.0328 15.5 15.0328C15.5 15.0328 8.50421 15.8702 7.1875 8.64925C8.61023 7.38308 9.32159 6.75 9.32159 6.75Z" fill="#B1CAFC"/>
<path d="M9.8125 7.51214C9.8125 6.60797 9.029 5.875 8.0625 5.875C7.096 5.875 6.3125 6.60797 6.3125 7.51214V16.4879C6.3125 17.392 7.096 18.125 8.0625 18.125C9.029 18.125 9.8125 17.392 9.8125 16.4879V7.51214Z" fill="white"/>
<path d="M17.6875 13.1816C17.6875 12.2874 16.904 11.5625 15.9375 11.5625C14.971 11.5625 14.1875 12.2874 14.1875 13.1816V16.5059C14.1875 17.4001 14.971 18.125 15.9375 18.125C16.904 18.125 17.6875 17.4001 17.6875 16.5059V13.1816Z" fill="white"/>
<path fill-rule="evenodd" clip-rule="evenodd" d="M17.6875 8.9375C17.6875 9.904 16.904 10.6875 15.9375 10.6875C14.971 10.6875 14.1875 9.904 14.1875 8.9375C14.1875 7.971 14.971 7.1875 15.9375 7.1875C16.904 7.1875 17.6875 7.971 17.6875 8.9375Z" fill="white"/>
</svg>
