<?xml version="1.0" standalone="no"?><!DOCTYPE svg PUBLIC "-//W3C//DTD SVG 1.1//EN" "http://www.w3.org/Graphics/SVG/1.1/DTD/svg11.dtd"><svg t="1761739538301" class="icon" viewBox="0 0 1024 1024" version="1.1" xmlns="http://www.w3.org/2000/svg" p-id="1476" xmlns:xlink="http://www.w3.org/1999/xlink" width="200" height="200"><path d="M128 179.2a128 128 0 0 1 128-128h399.850667a85.333333 85.333333 0 0 1 60.352 25.002667l154.794666 154.816A85.333333 85.333333 0 0 1 896 291.349333V844.8a128 128 0 0 1-128 128H256a128 128 0 0 1-128-128V179.2z" fill="#17992D" p-id="1477"></path><path d="M665.6 51.2c16.384 0 32.106667 6.528 43.712 18.112L793.6 153.6l84.309333 84.309333c11.584 11.584 18.090667 27.306667 18.090667 43.690667h-145.066667a85.333333 85.333333 0 0 1-85.333333-85.333333V51.2z" fill="#65D16D" p-id="1478"></path><path d="M392.213333 405.333333h52.544l68.736 100.224L582.250667 405.333333h52.544l-95.616 134.016L641.493333 682.666667h-52.544l-75.456-109.930667L438.037333 682.666667H385.493333l101.546667-143.317334L392.213333 405.333333z" fill="#FFFFFF" p-id="1479"></path></svg>