<?xml version="1.0" standalone="no"?><!DOCTYPE svg PUBLIC "-//W3C//DTD SVG 1.1//EN" "http://www.w3.org/Graphics/SVG/1.1/DTD/svg11.dtd"><svg t="1761739578994" class="icon" viewBox="0 0 1024 1024" version="1.1" xmlns="http://www.w3.org/2000/svg" p-id="1651" xmlns:xlink="http://www.w3.org/1999/xlink" width="200" height="200"><path d="M128 179.2a128 128 0 0 1 128-128h399.850667a85.333333 85.333333 0 0 1 60.352 25.002667l154.794666 154.816A85.333333 85.333333 0 0 1 896 291.349333V844.8a128 128 0 0 1-128 128H256a128 128 0 0 1-128-128V179.2z" fill="#6368EB" p-id="1652"></path><path d="M645.418667 448c21.76 0 38.4 7.168 49.92 22.016 10.496 13.312 15.872 32 15.872 55.808h-99.072c1.024 12.288 4.352 21.76 9.984 28.16 5.632 6.4 13.824 9.728 24.32 9.728 8.96 0 16.128-2.048 21.76-6.144 4.352-3.328 8.192-8.704 11.776-16.128h29.184a60.096 60.096 0 0 1-18.432 30.976c-11.776 9.984-26.368 15.104-44.032 15.104-19.712 0-35.328-6.144-46.848-18.176-12.288-12.544-18.432-29.696-18.432-51.712 0-19.712 5.632-36.096 17.408-49.408 11.264-13.568 26.88-20.224 46.592-20.224z m0.768 23.808c-9.728 0-17.152 2.56-22.784 8.192-5.376 5.376-8.96 13.312-10.752 23.808h68.096c-2.56-21.504-14.08-32-34.56-32zM443.392 451.584h34.048l27.648 40.448 27.392-40.448h34.048l-45.568 61.952 51.456 70.4h-34.304l-33.024-48.896-33.28 48.896h-34.304l51.456-70.4-45.568-61.952zM362.666667 448c21.76 0 38.4 7.168 49.92 22.016 10.496 13.312 15.872 32 15.872 55.808H329.386667c1.024 12.288 4.352 21.76 9.984 28.16 5.632 6.4 13.824 9.728 24.32 9.728 8.96 0 16.128-2.048 21.76-6.144 4.352-3.328 8.192-8.704 11.776-16.128h29.184a60.096 60.096 0 0 1-18.432 30.976c-11.776 9.984-26.368 15.104-44.032 15.104-19.712 0-35.328-6.144-46.848-18.176-12.288-12.544-18.432-29.696-18.432-51.712 0-19.712 5.632-36.096 17.408-49.408 11.264-13.568 26.88-20.224 46.592-20.224z m0.768 23.808c-9.728 0-17.152 2.56-22.784 8.192-5.376 5.376-8.96 13.312-10.752 23.808h68.096c-2.56-21.504-14.08-32-34.56-32z" fill="#FFFFFF" p-id="1653"></path><path d="M665.6 51.2c16.384 0 32.106667 6.528 43.712 18.112L793.6 153.6l84.309333 84.309333c11.584 11.584 18.090667 27.306667 18.090667 43.690667h-145.066667a85.333333 85.333333 0 0 1-85.333333-85.333333V51.2z" fill="#838AF0" p-id="1654"></path></svg>