<?xml version="1.0" standalone="no"?><!DOCTYPE svg PUBLIC "-//W3C//DTD SVG 1.1//EN" "http://www.w3.org/Graphics/SVG/1.1/DTD/svg11.dtd"><svg t="1761739622665" class="icon" viewBox="0 0 1024 1024" version="1.1" xmlns="http://www.w3.org/2000/svg" p-id="1798" xmlns:xlink="http://www.w3.org/1999/xlink" width="200" height="200"><path d="M128 179.2a128 128 0 0 1 128-128h399.850667a85.333333 85.333333 0 0 1 60.352 25.002667l154.794666 154.816A85.333333 85.333333 0 0 1 896 291.349333V844.8a128 128 0 0 1-128 128H256a128 128 0 0 1-128-128V179.2z" fill="#36C3FF" p-id="1799"></path><path d="M658.773333 453.632c23.552 0 41.984 5.12 55.552 15.616 13.056 10.24 21.248 25.344 24.576 45.824H708.693333c-2.56-11.776-8.192-20.48-16.384-26.368-8.448-5.888-19.712-8.704-33.536-8.704-17.152 0-30.72 5.632-40.704 17.408-11.008 12.288-16.384 29.44-16.384 51.968 0 21.504 4.864 38.144 14.592 49.664 10.496 12.288 26.88 18.432 49.152 18.432 8.704 0 16.896-1.024 24.576-3.072 7.168-2.048 13.568-4.864 19.712-8.448V568.32H661.333333v-25.6h78.336v77.312c-9.728 7.68-20.736 13.312-33.28 17.408a149.354667 149.354667 0 0 1-44.288 6.144c-29.184 0-51.712-9.216-67.84-27.648-15.104-17.152-22.528-39.424-22.528-66.56 0-27.392 7.424-49.92 22.528-67.584 15.872-18.944 37.376-28.16 64.512-28.16zM411.669333 457.216h75.776c44.032 0 66.304 18.688 66.304 56.064 0 37.632-22.272 56.576-66.816 56.576H441.6V640h-29.952v-182.784z m29.952 25.6v61.44h43.52c13.312 0 23.04-2.56 29.184-7.168 6.144-4.864 9.216-12.8 9.216-23.808 0-11.008-3.328-18.688-9.472-23.296-6.144-4.864-15.872-7.168-28.928-7.168H441.6zM345.856 457.216h29.952v123.648c0 20.992-4.352 36.352-13.056 46.592-9.728 10.752-25.088 16.128-46.336 16.128-18.432 0-32.512-5.12-41.984-15.36-9.728-10.24-14.592-24.32-14.592-42.24v-5.888h29.952v5.632c0 20.992 8.96 31.488 27.136 31.488 9.984 0 17.408-3.072 22.016-8.96 4.608-5.888 6.912-15.36 6.912-28.416v-122.624z" fill="#FFFFFF" p-id="1800"></path><path d="M665.6 51.2c16.384 0 32.106667 6.528 43.712 18.112L793.6 153.6l84.309333 84.309333c11.584 11.584 18.090667 27.306667 18.090667 43.690667h-145.066667a85.333333 85.333333 0 0 1-85.333333-85.333333V51.2z" fill="#63D5FF" p-id="1801"></path></svg>