<?xml version="1.0" standalone="no"?><!DOCTYPE svg PUBLIC "-//W3C//DTD SVG 1.1//EN" "http://www.w3.org/Graphics/SVG/1.1/DTD/svg11.dtd"><svg t="1761739654940" class="icon" viewBox="0 0 1024 1024" version="1.1" xmlns="http://www.w3.org/2000/svg" p-id="1945" xmlns:xlink="http://www.w3.org/1999/xlink" width="200" height="200"><path d="M128 179.2a128 128 0 0 1 128-128h399.850667a85.333333 85.333333 0 0 1 60.352 25.002667l154.794666 154.816A85.333333 85.333333 0 0 1 896 291.349333V844.8a128 128 0 0 1-128 128H256a128 128 0 0 1-128-128V179.2z" fill="#9A5EF5" p-id="1946"></path><path d="M615.829333 333.653333l-106.666666 17.770667a18.133333 18.133333 0 0 0-14.997334 17.770667l-0.170666 187.157333a68.032 68.032 0 0 0-35.392-9.386667 71.104 71.104 0 1 0 71.125333 71.125334l0.213333-162.88 91.328-15.466667a19.84 19.84 0 0 0 10.666667-6.101333 15.104 15.104 0 0 0 4.458667-11.114667v-71.104a17.834667 17.834667 0 0 0-20.565334-17.792z m-15.253333 38.570667l0.085333 35.072-70.933333 11.882667 0.064-35.242667 70.784-11.733333z" fill="#FFFFFF" p-id="1947"></path><path d="M665.6 51.2c16.384 0 32.106667 6.528 43.712 18.112L793.6 153.6l84.309333 84.309333c11.584 11.584 18.090667 27.306667 18.090667 43.690667h-145.066667a85.333333 85.333333 0 0 1-85.333333-85.333333V51.2z" fill="#B37FF7" p-id="1948"></path></svg>