<?xml version="1.0" standalone="no"?><!DOCTYPE svg PUBLIC "-//W3C//DTD SVG 1.1//EN" "http://www.w3.org/Graphics/SVG/1.1/DTD/svg11.dtd"><svg class="icon" width="200px" height="200.00px" viewBox="0 0 1024 1024" version="1.1" xmlns="http://www.w3.org/2000/svg"><path d="M643.669333 110.336l205.994667 205.994667A85.333333 85.333333 0 0 1 874.666667 376.682667V810.666667a128 128 0 0 1-128 128H277.333333a128 128 0 0 1-128-128V213.333333a128 128 0 0 1 128-128h305.984a85.333333 85.333333 0 0 1 60.352 25.002667z" fill="#FF5959" /><path d="M554.666667 128v234.666667a42.666667 42.666667 0 0 0 42.666666 42.666666h234.666667c38.016 0 57.045333-45.952 30.165333-72.832l-234.666666-234.666666C600.618667 70.954667 554.666667 89.984 554.666667 128z" fill="#FFB5AD" /><path d="M363.882667 757.632v-70.997333c3.733333 5.76 7.573333 10.112 11.498666 13.12 7.168 5.418667 16.170667 8.106667 26.986667 8.106666 17.002667 0 30.912-6.272 41.685333-18.858666 10.794667-12.586667 16.213333-30.869333 16.213334-54.869334 0-22.762667-5.546667-40-16.576-51.754666a53.376 53.376 0 0 0-40.448-17.621334c-10.901333 0-20.330667 3.029333-28.245334 9.109334a57.173333 57.173333 0 0 0-12.245333 14.016v-20.138667h-34.133333v189.866667h35.264z m29.12-79.637333c-6.826667 0-12.757333-1.877333-17.749334-5.610667-8.426667-6.421333-12.629333-17.557333-12.629333-33.386667 0-10.005333 1.258667-18.24 3.754667-24.746666 4.821333-12.245333 13.696-18.368 26.624-18.368 10.752 0 18.517333 4.053333 23.317333 12.117333 4.778667 8.085333 7.189333 17.365333 7.189333 27.882667 0 12.736-2.624 22.954667-7.829333 30.613333-5.205333 7.68-12.757333 11.52-22.677333 11.52zM533.76 708.266667c9.664 0 17.749333-1.834667 24.234667-5.504 6.506667-3.648 12.288-9.536 17.386666-17.621334V704h34.624v-184H573.866667v65.002667a43.264 43.264 0 0 0-15.616-15.061334 43.946667 43.946667 0 0 0-21.994667-5.44c-17.92 0-32.234667 6.656-42.944 19.989334s-16.064 31.637333-16.064 54.890666c0 20.16 5.44 36.693333 16.32 49.557334s24.256 19.306667 40.192 19.306666z m10.24-29.994667c-10.090667 0-17.6-3.776-22.570667-11.306667-4.949333-7.552-7.424-17.621333-7.424-30.186666 0-11.669333 2.432-21.44 7.317334-29.312 4.864-7.893333 12.501333-11.818667 22.933333-11.818667 6.826667 0 12.821333 2.154667 17.984 6.506667 8.426667 7.168 12.629333 19.072 12.629333 35.733333 0 11.925333-2.624 21.632-7.872 29.141333-5.248 7.488-12.906667 11.242667-22.997333 11.242667zM683.733333 704v-109.866667h23.381334v-25.130666h-23.36v-11.52c0-2.645333 0.896-5.077333 2.688-7.296 1.792-2.197333 5.034667-3.242667 9.749333-3.114667 4.693333 0.106667 8.064 0.298667 10.048 0.554667v-29.013334a742.826667 742.826667 0 0 0-7.488-0.554666 90.709333 90.709333 0 0 0-6.122667-0.192c-19.754667 0-32.213333 4.096-37.376 12.266666-4.906667 5.482667-7.381333 15.530667-7.381333 30.122667v8.746667h-19.498667v25.130666h19.882667V704h35.498667z" fill="#FFFFFF" /></svg>
