<?xml version="1.0" standalone="no"?><!DOCTYPE svg PUBLIC "-//W3C//DTD SVG 1.1//EN" "http://www.w3.org/Graphics/SVG/1.1/DTD/svg11.dtd"><svg t="1761739676210" class="icon" viewBox="0 0 1024 1024" version="1.1" xmlns="http://www.w3.org/2000/svg" p-id="2240" xmlns:xlink="http://www.w3.org/1999/xlink" width="200" height="200"><path d="M128 179.2a128 128 0 0 1 128-128h399.850667a85.333333 85.333333 0 0 1 60.352 25.002667l154.794666 154.816A85.333333 85.333333 0 0 1 896 291.349333V844.8a128 128 0 0 1-128 128H256a128 128 0 0 1-128-128V179.2z" fill="#FF7700" p-id="2241"></path><path d="M665.6 51.2c16.384 0 32.106667 6.528 43.712 18.112L793.6 153.6l84.309333 84.309333c11.584 11.584 18.090667 27.306667 18.090667 43.690667h-145.066667a85.333333 85.333333 0 0 1-85.333333-85.333333V51.2z" fill="#FFB35D" p-id="2242"></path><path d="M426.666667 426.666667h102.4c59.52 0 89.6 26.176 89.6 78.506666 0 52.714667-30.08 79.253333-90.282667 79.253334h-61.226667V682.666667H426.666667V426.666667z m40.469333 35.84v86.058666h58.816c17.984 0 31.146667-3.584 39.445333-10.026666 8.298667-6.826667 12.458667-17.92 12.458667-33.344s-4.501333-26.176-12.8-32.64c-8.32-6.826667-21.461333-10.026667-39.104-10.026667h-58.816z" fill="#FFFFFF" p-id="2243"></path></svg>