<?xml version="1.0" standalone="no"?><!DOCTYPE svg PUBLIC "-//W3C//DTD SVG 1.1//EN" "http://www.w3.org/Graphics/SVG/1.1/DTD/svg11.dtd"><svg t="1761708898528" class="icon" viewBox="0 0 1024 1024" version="1.1" xmlns="http://www.w3.org/2000/svg" p-id="10038" xmlns:xlink="http://www.w3.org/1999/xlink" width="200" height="200"><path d="M149.333333 881.066667a38.4 38.4 0 1 1 0-76.8h725.333334a38.4 38.4 0 1 1 0 76.8H149.333333zM219.733333 650.666667c0 2.346667 1.92 4.266667 4.266667 4.266666h21.333333a4.266667 4.266667 0 0 0 4.266667-4.266666V533.333333a4.266667 4.266667 0 0 0-4.266667-4.266666h-21.333333a4.266667 4.266667 0 0 0-4.266667 4.266666v117.333334zM142.933333 533.333333a81.066667 81.066667 0 0 1 81.066667-81.066666h21.333333a81.066667 81.066667 0 0 1 81.066667 81.066666v117.333334a81.066667 81.066667 0 0 1-81.066667 81.066666h-21.333333a81.066667 81.066667 0 0 1-81.066667-81.066666V533.333333zM475.733333 650.666667c0 2.346667 1.92 4.266667 4.266667 4.266666h42.666667a4.266667 4.266667 0 0 0 4.266666-4.266666v-426.666667a4.266667 4.266667 0 0 0-4.266666-4.266667h-42.666667a4.266667 4.266667 0 0 0-4.266667 4.266667v426.666667z m-76.8-426.666667a81.066667 81.066667 0 0 1 81.066667-81.066667h42.666667a81.066667 81.066667 0 0 1 81.066666 81.066667v426.666667a81.066667 81.066667 0 0 1-81.066666 81.066666h-42.666667a81.066667 81.066667 0 0 1-81.066667-81.066666v-426.666667zM753.066667 650.666667c0 2.346667 1.92 4.266667 4.266666 4.266666h42.666667a4.266667 4.266667 0 0 0 4.266667-4.266666V426.666667a4.266667 4.266667 0 0 0-4.266667-4.266667h-42.666667a4.266667 4.266667 0 0 0-4.266666 4.266667v224zM676.266667 426.666667a81.066667 81.066667 0 0 1 81.066666-81.066667h42.666667a81.066667 81.066667 0 0 1 81.066667 81.066667v224a81.066667 81.066667 0 0 1-81.066667 81.066666h-42.666667a81.066667 81.066667 0 0 1-81.066666-81.066666V426.666667z" p-id="10039"></path></svg>