<?xml version="1.0" standalone="no"?><!DOCTYPE svg PUBLIC "-//W3C//DTD SVG 1.1//EN" "http://www.w3.org/Graphics/SVG/1.1/DTD/svg11.dtd"><svg t="1761708942016" class="icon" viewBox="0 0 1045 1024" version="1.1" xmlns="http://www.w3.org/2000/svg" p-id="10211" xmlns:xlink="http://www.w3.org/1999/xlink" width="204.1015625" height="200"><path d="M900.309333 781.013333a38.4 38.4 0 1 1 0 76.8h-768a38.4 38.4 0 1 1 0-76.8h768zM850.56 180.330667a38.4 38.4 0 0 1 59.52 48.490666L647.914667 550.848a59.733333 59.733333 0 0 1-95.914667-4.394667L386.325333 299.946667 183.829333 557.589333a38.4 38.4 0 0 1-60.373333-47.466666l216.981333-276.053334 2.410667-2.901333a59.733333 59.733333 0 0 1 94.122667 6.485333l165.930666 246.826667L850.538667 180.330667z" p-id="10212"></path></svg>