<?xml version="1.0" standalone="no"?><!DOCTYPE svg PUBLIC "-//W3C//DTD SVG 1.1//EN" "http://www.w3.org/Graphics/SVG/1.1/DTD/svg11.dtd"><svg t="1761708995653" class="icon" viewBox="0 0 1024 1024" version="1.1" xmlns="http://www.w3.org/2000/svg" p-id="10501" xmlns:xlink="http://www.w3.org/1999/xlink" width="200" height="200"><path d="M676.266667 266.666667V128a38.4 38.4 0 1 1 76.8 0v138.666667a38.4 38.4 0 1 1-76.8 0zM753.066667 757.333333V896a38.4 38.4 0 1 1-76.8 0v-138.666667a38.4 38.4 0 1 1 76.8 0zM270.933333 384v-128a38.4 38.4 0 1 1 76.8 0v128a38.4 38.4 0 1 1-76.8 0zM270.933333 768v-128a38.4 38.4 0 1 1 76.8 0v128a38.4 38.4 0 1 1-76.8 0z" p-id="10502"></path><path d="M388.266667 426.666667a4.266667 4.266667 0 0 0-4.266667-4.266667h-149.333333a4.266667 4.266667 0 0 0-4.266667 4.266667v170.666666c0 2.346667 1.92 4.266667 4.266667 4.266667h149.333333a4.266667 4.266667 0 0 0 4.266667-4.266667v-170.666666z m76.8 170.666666a81.066667 81.066667 0 0 1-81.066667 81.066667h-149.333333A81.066667 81.066667 0 0 1 153.6 597.333333v-170.666666a81.066667 81.066667 0 0 1 81.066667-81.066667h149.333333a81.066667 81.066667 0 0 1 81.066667 81.066667v170.666666zM793.6 341.333333a4.266667 4.266667 0 0 0-4.266667-4.266666h-149.333333a4.266667 4.266667 0 0 0-4.266667 4.266666v341.333334c0 2.346667 1.92 4.266667 4.266667 4.266666h149.333333a4.266667 4.266667 0 0 0 4.266667-4.266666V341.333333z m76.8 341.333334a81.066667 81.066667 0 0 1-81.066667 81.066666h-149.333333a81.066667 81.066667 0 0 1-81.066667-81.066666V341.333333a81.066667 81.066667 0 0 1 81.066667-81.066666h149.333333a81.066667 81.066667 0 0 1 81.066667 81.066666v341.333334z" p-id="10503"></path></svg>