<svg preserveAspectRatio="none" width="100%" height="100%" overflow="visible" viewBox="0 0 77.0093 80.0161" fill="none" xmlns="http://www.w3.org/2000/svg">
<g>
<g filter="url(#filter0_di_load_fail)">
<path d="M26.998 37.1643L37.3252 15.1125C37.584 14.56 37.1807 13.9258 36.5705 13.9258H8.50467C4.82277 13.9258 1.83801 16.9105 1.83801 20.5924V67.2591C1.83801 70.941 4.82277 73.9258 8.50467 73.9258H28.7852C29.082 73.9258 29.3562 73.7682 29.5049 73.5114C30.5677 71.6757 34.9407 64.0917 38.286 57.8279C38.4225 57.5722 38.415 57.2652 38.2679 57.0154L27.0346 37.9406C26.8951 37.7038 26.8814 37.4133 26.998 37.1643Z" fill="#EDEFF2"/>
</g>
<path d="M36.5703 13.7174C37.333 13.7174 37.8377 14.5103 37.5143 15.201L27.1863 37.2526C27.0989 37.4393 27.1094 37.6576 27.214 37.8353L38.4477 56.91C38.6311 57.2217 38.6407 57.6062 38.4697 57.9264C35.1227 64.1934 30.7485 71.7798 29.6855 73.6157C29.4995 73.937 29.1562 74.134 28.7854 74.1341H8.50467C4.70772 74.1341 1.62967 71.0561 1.62967 67.2591V20.5924C1.62967 16.7955 4.70772 13.7174 8.50467 13.7174H36.5703ZM2.04634 67.2591C2.04634 70.826 4.93784 73.7174 8.50467 73.7174H28.7854C29.008 73.7174 29.2137 73.5995 29.325 73.4074C30.3877 71.5718 34.7584 63.9898 38.1018 57.7295C38.2039 57.5384 38.1986 57.3086 38.088 57.1208L26.8551 38.0461C26.6808 37.75 26.6638 37.3871 26.8095 37.076L37.1367 15.0244C37.3308 14.61 37.0279 14.1341 36.5703 14.1341H8.50467C4.93783 14.1341 2.04634 17.0256 2.04634 20.5924V67.2591Z" fill="#91959E"/>
<path d="M18.1393 45.3841C18.2543 45.3841 18.3476 45.4774 18.3476 45.5924C18.3476 45.7075 18.2543 45.8007 18.1393 45.8008H8.50467C8.38961 45.8008 8.29634 45.7075 8.29634 45.5924C8.29634 45.4774 8.38961 45.3841 8.50467 45.3841H18.1393Z" fill="#60636B"/>
<path d="M27.2847 26.5177C27.3997 26.5178 27.493 26.6111 27.493 26.7261C27.493 26.8411 27.3997 26.9343 27.2847 26.9344L5.17124 26.9344C5.05618 26.9344 4.96291 26.8411 4.96291 26.7261C4.96291 26.611 5.05618 26.5177 5.17124 26.5177L27.2847 26.5177Z" fill="#91959E"/>
<path d="M18.1393 52.4984C18.2543 52.4984 18.3476 52.5917 18.3476 52.7067C18.3476 52.8217 18.2543 52.915 18.1393 52.915H8.50467C8.38961 52.915 8.29634 52.8218 8.29634 52.7067C8.29634 52.5916 8.38961 52.4984 8.50467 52.4984H18.1393Z" fill="#60636B"/>
<path d="M24.8755 52.4982C24.9906 52.4982 25.0839 52.5914 25.0839 52.7065C25.0839 52.8216 24.9906 52.9148 24.8755 52.9148H21.6643C21.5492 52.9148 21.4559 52.8216 21.4559 52.7065C21.4559 52.5914 21.5492 52.4982 21.6643 52.4982H24.8755Z" fill="#60636B"/>
<g filter="url(#filter1_di_load_fail)">
<path d="M33.69 37.2099L43.4597 16.0761C43.596 15.7812 43.8913 15.5924 44.2161 15.5924H61.838C65.5199 15.5924 68.5047 18.5772 68.5047 22.2591V68.9258C68.5047 72.6077 65.5199 75.5924 61.838 75.5924H36.4942C35.866 75.5924 35.4637 74.9238 35.758 74.3688L44.8442 57.2302C44.9812 56.9718 44.9727 56.6606 44.8219 56.4101L33.7325 37.9893C33.59 37.7526 33.5741 37.4607 33.69 37.2099Z" fill="#EDEFF2"/>
<path d="M33.69 37.2099L43.4597 16.0761C43.596 15.7812 43.8913 15.5924 44.2161 15.5924H61.838C65.5199 15.5924 68.5047 18.5772 68.5047 22.2591V68.9258C68.5047 72.6077 65.5199 75.5924 61.838 75.5924H36.4942C35.866 75.5924 35.4637 74.9238 35.758 74.3688L44.8442 57.2302C44.9812 56.9718 44.9727 56.6606 44.8219 56.4101L33.7325 37.9893C33.59 37.7526 33.5741 37.4607 33.69 37.2099Z" stroke="#91959E" stroke-width="0.416667" stroke-linecap="round"/>
</g>
<path d="M68.2963 22.2591C68.2963 18.6923 65.4048 15.8008 61.838 15.8008H44.2159C43.9724 15.8008 43.7509 15.9426 43.6487 16.1637L33.879 37.2974C33.7922 37.4853 33.8041 37.7042 33.9108 37.8817L45.0004 56.3029C45.1888 56.616 45.1992 57.0046 45.0281 57.3275L35.942 74.4661C35.7213 74.8824 36.0234 75.3841 36.4946 75.3841H61.838C65.4048 75.3841 68.2963 72.4926 68.2963 68.9258V22.2591ZM68.713 68.9258C68.713 72.7227 65.635 75.8008 61.838 75.8008H36.4946C35.7093 75.8008 35.2064 74.9646 35.5742 74.2708L44.6603 57.133C44.763 56.9392 44.7563 56.7056 44.6432 56.5177L33.5543 38.0965C33.3762 37.8007 33.3557 37.4358 33.5006 37.1224L43.2703 15.9888C43.4407 15.6202 43.8099 15.3842 44.2159 15.3841H61.838C65.635 15.3841 68.713 18.4622 68.713 22.2591V68.9258Z" fill="#91959E"/>
<path d="M65.1711 26.5177C65.2862 26.5177 65.3795 26.611 65.3795 26.7261C65.3795 26.8411 65.2862 26.9344 65.1711 26.9344L40.9337 26.9344C40.8186 26.9344 40.7253 26.8411 40.7253 26.7261C40.7253 26.611 40.8186 26.5177 40.9337 26.5177L65.1711 26.5177Z" fill="#91959E"/>
<path d="M10.7963 20.1758C10.7963 19.6005 10.33 19.1341 9.75467 19.1341C9.17938 19.1341 8.71301 19.6005 8.71301 20.1758C8.71301 20.7511 9.17938 21.2174 9.75467 21.2174C10.33 21.2174 10.7963 20.7511 10.7963 20.1758ZM11.213 20.1758C11.213 20.9812 10.5601 21.6341 9.75467 21.6341C8.94926 21.6341 8.29634 20.9812 8.29634 20.1758C8.29634 19.3704 8.94926 18.7174 9.75467 18.7174C10.5601 18.7174 11.213 19.3704 11.213 20.1758Z" fill="#60636B"/>
<path d="M15.7963 20.1758C15.7963 19.6005 15.33 19.1341 14.7547 19.1341C14.1794 19.1341 13.713 19.6005 13.713 20.1758C13.713 20.7511 14.1794 21.2174 14.7547 21.2174C15.33 21.2174 15.7963 20.7511 15.7963 20.1758ZM16.213 20.1758C16.213 20.9812 15.5601 21.6341 14.7547 21.6341C13.9493 21.6341 13.2963 20.9812 13.2963 20.1758C13.2963 19.3704 13.9493 18.7174 14.7547 18.7174C15.5601 18.7174 16.213 19.3704 16.213 20.1758Z" fill="#60636B"/>
<path d="M20.7963 20.1758C20.7963 19.6005 20.33 19.1341 19.7547 19.1341C19.1794 19.1341 18.713 19.6005 18.713 20.1758C18.713 20.7511 19.1794 21.2174 19.7547 21.2174C20.33 21.2174 20.7963 20.7511 20.7963 20.1758ZM21.213 20.1758C21.213 20.9812 20.5601 21.6341 19.7547 21.6341C18.9493 21.6341 18.2963 20.9812 18.2963 20.1758C18.2963 19.3704 18.9493 18.7174 19.7547 18.7174C20.5601 18.7174 21.213 19.3704 21.213 20.1758Z" fill="#60636B"/>
<path d="M54.1285 3.46867C52.9297 4.5499 52.3188 5.09049 51.7074 5.63113C51.0949 6.1728 50.4817 6.71513 49.2801 7.79892C49.1085 7.95386 49.0864 8.22318 49.2307 8.40079C49.3751 8.57844 49.631 8.59673 49.8028 8.4418C51.0016 7.36054 51.6129 6.82069 52.2243 6.28003C52.8367 5.73845 53.4496 5.19624 54.6509 4.11271C54.8226 3.95786 54.8451 3.68803 54.701 3.51037C54.5567 3.33282 54.3002 3.31401 54.1285 3.46867Z" fill="url(#paint0_linear_load_fail)"/>
<path d="M44.3884 0.192771C44.18 0.109444 43.9431 0.220909 43.8599 0.441413L41.4867 6.73679C41.4036 6.95729 41.5054 7.20417 41.7139 7.2875C41.9222 7.37066 42.1581 7.25903 42.2412 7.03863L44.6155 0.743483C44.6986 0.522979 44.5968 0.276099 44.3884 0.192771Z" fill="url(#paint1_linear_load_fail)"/>
<path d="M31.0006 1.89735C30.7985 2.00312 30.7133 2.25963 30.8102 2.47024L32.6312 6.42925C32.7282 6.63983 32.9709 6.7246 33.1732 6.61895C33.3753 6.51326 33.4608 6.25732 33.3641 6.04676L31.5426 2.08705C31.4456 1.87656 31.2029 1.79172 31.0006 1.89735Z" fill="url(#paint2_linear_load_fail)"/>
<g filter="url(#filter2_di_load_fail)">
<path d="M75.1713 62.2591C75.1713 70.5434 68.4556 77.2591 60.1713 77.2591C56.4652 77.2591 53.073 75.915 50.4555 73.6877C47.2223 70.9363 45.1713 66.8372 45.1713 62.2591C45.1713 53.9748 51.8871 47.2591 60.1713 47.2591C68.4556 47.2591 75.1713 53.9748 75.1713 62.2591Z" fill="white"/>
</g>
<path d="M74.963 62.2591C74.963 54.0899 68.3405 47.4674 60.1713 47.4674C52.0021 47.4674 45.3797 54.0899 45.3797 62.2591C45.3797 66.7735 47.4019 70.8152 50.5904 73.5286C53.1716 75.7251 56.5165 77.0508 60.1713 77.0508C68.3405 77.0508 74.963 70.4283 74.963 62.2591ZM75.3797 62.2591C75.3797 70.6584 68.5707 77.4674 60.1713 77.4674C56.4139 77.4674 52.9739 76.1042 50.3203 73.846C47.0427 71.0568 44.963 66.9007 44.963 62.2591C44.963 53.8598 51.772 47.0508 60.1713 47.0508C68.5707 47.0508 75.3797 53.8598 75.3797 62.2591Z" fill="#91959E"/>
<path d="M60.3192 67.1476C61.2306 67.1478 61.9696 67.9024 61.9696 68.8331C61.9695 69.7637 61.2305 70.5175 60.3192 70.5177C59.4078 70.5177 58.669 69.7638 58.6689 68.8331C58.6689 67.9023 59.4077 67.1476 60.3192 67.1476ZM60.3192 53.6632C61.2305 53.6634 61.9694 54.4024 61.9696 55.3136V63.8107C61.9696 64.7221 61.2306 65.4609 60.3192 65.4611C59.4077 65.4611 58.6689 64.7222 58.6689 63.8107V55.3136C58.6691 54.4023 59.4079 53.6632 60.3192 53.6632Z" fill="#DBDDE0"/>
</g>
<defs>
<filter id="filter0_di_load_fail" x="0" y="13.0068" width="40.2215" height="63.676" filterUnits="userSpaceOnUse" color-interpolation-filters="sRGB">
<feFlood flood-opacity="0" result="BackgroundImageFix"/>
<feColorMatrix in="SourceAlpha" type="matrix" values="0 0 0 0 0 0 0 0 0 0 0 0 0 0 0 0 0 0 127 0" result="hardAlpha"/>
<feOffset dy="0.919003"/>
<feGaussianBlur stdDeviation="0.919003"/>
<feComposite in2="hardAlpha" operator="out"/>
<feColorMatrix type="matrix" values="0 0 0 0 0.101961 0 0 0 0 0.113725 0 0 0 0 0.14902 0 0 0 0.1 0"/>
<feBlend mode="normal" in2="BackgroundImageFix" result="effect1_dropShadow_load_fail"/>
<feBlend mode="normal" in="SourceGraphic" in2="effect1_dropShadow_load_fail" result="shape"/>
<feColorMatrix in="SourceAlpha" type="matrix" values="0 0 0 0 0 0 0 0 0 0 0 0 0 0 0 0 0 0 127 0" result="hardAlpha"/>
<feOffset dy="0.919003"/>
<feComposite in2="hardAlpha" operator="arithmetic" k2="-1" k3="1"/>
<feColorMatrix type="matrix" values="0 0 0 0 1 0 0 0 0 1 0 0 0 0 1 0 0 0 1 0"/>
<feBlend mode="normal" in2="shape" result="effect2_innerShadow_load_fail"/>
</filter>
<filter id="filter1_di_load_fail" x="31.5668" y="14.4651" width="38.9842" height="64.0927" filterUnits="userSpaceOnUse" color-interpolation-filters="sRGB">
<feFlood flood-opacity="0" result="BackgroundImageFix"/>
<feColorMatrix in="SourceAlpha" type="matrix" values="0 0 0 0 0 0 0 0 0 0 0 0 0 0 0 0 0 0 127 0" result="hardAlpha"/>
<feOffset dy="0.919003"/>
<feGaussianBlur stdDeviation="0.919003"/>
<feComposite in2="hardAlpha" operator="out"/>
<feColorMatrix type="matrix" values="0 0 0 0 0.101961 0 0 0 0 0.113725 0 0 0 0 0.14902 0 0 0 0.1 0"/>
<feBlend mode="normal" in2="BackgroundImageFix" result="effect1_dropShadow_load_fail_2"/>
<feBlend mode="normal" in="SourceGraphic" in2="effect1_dropShadow_load_fail_2" result="shape"/>
<feColorMatrix in="SourceAlpha" type="matrix" values="0 0 0 0 0 0 0 0 0 0 0 0 0 0 0 0 0 0 127 0" result="hardAlpha"/>
<feOffset dy="0.919003"/>
<feComposite in2="hardAlpha" operator="arithmetic" k2="-1" k3="1"/>
<feColorMatrix type="matrix" values="0 0 0 0 1 0 0 0 0 1 0 0 0 0 1 0 0 0 1 0"/>
<feBlend mode="normal" in2="shape" result="effect2_innerShadow_load_fail_2"/>
</filter>
<filter id="filter2_di_load_fail" x="43.3333" y="46.3401" width="33.676" height="33.676" filterUnits="userSpaceOnUse" color-interpolation-filters="sRGB">
<feFlood flood-opacity="0" result="BackgroundImageFix"/>
<feColorMatrix in="SourceAlpha" type="matrix" values="0 0 0 0 0 0 0 0 0 0 0 0 0 0 0 0 0 0 127 0" result="hardAlpha"/>
<feOffset dy="0.919003"/>
<feGaussianBlur stdDeviation="0.919003"/>
<feComposite in2="hardAlpha" operator="out"/>
<feColorMatrix type="matrix" values="0 0 0 0 0.101961 0 0 0 0 0.113725 0 0 0 0 0.14902 0 0 0 0.1 0"/>
<feBlend mode="normal" in2="BackgroundImageFix" result="effect1_dropShadow_load_fail_3"/>
<feBlend mode="normal" in="SourceGraphic" in2="effect1_dropShadow_load_fail_3" result="shape"/>
<feColorMatrix in="SourceAlpha" type="matrix" values="0 0 0 0 0 0 0 0 0 0 0 0 0 0 0 0 0 0 127 0" result="hardAlpha"/>
<feOffset dy="0.919003"/>
<feComposite in2="hardAlpha" operator="arithmetic" k2="-1" k3="1"/>
<feColorMatrix type="matrix" values="0 0 0 0 1 0 0 0 0 1 0 0 0 0 1 0 0 0 1 0"/>
<feBlend mode="normal" in2="shape" result="effect2_innerShadow_load_fail_3"/>
</filter>
<linearGradient id="paint0_linear_load_fail" x1="55.3782" y1="3.09434" x2="47.68" y2="8.5567" gradientUnits="userSpaceOnUse">
<stop stop-color="#ABADB2"/>
<stop offset="1" stop-color="#ABADB2" stop-opacity="0"/>
</linearGradient>
<linearGradient id="paint1_linear_load_fail" x1="44.3636" y1="-0.313444" x2="40.5499" y2="8.43399" gradientUnits="userSpaceOnUse">
<stop stop-color="#ABADB2"/>
<stop offset="1" stop-color="#ABADB2" stop-opacity="0"/>
</linearGradient>
<linearGradient id="paint2_linear_load_fail" x1="30.7371" y1="1.13901" x2="34.1197" y2="8.68412" gradientUnits="userSpaceOnUse">
<stop stop-color="#ABADB2"/>
<stop offset="1" stop-color="#ABADB2" stop-opacity="0"/>
</linearGradient>
</defs>
</svg>
