<svg preserveAspectRatio="none" width="100%" height="100%" overflow="visible" style="display: block;" viewBox="0 0 92.4112 95.9061" fill="none" xmlns="http://www.w3.org/2000/svg">
<g id="Group 1565016">
<g id="Rectangle 2399" filter="url(#filter0_di_0_2375)">
<path d="M2.20561 24.5977C2.20561 20.1794 5.78733 16.5977 10.2056 16.5977H74.2056C78.6239 16.5977 82.2056 20.1794 82.2056 24.5977V82.5977C82.2056 87.0159 78.6239 90.5977 74.2056 90.5977H10.2056C5.78733 90.5977 2.20561 87.0159 2.20561 82.5977V24.5977Z" fill="var(--fill-0, #EDEFF2)" style="fill:#EDEFF2;fill:color(display-p3 0.9294 0.9373 0.9490);fill-opacity:1;"/>
</g>
<path id="Rectangle 2403 (Stroke)" d="M81.9556 24.5977C81.9556 20.3175 78.4858 16.8477 74.2056 16.8477H10.2056C5.9254 16.8477 2.45561 20.3174 2.45561 24.5977V82.5977C2.45561 86.8779 5.9254 90.3477 10.2056 90.3477H74.2056C78.4858 90.3477 81.9556 86.8779 81.9556 82.5977V24.5977ZM82.4556 82.5977C82.4556 87.154 78.762 90.8477 74.2056 90.8477H10.2056C5.64926 90.8477 1.95561 87.154 1.95561 82.5977V24.5977C1.95561 20.0413 5.64926 16.3477 10.2056 16.3477H74.2056C78.762 16.3477 82.4556 20.0413 82.4556 24.5977V82.5977Z" fill="var(--fill-0, #91959E)" style="fill:#91959E;fill:color(display-p3 0.5686 0.5843 0.6196);fill-opacity:1;"/>
<path id="Vector 1369 (Stroke)" d="M66.2056 41.3477C66.3437 41.3477 66.4556 41.4596 66.4556 41.5977C66.4556 41.7357 66.3437 41.8477 66.2056 41.8477H30.2056C30.0675 41.8477 29.9556 41.7357 29.9556 41.5977C29.9556 41.4596 30.0675 41.3477 30.2056 41.3477H66.2056Z" fill="var(--fill-0, #60636B)" style="fill:#60636B;fill:color(display-p3 0.3765 0.3882 0.4196);fill-opacity:1;"/>
<path id="Vector 1370 (Stroke)" d="M50.2056 49.3477C50.3437 49.3477 50.4556 49.4596 50.4556 49.5977C50.4556 49.7357 50.3437 49.8477 50.2056 49.8477H30.2056C30.0675 49.8477 29.9556 49.7357 29.9556 49.5977C29.9556 49.4596 30.0675 49.3477 30.2056 49.3477H50.2056Z" fill="var(--fill-0, #60636B)" style="fill:#60636B;fill:color(display-p3 0.3765 0.3882 0.4196);fill-opacity:1;"/>
<path id="Vector 1364 (Stroke)" d="M78.2056 31.3477C78.3437 31.3477 78.4556 31.4596 78.4556 31.5977C78.4556 31.7357 78.3437 31.8477 78.2056 31.8477L6.20561 31.8477C6.06754 31.8477 5.95561 31.7357 5.95561 31.5977C5.95561 31.4596 6.06754 31.3477 6.20561 31.3477L78.2056 31.3477Z" fill="var(--fill-0, #91959E)" style="fill:#91959E;fill:color(display-p3 0.5686 0.5843 0.6196);fill-opacity:1;"/>
<path id="Ellipse 3 (Stroke)" d="M12.9556 24.0996C12.9556 23.4093 12.396 22.8496 11.7056 22.8496C11.0153 22.8496 10.4556 23.4093 10.4556 24.0996C10.4556 24.79 11.0153 25.3496 11.7056 25.3496C12.396 25.3496 12.9556 24.79 12.9556 24.0996ZM13.4556 24.0996C13.4556 25.0661 12.6721 25.8496 11.7056 25.8496C10.7391 25.8496 9.95561 25.0661 9.95561 24.0996C9.95561 23.1331 10.7391 22.3496 11.7056 22.3496C12.6721 22.3496 13.4556 23.1331 13.4556 24.0996Z" fill="var(--fill-0, #60636B)" style="fill:#60636B;fill:color(display-p3 0.3765 0.3882 0.4196);fill-opacity:1;"/>
<path id="Ellipse 4 (Stroke)" d="M18.9556 24.0977C18.9556 23.4073 18.396 22.8477 17.7056 22.8477C17.0153 22.8477 16.4556 23.4073 16.4556 24.0977C16.4556 24.788 17.0153 25.3477 17.7056 25.3477C18.396 25.3477 18.9556 24.788 18.9556 24.0977ZM19.4556 24.0977C19.4556 25.0642 18.6721 25.8477 17.7056 25.8477C16.7391 25.8477 15.9556 25.0642 15.9556 24.0977C15.95561 23.1312 16.7391 22.3477 17.7056 22.3477C18.6721 22.3477 19.4556 23.1312 19.4556 24.0977Z" fill="var(--fill-0, #60636B)" style="fill:#60636B;fill:color(display-p3 0.3765 0.3882 0.4196);fill-opacity:1;"/>
<path id="Ellipse 6 (Stroke)" d="M24.9556 24.0986C24.9556 23.4083 24.396 22.8486 23.7056 22.8486C23.0153 22.8486 22.4556 23.4083 22.4556 24.0986C22.4556 24.789 23.0153 25.3486 23.7056 25.3486C24.396 25.3486 24.9556 24.789 24.9556 24.0986ZM25.4556 24.0986C25.4556 25.0651 24.6721 25.8486 23.7056 25.8486C22.7391 25.8486 21.9556 25.0651 21.9556 24.0986C21.9556 23.1321 22.7391 22.3486 23.7056 22.3486C24.6721 22.3486 25.4556 23.1321 25.4556 24.0986Z" fill="var(--fill-0, #60636B)" style="fill:#60636B;fill:color(display-p3 0.3765 0.3882 0.4196);fill-opacity:1;"/>
<path id="Vector 306 (Stroke)" d="M89.2328 10.1277C87.2537 10.8392 86.2497 11.189 85.2454 11.5392C84.2393 11.8901 83.2322 12.2418 81.2488 12.9548C80.9871 13.0489 80.8468 13.3352 80.9358 13.5944C81.0249 13.8536 81.3092 13.9878 81.5709 13.8939C83.5501 13.1824 84.5538 12.8316 85.5581 12.4814C86.5642 12.1306 87.5715 11.7798 89.5549 11.0668C89.8166 10.9727 89.9568 10.6863 89.8679 10.4271C89.7789 10.168 89.4945 10.0338 89.2328 10.1277Z" fill="url(#paint0_linear_0_2375)"/>
<path id="Vector 307 (Stroke)" d="M81.0145 0.158716C80.7743 0.0269371 80.4681 0.116607 80.3311 0.358863L76.0688 7.89823C75.9318 8.14048 76.0156 8.44415 76.2558 8.57596C76.496 8.70774 76.8021 8.61808 76.9391 8.37581L81.2014 0.836449C81.3384 0.59418 81.2546 0.290508 81.0145 0.158716Z" fill="url(#paint1_linear_0_2375)"/>
<path id="Vector 308 (Stroke)" d="M66.0818 1.17622C65.8142 1.2498 65.6523 1.52422 65.7204 1.7899L67.1366 7.30725C67.2048 7.57306 67.477 7.72981 67.7449 7.6565C68.0129 7.58311 68.1744 7.30773 68.1062 7.04187L66.6909 1.5243C66.6227 1.25845 66.3498 1.10282 66.0818 1.17622Z" fill="url(#paint2_linear_0_2375)"/>
<g id="Ellipse 5" filter="url(#filter1_di_0_2375)">
<path d="M90.2056 74.5977C90.2056 84.5388 82.1467 92.5977 72.2056 92.5977C67.7582 92.5977 63.6876 90.9847 60.5467 88.3119C56.6668 85.0103 54.2056 80.0914 54.2056 74.5977C54.2056 64.6565 62.2645 56.5977 72.2056 56.5977C82.1467 56.5977 90.2056 64.6565 90.2056 74.5977Z" fill="var(--fill-0, white)" style="fill:white;fill-opacity:1;"/>
</g>
<path id="Ellipse 7 (Stroke)" d="M89.9556 74.5977C89.9556 64.7946 82.0087 56.8477 72.2056 56.8477C62.4026 56.8477 54.4556 64.7946 54.4556 74.5977C54.4556 80.0149 56.8823 84.8649 60.7085 88.1211C63.8059 90.7569 67.8198 92.3477 72.2056 92.3477C82.0087 92.3477 89.9556 84.4007 89.9556 74.5977ZM90.4556 74.5977C90.4556 84.6769 82.2848 92.8477 72.2056 92.8477C67.6967 92.8477 63.5687 91.2118 60.3843 88.502C56.4512 85.1548 53.9556 80.1676 53.9556 74.5977C53.9556 64.5185 62.1264 56.3477 72.2056 56.3477C82.2848 56.3477 90.4556 64.5185 90.4556 74.5977Z" fill="var(--fill-0, #91959E)" style="fill:#91959E;fill:color(display-p3 0.5686 0.5843 0.6196);fill-opacity:1;"/>
<path id="Rectangle 2401 (Stroke)" d="M21.9556 42.5977C21.9556 41.0789 20.7244 39.8477 19.2056 39.8477H13.2056C11.6868 39.8477 10.4556 41.0789 10.4556 42.5977V48.5977C10.4556 50.1164 11.6868 51.3477 13.2056 51.3477H19.2056C20.7244 51.3477 21.9556 50.1164 21.9556 48.5977V42.5977ZM22.4556 48.5977C22.4556 50.3926 21.0005 51.8477 19.2056 51.8477H13.2056C11.4107 51.8477 9.95561 50.3926 9.95561 48.5977V42.5977C9.95561 40.8027 11.4107 39.3477 13.2056 39.3477H19.2056C21.0005 39.3477 22.4556 40.8027 22.4556 42.5977V48.5977Z" fill="var(--fill-0, #60636B)" style="fill:#60636B;fill:color(display-p3 0.3765 0.3882 0.4196);fill-opacity:1;"/>
<path id="Rectangle 2402 (Stroke)" d="M47.9556 63.5977C47.9556 62.0789 46.7244 60.8477 45.2056 60.8477H13.2056C11.6868 60.8477 10.4556 62.0789 10.4556 63.5977V69.5977C10.4556 71.1164 11.6868 72.3477 13.2056 72.3477H45.2056C46.7244 72.3477 47.9556 71.1164 47.9556 69.5977V63.5977ZM48.4556 69.5977C48.4556 71.3926 47.0005 72.8477 45.2056 72.8477H13.2056C11.4107 72.8477 9.95561 71.3926 9.95561 69.5977V63.5977C9.95561 61.8027 11.4107 60.3477 13.2056 60.3477H45.2056C47.0005 60.3477 48.4556 61.8027 48.4556 63.5977V69.5977Z" fill="var(--fill-0, #60636B)" style="fill:#60636B;fill:color(display-p3 0.3765 0.3882 0.4196);fill-opacity:1;"/>
<path id="Union" d="M72.7056 82.5977C73.534 82.5977 74.2056 83.2692 74.2056 84.0977C74.2056 84.9261 73.534 85.5977 72.7056 85.5977C71.8772 85.5977 71.2056 84.9261 71.2056 84.0977C71.2056 83.2692 71.8772 82.5977 72.7056 82.5977ZM72.7056 64.5977C76.1591 64.5977 79.2055 67.1762 79.2056 70.6475C79.2056 72.7737 78.0356 74.5945 76.355 75.6562C75.7159 76.06 75.1464 76.5025 74.7496 76.9717C74.3593 77.433 74.2057 77.8333 74.2056 78.1973V79.0977C74.2056 79.9261 73.534 80.5977 72.7056 80.5977C71.8772 80.5977 71.2056 79.9261 71.2056 79.0977V78.1973C71.2057 76.9046 71.7761 75.8421 72.4595 75.0342C73.1363 74.2342 73.9912 73.6011 74.7525 73.1201C75.6729 72.5387 76.2056 71.6209 76.2056 70.6475C76.2055 69.0931 74.7748 67.5977 72.7056 67.5977C70.6364 67.5977 69.2057 69.0931 69.2056 70.6475C69.2056 71.4759 68.534 72.1475 67.7056 72.1475C66.8772 72.1475 66.2056 71.4759 66.2056 70.6475C66.2057 67.1762 69.2521 64.5977 72.7056 64.5977Z" fill="var(--fill-0, #DBDDE0)" style="fill:#DBDDE0;fill:color(display-p3 0.8588 0.8667 0.8784);fill-opacity:1;"/>
</g>
<defs>
<filter id="filter0_di_0_2375" x="0" y="15.4949" width="84.4112" height="78.4112" filterUnits="userSpaceOnUse" color-interpolation-filters="sRGB">
<feFlood flood-opacity="0" result="BackgroundImageFix"/>
<feColorMatrix in="SourceAlpha" type="matrix" values="0 0 0 0 0 0 0 0 0 0 0 0 0 0 0 0 0 0 127 0" result="hardAlpha"/>
<feOffset dy="1.1028"/>
<feGaussianBlur stdDeviation="1.1028"/>
<feComposite in2="hardAlpha" operator="out"/>
<feColorMatrix type="matrix" values="0 0 0 0 0.101961 0 0 0 0 0.113725 0 0 0 0 0.14902 0 0 0 0.1 0"/>
<feBlend mode="normal" in2="BackgroundImageFix" result="effect1_dropShadow_0_2375"/>
<feBlend mode="normal" in="SourceGraphic" in2="effect1_dropShadow_0_2375" result="shape"/>
<feColorMatrix in="SourceAlpha" type="matrix" values="0 0 0 0 0 0 0 0 0 0 0 0 0 0 0 0 0 0 127 0" result="hardAlpha"/>
<feOffset dy="1.1028"/>
<feComposite in2="hardAlpha" operator="arithmetic" k2="-1" k3="1"/>
<feColorMatrix type="matrix" values="0 0 0 0 1 0 0 0 0 1 0 0 0 0 1 0 0 0 1 0"/>
<feBlend mode="normal" in2="shape" result="effect2_innerShadow_0_2375"/>
</filter>
<filter id="filter1_di_0_2375" x="52" y="55.4949" width="40.4112" height="40.4112" filterUnits="userSpaceOnUse" color-interpolation-filters="sRGB">
<feFlood flood-opacity="0" result="BackgroundImageFix"/>
<feColorMatrix in="SourceAlpha" type="matrix" values="0 0 0 0 0 0 0 0 0 0 0 0 0 0 0 0 0 0 127 0" result="hardAlpha"/>
<feOffset dy="1.1028"/>
<feGaussianBlur stdDeviation="1.1028"/>
<feComposite in2="hardAlpha" operator="out"/>
<feColorMatrix type="matrix" values="0 0 0 0 0.101961 0 0 0 0 0.113725 0 0 0 0 0.14902 0 0 0 0.1 0"/>
<feBlend mode="normal" in2="BackgroundImageFix" result="effect1_dropShadow_0_2375"/>
<feBlend mode="normal" in="SourceGraphic" in2="effect1_dropShadow_0_2375" result="shape"/>
<feColorMatrix in="SourceAlpha" type="matrix" values="0 0 0 0 0 0 0 0 0 0 0 0 0 0 0 0 0 0 127 0" result="hardAlpha"/>
<feOffset dy="1.1028"/>
<feComposite in2="hardAlpha" operator="arithmetic" k2="-1" k3="1"/>
<feColorMatrix type="matrix" values="0 0 0 0 1 0 0 0 0 1 0 0 0 0 1 0 0 0 1 0"/>
<feBlend mode="normal" in2="shape" result="effect2_innerShadow_0_2375"/>
</filter>
<linearGradient id="paint0_linear_0_2375" x1="90.9357" y1="10.2397" x2="78.4359" y2="14.3592" gradientUnits="userSpaceOnUse">
<stop stop-color="#ABADB2" style="stop-color:#ABADB2;stop-color:color(display-p3 0.6706 0.6784 0.6980);stop-opacity:1;"/>
<stop offset="1" stop-color="#ABADB2" stop-opacity="0" style="stop-color:none;stop-opacity:0;"/>
</linearGradient>
<linearGradient id="paint1_linear_0_2375" x1="81.3401" y1="-0.406958" x2="74.9269" y2="11.1447" gradientUnits="userSpaceOnUse">
<stop stop-color="#ABADB2" style="stop-color:#ABADB2;stop-color:color(display-p3 0.6706 0.6784 0.6980);stop-opacity:1;"/>
<stop offset="1" stop-color="#ABADB2" stop-opacity="0" style="stop-color:none;stop-opacity:0;"/>
</linearGradient>
<linearGradient id="paint2_linear_0_2375" x1="65.957" y1="-1.04866" x2="68.3634" y2="8.87741" gradientUnits="userSpaceOnUse">
<stop stop-color="#ABADB2" style="stop-color:#ABADB2;stop-color:color(display-p3 0.6706 0.6784 0.6980);stop-opacity:1;"/>
<stop offset="1" stop-color="#ABADB2" stop-opacity="0" style="stop-color:none;stop-opacity:0;"/>
</linearGradient>
</defs>
</svg>
