<svg width="238" height="238" viewBox="0 0 238 238" fill="none" xmlns="http://www.w3.org/2000/svg">
<g clip-path="url(#clip0_86_34364)">
<rect width="238" height="238" rx="16" fill="#F8FAFD"/>
<path d="M120.17 23.8848C172.214 23.8848 214.405 66.1532 214.405 118.295C214.405 170.437 172.214 212.704 120.17 212.704C68.1271 212.704 25.9361 170.437 25.936 118.295C25.936 66.1532 68.127 23.8848 120.17 23.8848Z" stroke="black" stroke-opacity="0.08" stroke-width="0.793359"/>
<path d="M120.17 0.878906C184.896 0.878943 237.369 53.4477 237.369 118.296C237.369 183.144 184.896 235.714 120.17 235.714C55.4434 235.714 2.9707 183.144 2.9707 118.296C2.97092 53.4477 55.4436 0.878906 120.17 0.878906Z" stroke="black" stroke-opacity="0.08" stroke-width="0.793359"/>
<path d="M0.593262 238.093L237.368 -0.311523" stroke="black" stroke-opacity="0.08" stroke-width="0.793359"/>
<path d="M9.71556e-06 0.283193L237.963 237.498" stroke="black" stroke-opacity="0.08" stroke-width="0.793359"/>
<path d="M77.2812 139.569C77.2812 128.102 86.5769 118.807 98.0436 118.807H118.806V139.569C118.806 151.036 109.51 160.331 98.0436 160.331C86.5769 160.331 77.2812 151.036 77.2812 139.569Z" stroke="#2861FF" stroke-width="16.2048"/>
<path d="M160.331 98.0443C160.331 109.511 151.035 118.807 139.568 118.807H118.806V98.0443C118.806 86.5775 128.102 77.2819 139.568 77.2819C151.035 77.2819 160.331 86.5775 160.331 98.0443Z" stroke="#44D8FF" stroke-width="16.2048"/>
</g>
<defs>
<clipPath id="clip0_86_34364">
<rect width="238" height="238" rx="16" fill="white"/>
</clipPath>
</defs>
</svg>
