<svg width="600" height="600" viewBox="0 0 600 600" fill="none" xmlns="http://www.w3.org/2000/svg">
    <rect width="600" height="600" fill="white"/>
    <mask id="mask0_1291_89383" style="mask-type:alpha" maskUnits="userSpaceOnUse" x="50" y="50" width="500" height="500">
        <rect x="50" y="50" width="500" height="500" fill="black"/>
    </mask>
    <g mask="url(#mask0_1291_89383)">
        <g filter="url(#filter0_f_1291_89383)">
            <rect x="100" y="100" width="400" height="400" rx="200" fill="#F2F4F7"/>
        </g>
        <path d="M280 316L321 275L405 352.5H321L280 316Z" fill="url(#paint0_linear_1291_89383)" fill-opacity="0.15"/>
        <path d="M336 316L377 275L461 352.5H377L336 316Z" fill="url(#paint1_linear_1291_89383)" fill-opacity="0.15"/>
        <path d="M224 316L265 275L349 352.5H265L224 316Z" fill="url(#paint2_linear_1291_89383)" fill-opacity="0.15"/>
        <rect x="220.5" y="271.5" width="47" height="47" rx="11.5" fill="white"/>
        <path d="M235.123 282.439L244 281.5L252.877 282.439L259.75 291.665L244 310.005L228.25 291.665L235.123 282.439Z" fill="#FDB300"/>
        <path d="M234.63 291.665L244 310.005L228.25 291.665H234.63Z" fill="#EA6C00"/>
        <path d="M253.37 291.665L244 310.005L259.75 291.665H253.37Z" fill="#EA6C00"/>
        <path d="M234.629 291.665H253.37L244 310.005L234.629 291.665Z" fill="#FDAD00"/>
        <path d="M244 281.5L235.123 282.438L234.629 291.665L244 281.5Z" fill="#FDD231"/>
        <path d="M244 281.5L252.877 282.438L253.37 291.665L244 281.5Z" fill="#FDD231"/>
        <path d="M259.75 291.664L252.877 282.438L253.371 291.664H259.75Z" fill="#FDAD00"/>
        <path d="M228.25 291.664L235.123 282.438L234.63 291.664H228.25Z" fill="#FDAD00"/>
        <path d="M244 281.5L234.629 291.665H253.37L244 281.5Z" fill="#FEEEB7"/>
        <rect x="220.5" y="271.5" width="47" height="47" rx="11.5" stroke="#FDD231"/>
        <rect x="276.5" y="271.5" width="47" height="47" rx="11.5" fill="white"/>
        <path d="M294.765 310.75C297.663 310.75 300.015 308.398 300.015 305.5V300.25H294.765C291.867 300.25 289.515 302.602 289.515 305.5C289.515 308.398 291.867 310.75 294.765 310.75Z" fill="#0ACF83"/>
        <path d="M289.515 295C289.515 292.102 291.867 289.75 294.765 289.75H300.015V300.25H294.765C291.867 300.25 289.515 297.898 289.515 295Z" fill="#A259FF"/>
        <path d="M289.515 284.5C289.515 281.602 291.867 279.25 294.765 279.25H300.015V289.75H294.765C291.867 289.75 289.515 287.398 289.515 284.5Z" fill="#F24E1E"/>
        <path d="M300.015 279.25H305.265C308.163 279.25 310.515 281.602 310.515 284.5C310.515 287.398 308.163 289.75 305.265 289.75H300.015V279.25Z" fill="#FF7262"/>
        <path d="M310.515 295C310.515 297.898 308.163 300.25 305.265 300.25C302.367 300.25 300.015 297.898 300.015 295C300.015 292.102 302.367 289.75 305.265 289.75C308.163 289.75 310.515 292.102 310.515 295Z" fill="#1ABCFE"/>
        <rect x="276.5" y="271.5" width="47" height="47" rx="11.5" stroke="#FF7262"/>
        <rect x="332.5" y="271.5" width="47" height="47" rx="11.5" fill="white"/>
        <path fill-rule="evenodd" clip-rule="evenodd" d="M366.084 282.76C365.88 282.331 365.451 282.074 364.928 282.074H362.91C362.326 282.074 361.888 282.309 361.653 282.734L358.661 287.103L361.281 290.684L365.854 284.124C366.358 283.522 366.181 282.969 366.084 282.76Z" fill="#74BB11"/>
        <path fill-rule="evenodd" clip-rule="evenodd" d="M350.313 282.69C349.857 282.074 349.251 282.074 349.047 282.074H347.073C346.568 282.074 346.152 282.309 345.935 282.712C345.714 283.128 345.758 283.624 346.068 284.084L353.38 294.22L344.97 305.95C344.678 306.393 344.634 306.879 344.855 307.295C345.072 307.698 345.488 307.933 345.993 307.933H348.011C348.529 307.933 348.985 307.663 349.215 307.238L358.63 294.269L350.313 282.69Z" fill="#009CD9"/>
        <path fill-rule="evenodd" clip-rule="evenodd" d="M367.088 306.056L361.219 298.005L358.639 301.564L363.277 307.756L363.397 307.809C363.583 307.893 363.782 307.937 363.981 307.937H365.955C366.433 307.937 366.836 307.725 367.066 307.357C367.305 306.977 367.31 306.503 367.088 306.056Z" fill="#EB2084"/>
        <rect x="332.5" y="271.5" width="47" height="47" rx="11.5" stroke="#009CD9"/>
        <rect x="-65.5" y="369.5" width="445" height="230" rx="7.5" fill="white" stroke="#DFE2E8"/>
        <path d="M-66 377C-66 372.582 -62.4183 369 -58 369H372C376.418 369 380 372.582 380 377V393H-66V377Z" fill="#F2F4F7"/>
        <rect x="141" y="402" width="139" height="6" rx="3" fill="#F2F4F7"/>
        <rect x="304" y="401" width="16" height="8" rx="4" fill="#237FFA" fill-opacity="0.25"/>
        <rect x="326" y="401" width="16" height="8" rx="4" fill="#237FFA" fill-opacity="0.25"/>
        <rect x="348" y="401" width="16" height="8" rx="4" fill="#237FFA" fill-opacity="0.25"/>
        <rect x="144" y="424" width="139" height="10" rx="5" fill="#DFE2E8"/>
        <rect x="144" y="450" width="139" height="6" rx="3" fill="#F2F4F7"/>
        <rect x="144" y="472" width="139" height="10" rx="5" fill="#DFE2E8"/>
        <rect x="144" y="498" width="139" height="6" rx="3" fill="#F2F4F7"/>
        <rect x="144" y="521" width="139" height="10" rx="5" fill="#DFE2E8"/>
        <rect x="144" y="546" width="139" height="6" rx="3" fill="#F2F4F7"/>
        <rect x="-66" y="417" width="446" height="24" fill="#F2F4F7"/>
        <rect x="-66" y="465" width="446" height="24" fill="#F2F4F7"/>
        <rect x="-66" y="513" width="446" height="24" fill="#F2F4F7"/>
        <rect x="-65.5" y="369.5" width="445" height="230" rx="7.5" stroke="#DFE2E8"/>
        <rect x="304" y="449" width="16" height="8" rx="4" fill="#237FFA" fill-opacity="0.25"/>
        <rect x="304" y="497" width="16" height="8" rx="4" fill="#237FFA" fill-opacity="0.25"/>
        <rect x="304" y="545" width="16" height="8" rx="4" fill="#237FFA" fill-opacity="0.25"/>
        <rect x="326" y="449" width="16" height="8" rx="4" fill="#237FFA" fill-opacity="0.25"/>
        <rect x="326" y="497" width="16" height="8" rx="4" fill="#237FFA" fill-opacity="0.25"/>
        <rect x="326" y="545" width="16" height="8" rx="4" fill="#237FFA" fill-opacity="0.25"/>
        <rect x="348" y="449" width="16" height="8" rx="4" fill="#237FFA" fill-opacity="0.25"/>
        <rect x="348" y="497" width="16" height="8" rx="4" fill="#237FFA" fill-opacity="0.25"/>
        <rect x="348" y="545" width="16" height="8" rx="4" fill="#237FFA" fill-opacity="0.25"/>
        <rect x="304" y="376" width="36" height="10" rx="2" fill="#DEE2E9"/>
        <rect x="141" y="376" width="36" height="10" rx="2" fill="#DEE2E9"/>
        <rect x="410.5" y="354.5" width="226" height="179" rx="3.5" fill="white" stroke="#DFE2E8"/>
        <path opacity="0.5" d="M506 354L506 534" stroke="#DFE2E8" stroke-width="0.5"/>
        <rect x="410.5" y="326.5" width="159" height="23" rx="3.5" fill="white" stroke="#237FFA"/>
        <rect x="418" y="330" width="32" height="16" rx="2" fill="#DFE2E8"/>
        <rect x="426" y="370" width="56" height="8" rx="2" fill="#F2F4F7"/>
        <rect x="522" y="370" width="56" height="8" rx="2" fill="#F2F4F7"/>
        <rect x="454" y="330" width="32" height="16" rx="2" fill="#F2F4F7"/>
        <rect x="490" y="330" width="32" height="16" rx="2" fill="#F2F4F7"/>
        <rect x="418" y="390" width="80" height="24" rx="2" fill="#237FFA" fill-opacity="0.1"/>
        <rect x="514" y="446" width="80" height="24" rx="2" fill="#237FFA" fill-opacity="0.1"/>
        <rect x="426" y="398" width="56" height="8" rx="2" fill="#237FFA" fill-opacity="0.5"/>
        <rect x="426" y="426" width="56" height="8" rx="2" fill="#F2F4F7"/>
        <rect x="522" y="426" width="56" height="8" rx="2" fill="#F2F4F7"/>
        <rect x="522" y="398" width="56" height="8" rx="2" fill="#F2F4F7"/>
        <rect x="426" y="454" width="56" height="8" rx="2" fill="#F2F4F7"/>
        <rect x="522" y="454" width="56" height="8" rx="2" fill="#237FFA" fill-opacity="0.5"/>
        <rect x="426" y="482" width="56" height="8" rx="2" fill="#F2F4F7"/>
        <rect x="522" y="482" width="56" height="8" rx="2" fill="#F2F4F7"/>
        <rect x="426" y="510" width="56" height="8" rx="2" fill="#F2F4F7"/>
        <rect x="522" y="510" width="56" height="8" rx="2" fill="#F2F4F7"/>
        <rect x="410.5" y="156.5" width="159" height="139" rx="7.5" fill="white" stroke="#DFE2E8"/>
        <rect x="422" y="168" width="36" height="10" rx="2" fill="#DFE2E8"/>
        <rect x="422" y="190" width="48" height="8" rx="2" fill="#F2F4F7"/>
        <rect x="422" y="278" width="48" height="6" rx="2" fill="#F2F4F7"/>
        <rect x="476" y="278" width="6" height="6" rx="2" fill="#FF5959"/>
        <path d="M428.949 244L422 230V262H558V230L548.073 226L533.679 234L527.723 246.5L510.847 228L500.423 231.5L494.467 240L482.555 244L468.161 238.5L460.219 246.5L452.277 249L447.81 242L438.876 240L428.949 244Z" fill="#237FFA" fill-opacity="0.1"/>
        <path d="M422 230L428.949 244L438.876 240L447.81 242L452.277 249L460.219 246.5L468.161 238.5L482.555 244L494.467 240L500.423 231.5L510.847 228L527.723 246.5L533.679 234L548.073 226L558 230" stroke="#237FFA"/>
        <path opacity="0.5" d="M422 270H558" stroke="#DFE2E8" stroke-width="0.5"/>
        <rect x="510" y="168" width="48" height="10" rx="2" fill="#F2F4F7"/>
        <path d="M426.328 209.348C426.8 209.324 427.244 209.428 427.66 209.66C428.084 209.884 428.424 210.22 428.68 210.668C428.936 211.108 429.064 211.62 429.064 212.204C429.064 212.812 428.924 213.352 428.644 213.824C428.372 214.296 427.992 214.664 427.504 214.928C427.016 215.192 426.456 215.324 425.824 215.324C425.04 215.324 424.364 215.124 423.796 214.724C423.236 214.316 422.824 213.764 422.56 213.068L424.216 212.48C424.496 213.272 425.028 213.668 425.812 213.668C426.244 213.668 426.592 213.536 426.856 213.272C427.12 213.008 427.252 212.652 427.252 212.204C427.252 211.764 427.12 211.416 426.856 211.16C426.6 210.896 426.252 210.756 425.812 210.74C425.644 210.74 425.488 210.764 425.344 210.812C425.2 210.852 425.044 210.924 424.876 211.028L423.88 209.732L426.22 207.344H422.956V205.652H428.596V207.164L426.304 209.3L426.328 209.348ZM431.38 217.004C431.86 216.78 432.196 216.532 432.388 216.26C432.58 215.996 432.676 215.628 432.676 215.156H431.572V213.152H433.576V215.156C433.576 215.74 433.444 216.248 433.18 216.68C432.916 217.12 432.468 217.488 431.836 217.784L431.38 217.004ZM445.105 215.156H443.293V207.68L441.265 208.736V206.852L443.605 205.652H445.105V215.156ZM449.729 213.464H453.353V215.156H447.041V213.908L449.933 210.74C450.461 210.164 450.821 209.696 451.013 209.336C451.213 208.976 451.313 208.628 451.313 208.292C451.313 207.956 451.201 207.68 450.977 207.464C450.753 207.248 450.457 207.14 450.089 207.14C449.737 207.14 449.417 207.26 449.129 207.5C448.849 207.74 448.637 208.072 448.493 208.496L446.885 207.824C447.117 207.096 447.521 206.524 448.097 206.108C448.673 205.692 449.357 205.484 450.149 205.484C450.733 205.484 451.253 205.6 451.709 205.832C452.165 206.064 452.521 206.392 452.777 206.816C453.033 207.232 453.161 207.712 453.161 208.256C453.161 208.784 453.021 209.312 452.741 209.84C452.469 210.368 452.021 210.972 451.397 211.652L449.729 213.464ZM457.886 209.348C458.358 209.324 458.802 209.428 459.218 209.66C459.642 209.884 459.982 210.22 460.238 210.668C460.494 211.108 460.622 211.62 460.622 212.204C460.622 212.812 460.482 213.352 460.202 213.824C459.93 214.296 459.55 214.664 459.062 214.928C458.574 215.192 458.014 215.324 457.382 215.324C456.598 215.324 455.922 215.124 455.354 214.724C454.794 214.316 454.382 213.764 454.118 213.068L455.774 212.48C456.054 213.272 456.586 213.668 457.37 213.668C457.802 213.668 458.15 213.536 458.414 213.272C458.678 213.008 458.81 212.652 458.81 212.204C458.81 211.764 458.678 211.416 458.414 211.16C458.158 210.896 457.81 210.756 457.37 210.74C457.202 210.74 457.046 210.764 456.902 210.812C456.758 210.852 456.602 210.924 456.434 211.028L455.438 209.732L457.778 207.344H454.514V205.652H460.154V207.164L457.862 209.3L457.886 209.348ZM463.01 215.324C462.674 215.324 462.402 215.22 462.194 215.012C461.994 214.804 461.894 214.532 461.894 214.196C461.894 213.868 461.994 213.6 462.194 213.392C462.402 213.184 462.674 213.08 463.01 213.08C463.346 213.08 463.618 213.184 463.826 213.392C464.034 213.6 464.138 213.868 464.138 214.196C464.138 214.524 464.034 214.792 463.826 215C463.618 215.216 463.346 215.324 463.01 215.324ZM468.885 215.324C467.789 215.324 466.945 214.9 466.353 214.052C465.761 213.204 465.465 211.988 465.465 210.404C465.465 208.82 465.761 207.604 466.353 206.756C466.945 205.908 467.789 205.484 468.885 205.484C469.981 205.484 470.825 205.908 471.417 206.756C472.009 207.604 472.305 208.82 472.305 210.404C472.305 211.988 472.009 213.204 471.417 214.052C470.825 214.9 469.981 215.324 468.885 215.324ZM468.885 213.632C469.381 213.632 469.765 213.352 470.037 212.792C470.309 212.232 470.445 211.436 470.445 210.404C470.445 209.372 470.309 208.576 470.037 208.016C469.765 207.456 469.381 207.176 468.885 207.176C468.389 207.176 468.005 207.456 467.733 208.016C467.461 208.568 467.325 209.364 467.325 210.404C467.325 211.444 467.461 212.244 467.733 212.804C468.005 213.356 468.389 213.632 468.885 213.632ZM476.901 215.324C475.805 215.324 474.961 214.9 474.369 214.052C473.777 213.204 473.481 211.988 473.481 210.404C473.481 208.82 473.777 207.604 474.369 206.756C474.961 205.908 475.805 205.484 476.901 205.484C477.997 205.484 478.841 205.908 479.433 206.756C480.025 207.604 480.321 208.82 480.321 210.404C480.321 211.988 480.025 213.204 479.433 214.052C478.841 214.9 477.997 215.324 476.901 215.324ZM476.901 213.632C477.397 213.632 477.781 213.352 478.053 212.792C478.325 212.232 478.461 211.436 478.461 210.404C478.461 209.372 478.325 208.576 478.053 208.016C477.781 207.456 477.397 207.176 476.901 207.176C476.405 207.176 476.021 207.456 475.749 208.016C475.477 208.568 475.341 209.364 475.341 210.404C475.341 211.444 475.477 212.244 475.749 212.804C476.021 213.356 476.405 213.632 476.901 213.632Z" fill="#1F2733"/>
        <rect x="410.5" y="66.5" width="159" height="59" rx="7.5" fill="white" stroke="#DFE2E8"/>
        <path fill-rule="evenodd" clip-rule="evenodd" d="M436.655 86.4659L434.544 90.743L429.824 91.429C429.497 91.4764 429.196 91.6302 428.965 91.8664L428.899 91.9392C428.389 92.535 428.423 93.4324 428.992 93.9875L432.408 97.3165L431.602 102.018C431.546 102.343 431.599 102.678 431.752 102.97L431.797 103.049C432.205 103.723 433.072 103.971 433.778 103.599L438 101.379L442.222 103.599C442.514 103.753 442.848 103.806 443.173 103.75L443.26 103.733C444.028 103.555 444.533 102.805 444.398 102.018L443.592 97.3165L447.008 93.9875C447.244 93.7573 447.398 93.4556 447.445 93.1291L447.455 93.0415C447.523 92.2557 446.967 91.5439 446.176 91.429L441.456 90.743L439.345 86.4659C439.199 86.1701 438.96 85.9306 438.664 85.7846C437.921 85.418 437.022 85.723 436.655 86.4659Z" fill="#237FFA" fill-opacity="0.5"/>
        <path fill-rule="evenodd" clip-rule="evenodd" d="M468.655 86.4659L466.544 90.743L461.824 91.429C461.497 91.4764 461.196 91.6302 460.965 91.8664L460.899 91.9392C460.389 92.535 460.423 93.4324 460.992 93.9875L464.408 97.3165L463.602 102.018C463.546 102.343 463.599 102.678 463.752 102.97L463.797 103.049C464.205 103.723 465.072 103.971 465.778 103.599L470 101.379L474.222 103.599C474.514 103.753 474.848 103.806 475.173 103.75L475.26 103.733C476.028 103.555 476.533 102.805 476.398 102.018L475.592 97.3165L479.008 93.9875C479.244 93.7573 479.398 93.4556 479.445 93.1291L479.455 93.0415C479.523 92.2557 478.967 91.5439 478.176 91.429L473.456 90.743L471.345 86.4659C471.199 86.1701 470.96 85.9306 470.664 85.7846C469.921 85.418 469.022 85.723 468.655 86.4659Z" fill="#237FFA" fill-opacity="0.5"/>
        <path fill-rule="evenodd" clip-rule="evenodd" d="M500.655 86.4659L498.543 90.743L493.824 91.429C493.497 91.4764 493.196 91.6302 492.965 91.8664L492.899 91.9392C492.389 92.535 492.423 93.4324 492.992 93.9875L496.407 97.3165L495.602 102.018C495.546 102.343 495.599 102.678 495.752 102.97L495.797 103.049C496.205 103.723 497.072 103.971 497.778 103.599L502 101.379L506.222 103.599C506.514 103.753 506.848 103.806 507.173 103.75L507.26 103.733C508.028 103.555 508.533 102.805 508.398 102.018L507.592 97.3165L511.008 93.9875C511.244 93.7573 511.398 93.4556 511.445 93.1291L511.455 93.0415C511.523 92.2557 510.967 91.5439 510.176 91.429L505.456 90.743L503.345 86.4659C503.199 86.1701 502.96 85.9306 502.664 85.7846C501.921 85.418 501.022 85.723 500.655 86.4659Z" fill="#237FFA" fill-opacity="0.5"/>
        <rect width="24" height="24" transform="translate(522 83)" fill="white"/>
        <path fill-rule="evenodd" clip-rule="evenodd" d="M532.655 86.4659L530.543 90.743L525.824 91.429C525.497 91.4764 525.196 91.6302 524.965 91.8664L524.899 91.9392C524.389 92.535 524.423 93.4324 524.992 93.9875L528.407 97.3165L527.602 102.018C527.546 102.343 527.599 102.678 527.752 102.97L527.797 103.049C528.205 103.723 529.072 103.971 529.778 103.599L534 101.379L538.222 103.599C538.514 103.753 538.848 103.806 539.173 103.75L539.26 103.733C540.028 103.555 540.533 102.805 540.398 102.018L539.592 97.3165L543.008 93.9875C543.244 93.7573 543.398 93.4556 543.445 93.1291L543.455 93.0415C543.523 92.2557 542.967 91.5439 542.176 91.429L537.456 90.743L535.345 86.4659C535.199 86.1701 534.96 85.9306 534.664 85.7846C533.921 85.418 533.022 85.723 532.655 86.4659Z" fill="#DFE2E8"/>
        <rect x="220.5" y="51.5" width="159" height="169" rx="7.5" fill="white" stroke="#DFE2E8"/>
        <rect x="252" y="79" width="16" height="4" rx="2" fill="#DFE2E8"/>
        <rect x="272" y="79" width="16" height="4" rx="2" fill="#DFE2E8"/>
        <rect x="292" y="79" width="16" height="4" rx="2" fill="#DFE2E8"/>
        <rect x="312" y="79" width="16" height="4" rx="2" fill="#DFE2E8"/>
        <rect x="332" y="79" width="16" height="4" rx="2" fill="#DFE2E8"/>
        <rect x="352" y="79" width="16" height="4" rx="2" fill="#DFE2E8"/>
        <rect x="232" y="79" width="16" height="4" rx="2" fill="#DFE2E8"/>
        <path d="M260 105C262.209 105 264 103.209 264 101C264 98.7909 262.209 97 260 97C257.791 97 256 98.7909 256 101C256 103.209 257.791 105 260 105Z" fill="#F2F4F7"/>
        <path d="M260 125C262.209 125 264 123.209 264 121C264 118.791 262.209 117 260 117C257.791 117 256 118.791 256 121C256 123.209 257.791 125 260 125Z" fill="#F2F4F7"/>
        <path d="M260 145C262.209 145 264 143.209 264 141C264 138.791 262.209 137 260 137C257.791 137 256 138.791 256 141C256 143.209 257.791 145 260 145Z" fill="#F2F4F7"/>
        <path d="M260 165C262.209 165 264 163.209 264 161C264 158.791 262.209 157 260 157C257.791 157 256 158.791 256 161C256 163.209 257.791 165 260 165Z" fill="#F2F4F7"/>
        <path d="M260 185C262.209 185 264 183.209 264 181C264 178.791 262.209 177 260 177C257.791 177 256 178.791 256 181C256 183.209 257.791 185 260 185Z" fill="#F2F4F7"/>
        <path d="M260 205C262.209 205 264 203.209 264 201C264 198.791 262.209 197 260 197C257.791 197 256 198.791 256 201C256 203.209 257.791 205 260 205Z" fill="#F2F4F7"/>
        <path d="M280 105C282.209 105 284 103.209 284 101C284 98.7909 282.209 97 280 97C277.791 97 276 98.7909 276 101C276 103.209 277.791 105 280 105Z" fill="#F2F4F7"/>
        <path d="M280 125C282.209 125 284 123.209 284 121C284 118.791 282.209 117 280 117C277.791 117 276 118.791 276 121C276 123.209 277.791 125 280 125Z" fill="#F2F4F7"/>
        <path d="M280 145C282.209 145 284 143.209 284 141C284 138.791 282.209 137 280 137C277.791 137 276 138.791 276 141C276 143.209 277.791 145 280 145Z" fill="#F2F4F7"/>
        <path d="M280 165C282.209 165 284 163.209 284 161C284 158.791 282.209 157 280 157C277.791 157 276 158.791 276 161C276 163.209 277.791 165 280 165Z" fill="#F2F4F7"/>
        <path d="M280 185C282.209 185 284 183.209 284 181C284 178.791 282.209 177 280 177C277.791 177 276 178.791 276 181C276 183.209 277.791 185 280 185Z" fill="#F2F4F7"/>
        <path d="M280 205C282.209 205 284 203.209 284 201C284 198.791 282.209 197 280 197C277.791 197 276 198.791 276 201C276 203.209 277.791 205 280 205Z" fill="#F2F4F7"/>
        <path d="M300 105C302.209 105 304 103.209 304 101C304 98.7909 302.209 97 300 97C297.791 97 296 98.7909 296 101C296 103.209 297.791 105 300 105Z" fill="#F2F4F7"/>
        <path d="M300 125C302.209 125 304 123.209 304 121C304 118.791 302.209 117 300 117C297.791 117 296 118.791 296 121C296 123.209 297.791 125 300 125Z" fill="#F2F4F7"/>
        <rect x="292" y="133" width="16" height="16" rx="2" fill="#237FFA" fill-opacity="0.25"/>
        <path d="M300 165C302.209 165 304 163.209 304 161C304 158.791 302.209 157 300 157C297.791 157 296 158.791 296 161C296 163.209 297.791 165 300 165Z" fill="#F2F4F7"/>
        <path d="M300 185C302.209 185 304 183.209 304 181C304 178.791 302.209 177 300 177C297.791 177 296 178.791 296 181C296 183.209 297.791 185 300 185Z" fill="#F2F4F7"/>
        <path d="M300 205C302.209 205 304 203.209 304 201C304 198.791 302.209 197 300 197C297.791 197 296 198.791 296 201C296 203.209 297.791 205 300 205Z" fill="#F2F4F7"/>
        <path d="M320 105C322.209 105 324 103.209 324 101C324 98.7909 322.209 97 320 97C317.791 97 316 98.7909 316 101C316 103.209 317.791 105 320 105Z" fill="#F2F4F7"/>
        <path d="M320 125C322.209 125 324 123.209 324 121C324 118.791 322.209 117 320 117C317.791 117 316 118.791 316 121C316 123.209 317.791 125 320 125Z" fill="#F2F4F7"/>
        <path d="M320 145C322.209 145 324 143.209 324 141C324 138.791 322.209 137 320 137C317.791 137 316 138.791 316 141C316 143.209 317.791 145 320 145Z" fill="#F2F4F7"/>
        <path d="M320 165C322.209 165 324 163.209 324 161C324 158.791 322.209 157 320 157C317.791 157 316 158.791 316 161C316 163.209 317.791 165 320 165Z" fill="#F2F4F7"/>
        <path d="M320 185C322.209 185 324 183.209 324 181C324 178.791 322.209 177 320 177C317.791 177 316 178.791 316 181C316 183.209 317.791 185 320 185Z" fill="#F2F4F7"/>
        <path d="M320 205C322.209 205 324 203.209 324 201C324 198.791 322.209 197 320 197C317.791 197 316 198.791 316 201C316 203.209 317.791 205 320 205Z" fill="#F2F4F7"/>
        <path d="M340 105C342.209 105 344 103.209 344 101C344 98.7909 342.209 97 340 97C337.791 97 336 98.7909 336 101C336 103.209 337.791 105 340 105Z" fill="#F2F4F7"/>
        <path d="M340 125C342.209 125 344 123.209 344 121C344 118.791 342.209 117 340 117C337.791 117 336 118.791 336 121C336 123.209 337.791 125 340 125Z" fill="#F2F4F7"/>
        <path d="M340 145C342.209 145 344 143.209 344 141C344 138.791 342.209 137 340 137C337.791 137 336 138.791 336 141C336 143.209 337.791 145 340 145Z" fill="#F2F4F7"/>
        <path d="M340 165C342.209 165 344 163.209 344 161C344 158.791 342.209 157 340 157C337.791 157 336 158.791 336 161C336 163.209 337.791 165 340 165Z" fill="#F2F4F7"/>
        <path d="M340 185C342.209 185 344 183.209 344 181C344 178.791 342.209 177 340 177C337.791 177 336 178.791 336 181C336 183.209 337.791 185 340 185Z" fill="#F2F4F7"/>
        <path d="M340 205C342.209 205 344 203.209 344 201C344 198.791 342.209 197 340 197C337.791 197 336 198.791 336 201C336 203.209 337.791 205 340 205Z" fill="#F2F4F7"/>
        <path d="M360 105C362.209 105 364 103.209 364 101C364 98.7909 362.209 97 360 97C357.791 97 356 98.7909 356 101C356 103.209 357.791 105 360 105Z" fill="#F2F4F7"/>
        <path d="M360 125C362.209 125 364 123.209 364 121C364 118.791 362.209 117 360 117C357.791 117 356 118.791 356 121C356 123.209 357.791 125 360 125Z" fill="#F2F4F7"/>
        <path d="M360 145C362.209 145 364 143.209 364 141C364 138.791 362.209 137 360 137C357.791 137 356 138.791 356 141C356 143.209 357.791 145 360 145Z" fill="#F2F4F7"/>
        <path d="M360 165C362.209 165 364 163.209 364 161C364 158.791 362.209 157 360 157C357.791 157 356 158.791 356 161C356 163.209 357.791 165 360 165Z" fill="#F2F4F7"/>
        <path d="M360 185C362.209 185 364 183.209 364 181C364 178.791 362.209 177 360 177C357.791 177 356 178.791 356 181C356 183.209 357.791 185 360 185Z" fill="#F2F4F7"/>
        <path d="M360 205C362.209 205 364 203.209 364 201C364 198.791 362.209 197 360 197C357.791 197 356 198.791 356 201C356 203.209 357.791 205 360 205Z" fill="#F2F4F7"/>
        <path d="M240 105C242.209 105 244 103.209 244 101C244 98.7909 242.209 97 240 97C237.791 97 236 98.7909 236 101C236 103.209 237.791 105 240 105Z" fill="#F2F4F7"/>
        <path d="M240 125C242.209 125 244 123.209 244 121C244 118.791 242.209 117 240 117C237.791 117 236 118.791 236 121C236 123.209 237.791 125 240 125Z" fill="#F2F4F7"/>
        <path d="M240 145C242.209 145 244 143.209 244 141C244 138.791 242.209 137 240 137C237.791 137 236 138.791 236 141C236 143.209 237.791 145 240 145Z" fill="#F2F4F7"/>
        <path d="M240 165C242.209 165 244 163.209 244 161C244 158.791 242.209 157 240 157C237.791 157 236 158.791 236 161C236 163.209 237.791 165 240 165Z" fill="#F2F4F7"/>
        <path d="M240 185C242.209 185 244 183.209 244 181C244 178.791 242.209 177 240 177C237.791 177 236 178.791 236 181C236 183.209 237.791 185 240 185Z" fill="#F2F4F7"/>
        <path d="M240 205C242.209 205 244 203.209 244 201C244 198.791 242.209 197 240 197C237.791 197 236 198.791 236 201C236 203.209 237.791 205 240 205Z" fill="#F2F4F7"/>
        <rect x="260" y="61" width="80" height="6" rx="2" fill="#DEE2E9"/>
        <rect x="30.5" y="171.5" width="159" height="167" rx="5.5" fill="white" stroke="#DFE2E8"/>
        <path opacity="0.5" d="M42 227H178" stroke="#DFE2E8" stroke-width="0.5"/>
        <path opacity="0.5" d="M42 283H178" stroke="#DFE2E8" stroke-width="0.5"/>
        <rect x="86" y="183" width="36" height="10" rx="2" fill="#DFE2E8"/>
        <rect x="86" y="239" width="36" height="10" rx="2" fill="#DFE2E8"/>
        <rect x="86" y="199" width="79" height="8" rx="2" fill="#F2F4F7"/>
        <rect x="86" y="295" width="36" height="10" rx="2" fill="#DFE2E8"/>
        <rect x="86" y="255" width="79" height="8" rx="2" fill="#F2F4F7"/>
        <rect x="86" y="311" width="79" height="8" rx="2" fill="#F2F4F7"/>
        <rect x="38" y="179" width="40" height="40" rx="4" fill="#237FFA" fill-opacity="0.2"/>
        <rect x="38" y="235" width="40" height="40" rx="4" fill="#237FFA" fill-opacity="0.2"/>
        <rect x="38" y="291" width="40" height="40" rx="4" fill="#237FFA" fill-opacity="0.2"/>
        <circle cx="100" cy="123" r="18" fill="#237FFA" fill-opacity="0.1"/>
        <path fill-rule="evenodd" clip-rule="evenodd" d="M105 118C105 115.239 102.761 113 100 113C97.2386 113 95 115.239 95 118C95 120.761 97.2386 123 100 123C102.761 123 105 120.761 105 118ZM109.5 128C109.5 125.791 107.709 124 105.5 124H94.5C92.2909 124 90.5 125.791 90.5 128C90.5 130.209 92.2909 132 94.5 132H105.5C107.709 132 109.5 130.209 109.5 128Z" fill="#237FFA"/>
        <circle cx="116" cy="111" r="6" fill="#FF5959"/>
        <rect x="152" y="122" width="38" height="20" rx="10" fill="#237FFA"/>
        <rect x="172" y="124" width="16" height="16" rx="8" fill="white"/>
    </g>
    <defs>
        <filter id="filter0_f_1291_89383" x="-300" y="-300" width="1200" height="1200" filterUnits="userSpaceOnUse" color-interpolation-filters="sRGB">
            <feFlood flood-opacity="0" result="BackgroundImageFix"/>
            <feBlend mode="normal" in="SourceGraphic" in2="BackgroundImageFix" result="shape"/>
            <feGaussianBlur stdDeviation="200" result="effect1_foregroundBlur_1291_89383"/>
        </filter>
        <linearGradient id="paint0_linear_1291_89383" x1="305" y1="292.5" x2="329" y2="346.5" gradientUnits="userSpaceOnUse">
            <stop stop-color="#FF7262"/>
            <stop offset="1" stop-color="#FF7262" stop-opacity="0"/>
        </linearGradient>
        <linearGradient id="paint1_linear_1291_89383" x1="361" y1="292.5" x2="385" y2="346.5" gradientUnits="userSpaceOnUse">
            <stop stop-color="#009CD9"/>
            <stop offset="1" stop-color="#009CD9" stop-opacity="0"/>
        </linearGradient>
        <linearGradient id="paint2_linear_1291_89383" x1="249" y1="292.5" x2="273" y2="346.5" gradientUnits="userSpaceOnUse">
            <stop stop-color="#FDD231"/>
            <stop offset="1" stop-color="#FDD231" stop-opacity="0"/>
        </linearGradient>
    </defs>
</svg>
