<svg width="600" height="600" viewBox="0 0 600 600" fill="none" xmlns="http://www.w3.org/2000/svg">
    <rect width="600" height="600" fill="white"/>
    <rect width="200" height="200" transform="translate(316 400)" fill="white"/>
    <g clip-path="url(#clip0_1170_91282)">
        <rect width="168" height="144" transform="translate(332 432)" fill="#F6F9FC"/>
        <g filter="url(#filter0_f_1170_91282)">
            <rect x="360" y="438" width="111" height="109" rx="12" fill="#9BACBE"/>
        </g>
        <rect x="344" y="420" width="144" height="124" rx="12" fill="white"/>
    </g>
    <rect width="200" height="200" transform="translate(84 400)" fill="white"/>
    <g filter="url(#filter1_d_1170_91282)">
        <path d="M252 448H100V576H268V464C268 455.163 260.837 448 252 448Z" fill="white"/>
        <path d="M100.5 575.5V448.5H252C260.56 448.5 267.5 455.44 267.5 464V575.5H100.5Z" stroke="black" stroke-opacity="0.1"/>
    </g>
    <path d="M100 464H244C248.418 464 252 467.582 252 472V505C252 509.418 248.418 513 244 513H100V464Z" fill="#237FFA" fill-opacity="0.2"/>
    <path d="M100 521H244C248.418 521 252 524.582 252 529V562C252 566.418 248.418 570 244 570H100V521Z" fill="#CBD2DD" fill-opacity="0.2"/>
    <path d="M255.397 419.19C254.884 419.19 254.424 419.097 254.017 418.91C253.617 418.717 253.304 418.453 253.077 418.12C252.85 417.78 252.737 417.397 252.737 416.97C252.737 416.51 252.877 416.093 253.157 415.72C253.437 415.347 253.777 415.087 254.177 414.94V414.91C253.864 414.797 253.59 414.583 253.357 414.27C253.13 413.95 253.017 413.6 253.017 413.22C253.017 412.827 253.117 412.477 253.317 412.17C253.524 411.857 253.807 411.613 254.167 411.44C254.527 411.267 254.937 411.18 255.397 411.18C255.857 411.18 256.267 411.267 256.627 411.44C256.994 411.613 257.277 411.857 257.477 412.17C257.684 412.477 257.787 412.827 257.787 413.22C257.787 413.62 257.67 413.977 257.437 414.29C257.21 414.597 256.937 414.803 256.617 414.91V414.94C257.024 415.093 257.367 415.357 257.647 415.73C257.927 416.097 258.067 416.51 258.067 416.97C258.067 417.397 257.954 417.78 257.727 418.12C257.5 418.453 257.184 418.717 256.777 418.91C256.377 419.097 255.917 419.19 255.397 419.19ZM255.397 414.44C255.757 414.44 256.054 414.34 256.287 414.14C256.52 413.933 256.637 413.667 256.637 413.34C256.637 413.007 256.52 412.737 256.287 412.53C256.06 412.323 255.764 412.22 255.397 412.22C255.03 412.22 254.73 412.323 254.497 412.53C254.27 412.737 254.157 413.007 254.157 413.34C254.157 413.66 254.274 413.923 254.507 414.13C254.74 414.337 255.037 414.44 255.397 414.44ZM255.397 418.16C255.837 418.16 256.197 418.037 256.477 417.79C256.757 417.537 256.897 417.21 256.897 416.81C256.897 416.41 256.757 416.087 256.477 415.84C256.197 415.587 255.837 415.46 255.397 415.46C254.964 415.46 254.604 415.587 254.317 415.84C254.037 416.087 253.897 416.41 253.897 416.81C253.897 417.21 254.037 417.537 254.317 417.79C254.597 418.037 254.957 418.16 255.397 418.16ZM259.322 421.47V413.55H260.412V414.3H260.462C260.655 414.02 260.895 413.803 261.182 413.65C261.468 413.49 261.775 413.41 262.102 413.41C262.548 413.41 262.945 413.53 263.292 413.77C263.638 414.003 263.908 414.333 264.102 414.76C264.295 415.18 264.392 415.663 264.392 416.21C264.392 416.79 264.295 417.307 264.102 417.76C263.908 418.213 263.638 418.567 263.292 418.82C262.945 419.067 262.548 419.19 262.102 419.19C261.755 419.19 261.442 419.113 261.162 418.96C260.882 418.807 260.648 418.59 260.462 418.31H260.412V421.47H259.322ZM260.372 416.3C260.372 416.847 260.502 417.29 260.762 417.63C261.028 417.97 261.368 418.14 261.782 418.14C262.222 418.14 262.582 417.97 262.862 417.63C263.142 417.29 263.282 416.847 263.282 416.3C263.282 415.947 263.218 415.63 263.092 415.35C262.972 415.07 262.798 414.853 262.572 414.7C262.352 414.54 262.102 414.46 261.822 414.46C261.542 414.46 261.292 414.54 261.072 414.7C260.852 414.853 260.678 415.07 260.552 415.35C260.432 415.63 260.372 415.947 260.372 416.3ZM267.782 416.26L269.752 419.05H268.432L267.142 417.08L265.842 419.05H264.532L266.542 416.2L264.672 413.55H265.972L267.212 415.42L268.382 413.55H269.662L267.782 416.26Z" fill="black"/>
    <path d="M268 426L268 538" stroke="#237FFA" stroke-dasharray="2 2"/>
    <path d="M252 426L252 538" stroke="#237FFA" stroke-dasharray="2 2"/>
    <path d="M184 448L268 448" stroke="#237FFA" stroke-dasharray="2 2"/>
    <path d="M184 464L268 464" stroke="#237FFA" stroke-dasharray="2 2"/>
    <rect x="91" y="449" width="10" height="138" fill="white"/>
    <rect x="106" y="574" width="161" height="12" fill="white"/>
    <rect width="200" height="200" transform="translate(316 200)" fill="white"/>
    <rect x="351" y="241" width="46" height="46" fill="white" stroke="#C6D7E8" stroke-width="2"/>
    <rect x="354" y="244" width="40" height="40" rx="20" fill="#237FFA" fill-opacity="0.1"/>
    <path d="M350 240L398 288" stroke="#DAE1E9" stroke-width="0.5"/>
    <path d="M398 240L350 288" stroke="#DAE1E9" stroke-width="0.5"/>
    <path fill-rule="evenodd" clip-rule="evenodd" d="M377.006 246.741L390.006 254.267C391.859 255.34 393 257.318 393 259.459V277C393 280.314 390.314 283 387 283H361C357.686 283 355 280.314 355 277V259.459C355 257.318 356.141 255.34 357.994 254.267L370.994 246.741C372.853 245.664 375.147 245.664 377.006 246.741ZM375.002 250.202C374.434 249.873 373.744 249.846 373.156 250.12L372.998 250.202L359.998 257.729C359.428 258.059 359.06 258.646 359.007 259.296L359 259.459V277C359 278.054 359.816 278.918 360.851 278.995L361 279H372V270C372 268.896 372.895 268 374 268C375.105 268 376 268.896 376 270V279H387C388.054 279 388.918 278.184 388.995 277.149L389 277V259.459C389 258.801 388.676 258.188 388.14 257.816L388.002 257.729L375.002 250.202Z" fill="#1F2733"/>
    <circle opacity="0.75" cx="361" cy="277" r="6" fill="#0D84FF"/>
    <circle opacity="0.75" cx="387" cy="277" r="6" fill="#0D84FF"/>
    <circle opacity="0.75" cx="374" cy="252" r="6" fill="#0D84FF"/>
    <rect x="435" y="241" width="46" height="46" fill="white" stroke="#C6D7E8" stroke-width="2"/>
    <rect x="438" y="244" width="40" height="40" rx="20" fill="#237FFA" fill-opacity="0.1"/>
    <path d="M434 240L482 288" stroke="#DAE1E9" stroke-width="0.5"/>
    <path d="M482 240L434 288" stroke="#DAE1E9" stroke-width="0.5"/>
    <path fill-rule="evenodd" clip-rule="evenodd" d="M458 244C469.046 244 478 252.954 478 264C478 275.046 469.046 284 458 284C446.954 284 438 275.046 438 264C438 252.954 446.954 244 458 244ZM458 248C449.163 248 442 255.163 442 264C442 272.837 449.163 280 458 280C466.837 280 474 272.837 474 264C474 255.163 466.837 248 458 248ZM452.438 267.256C452.022 266.232 450.855 265.739 449.832 266.155C448.809 266.571 448.316 267.737 448.731 268.761C450.251 272.501 453.893 275 458 275C462.098 275 465.736 272.511 467.26 268.78C467.678 267.758 467.187 266.59 466.165 266.172C465.142 265.755 463.975 266.245 463.557 267.267C462.642 269.506 460.46 271 458 271C455.535 271 453.349 269.501 452.438 267.256ZM451 259C451 257.895 451.895 257 453 257C454.105 257 455 257.895 455 259V261C455 262.105 454.105 263 453 263C451.895 263 451 262.105 451 261V259ZM463 257C461.895 257 461 257.895 461 259V261C461 262.105 461.895 263 463 263C464.105 263 465 262.105 465 261V259C465 257.895 464.105 257 463 257Z" fill="#1F2733"/>
    <circle opacity="0.8" cx="458" cy="265" r="6" fill="#237FFA"/>
    <circle cx="458" cy="265" r="10" stroke="#237FFA"/>
    <rect x="351" y="313" width="46" height="46" fill="white" stroke="#C6D7E8" stroke-width="2"/>
    <rect x="357" y="316" width="34" height="40" fill="#237FFA" fill-opacity="0.1"/>
    <path d="M350 312L398 360" stroke="#DAE1E9" stroke-width="0.5"/>
    <path d="M398 312L350 360" stroke="#DAE1E9" stroke-width="0.5"/>
    <path fill-rule="evenodd" clip-rule="evenodd" d="M376 320V329C376 330.105 376.895 331 378 331H387V350L386.995 350.149C386.918 351.184 386.054 352 385 352H363L362.851 351.995C361.816 351.918 361 351.054 361 350V322L361.005 321.851C361.082 320.816 361.946 320 363 320H376ZM377.72 316.018C377.595 316.006 377.469 316 377.343 316H363C359.686 316 357 318.686 357 322V350C357 353.314 359.686 356 363 356H385C388.314 356 391 353.314 391 350V329.657C391 329.531 390.994 329.405 390.982 329.28C391.067 328.708 390.908 328.093 390.434 327.606C390.267 327.325 390.064 327.064 389.828 326.829L380.172 317.172C379.936 316.936 379.675 316.733 379.394 316.566C378.908 316.092 378.292 315.933 377.72 316.018ZM380 322.829L384.171 327H380V322.829ZM369 333C367.895 333 367 333.896 367 335C367 336.105 367.895 337 369 337H379C380.105 337 381 336.105 381 335C381 333.896 380.105 333 379 333H369ZM369 340C367.895 340 367 340.896 367 342C367 343.105 367.895 344 369 344H379C380.105 344 381 343.105 381 342C381 340.896 380.105 340 379 340H369Z" fill="#1F2733"/>
    <circle opacity="0.8" cx="363" cy="350" r="6" fill="#237FFA"/>
    <circle opacity="0.8" cx="363" cy="322" r="2" fill="#237FFA"/>
    <circle opacity="0.8" cx="385" cy="350" r="2" fill="#237FFA"/>
    <circle opacity="0.8" cx="378.25" cy="328.75" r="2.25" fill="#237FFA"/>
    <rect x="435" y="313" width="46" height="46" fill="white" stroke="#C6D7E8" stroke-width="2"/>
    <rect x="438" y="319" width="40" height="34" fill="#237FFA" fill-opacity="0.1"/>
    <path d="M434 312L482 360" stroke="#DAE1E9" stroke-width="0.5"/>
    <path d="M482 312L434 360" stroke="#DAE1E9" stroke-width="0.5"/>
    <path fill-rule="evenodd" clip-rule="evenodd" d="M478 325C478 321.686 475.314 319 472 319H444C440.686 319 438 321.686 438 325V347C438 350.314 440.686 353 444 353H472C475.314 353 478 350.314 478 347V325ZM444 323H472L472.149 323.005C473.184 323.082 474 323.946 474 325V329H442V325L442.005 324.851C442.082 323.816 442.946 323 444 323ZM442 333H474V347L473.995 347.149C473.918 348.184 473.054 349 472 349H444L443.851 348.995C442.816 348.918 442 348.054 442 347V333ZM462 340C460.895 340 460 340.895 460 342C460 343.105 460.895 344 462 344H468C469.105 344 470 343.105 470 342C470 340.895 469.105 340 468 340H462Z" fill="#1F2733"/>
    <circle opacity="0.75" cx="444" cy="347" r="6" fill="#237FFA"/>
    <circle opacity="0.75" cx="472" cy="325" r="2" fill="#237FFA"/>
    <rect width="200" height="200" transform="translate(84 200)" fill="white"/>
    <rect x="104" y="312" width="160" height="48" rx="24" fill="#237FFA"/>
    <rect x="104" y="240" width="160" height="48" rx="12" fill="#237FFA"/>
    <rect x="104.5" y="240.5" width="159" height="47" stroke="black"/>
    <rect x="259.5" y="236.5" width="7" height="7" fill="white" stroke="black"/>
    <rect x="101.5" y="236.5" width="7" height="7" fill="white" stroke="black"/>
    <rect x="101.5" y="283.5" width="7" height="7" fill="white" stroke="black"/>
    <rect x="259.5" y="283.5" width="7" height="7" fill="white" stroke="black"/>
    <rect x="104.5" y="312.5" width="159" height="47" stroke="black"/>
    <rect x="259.5" y="309.5" width="7" height="7" fill="white" stroke="black"/>
    <rect x="100.5" y="308.5" width="7" height="7" fill="white" stroke="black"/>
    <rect x="101.5" y="356.5" width="7" height="7" fill="white" stroke="black"/>
    <rect x="259.5" y="356.5" width="7" height="7" fill="white" stroke="black"/>
    <path d="M153.651 271.1V255.64H155.831V261.58H155.931C156.318 261.033 156.798 260.607 157.371 260.3C157.944 259.993 158.558 259.84 159.211 259.84C160.104 259.84 160.898 260.073 161.591 260.54C162.284 261.007 162.824 261.667 163.211 262.52C163.598 263.36 163.791 264.327 163.791 265.42C163.791 266.58 163.598 267.613 163.211 268.52C162.824 269.427 162.284 270.133 161.591 270.64C160.898 271.133 160.104 271.38 159.211 271.38C158.518 271.38 157.891 271.227 157.331 270.92C156.771 270.613 156.304 270.18 155.931 269.62H155.831V271.1H153.651ZM155.751 265.6C155.751 266.693 156.011 267.58 156.531 268.26C157.064 268.94 157.744 269.28 158.571 269.28C159.451 269.28 160.164 268.94 160.711 268.26C161.271 267.58 161.551 266.693 161.551 265.6C161.551 264.893 161.424 264.26 161.171 263.7C160.931 263.14 160.591 262.707 160.151 262.4C159.711 262.08 159.211 261.92 158.651 261.92C158.091 261.92 157.591 262.08 157.151 262.4C156.711 262.707 156.364 263.14 156.111 263.7C155.871 264.26 155.751 264.893 155.751 265.6ZM175.215 260.1V271.1H173.035V269.62H172.915C172.581 270.153 172.115 270.58 171.515 270.9C170.928 271.22 170.301 271.38 169.635 271.38C168.461 271.38 167.541 271.013 166.875 270.28C166.208 269.547 165.875 268.513 165.875 267.18V260.1H168.075V266.76C168.075 267.547 168.288 268.18 168.715 268.66C169.141 269.14 169.688 269.38 170.355 269.38C171.155 269.38 171.801 269.127 172.295 268.62C172.788 268.1 173.035 267.413 173.035 266.56V260.1H175.215ZM183.908 262.16H180.848V267.74C180.848 268.273 180.988 268.687 181.268 268.98C181.562 269.273 181.968 269.42 182.488 269.42C182.862 269.42 183.255 269.347 183.668 269.2V271.24C183.162 271.413 182.608 271.5 182.008 271.5C180.928 271.5 180.102 271.2 179.528 270.6C178.955 269.987 178.668 269.113 178.668 267.98V262.16H176.948V260.1H178.668V256.74H180.848V260.1H183.908V262.16ZM191.623 262.16H188.563V267.74C188.563 268.273 188.703 268.687 188.983 268.98C189.277 269.273 189.683 269.42 190.203 269.42C190.577 269.42 190.97 269.347 191.383 269.2V271.24C190.877 271.413 190.323 271.5 189.723 271.5C188.643 271.5 187.817 271.2 187.243 270.6C186.67 269.987 186.383 269.113 186.383 267.98V262.16H184.663V260.1H186.383V256.74H188.563V260.1H191.623V262.16ZM197.802 271.38C196.762 271.38 195.855 271.147 195.082 270.68C194.308 270.213 193.715 269.547 193.302 268.68C192.888 267.8 192.682 266.773 192.682 265.6C192.682 264.427 192.888 263.407 193.302 262.54C193.715 261.673 194.308 261.007 195.082 260.54C195.855 260.06 196.762 259.82 197.802 259.82C198.828 259.82 199.728 260.06 200.502 260.54C201.275 261.007 201.868 261.673 202.282 262.54C202.708 263.407 202.922 264.427 202.922 265.6C202.922 266.773 202.708 267.8 202.282 268.68C201.868 269.547 201.275 270.213 200.502 270.68C199.728 271.147 198.828 271.38 197.802 271.38ZM197.802 269.34C198.695 269.34 199.402 269.007 199.922 268.34C200.442 267.66 200.702 266.747 200.702 265.6C200.702 264.453 200.442 263.547 199.922 262.88C199.402 262.213 198.695 261.88 197.802 261.88C196.922 261.88 196.222 262.213 195.702 262.88C195.182 263.547 194.922 264.453 194.922 265.6C194.922 266.747 195.182 267.66 195.702 268.34C196.222 269.007 196.922 269.34 197.802 269.34ZM205.135 271.1V260.1H207.315V261.62H207.415C207.749 261.073 208.209 260.64 208.795 260.32C209.395 259.987 210.029 259.82 210.695 259.82C211.882 259.82 212.802 260.193 213.455 260.94C214.122 261.673 214.455 262.713 214.455 264.06V271.1H212.275V264.46C212.275 263.673 212.062 263.047 211.635 262.58C211.209 262.1 210.662 261.86 209.995 261.86C209.195 261.86 208.549 262.12 208.055 262.64C207.562 263.147 207.315 263.827 207.315 264.68V271.1H205.135Z" fill="white"/>
    <path d="M153.651 344.1V328.64H155.831V334.58H155.931C156.318 334.033 156.798 333.607 157.371 333.3C157.944 332.993 158.558 332.84 159.211 332.84C160.104 332.84 160.898 333.073 161.591 333.54C162.284 334.007 162.824 334.667 163.211 335.52C163.598 336.36 163.791 337.327 163.791 338.42C163.791 339.58 163.598 340.613 163.211 341.52C162.824 342.427 162.284 343.133 161.591 343.64C160.898 344.133 160.104 344.38 159.211 344.38C158.518 344.38 157.891 344.227 157.331 343.92C156.771 343.613 156.304 343.18 155.931 342.62H155.831V344.1H153.651ZM155.751 338.6C155.751 339.693 156.011 340.58 156.531 341.26C157.064 341.94 157.744 342.28 158.571 342.28C159.451 342.28 160.164 341.94 160.711 341.26C161.271 340.58 161.551 339.693 161.551 338.6C161.551 337.893 161.424 337.26 161.171 336.7C160.931 336.14 160.591 335.707 160.151 335.4C159.711 335.08 159.211 334.92 158.651 334.92C158.091 334.92 157.591 335.08 157.151 335.4C156.711 335.707 156.364 336.14 156.111 336.7C155.871 337.26 155.751 337.893 155.751 338.6ZM175.215 333.1V344.1H173.035V342.62H172.915C172.581 343.153 172.115 343.58 171.515 343.9C170.928 344.22 170.301 344.38 169.635 344.38C168.461 344.38 167.541 344.013 166.875 343.28C166.208 342.547 165.875 341.513 165.875 340.18V333.1H168.075V339.76C168.075 340.547 168.288 341.18 168.715 341.66C169.141 342.14 169.688 342.38 170.355 342.38C171.155 342.38 171.801 342.127 172.295 341.62C172.788 341.1 173.035 340.413 173.035 339.56V333.1H175.215ZM183.908 335.16H180.848V340.74C180.848 341.273 180.988 341.687 181.268 341.98C181.562 342.273 181.968 342.42 182.488 342.42C182.862 342.42 183.255 342.347 183.668 342.2V344.24C183.162 344.413 182.608 344.5 182.008 344.5C180.928 344.5 180.102 344.2 179.528 343.6C178.955 342.987 178.668 342.113 178.668 340.98V335.16H176.948V333.1H178.668V329.74H180.848V333.1H183.908V335.16ZM191.623 335.16H188.563V340.74C188.563 341.273 188.703 341.687 188.983 341.98C189.277 342.273 189.683 342.42 190.203 342.42C190.577 342.42 190.97 342.347 191.383 342.2V344.24C190.877 344.413 190.323 344.5 189.723 344.5C188.643 344.5 187.817 344.2 187.243 343.6C186.67 342.987 186.383 342.113 186.383 340.98V335.16H184.663V333.1H186.383V329.74H188.563V333.1H191.623V335.16ZM197.802 344.38C196.762 344.38 195.855 344.147 195.082 343.68C194.308 343.213 193.715 342.547 193.302 341.68C192.888 340.8 192.682 339.773 192.682 338.6C192.682 337.427 192.888 336.407 193.302 335.54C193.715 334.673 194.308 334.007 195.082 333.54C195.855 333.06 196.762 332.82 197.802 332.82C198.828 332.82 199.728 333.06 200.502 333.54C201.275 334.007 201.868 334.673 202.282 335.54C202.708 336.407 202.922 337.427 202.922 338.6C202.922 339.773 202.708 340.8 202.282 341.68C201.868 342.547 201.275 343.213 200.502 343.68C199.728 344.147 198.828 344.38 197.802 344.38ZM197.802 342.34C198.695 342.34 199.402 342.007 199.922 341.34C200.442 340.66 200.702 339.747 200.702 338.6C200.702 337.453 200.442 336.547 199.922 335.88C199.402 335.213 198.695 334.88 197.802 334.88C196.922 334.88 196.222 335.213 195.702 335.88C195.182 336.547 194.922 337.453 194.922 338.6C194.922 339.747 195.182 340.66 195.702 341.34C196.222 342.007 196.922 342.34 197.802 342.34ZM205.135 344.1V333.1H207.315V334.62H207.415C207.749 334.073 208.209 333.64 208.795 333.32C209.395 332.987 210.029 332.82 210.695 332.82C211.882 332.82 212.802 333.193 213.455 333.94C214.122 334.673 214.455 335.713 214.455 337.06V344.1H212.275V337.46C212.275 336.673 212.062 336.047 211.635 335.58C211.209 335.1 210.662 334.86 209.995 334.86C209.195 334.86 208.549 335.12 208.055 335.64C207.562 336.147 207.315 336.827 207.315 337.68V344.1H205.135Z" fill="white"/>
    <rect width="200" height="200" transform="translate(316)" fill="white"/>
    <rect x="344" y="47" width="108" height="108" rx="54" fill="#F6F9FC"/>
    <rect x="343.75" y="46.75" width="108.5" height="108.5" rx="54.25" stroke="black" stroke-opacity="0.1" stroke-width="0.5"/>
    <mask id="mask0_1170_91282" style="mask-type:alpha" maskUnits="userSpaceOnUse" x="344" y="46" width="108" height="108">
        <rect x="344" y="46" width="108" height="108" rx="54" fill="#F6F9FC"/>
    </mask>
    <g mask="url(#mask0_1170_91282)">
        <path d="M287 88L380.5 40.5L452 44V100H396L287 88Z" fill="#D8DBE3"/>
        <path d="M396 100L483 165L452 44V100H396Z" fill="white"/>
        <path d="M312 55.5L380.5 40.5L452 44V100H396L312 55.5Z" fill="#8F96B0"/>
        <path d="M349 46L452 44V100H396L349 46Z" fill="#262626"/>
        <rect x="396" y="44" width="56" height="56" fill="#427FF2"/>
    </g>
    <g filter="url(#filter2_d_1170_91282)">
        <rect x="376" y="79" width="44" height="44" rx="22" fill="white"/>
    </g>
    <path fill-rule="evenodd" clip-rule="evenodd" d="M397.289 94.3709C393.916 94.7283 391.332 97.5826 391.332 101C391.332 104.682 394.317 107.667 397.999 107.667C401.378 107.667 404.212 105.139 404.616 101.811C404.697 101.149 403.863 100.793 403.439 101.308C402.654 102.264 401.46 102.834 400.165 102.834C397.859 102.834 395.999 101.037 395.999 98.8335C395.999 97.5301 396.652 96.3308 397.738 95.5827C398.307 95.1905 397.976 94.2981 397.289 94.3709Z" fill="#929AA6"/>
    <g opacity="0.4">
        <rect x="468" y="112" width="20" height="20" fill="#2D4EF0"/>
        <rect x="468.5" y="112.5" width="19" height="19" stroke="black" stroke-opacity="0.05"/>
    </g>
    <g opacity="0.1">
        <rect x="468" y="134" width="20" height="20" fill="#2E2EF0"/>
        <rect x="468.5" y="134.5" width="19" height="19" stroke="black" stroke-opacity="0.05"/>
    </g>
    <rect x="468" y="90" width="28" height="20" fill="#427FF2"/>
    <rect x="468.5" y="90.5" width="27" height="19" stroke="black" stroke-opacity="0.05"/>
    <g opacity="0.4">
        <rect x="468" y="68" width="20" height="20" fill="#5CB4F4"/>
        <rect x="468.5" y="68.5" width="19" height="19" stroke="black" stroke-opacity="0.05"/>
    </g>
    <g opacity="0.2">
        <rect x="468" y="46" width="20" height="20" fill="#76E9F7"/>
        <rect x="468.5" y="46.5" width="19" height="19" stroke="black" stroke-opacity="0.05"/>
    </g>
    <rect x="482" y="103" width="12" height="3" fill="white"/>
    <rect width="200" height="200" transform="translate(84)" fill="white"/>
    <path d="M184.636 149.64H169.276L158.908 120.072H123.452L113.083 149.64H97.7235L133.692 50.696H148.668L184.636 149.64ZM140.732 70.792L128.316 106.376H154.044L141.5 70.792H140.732Z" fill="black"/>
    <path d="M213.708 151.432C206.966 151.432 201.59 149.64 197.58 146.056C193.569 142.472 191.564 137.651 191.564 131.592C191.564 123.997 194.55 118.237 200.524 114.312C206.497 110.301 214.988 108.296 225.996 108.296H234.956V103.816C234.956 99.464 233.633 96.0507 230.988 93.576C228.428 91.016 224.972 89.736 220.62 89.736C214.988 89.736 209.526 92.2533 204.236 97.288L195.532 89.096C202.785 81.3307 211.532 77.448 221.772 77.448C230.049 77.448 236.62 79.752 241.484 84.36C246.433 88.968 248.908 95.112 248.908 102.792V149.64H234.956V140.296H234.188C232.396 143.709 229.622 146.44 225.868 148.488C222.113 150.451 218.06 151.432 213.708 151.432ZM217.036 139.272C219.766 139.272 222.497 138.717 225.228 137.608C228.044 136.499 230.348 134.792 232.14 132.488C234.017 130.099 234.956 127.197 234.956 123.784V120.456H228.172C220.577 120.456 214.945 121.309 211.276 123.016C207.692 124.637 205.9 127.197 205.9 130.696C205.9 133.256 206.881 135.347 208.844 136.968C210.892 138.504 213.622 139.272 217.036 139.272Z" fill="white"/>
    <path d="M184.636 149.64V150.64H186.063L185.575 149.298L184.636 149.64ZM169.276 149.64L168.332 149.971L168.566 150.64H169.276V149.64ZM158.908 120.072L159.851 119.741L159.617 119.072H158.908V120.072ZM123.452 120.072V119.072H122.742L122.508 119.741L123.452 120.072ZM113.083 149.64V150.64H113.793L114.027 149.971L113.083 149.64ZM97.7235 149.64L96.7837 149.298L96.296 150.64H97.7235V149.64ZM133.692 50.696V49.696H132.991L132.752 50.3544L133.692 50.696ZM148.668 50.696L149.607 50.3544L149.368 49.696H148.668V50.696ZM140.732 70.792V69.792H140.021L139.787 70.4626L140.732 70.792ZM128.316 106.376L127.371 106.047L126.907 107.376H128.316V106.376ZM154.044 106.376V107.376H155.456L154.987 106.044L154.044 106.376ZM141.5 70.792L142.443 70.4595L142.207 69.792H141.5V70.792ZM184.636 148.64H169.276V150.64H184.636V148.64ZM170.219 149.309L159.851 119.741L157.964 120.403L168.332 149.971L170.219 149.309ZM158.908 119.072H123.452V121.072H158.908V119.072ZM122.508 119.741L112.14 149.309L114.027 149.971L124.395 120.403L122.508 119.741ZM113.083 148.64H97.7235V150.64H113.083V148.64ZM98.6633 149.982L134.631 51.0376L132.752 50.3544L96.7837 149.298L98.6633 149.982ZM133.692 51.696H148.668V49.696H133.692V51.696ZM147.728 51.0376L183.696 149.982L185.575 149.298L149.607 50.3544L147.728 51.0376ZM139.787 70.4626L127.371 106.047L129.26 106.705L141.676 71.1214L139.787 70.4626ZM128.316 107.376H154.044V105.376H128.316V107.376ZM154.987 106.044L142.443 70.4595L140.556 71.1245L153.1 106.708L154.987 106.044ZM141.5 69.792H140.732V71.792H141.5V69.792ZM197.579 146.056L196.913 146.802L197.579 146.056ZM200.523 114.312L201.073 115.148L201.081 115.142L200.523 114.312ZM234.956 108.296V109.296H235.956V108.296H234.956ZM230.988 93.576L230.28 94.2831L230.292 94.2949L230.304 94.3063L230.988 93.576ZM204.236 97.288L203.55 98.0162L204.239 98.6648L204.925 98.0124L204.236 97.288ZM195.532 89.096L194.801 88.4134L194.121 89.1414L194.846 89.8242L195.532 89.096ZM241.484 84.36L240.796 85.086L240.802 85.0919L241.484 84.36ZM248.908 149.64V150.64H249.908V149.64H248.908ZM234.956 149.64H233.956V150.64H234.956V149.64ZM234.956 140.296H235.956V139.296H234.956V140.296ZM234.188 140.296V139.296H233.583L233.302 139.831L234.188 140.296ZM225.867 148.488L226.331 149.374L226.339 149.37L226.346 149.366L225.867 148.488ZM225.228 137.608L224.861 136.678L224.851 136.682L225.228 137.608ZM232.139 132.488L231.353 131.87L231.35 131.874L232.139 132.488ZM234.956 120.456H235.956V119.456H234.956V120.456ZM211.275 123.016L211.688 123.927L211.697 123.923L211.275 123.016ZM208.843 136.968L208.207 137.739L208.225 137.754L208.243 137.768L208.843 136.968ZM213.708 150.432C207.147 150.432 202.03 148.692 198.246 145.31L196.913 146.802C201.15 150.588 206.785 152.432 213.708 152.432V150.432ZM198.246 145.31C194.476 141.941 192.563 137.406 192.563 131.592H190.563C190.563 137.895 192.662 143.003 196.913 146.802L198.246 145.31ZM192.563 131.592C192.563 124.309 195.401 118.875 201.073 115.148L199.974 113.476C193.699 117.6 190.563 123.686 190.563 131.592H192.563ZM201.081 115.142C206.823 111.287 215.088 109.296 225.995 109.296V107.296C214.887 107.296 206.17 109.316 199.966 113.482L201.081 115.142ZM225.995 109.296H234.956V107.296H225.995V109.296ZM235.956 108.296V103.816H233.956V108.296H235.956ZM235.956 103.816C235.956 99.2475 234.558 95.5471 231.671 92.8457L230.304 94.3063C232.707 96.5543 233.956 99.6805 233.956 103.816H235.956ZM231.695 92.8689C228.91 90.0844 225.179 88.736 220.62 88.736V90.736C224.764 90.736 227.945 91.9476 230.28 94.2831L231.695 92.8689ZM220.62 88.736C214.662 88.736 208.966 91.4064 203.546 96.5636L204.925 98.0124C210.087 93.1003 215.313 90.736 220.62 90.736V88.736ZM204.921 96.5598L196.217 88.3678L194.846 89.8242L203.55 98.0162L204.921 96.5598ZM196.262 89.7786C203.335 82.2071 211.82 78.448 221.771 78.448V76.448C211.243 76.448 202.235 80.4542 194.801 88.4134L196.262 89.7786ZM221.771 78.448C229.856 78.448 236.159 80.6931 240.796 85.086L242.171 83.634C237.08 78.8109 230.241 76.448 221.771 76.448V78.448ZM240.802 85.0919C245.52 89.4842 247.908 95.3481 247.908 102.792H249.908C249.908 94.8759 247.346 88.4518 242.165 83.6281L240.802 85.0919ZM247.908 102.792V149.64H249.908V102.792H247.908ZM248.908 148.64H234.956V150.64H248.908V148.64ZM235.956 149.64V140.296H233.956V149.64H235.956ZM234.956 139.296H234.188V141.296H234.956V139.296ZM233.302 139.831C231.612 143.051 228.99 145.646 225.389 147.61L226.346 149.366C230.255 147.234 233.179 144.368 235.073 140.761L233.302 139.831ZM225.404 147.602C221.797 149.488 217.903 150.432 213.708 150.432V152.432C218.216 152.432 222.429 151.414 226.331 149.374L225.404 147.602ZM217.035 140.272C219.905 140.272 222.763 139.688 225.604 138.534L224.851 136.682C222.23 137.746 219.627 138.272 217.035 138.272V140.272ZM225.594 138.538C228.57 137.366 231.023 135.553 232.929 133.102L231.35 131.874C229.672 134.031 227.517 135.631 224.861 136.678L225.594 138.538ZM232.926 133.106C234.959 130.519 235.956 127.392 235.956 123.784H233.956C233.956 127.002 233.075 129.679 231.353 131.87L232.926 133.106ZM235.956 123.784V120.456H233.956V123.784H235.956ZM234.956 119.456H228.172V121.456H234.956V119.456ZM228.172 119.456C220.537 119.456 214.726 120.308 210.854 122.109L211.697 123.923C215.164 122.31 220.617 121.456 228.172 121.456V119.456ZM210.863 122.105C208.95 122.971 207.447 124.118 206.424 125.579C205.397 127.046 204.9 128.767 204.9 130.696H206.9C206.9 129.126 207.298 127.818 208.063 126.725C208.832 125.626 210.017 124.683 211.688 123.927L210.863 122.105ZM204.9 130.696C204.9 133.552 206.012 135.926 208.207 137.739L209.48 136.197C207.749 134.767 206.9 132.96 206.9 130.696H204.9ZM208.243 137.768C210.514 139.471 213.477 140.272 217.035 140.272V138.272C213.767 138.272 211.269 137.537 209.443 136.168L208.243 137.768Z" fill="#237FFA"/>
    <rect x="246.5" y="147.5" width="6" height="6" fill="white" stroke="black"/>
    <path d="M250.158 153.055L256.577 172.312C257.033 173.68 258.967 173.68 259.423 172.312L262.316 163.632C262.366 163.483 262.483 163.366 262.632 163.316L271.312 160.423C272.68 159.967 272.68 158.033 271.312 157.577L252.055 151.158C250.883 150.767 249.767 151.883 250.158 153.055Z" fill="#237FFA" stroke="black"/>
    <path d="M262 163L250 151L274 159L262 163Z" fill="url(#paint0_linear_1170_91282)"/>
    <defs>
        <filter id="filter0_f_1170_91282" x="310" y="388" width="211" height="209" filterUnits="userSpaceOnUse" color-interpolation-filters="sRGB">
            <feFlood flood-opacity="0" result="BackgroundImageFix"/>
            <feBlend mode="normal" in="SourceGraphic" in2="BackgroundImageFix" result="shape"/>
            <feGaussianBlur stdDeviation="25" result="effect1_foregroundBlur_1170_91282"/>
        </filter>
        <filter id="filter1_d_1170_91282" x="92" y="432" width="192" height="152" filterUnits="userSpaceOnUse" color-interpolation-filters="sRGB">
            <feFlood flood-opacity="0" result="BackgroundImageFix"/>
            <feColorMatrix in="SourceAlpha" type="matrix" values="0 0 0 0 0 0 0 0 0 0 0 0 0 0 0 0 0 0 127 0" result="hardAlpha"/>
            <feOffset dx="4" dy="-4"/>
            <feGaussianBlur stdDeviation="6"/>
            <feComposite in2="hardAlpha" operator="out"/>
            <feColorMatrix type="matrix" values="0 0 0 0 0 0 0 0 0 0 0 0 0 0 0 0 0 0 0.05 0"/>
            <feBlend mode="normal" in2="BackgroundImageFix" result="effect1_dropShadow_1170_91282"/>
            <feBlend mode="normal" in="SourceGraphic" in2="effect1_dropShadow_1170_91282" result="shape"/>
        </filter>
        <filter id="filter2_d_1170_91282" x="372" y="79" width="52" height="52" filterUnits="userSpaceOnUse" color-interpolation-filters="sRGB">
            <feFlood flood-opacity="0" result="BackgroundImageFix"/>
            <feColorMatrix in="SourceAlpha" type="matrix" values="0 0 0 0 0 0 0 0 0 0 0 0 0 0 0 0 0 0 127 0" result="hardAlpha"/>
            <feOffset dy="4"/>
            <feGaussianBlur stdDeviation="2"/>
            <feComposite in2="hardAlpha" operator="out"/>
            <feColorMatrix type="matrix" values="0 0 0 0 0 0 0 0 0 0 0 0 0 0 0 0 0 0 0.25 0"/>
            <feBlend mode="normal" in2="BackgroundImageFix" result="effect1_dropShadow_1170_91282"/>
            <feBlend mode="normal" in="SourceGraphic" in2="effect1_dropShadow_1170_91282" result="shape"/>
        </filter>
        <linearGradient id="paint0_linear_1170_91282" x1="250" y1="151" x2="262" y2="163" gradientUnits="userSpaceOnUse">
            <stop stop-color="white" stop-opacity="0"/>
            <stop offset="1" stop-color="white" stop-opacity="0.5"/>
        </linearGradient>
        <clipPath id="clip0_1170_91282">
            <rect width="168" height="144" fill="white" transform="translate(332 432)"/>
        </clipPath>
    </defs>
</svg>
