<svg width="32" height="32" viewBox="0 0 32 32" fill="none" xmlns="http://www.w3.org/2000/svg">
    <path d="M2.49793 6.92225L9.99793 2.58015C10.6178 2.22128 11.3822 2.22128 12.0021 2.58015L19.5021 6.92225C20.1197 7.27983 20.5 7.93943 20.5 8.6531V17.3469C20.5 18.0606 20.1197 18.7202 19.5021 19.0777L12.0021 23.4199C11.3822 23.7787 10.6178 23.7787 9.99793 23.4199L2.49793 19.0777C1.88029 18.7202 1.5 18.0606 1.5 17.3469V8.65311C1.5 7.93943 1.88029 7.27983 2.49793 6.92225Z" fill="white"/>
    <path d="M2.49793 6.92225L9.99793 2.58015C10.6178 2.22128 11.3822 2.22128 12.0021 2.58015L19.5021 6.92225C20.1197 7.27983 20.5 7.93943 20.5 8.6531V17.3469C20.5 18.0606 20.1197 18.7202 19.5021 19.0777L12.0021 23.4199C11.3822 23.7787 10.6178 23.7787 9.99793 23.4199L2.49793 19.0777C1.88029 18.7202 1.5 18.0606 1.5 17.3469V8.65311C1.5 7.93943 1.88029 7.27983 2.49793 6.92225Z" fill="#237FFA" fill-opacity="0.2"/>
    <path d="M12.4979 12.9223L19.9979 8.58015C20.6178 8.22128 21.3822 8.22128 22.0021 8.58015L29.5021 12.9223C30.1197 13.2798 30.5 13.9394 30.5 14.6531V23.3469C30.5 24.0606 30.1197 24.7202 29.5021 25.0777L22.0021 29.4199C21.3822 29.7787 20.6178 29.7787 19.9979 29.4199L12.4979 25.0777C11.8803 24.7202 11.5 24.0606 11.5 23.3469V14.6531C11.5 13.9394 11.8803 13.2798 12.4979 12.9223Z" fill="#237FFA"/>
    <path fill-rule="evenodd" clip-rule="evenodd" d="M20.4812 8.37939C20.4936 8.46936 20.5 8.56077 20.5 8.65309V17.3469C20.5 18.0606 20.1197 18.7202 19.5021 19.0777L12.0021 23.4198C11.8484 23.5088 11.6858 23.5757 11.5188 23.6206C11.5064 23.5306 11.5 23.4392 11.5 23.3469V14.6531C11.5 13.9394 11.8803 13.2798 12.4979 12.9222L19.9979 8.58013C20.1516 8.49116 20.3142 8.42425 20.4812 8.37939Z" fill="white"/>
    <path fill-rule="evenodd" clip-rule="evenodd" d="M20.4812 8.37939C20.4936 8.46936 20.5 8.56077 20.5 8.65309V17.3469C20.5 18.0606 20.1197 18.7202 19.5021 19.0777L12.0021 23.4198C11.8484 23.5088 11.6858 23.5757 11.5188 23.6206C11.5064 23.5306 11.5 23.4392 11.5 23.3469V14.6531C11.5 13.9394 11.8803 13.2798 12.4979 12.9222L19.9979 8.58013C20.1516 8.49116 20.3142 8.42425 20.4812 8.37939Z" fill="#1F2733"/>
    <path d="M30.5 13.5L23.0228 17.8289C21.7731 18.5524 20.2305 18.5462 18.9867 17.8127L1.5 7.5" stroke="#F6F9FC" stroke-width="1.5"/>
</svg>
