<svg width="64" height="64" viewBox="0 0 64 64" fill="none" xmlns="http://www.w3.org/2000/svg">
    <g clip-path="url(#clip0_1139_89840)">
        <path d="M40.1496 28.0377H33.1765V21.5C33.1765 20.4943 31.8587 20.1178 31.3274 20.9717L22.9509 34.434C22.5365 35.1001 23.0155 35.9623 23.8 35.9623H30.2353V42.6481C30.2353 43.6417 31.5274 44.0272 32.0718 43.196L40.9862 29.5856C41.4218 28.9206 40.9446 28.0377 40.1496 28.0377Z" fill="#237FFA"/>
        <path d="M45 1.00001C45 8.15995 39.1992 14 32 14C24.8008 14 19 8.15995 19 1.00001C19 -6.15994 24.8008 -12 32 -12C39.1992 -12 45 -6.15994 45 1.00001Z" stroke="white" stroke-width="2"/>
        <path d="M45 1.00001C45 8.15995 39.1992 14 32 14C24.8008 14 19 8.15995 19 1.00001C19 -6.15994 24.8008 -12 32 -12C39.1992 -12 45 -6.15994 45 1.00001Z" stroke="#237FFA" stroke-opacity="0.5" stroke-width="2"/>
        <path d="M40 0.999993C40 5.39862 36.4377 9 31.9999 9C27.5624 9 24 5.39862 24 0.999993C24 -3.39861 27.5624 -7 31.9999 -7C36.4377 -7 40 -3.39861 40 0.999993Z" stroke="#D0DDEA" stroke-width="2"/>
        <path d="M35 1C35 2.63762 33.6759 4 31.9998 4C30.3245 4 29 2.63762 29 1C29 -0.637615 30.3245 -2 31.9998 -2C33.6759 -2 35 -0.637615 35 1Z" stroke="#D0DDEA" stroke-width="2"/>
        <path d="M45 63C45 70.16 39.1992 76 32 76C24.8008 76 19 70.16 19 63C19 55.8401 24.8008 50 32 50C39.1992 50 45 55.8401 45 63Z" stroke="white" stroke-width="2"/>
        <path d="M45 63C45 70.16 39.1992 76 32 76C24.8008 76 19 70.16 19 63C19 55.8401 24.8008 50 32 50C39.1992 50 45 55.8401 45 63Z" stroke="#237FFA" stroke-opacity="0.5" stroke-width="2"/>
        <path d="M40 63C40 67.3986 36.4377 71 31.9999 71C27.5624 71 24 67.3986 24 63C24 58.6014 27.5624 55 31.9999 55C36.4377 55 40 58.6014 40 63Z" stroke="#D0DDEA" stroke-width="2"/>
        <path d="M35 63C35 64.6376 33.6759 66 31.9998 66C30.3245 66 29 64.6376 29 63C29 61.3624 30.3245 60 31.9998 60C33.6759 60 35 61.3624 35 63Z" stroke="#D0DDEA" stroke-width="2"/>
        <path d="M14 32C14 39.16 8.1992 45 0.999967 45C-6.1992 45 -12 39.16 -12 32C-12 24.8401 -6.1992 19 0.999967 19C8.1992 19 14 24.8401 14 32Z" stroke="white" stroke-width="2"/>
        <path d="M14 32C14 39.16 8.1992 45 0.999967 45C-6.1992 45 -12 39.16 -12 32C-12 24.8401 -6.1992 19 0.999967 19C8.1992 19 14 24.8401 14 32Z" stroke="#237FFA" stroke-opacity="0.5" stroke-width="2"/>
        <path d="M9 32C9 36.3986 5.43772 40 0.999901 40C-3.43765 40 -7 36.3986 -7 32C-7 27.6014 -3.43765 24 0.999901 24C5.43772 24 9 27.6014 9 32Z" stroke="#D0DDEA" stroke-width="2"/>
        <path d="M4 32C4 33.6376 2.67586 35 0.999838 35C-0.675536 35 -2 33.6376 -2 32C-2 30.3624 -0.675536 29 0.999838 29C2.67586 29 4 30.3624 4 32Z" stroke="#D0DDEA" stroke-width="2"/>
        <path d="M76 32C76 39.16 70.1992 45 63 45C55.8008 45 50 39.16 50 32C50 24.8401 55.8008 19 63 19C70.1992 19 76 24.8401 76 32Z" stroke="white" stroke-width="2"/>
        <path d="M76 32C76 39.16 70.1992 45 63 45C55.8008 45 50 39.16 50 32C50 24.8401 55.8008 19 63 19C70.1992 19 76 24.8401 76 32Z" stroke="#237FFA" stroke-opacity="0.5" stroke-width="2"/>
        <path d="M71 32C71 36.3986 67.4377 40 62.9999 40C58.5624 40 55 36.3986 55 32C55 27.6014 58.5624 24 62.9999 24C67.4377 24 71 27.6014 71 32Z" stroke="#D0DDEA" stroke-width="2"/>
        <path d="M66 32C66 33.6376 64.6759 35 62.9998 35C61.3245 35 60 33.6376 60 32C60 30.3624 61.3245 29 62.9998 29C64.6759 29 66 30.3624 66 32Z" stroke="#D0DDEA" stroke-width="2"/>
    </g>
    <defs>
        <clipPath id="clip0_1139_89840">
            <rect width="64" height="64" rx="32" fill="white"/>
        </clipPath>
    </defs>
</svg>
