<svg width="64" height="64" viewBox="0 0 64 64" fill="none" xmlns="http://www.w3.org/2000/svg">
    <g clip-path="url(#clip0_1139_89862)">
        <path d="M32 2V62" stroke="#D0DDEA" stroke-linecap="round"/>
        <path d="M8 2V62" stroke="#D0DDEA" stroke-linecap="round"/>
        <path d="M56 2V62" stroke="#D0DDEA" stroke-linecap="round"/>
        <path d="M2 8L62 8" stroke="#D0DDEA" stroke-linecap="round"/>
        <path d="M2 24L62 24" stroke="#D0DDEA" stroke-linecap="round"/>
        <path d="M2 40L62 40" stroke="#D0DDEA" stroke-linecap="round"/>
        <path d="M2 56L62 56" stroke="#D0DDEA" stroke-linecap="round"/>
        <path d="M32 11.9086C32 10.5405 32 9.85641 32.2076 9.33382C32.39 8.87419 32.6815 8.50049 33.0401 8.26628C33.4478 8 33.9812 8 35.048 8H68.952C70.0188 8 70.5522 8 70.9599 8.26628C71.318 8.50049 71.6095 8.87419 71.7924 9.33382C72 9.85641 72 10.5405 72 11.9086V20.0914C72 21.4595 72 22.1436 71.7924 22.6662C71.6095 23.1258 71.318 23.4995 70.9599 23.7337C70.5522 24 70.0188 24 68.952 24H35.048C33.9812 24 33.4478 24 33.0401 23.7337C32.6815 23.4995 32.39 23.1258 32.2076 22.6662C32 22.1436 32 21.4595 32 20.0914V11.9086Z" fill="white" stroke="#237FFA" stroke-width="3"/>
        <path d="M-6 43.9085C-6 42.5406 -6 41.8566 -5.80274 41.3338C-5.62923 40.8745 -5.35238 40.5008 -5.01183 40.2663C-4.62472 40 -4.11795 40 -3.10439 40H29.1044C30.1183 40 30.625 40 31.0119 40.2663C31.3526 40.5008 31.6295 40.8745 31.8027 41.3338C32 41.8566 32 42.5406 32 43.9085V52.0915C32 53.4594 32 54.1434 31.8027 54.6662C31.6295 55.1261 31.3526 55.4998 31.0119 55.7337C30.625 56 30.1183 56 29.1044 56H-3.10439C-4.11795 56 -4.62472 56 -5.01183 55.7337C-5.35238 55.4998 -5.62923 55.1261 -5.80274 54.6662C-6 54.1434 -6 53.4594 -6 52.0915V43.9085Z" fill="white"/>
        <path d="M-6 43.9085C-6 42.5406 -6 41.8566 -5.80274 41.3338C-5.62923 40.8745 -5.35238 40.5008 -5.01183 40.2663C-4.62472 40 -4.11795 40 -3.10439 40H29.1044C30.1183 40 30.625 40 31.0119 40.2663C31.3526 40.5008 31.6295 40.8745 31.8027 41.3338C32 41.8566 32 42.5406 32 43.9085V52.0915C32 53.4594 32 54.1434 31.8027 54.6662C31.6295 55.1261 31.3526 55.4998 31.0119 55.7337C30.625 56 30.1183 56 29.1044 56H-3.10439C-4.11795 56 -4.62472 56 -5.01183 55.7337C-5.35238 55.4998 -5.62923 55.1261 -5.80274 54.6662C-6 54.1434 -6 53.4594 -6 52.0915V43.9085Z" stroke="white" stroke-width="2"/>
        <path d="M-6 43.9085C-6 42.5406 -6 41.8566 -5.80274 41.3338C-5.62923 40.8745 -5.35238 40.5008 -5.01183 40.2663C-4.62472 40 -4.11795 40 -3.10439 40H29.1044C30.1183 40 30.625 40 31.0119 40.2663C31.3526 40.5008 31.6295 40.8745 31.8027 41.3338C32 41.8566 32 42.5406 32 43.9085V52.0915C32 53.4594 32 54.1434 31.8027 54.6662C31.6295 55.1261 31.3526 55.4998 31.0119 55.7337C30.625 56 30.1183 56 29.1044 56H-3.10439C-4.11795 56 -4.62472 56 -5.01183 55.7337C-5.35238 55.4998 -5.62923 55.1261 -5.80274 54.6662C-6 54.1434 -6 53.4594 -6 52.0915V43.9085Z" stroke="#237FFA" stroke-opacity="0.5" stroke-width="2"/>
    </g>
    <defs>
        <clipPath id="clip0_1139_89862">
            <rect width="64" height="64" fill="white"/>
        </clipPath>
    </defs>
</svg>
