<svg width="32" height="32" viewBox="0 0 32 32" fill="none" xmlns="http://www.w3.org/2000/svg">
    <rect x="1" y="1" width="24" height="18" rx="2" fill="white"/>
    <rect x="1" y="1" width="24" height="18" rx="2" fill="#237FFA" fill-opacity="0.2"/>
    <path d="M5 4L7.64645 6.64645C7.84171 6.84171 7.84171 7.15829 7.64645 7.35355L5 10" stroke="white" stroke-width="1.5" stroke-linecap="round"/>
    <path d="M10 10H16" stroke="white" stroke-width="1.5" stroke-linecap="round"/>
    <path d="M22.7071 12.7071C22.3166 12.3166 21.6834 12.3166 21.2929 12.7071L19 15H16C15.4477 15 15 15.4477 15 16V19L12.7071 21.2929C12.3166 21.6834 12.3166 22.3166 12.7071 22.7071L15 25V28C15 28.5523 15.4477 29 16 29H19L21.2929 31.2929C21.6834 31.6834 22.3166 31.6834 22.7071 31.2929L25 29H28C28.5523 29 29 28.5523 29 28V25L31.2929 22.7071C31.6834 22.3166 31.6834 21.6834 31.2929 21.2929L29 19V16C29 15.4477 28.5523 15 28 15H25L22.7071 12.7071Z" fill="#237FFA"/>
    <path fill-rule="evenodd" clip-rule="evenodd" d="M25 15L22.7071 12.7071C22.3166 12.3166 21.6834 12.3166 21.2929 12.7071L19 15H16C15.4477 15 15 15.4477 15 16V19L23 19C24.1046 19 25 18.1045 25 17L25 15Z" fill="#1F2733"/>
    <circle cx="22" cy="22" r="2" fill="white"/>
</svg>
