<svg width="64" height="64" viewBox="0 0 64 64" fill="none" xmlns="http://www.w3.org/2000/svg">
    <rect x="4" y="4" width="6" height="6" rx="1" fill="#D0DDEA"/>
    <rect x="14" y="4" width="6" height="6" rx="1" fill="#D0DDEA"/>
    <rect x="24" y="4" width="6" height="6" rx="1" fill="#D0DDEA"/>
    <rect x="34" y="4" width="6" height="6" rx="1" fill="#D0DDEA"/>
    <rect x="44" y="4" width="6" height="6" rx="1" fill="#D0DDEA"/>
    <rect x="54" y="4" width="6" height="6" rx="1" fill="#237FFA"/>
    <rect x="4" y="14" width="6" height="6" rx="1" fill="#D0DDEA"/>
    <rect x="14" y="14" width="6" height="6" rx="1" fill="#D0DDEA"/>
    <rect x="24" y="14" width="6" height="6" rx="1" fill="#237FFA"/>
    <rect x="34" y="14" width="6" height="6" rx="1" fill="#D0DDEA"/>
    <rect x="44" y="14" width="6" height="6" rx="1" fill="#D0DDEA"/>
    <rect x="54" y="14" width="6" height="6" rx="1" fill="#D0DDEA"/>
    <rect x="4" y="24" width="6" height="6" rx="1" fill="#237FFA"/>
    <rect x="14" y="24" width="6" height="6" rx="1" fill="#D0DDEA"/>
    <rect x="24" y="24" width="6" height="6" rx="1" fill="#D0DDEA"/>
    <rect x="34" y="24" width="6" height="6" rx="1" fill="#D0DDEA"/>
    <rect x="44" y="24" width="6" height="6" rx="1" fill="#237FFA"/>
    <rect x="54" y="24" width="6" height="6" rx="1" fill="#D0DDEA"/>
    <rect x="4" y="34" width="6" height="6" rx="1" fill="#D0DDEA"/>
    <rect x="14" y="34" width="6" height="6" rx="1" fill="#237FFA"/>
    <rect x="24" y="34" width="6" height="6" rx="1" fill="#D0DDEA"/>
    <rect x="34" y="34" width="6" height="6" rx="1" fill="#D0DDEA"/>
    <rect x="44" y="34" width="6" height="6" rx="1" fill="#D0DDEA"/>
    <rect x="54" y="34" width="6" height="6" rx="1" fill="#D0DDEA"/>
    <rect x="4" y="44" width="6" height="6" rx="1" fill="#D0DDEA"/>
    <rect x="14" y="44" width="6" height="6" rx="1" fill="#D0DDEA"/>
    <rect x="24" y="44" width="6" height="6" rx="1" fill="#D0DDEA"/>
    <rect x="34" y="44" width="6" height="6" rx="1" fill="#237FFA"/>
    <rect x="44" y="44" width="6" height="6" rx="1" fill="#D0DDEA"/>
    <rect x="54" y="44" width="6" height="6" rx="1" fill="#D0DDEA"/>
    <rect x="4" y="54" width="6" height="6" rx="1" fill="#D0DDEA"/>
    <rect x="14" y="54" width="6" height="6" rx="1" fill="#D0DDEA"/>
    <rect x="24" y="54" width="6" height="6" rx="1" fill="#D0DDEA"/>
    <rect x="34" y="54" width="6" height="6" rx="1" fill="#D0DDEA"/>
    <rect x="44" y="54" width="6" height="6" rx="1" fill="#D0DDEA"/>
    <rect x="54" y="54" width="6" height="6" rx="1" fill="#237FFA"/>
</svg>
