<svg width="32" height="32" viewBox="0 0 32 32" fill="none" xmlns="http://www.w3.org/2000/svg">
    <path d="M3.32119 15.0715L14.5144 10.5942C15.4681 10.2128 16.5319 10.2128 17.4856 10.5942L28.6788 15.0715C29.517 15.4068 29.517 16.5932 28.6788 16.9285L17.4856 21.4058C16.5319 21.7872 15.4681 21.7872 14.5144 21.4058L3.32119 16.9285C2.48305 16.5932 2.48305 15.4068 3.32119 15.0715Z" fill="#237FFA"/>
    <path d="M3.32119 22.0715L14.5144 17.5942C15.4681 17.2128 16.5319 17.2128 17.4856 17.5942L28.6788 22.0715C29.517 22.4068 29.517 23.5932 28.6788 23.9285L17.4856 28.4058C16.5319 28.7872 15.4681 28.7872 14.5144 28.4058L3.32119 23.9285C2.48305 23.5932 2.48305 22.4068 3.32119 22.0715Z" fill="white"/>
    <path d="M3.32119 22.0715L14.5144 17.5942C15.4681 17.2128 16.5319 17.2128 17.4856 17.5942L28.6788 22.0715C29.517 22.4068 29.517 23.5932 28.6788 23.9285L17.4856 28.4058C16.5319 28.7872 15.4681 28.7872 14.5144 28.4058L3.32119 23.9285C2.48305 23.5932 2.48305 22.4068 3.32119 22.0715Z" fill="#237FFA" fill-opacity="0.2"/>
    <path fill-rule="evenodd" clip-rule="evenodd" d="M22.25 19.5L17.4856 21.4057C16.5319 21.7872 15.4681 21.7872 14.5144 21.4057L9.75 19.5L14.5144 17.5942C15.4681 17.2127 16.5319 17.2127 17.4856 17.5942L22.25 19.5Z" fill="white"/>
    <path d="M3.32119 8.07152L14.5144 3.59423C15.4681 3.21277 16.5319 3.21277 17.4856 3.59423L28.6788 8.07152C29.517 8.40678 29.517 9.59322 28.6788 9.92848L17.4856 14.4058C16.5319 14.7872 15.4681 14.7872 14.5144 14.4058L3.32119 9.92848C2.48305 9.59322 2.48305 8.40678 3.32119 8.07152Z" fill="white"/>
    <path d="M3.32119 8.07152L14.5144 3.59423C15.4681 3.21277 16.5319 3.21277 17.4856 3.59423L28.6788 8.07152C29.517 8.40678 29.517 9.59322 28.6788 9.92848L17.4856 14.4058C16.5319 14.7872 15.4681 14.7872 14.5144 14.4058L3.32119 9.92848C2.48305 9.59322 2.48305 8.40678 3.32119 8.07152Z" fill="#237FFA" fill-opacity="0.2"/>
    <path fill-rule="evenodd" clip-rule="evenodd" d="M22.25 12.5L17.4856 14.4057C16.5319 14.7872 15.4681 14.7872 14.5144 14.4057L9.75 12.5L14.5144 10.5942C15.4681 10.2127 16.5319 10.2127 17.4856 10.5942L22.25 12.5Z" fill="#1F2733"/>
</svg>
