<svg xmlns="http://www.w3.org/2000/svg" viewBox="0 0 1024 1024" version="1.1"><path d="M936 120a16 16 0 0 1 16 16v576a16 16 0 0 1-16 16H552v96h208a8 8 0 0 1 8 8v64a8 8 0 0 1-8 8H264a8 8 0 0 1-8-8v-64a8 8 0 0 1 8-8l208-0.002V728H88a16 16 0 0 1-16-16V136a16 16 0 0 1 16-16h848z m-64 80H152v448h720V200zM404 304a8 8 0 0 1 8 8v64a8 8 0 0 1-8 8h-144a8 8 0 0 1-8-8v-64a8 8 0 0 1 8-8h144z m360 0a8 8 0 0 1 8 8v64a8 8 0 0 1-8 8H460a8 8 0 0 1-8-8v-64a8 8 0 0 1 8-8h304zM404 472a8 8 0 0 1 8 8v64a8 8 0 0 1-8 8h-144a8 8 0 0 1-8-8v-64a8 8 0 0 1 8-8h144z m360 0a8 8 0 0 1 8 8v64a8 8 0 0 1-8 8H460a8 8 0 0 1-8-8v-64a8 8 0 0 1 8-8h304z" p-id="11575"></path></svg>