<svg xmlns="http://www.w3.org/2000/svg" viewBox="0 0 1024 1024" version="1.1"><path d="M904 826a8 8 0 0 1 8 8v64a8 8 0 0 1-8 8H120a8 8 0 0 1-8-8v-64a8 8 0 0 1 8-8h784z m0-708a8 8 0 0 1 8 8v64a8 8 0 0 1-8 8H120a8 8 0 0 1-8-8V126a8 8 0 0 1 8-8h784zM210.144 678l15.432-70.636h88.848L329.856 678H400l-88.38-334h-83.24L140 678h70.144zM304 552h-66l32.528-150h0.944L304 552z m261.274 126L642 344h-69.708l-49.59 246.992h-1.404L474.046 344H402l76.726 334h86.548z m197.96 4c15.914 0 29.568-2.732 40.958-8.194 11.39-5.46 21.14-14.748 29.254-27.858h0.936v30.9H884v-180.256h-109.064v49.63h44.468v34.18c0 9.05-1.404 16.932-4.212 23.642-2.81 6.712-6.32 12.252-10.532 16.62-4.214 4.372-8.738 7.65-13.574 9.834-4.838 2.184-9.284 3.278-13.34 3.278-9.676 0-17.554-3.044-23.64-9.13-6.084-6.088-10.766-14.826-14.042-26.22-3.276-11.392-5.54-25.204-6.788-41.436-1.248-16.23-1.872-34.334-1.872-54.31 0-41.826 3.588-71.792 10.766-89.896 7.178-18.102 18.88-27.154 35.106-27.154 6.866 0 12.716 1.794 17.554 5.384 4.836 3.59 8.816 8.116 11.936 13.578 3.12 5.46 5.382 11.47 6.788 18.026 1.404 6.554 2.106 12.952 2.106 19.196h64.596c0-34.024-8.114-60.164-24.34-78.424-16.228-18.26-42.752-27.39-79.576-27.39-21.532 0-39.474 3.59-53.83 10.768-14.354 7.18-25.9 17.87-34.638 32.072-8.738 14.202-14.9 31.916-18.49 53.14-3.588 21.226-5.382 45.884-5.382 73.976 0 29.03 1.248 54.546 3.744 76.552 2.498 22.004 7.412 40.5 14.746 55.48 7.332 14.984 17.474 26.064 30.424 33.244 12.952 7.18 29.724 10.768 50.32 10.768z" p-id="13475"></path></svg>