<svg xmlns="http://www.w3.org/2000/svg" viewBox="0 0 1024 1024" version="1.1"><path d="M296 812a8 8 0 0 1 8 8v64a8 8 0 0 1-8 8H120a8 8 0 0 1-8-8v-64a8 8 0 0 1 8-8h176z m608 0a8 8 0 0 1 8 8v64a8 8 0 0 1-8 8H360a8 8 0 0 1-8-8v-64a8 8 0 0 1 8-8h544zM296 472a8 8 0 0 1 8 8v64a8 8 0 0 1-8 8H120a8 8 0 0 1-8-8v-64a8 8 0 0 1 8-8h176z m608 0a8 8 0 0 1 8 8v64a8 8 0 0 1-8 8H360a8 8 0 0 1-8-8v-64a8 8 0 0 1 8-8h544zM296 132a8 8 0 0 1 8 8v64a8 8 0 0 1-8 8H120a8 8 0 0 1-8-8V140a8 8 0 0 1 8-8h176z m608 0a8 8 0 0 1 8 8v64a8 8 0 0 1-8 8H360a8 8 0 0 1-8-8V140a8 8 0 0 1 8-8h544z" p-id="12615"></path></svg>