<svg xmlns="http://www.w3.org/2000/svg" viewBox="0 0 1024 1024" version="1.1"><path d="M668 878a8 8 0 0 1 8 8v64a8 8 0 0 1-8 8H356a8 8 0 0 1-8-8v-64a8 8 0 0 1 8-8h312zM512 66c187.776 0 340 152.224 340 340 0 128.306-71.072 240.014-175.994 297.9L676 826a8 8 0 0 1-8 8H356a8 8 0 0 1-8-8l-0.004-122.098C243.072 646.016 172 534.308 172 406c0-187.776 152.224-340 340-340z m0 80c-143.594 0-260 116.406-260 260 0 94.858 51.176 180.648 132.178 226.48l2.464 1.376 41.354 22.814V754h168.006l0.006-97.33 41.352-22.816C719.786 588.38 772 501.814 772 406c0-143.594-116.406-260-260-260z" p-id="12635"></path></svg>