<svg xmlns="http://www.w3.org/2000/svg" viewBox="0 0 1024 1024" version="1.1"><path d="M760 256a8 8 0 0 1 8 8v640a8 8 0 0 1-8 8H120a8 8 0 0 1-8-8V264a8 8 0 0 1 8-8h640z m-72 80H192v496h496V336z m224 448a8 8 0 0 1-8 8h-64a8 8 0 0 1-8-8V192H240a8 8 0 0 1-8-8V120a8 8 0 0 1 8-8h664a8 8 0 0 1 8 8v664zM472 416a8 8 0 0 1 8 8l-0.002 119.998L600 544a8 8 0 0 1 8 8v64a8 8 0 0 1-8 8l-120.002-0.002L480 744a8 8 0 0 1-8 8h-64a8 8 0 0 1-8-8l-0.002-120.002L280 624a8 8 0 0 1-8-8v-64a8 8 0 0 1 8-8l119.998-0.002L400 424a8 8 0 0 1 8-8h64z" p-id="11505"></path></svg>