<svg xmlns="http://www.w3.org/2000/svg" viewBox="0 0 1024 1024" version="1.1"><path d="M184 624a8 8 0 0 1 8 8v200h200a8 8 0 0 1 8 8v64a8 8 0 0 1-8 8H120a8 8 0 0 1-8-8V632a8 8 0 0 1 8-8h64z m720 0a8 8 0 0 1 8 8v272a8 8 0 0 1-8 8H632a8 8 0 0 1-8-8v-64a8 8 0 0 1 8-8h200V632a8 8 0 0 1 8-8h64z m-120-152a8 8 0 0 1 8 8v64a8 8 0 0 1-8 8H240a8 8 0 0 1-8-8v-64a8 8 0 0 1 8-8h544zM392 112a8 8 0 0 1 8 8v64a8 8 0 0 1-8 8H192v200a8 8 0 0 1-8 8H120a8 8 0 0 1-8-8V120a8 8 0 0 1 8-8h272z m512 0a8 8 0 0 1 8 8v272a8 8 0 0 1-8 8h-64a8 8 0 0 1-8-8V192H632a8 8 0 0 1-8-8V120a8 8 0 0 1 8-8h272z" p-id="13125"></path></svg>