<svg xmlns="http://www.w3.org/2000/svg" viewBox="0 0 1024 1024" version="1.1"><path d="M512 358c-85.052 0-154 68.948-154 154s68.948 154 154 154 154-68.948 154-154-68.948-154-154-154z m0 80c40.87 0 74 33.13 74 74s-33.13 74-74 74-74-33.13-74-74 33.13-74 74-74zM631.712 54a8 8 0 0 1 8 8l0.006 109.036a363.6 363.6 0 0 1 103.166 59.544L837.424 176a8 8 0 0 1 10.928 2.928l120 207.846a8 8 0 0 1-2.928 10.928l-94.32 54.46A366.52 366.52 0 0 1 876 512c0 20.286-1.66 40.184-4.85 59.566L965.424 626a8 8 0 0 1 3.132 10.554l-0.204 0.374-120 207.846a8 8 0 0 1-10.554 3.132l-0.374-0.204-94.33-54.456a363.606 363.606 0 0 1-103.376 59.718L639.712 962a8 8 0 0 1-8 8h-240a8 8 0 0 1-8-8l-0.008-109.254a363.624 363.624 0 0 1-103.034-59.694L186 847.7a8 8 0 0 1-10.928-2.928l-120-207.846A8 8 0 0 1 58 626l94.8-54.734A366.56 366.56 0 0 1 148 512c0-20.276 1.658-40.164 4.844-59.536l-94.842-54.76a8 8 0 0 1-3.132-10.556l0.204-0.374 120-207.846a8 8 0 0 1 10.554-3.13L186 176l94.88 54.774a363.62 363.62 0 0 1 102.822-59.52L383.712 62a8 8 0 0 1 8-8h240z m-71.998 79.998h-96.008l-0.006 92.61-51.794 19.51a283.554 283.554 0 0 0-78.474 45.028l-1.72 1.406-42.814 35.226-80.542-46.498-48.002 83.142 80.412 46.43-8.982 54.6A286.54 286.54 0 0 0 228 512c0 14.746 1.118 29.322 3.322 43.654l0.428 2.684 8.934 54.562-80.33 46.38 48.002 83.142 80.37-46.396 42.82 35.286a283.678 283.678 0 0 0 78.28 45.778l2.08 0.792 51.794 19.51 0.006 92.606h96.008l0.006-92.488 51.924-19.46a283.54 283.54 0 0 0 78.898-45.174l1.73-1.412 42.81-35.22 79.988 46.178 48.002-83.142-79.848-46.104 8.988-54.604A286.54 286.54 0 0 0 796 512c0-14.892-1.14-29.608-3.388-44.074l-0.434-2.71-9.038-54.642 79.932-46.152-48.004-83.142-80.158 46.28-42.804-35.16a283.652 283.652 0 0 0-78.38-45.66l-2.082-0.792-51.924-19.458L559.714 134z" p-id="12345"></path></svg>