<svg xmlns="http://www.w3.org/2000/svg" viewBox="0 0 1024 1024" version="1.1"><path d="M284 488a8 8 0 0 1 8 8v64a8 8 0 0 1-8 8H192v276h640V568h-92a8 8 0 0 1-8-8v-64a8 8 0 0 1 8-8h164a8 8 0 0 1 8 8v420a8 8 0 0 1-8 8H120a8 8 0 0 1-8-8V496a8 8 0 0 1 8-8h164zM517.656 101.666l186.678 186.678a8 8 0 0 1 0 11.312l-45.256 45.256a8 8 0 0 1-11.314 0L552 249.148V728a8 8 0 0 1-8 8h-64a8 8 0 0 1-8-8V249.146l-95.764 95.766a8 8 0 0 1-11.314 0l-45.256-45.256a8 8 0 0 1 0-11.312l186.678-186.678a8 8 0 0 1 11.312 0z" p-id="12295"></path></svg>